<?xml version="1.0" encoding="UTF-8"?>
<svg width="149.1px" height="112px" viewBox="0 0 213 156" version="1.1" xmlns="http://www.w3.org/2000/svg" xmlns:xlink="http://www.w3.org/1999/xlink">
    <!-- Generator: Sketch 58 (84663) - https://sketch.com -->
    <title>aging</title>
    <desc>Created with Sketch.</desc>
    <g id="Page-1" stroke="none" stroke-width="1" fill="none" fill-rule="evenodd">
        <g id="Artboard-Copy-9" transform="translate(-1181.000000, -354.000000)">
            <g id="aging" transform="translate(1172.000000, 349.000000)">
                <g id="Aging-Health-Care" transform="translate(183.000000, 103.500000) rotate(3.000000) translate(-183.000000, -103.500000) translate(139.000000, 42.000000)" stroke="#979797">
                    <path d="M63.4597452,4.24225069 C63.4920218,5.16813957 62.3770159,6.36591662 63.6009554,8.29301455 C64.8248948,10.2201125 69.3821163,18.1721012 71.2563539,22.1622412 C73.1305916,26.1523811 72.1003118,29.7806165 73.6077711,33.2042007 C75.1152304,36.6277848 77.0056063,41.0808692 78.2335803,43.1237033 C79.2327297,44.785869 79.0170463,48.9454136 79.5164217,51.9769016 C77.9677659,53.8004252 76.6456987,55.0703511 75.5501293,55.7857672 C72.6655919,57.6693943 70.6886779,58.8800784 69.6193872,59.4178194 C71.98337,59.4986677 74.0796971,59.1829681 75.9083685,58.4707206 C77.3832267,57.8962795 78.956778,56.8650834 80.6290226,55.3771324 C81.321805,57.0283675 81.6411933,57.9225181 81.7432844,60.8460244 C81.7738783,61.7221202 81.8097426,63.4928699 81.8174387,65.7698308 C79.8572606,73.9711383 77.7154749,79.3642312 75.3926899,81.9494078 C72.2806383,85.4130099 70.0903134,87.6969514 68.8217151,88.8012322 C72.5357367,87.781078 75.5517772,86.4428095 77.8698365,84.7864265 C79.1019581,83.9060067 80.2582821,82.7833891 81.3388085,81.4185735 C81.0468588,85.1923206 80.5904034,88.5599952 79.8877568,90.5755085 C77.6793856,96.9101319 75.8267884,96.8590613 76.0244826,102.530131 C76.2221769,108.2012 66.2769842,114.922346 62.9264644,115.039553 C59.5759447,115.156759 54.8515453,110.07088 53.234053,110.127462 C51.6165607,110.184045 49.966667,111.199285 48.8883388,111.237007 C47.2708465,111.293589 44.7203234,117.066958 42.800606,118.408762 C40.8808886,119.750566 24.246392,117.087903 18.7219764,111.255539 C13.1975609,105.423175 6.59664956,88.6201292 6.10039661,74.3845876 C6.00211522,71.5652819 5.97471367,68.957112 6.02384744,66.5418776 C6.65217653,67.8014853 7.39933318,68.9156673 8.26489033,69.8850624 C9.97787777,71.8035512 12.4133925,73.685194 15.5714344,75.5299908 C14.6840319,74.3312647 13.2473639,71.9777243 11.2614302,68.4693694 C9.27549662,64.9610146 8.86405777,57.7551229 10.0271137,46.8516943 L9.96199833,46.8010661 C10.2151295,46.3453682 10.481385,45.9066445 10.7610446,45.4839942 C14.6070811,39.671469 14.9577211,39.7750803 16.151951,37.5316367 C16.926825,36.075982 19.8185764,31.0825549 23.1986842,26.5967195 C23.2154917,26.6599805 23.2334157,26.7240124 23.2515839,26.7881115 C23.3490969,30.2902185 23.8223402,33.0402603 24.6713138,35.0382368 C25.5202875,37.0362134 26.8409683,38.8700621 28.6333565,40.539783 C28.2210621,39.2609401 27.609016,36.699223 26.7972181,32.8546317 C26.350595,30.7394705 26.3621346,27.213075 26.8318368,22.2754451 C27.513807,21.5675516 28.1930285,20.933645 28.8575158,20.4008535 C34.1464583,16.1601347 40.5504067,10.7216389 47.3104973,8.86287931 C54.0705879,7.00411972 57.1108133,7.94066326 59.1460659,6.59481736 C61.1813185,5.24897145 63.4274686,3.31636181 63.4597452,4.24225069 Z" id="Combined-Shape" fill="#314725" transform="translate(43.908722, 61.375000) rotate(6.000000) translate(-43.908722, -61.375000) "></path>
                    <path d="M51.8918629,49.1385973 C51.9103391,49.6683201 51.2720727,50.3535965 51.9726963,51.4561346 C52.6733198,52.5586726 55.2820244,57.1081924 56.3549001,59.3910453 C57.4277759,61.6738982 56.8380096,63.7496969 57.7009293,65.7084099 C58.5638489,67.667123 59.6459628,70.2148373 60.3488958,71.3835906 C60.6364593,71.861717 60.7482311,72.7010298 60.8246197,73.6379045 L60.7866444,73.6706054 C59.2222692,75.0358035 57.9834297,75.9041459 57.070126,76.2756326 C55.2435185,77.0186059 54.0004216,77.4827281 53.3408351,77.6679994 C54.6603641,77.9714721 55.8728061,78.0230197 56.9781612,77.8226423 C58.0835164,77.6222648 59.3508253,77.0440929 60.780088,76.0881263 C60.8615397,76.0618463 60.9422468,76.0350077 61.0222091,76.0076105 C61.090739,76.5773435 61.1919408,77.0998857 61.3573156,77.5138707 C62.0102791,79.1484439 62.2839735,79.4040592 62.3579667,81.5229473 C62.400976,82.754571 62.4622275,87.0766143 62.2577229,91.1920254 C59.9993792,93.4995111 58.1435011,94.9187399 56.6892192,95.4495008 C54.1854875,96.3632733 52.464646,96.928706 51.5266947,97.145799 C53.6780243,97.6280332 55.5620648,97.7620956 57.1788161,97.5479862 C58.6673112,97.3508619 60.2361464,96.7255898 61.8853217,95.6721699 C61.7350348,96.8322389 61.5417702,97.8267139 61.2958013,98.5318843 C60.0316564,102.156071 58.9711683,102.126853 59.0843351,105.371405 C59.1975018,108.615957 53.5045438,112.461283 51.5865953,112.528339 C49.6686467,112.595396 47.9551951,110.931604 47.0292889,110.963976 C46.1033827,110.996348 45.633501,110.813888 45.677382,112.07198 C45.721263,113.330071 45.7951678,115.448962 45.8298131,116.442262 L44.1764067,116.5 L44.0470733,112.79194 C44.119858,112.347422 43.8476149,112.135953 43.2303441,112.157534 C42.3044379,112.189906 41.1647967,113.688265 40.0658868,114.455943 C38.9669769,115.223621 29.4448396,113.700249 26.282481,110.363416 C23.1201224,107.026583 19.3418817,97.4131539 19.0574703,89.2686777 C18.9403751,85.9155077 18.998741,83.0843695 19.2615818,80.6817157 C19.2888714,80.7100742 19.3166169,80.7380641 19.3445763,80.7660569 C20.1386939,82.4003645 21.0872233,83.6371378 22.1901645,84.4763768 C23.2931057,85.3156158 24.748988,86.0223434 26.5578116,86.5965595 C25.9592539,86.0439956 24.9354275,84.9120189 23.4863325,83.2006295 C22.3537055,81.8629907 21.3976924,79.0782492 20.6182932,74.8464051 C20.9354085,74.0713462 21.3037931,73.3707689 21.7253797,72.7339686 L22.0836597,72.1961606 C23.9514945,69.4108762 24.1667603,69.3944203 24.8113133,68.1842379 C25.49493,66.900711 29.0568337,60.8095289 32.0843997,58.383314 C32.3692565,58.1550369 32.6597636,57.9206934 32.9555591,57.6825602 C33.0836723,59.3934053 33.4088448,60.7492124 33.9316586,61.7446518 C34.4544725,62.7400911 35.2414978,63.6649167 36.2927346,64.5191283 C36.0324738,63.8846803 35.6324429,62.6181914 35.0926418,60.7196615 C34.8224845,59.7694936 34.7433296,58.255527 34.8551772,56.1777615 C37.244203,54.3321758 39.89425,52.5387933 42.647498,51.7821676 C46.517198,50.7187275 48.2575238,51.2545461 49.4225699,50.484556 C50.5876159,49.7145659 51.8733867,48.6088745 51.8918629,49.1385973 Z" id="Combined-Shape" fill="#33790F"></path>
                </g>
                <text id="Aging-Health-Care" font-family="Helvetica-Light, Helvetica" font-size="16" font-weight="300" line-spacing="25" fill="#FFFFFF">
                    <tspan x="9.808" y="15">Aging Health Care</tspan>
                </text>
                <polyline id="Path-17-Copy-6" stroke="#FFFFFF" transform="translate(176.000000, 31.500000) scale(-1, -1) translate(-176.000000, -31.500000) " points="156 15 156 48 196 48"></polyline>
            </g>
        </g>
    </g>
</svg>
