<?xml version="1.0" encoding="UTF-8"?>
<svg width="272px" height="407px" viewBox="0 0 272 407" version="1.1" xmlns="http://www.w3.org/2000/svg" xmlns:xlink="http://www.w3.org/1999/xlink">
    <!-- Generator: Sketch 58 (84663) - https://sketch.com -->
    <title>Combined Shape</title>
    <desc>Created with Sketch.</desc>
    <g id="Page-1" stroke="none" stroke-width="1" fill="none" fill-rule="evenodd">
        <g id="Artboard-Copy-9" transform="translate(-588.000000, -357.000000)" fill="#33790F" stroke="#979797">
            <g id="Rising-Incomes" transform="translate(720.000000, 516.500000) rotate(-13.000000) translate(-720.000000, -516.500000) translate(532.000000, 254.000000)">
                <path d="M240.351177,112.831584 C240.462034,116.009921 236.632436,120.121579 240.836178,126.736807 C245.039919,133.352036 260.692146,160.649154 267.129401,174.346272 C273.566655,188.043389 270.028058,200.498182 275.205576,212.25046 C280.383094,224.002738 286.875777,239.289024 291.093375,246.301544 C292.818448,249.16979 293.489147,254.20438 293.947472,259.824415 C284.453511,268.130678 276.944727,273.406918 271.420756,275.653795 C260.461111,280.111635 253.00253,282.896369 249.045011,284.007997 C256.962184,285.828832 264.236837,286.138118 270.868967,284.935854 C277.501098,283.733589 285.104952,280.264557 293.680528,274.528758 C294.16541,274.372313 294.645894,274.212569 295.12198,274.049525 C295.543992,277.46178 296.151284,280.598411 297.143894,283.083224 C301.061675,292.890663 302.703841,294.424355 303.1478,307.137684 C303.40583,314.526682 303.773291,340.454467 302.546708,365.144699 C288.999576,378.994542 277.8623,387.511968 269.135315,390.697005 C254.112925,396.17964 243.787876,399.572236 238.160168,400.874794 C251.068146,403.768199 262.372389,404.572574 272.072897,403.287917 C281.00539,402.10497 290.420089,398.352259 300.316992,392.029786 C299.410462,398.992133 298.250782,404.959822 296.774808,409.191306 C289.189938,430.936428 282.82701,430.761115 283.50601,450.228428 C284.185011,469.695741 250.027263,492.767697 238.519572,493.170035 C227.01188,493.572374 216.731171,483.589623 211.175733,483.783855 C205.620296,483.978088 202.801006,482.883328 203.064292,490.431878 C203.327578,497.980428 203.771007,510.693775 203.978878,516.653571 L194.05844,517 L193.28244,494.751642 C193.719148,492.08453 192.08569,490.815718 188.382065,490.945206 C182.826628,491.139439 175.98878,500.129592 169.395321,504.735659 C162.801861,509.341726 105.669038,500.201493 86.6948861,480.180496 C67.7207346,460.159499 45.0512903,402.478924 43.3448221,353.612066 C42.642288,333.494122 42.9924086,316.508033 44.5692381,302.092606 C44.7336457,302.260866 44.8999118,302.428595 45.0674576,302.596342 C49.8321634,312.402187 55.5233399,319.822827 62.140987,324.858261 C68.758634,329.893695 77.4939281,334.13406 88.3468693,337.579357 C84.7555232,334.263973 78.612565,327.472113 69.9179949,317.203777 C63.121028,309.176521 57.3841205,292.463571 52.7072724,267.064926 C54.6146178,262.423957 56.8239986,258.222741 59.3522785,254.403811 C72.5618711,234.450917 73.7661791,234.806588 77.8678796,227.105427 C81.9695801,219.404266 103.341002,182.857173 121.506398,168.299884 C122.78943,167.271695 124.091566,166.222994 125.411889,165.159559 L126.738,164.091 L126.79646,164.831608 C127.600327,174.765823 129.531491,182.64459 132.589952,188.467911 C135.726835,194.440547 140.448987,199.9895 146.756408,205.11477 C145.194843,201.308082 142.794657,193.709148 139.555851,182.317969 C137.934636,176.616009 137.459819,167.530125 138.1314,155.060317 C152.471843,143.988572 168.368941,133.231814 184.884988,128.693006 C208.103188,122.312365 218.545143,125.527277 225.535419,120.907336 C232.525695,116.287396 240.24032,109.653247 240.351177,112.831584 Z" id="Combined-Shape"></path>
            </g>
        </g>
    </g>
</svg>