<?xml version="1.0" encoding="UTF-8"?>
<svg width="1440px" height="393px" viewBox="0 0 1440 393" version="1.1" xmlns="http://www.w3.org/2000/svg" xmlns:xlink="http://www.w3.org/1999/xlink">
    <!-- Generator: Sketch 58 (84663) - https://sketch.com -->
    <title>Group 3</title>
    <desc>Created with Sketch.</desc>
    <defs>
        <linearGradient x1="3.62268199%" y1="48.9710687%" x2="100%" y2="50.2499363%" id="linearGradient-1">
            <stop stop-color="#C09D5D" offset="0%"></stop>
            <stop stop-color="#A98A9C" offset="100%"></stop>
        </linearGradient>
        <linearGradient x1="-2.15064136%" y1="49.4436267%" x2="100%" y2="50%" id="linearGradient-2">
            <stop stop-color="#EEC874" offset="0%"></stop>
            <stop stop-color="#98776C" offset="46.1341815%"></stop>
            <stop stop-color="#F6D180" offset="100%"></stop>
        </linearGradient>
        <linearGradient x1="-20.1675135%" y1="51.4253648%" x2="100%" y2="52.4326912%" id="linearGradient-3">
            <stop stop-color="#373737" offset="0%"></stop>
            <stop stop-color="#745971" offset="100%"></stop>
        </linearGradient>
        <linearGradient x1="175.850485%" y1="-110.102773%" x2="175.850485%" y2="657.423659%" id="linearGradient-4">
            <stop stop-color="#786676" offset="0%"></stop>
            <stop stop-color="#3F3A3E" offset="100%"></stop>
        </linearGradient>
        <linearGradient x1="175.850485%" y1="-110.102773%" x2="175.850485%" y2="657.423659%" id="linearGradient-5">
            <stop stop-color="#786676" offset="0%"></stop>
            <stop stop-color="#3F3A3E" offset="100%"></stop>
        </linearGradient>
        <linearGradient x1="175.850485%" y1="-110.102773%" x2="175.850485%" y2="657.423659%" id="linearGradient-6">
            <stop stop-color="#786676" offset="0%"></stop>
            <stop stop-color="#3F3A3E" offset="100%"></stop>
        </linearGradient>
        <linearGradient x1="175.850485%" y1="-110.102773%" x2="175.850485%" y2="657.423659%" id="linearGradient-7">
            <stop stop-color="#786676" offset="0%"></stop>
            <stop stop-color="#3F3A3E" offset="100%"></stop>
        </linearGradient>
        <linearGradient x1="175.850485%" y1="-110.102773%" x2="175.850485%" y2="657.423659%" id="linearGradient-8">
            <stop stop-color="#786676" offset="0%"></stop>
            <stop stop-color="#3F3A3E" offset="100%"></stop>
        </linearGradient>
        <linearGradient x1="376.028763%" y1="-152.658681%" x2="-90.9727465%" y2="380.321665%" id="linearGradient-9">
            <stop stop-color="#624F42" offset="0%"></stop>
            <stop stop-color="#988869" offset="100%"></stop>
        </linearGradient>
        <linearGradient x1="64.9707085%" y1="-152.658681%" x2="43.5267616%" y2="380.321665%" id="linearGradient-10">
            <stop stop-color="#624F42" offset="0%"></stop>
            <stop stop-color="#988869" offset="100%"></stop>
        </linearGradient>
    </defs>
    <g id="Page-1" stroke="none" stroke-width="1" fill="none" fill-rule="evenodd">
        <g id="Artboard-Copy-8" transform="translate(0.000000, -507.000000)">
            <g id="Group-3" transform="translate(0.000000, 507.000000)">
                <g id="Group-2" opacity="0.630859375">
                    <path d="M1453,99 C1436,103 1422.5,106.5 1412.5,109.5 C1397.5,114 1359,121 1324,121 C1289,121 1226,115 1207,110 C1194.33333,106.666667 1158.83333,106.5 1100.5,109.5 L1037,121 C1175.66667,159.333333 1258.66667,180.5 1286,184.5 C1327,190.5 1458,202.5 1489,193.5 C1520,184.5 1541.5,171 1528,152.5 C1514.5,134 1503.5,127 1485.5,115.5 C1473.5,107.833333 1462.66667,102.333333 1453,99 Z" id="Path-10" stroke="#979797" fill="url(#linearGradient-1)"></path>
                    <path d="M702,1.03636364 C751.666667,0.0363636364 792,4.53636364 823,14.5363636 C869.5,29.5363636 1038.5,122.036364 1124,137.036364 C1209.5,152.036364 1183.5,145.536364 1229,155.536364 C1274.5,165.536364 1326,176.536364 1376,182.036364 C1426,187.536364 1510.5,181.036364 1510.5,149.036364 C1510.5,117.036364 1451,114.536364 1444.5,109.536364 C1438,104.536364 1453,98.0363636 1459.5,98.0363636 C1466,98.0363636 1534,112.036364 1575,124.536364 C1602.33333,132.869697 1614.66667,141.036364 1612,149.036364 L1612,392.536364 L1046.5,392.536364 L699,196.536364 L702,1.03636364 Z" id="Path-8" fill="url(#linearGradient-2)"></path>
                    <path d="M310,148 C461.5,57.5 700.026191,2.07186101 701.5,1 C708.883033,1 713,1 717.5,5 C722,9 715.5,17 711.5,21.5 C707.5,26 706,31.5 711.5,38.5 C717,45.5 736.5,60.5 750.5,68.5 C764.5,76.5 819.5,109 876,126 C932.5,143 1024,172 1052,177.5 C1080,183 1177.5,199 1192.5,217.5 C1207.5,236 1192.5,242.5 1192.5,252.5 C1192.5,262.5 1202,267.5 1202,288.5 C1202,309.5 1172.5,338 1153.5,348.5 C1134.5,359 1067,392.5 1059.5,392.5 C1054.5,392.5 701.333333,392.666667 0,393 C105.666667,290 209,208.333333 310,148 Z" id="Path-7" fill="url(#linearGradient-3)"></path>
                </g>
                <g id="robotic" transform="translate(485.264527, 61.154658)" fill-rule="nonzero">
                    <path d="M140.735473,180.845342 C124.167035,180.845342 110.735473,193.157608 110.735473,208.345342 C110.735473,223.533077 124.167035,235.845342 140.735473,235.845342 C157.30391,235.845342 170.735473,223.533077 170.735473,208.345342 C170.735473,193.157608 157.30391,180.845342 140.735473,180.845342 Z M140.735473,222.095342 C132.450785,222.095342 125.735473,215.939639 125.735473,208.345342 C125.776723,200.778545 132.480785,194.664092 140.735473,194.664092 L140.735473,194.595342 C149.02016,194.595342 155.735473,200.751045 155.735473,208.345342 C155.735473,215.939639 149.02016,222.095342 140.735473,222.095342 Z" id="Shape" fill="url(#linearGradient-4)" transform="translate(140.735473, 208.345342) rotate(-62.000000) translate(-140.735473, -208.345342) "></path>
                    <path d="M181.735473,104.845342 C165.167035,104.845342 151.735473,117.157608 151.735473,132.345342 C151.735473,147.533077 165.167035,159.845342 181.735473,159.845342 C198.30391,159.845342 211.735473,147.533077 211.735473,132.345342 C211.735473,117.157608 198.30391,104.845342 181.735473,104.845342 Z M181.735473,146.095342 C173.450785,146.095342 166.735473,139.939639 166.735473,132.345342 C166.776723,124.778545 173.480785,118.664092 181.735473,118.664092 L181.735473,118.595342 C190.02016,118.595342 196.735473,124.751045 196.735473,132.345342 C196.735473,139.939639 190.02016,146.095342 181.735473,146.095342 Z" id="Shape" fill="url(#linearGradient-4)" transform="translate(181.735473, 132.345342) rotate(-62.000000) translate(-181.735473, -132.345342) "></path>
                    <path d="M281.077647,180.468993 C277.94996,164.603337 264.096449,152.398986 246.763704,150.238791 C241.979757,133.932909 228.20779,120.032813 200.518888,120.032813 L158.478147,120.032813 L158.478147,105.330789 C171.193659,101.640247 178.256323,89.1443613 174.252486,77.4220029 C170.249555,65.6988091 156.695946,59.187316 143.98134,62.8786936 C131.265828,66.5692358 124.203164,79.0651212 128.207001,90.7874796 C130.574511,97.7191499 136.462933,103.148875 143.98134,105.330789 L143.98134,119.698676 L102.013083,119.698676 C82.4423928,119.698676 61.8569264,127.985272 55.6232993,149.904654 C33.5328831,152.700544 18.0829107,171.477368 21.1154616,191.843849 C23.492938,207.813087 36.7493622,220.556234 53.9561664,223.414775 L53.8836824,223.748912 C56.0582035,253.086134 79.6879994,263.845342 101.940599,263.845342 L200.518888,263.845342 C233.644093,263.845342 246.908672,243.797127 248.575805,223.748912 C270.513098,220.071735 285.065175,200.695136 281.077647,180.468993 Z M53.6653242,210.383436 C39.9749018,206.73466 32.0841084,193.544606 36.0408307,180.922584 C38.5007577,173.076213 45.1547923,166.94146 53.6653242,164.673505 L53.6653242,210.383436 Z M141.588461,84.4806452 C141.588461,79.5721739 145.904885,75.5926032 151.228837,75.5926032 C156.55279,75.5926032 160.869214,79.5721739 160.869214,84.4806452 C160.869214,89.3891166 156.55279,93.3686872 151.228837,93.3686872 C145.904885,93.3686872 141.588461,89.3891166 141.588461,84.4806452 Z M234.295543,218.937341 C234.295543,230.565305 229.874017,250.078901 200.517982,250.078901 L102.012177,250.078901 C89.3999542,250.078901 68.2346156,246.002431 68.2346156,218.937341 L68.1621315,164.673505 C68.1621315,137.541588 89.3274702,133.531945 101.939693,133.531945 L200.517982,133.531945 C229.946501,133.531945 234.295543,153.045541 234.295543,164.673505 L234.295543,218.937341 L234.295543,218.937341 Z M248.502414,209.915644 L248.502414,164.205714 C259.552606,167.146119 267.170678,176.457679 267.203296,187.060679 C267.170678,197.663678 259.552606,206.975239 248.502414,209.915644 Z" id="Shape" fill="url(#linearGradient-5)" transform="translate(151.235473, 162.845342) rotate(-62.000000) translate(-151.235473, -162.845342) "></path>
                    <path d="M248.443806,188.845342 L165.027139,188.845342 C161.000316,188.845342 157.735473,191.755717 157.735473,195.345342 C157.735473,198.934967 161.000316,201.845342 165.027139,201.845342 L248.443806,201.845342 C252.470629,201.845342 255.735473,198.934967 255.735473,195.345342 C255.735473,191.755717 252.470629,188.845342 248.443806,188.845342 Z" id="Path" fill="url(#linearGradient-6)" transform="translate(206.735473, 195.345342) rotate(-62.000000) translate(-206.735473, -195.345342) "></path>
                    <path d="M478.735473,177.685658 L478.735473,177.685658 C478.596261,163.461133 465.839754,152.032222 450.242604,152.159182 C437.191296,152.265397 425.919712,160.512834 422.978073,172.109365 L403.543052,175.561356 L230.010883,175.561356 L210.575862,172.109365 C207.245704,158.211783 192.193572,149.407547 176.954914,152.444635 C161.716257,155.481723 152.062438,169.209195 155.392596,183.106777 C157.656375,192.553282 165.529561,200.048085 175.78208,202.514267 L175.78208,252.103441 C163.468684,255.099039 154.880334,265.242581 154.818462,276.864836 L154.818462,288.614882 C154.818462,292.280962 158.07765,295.253325 162.097496,295.253325 C166.117343,295.253325 169.37653,292.280962 169.37653,288.614882 L169.37653,276.798452 C169.37653,269.906088 175.503657,264.318178 183.061114,264.318178 C190.618571,264.318178 196.745698,269.906088 196.745698,276.798452 L196.745698,288.614882 C196.745698,292.280962 200.004885,295.253325 204.024732,295.253325 C208.044578,295.253325 211.303766,292.280962 211.303766,288.614882 L211.303766,276.798452 C211.241894,265.176197 202.653544,255.032655 190.340148,252.037057 L190.340148,202.447883 C199.587251,200.175875 206.935435,193.773926 209.847959,185.453467 L222.003945,187.644153 L222.003945,269.562548 C222.018503,281.572323 224.795455,293.445179 230.156463,304.414378 L230.156463,305.011838 C251.646901,348.457962 307.687274,367.78911 355.324911,348.189935 C376.348581,339.540043 393.184987,324.186152 402.669568,305.011838 L403.03352,304.281609 C408.451851,293.368837 411.303412,281.54162 411.404409,269.562548 L411.404409,187.644153 L423.560395,185.453467 C426.472919,193.773926 433.821104,200.175875 443.068206,202.447883 L443.068206,252.037057 C430.754811,255.032655 422.16646,265.176197 422.104589,276.798452 L422.104589,288.614882 C422.104589,292.280962 425.363776,295.253325 429.383623,295.253325 C433.403469,295.253325 436.662657,292.280962 436.662657,288.614882 L436.662657,276.798452 C436.669936,269.906088 442.802522,264.323157 450.359979,264.329795 C457.907427,264.336434 464.024545,269.915216 464.031824,276.798452 L464.031824,288.614882 C464.031824,292.280962 467.291012,295.253325 471.310858,295.253325 C475.330705,295.253325 478.589892,292.280962 478.589892,288.614882 L478.589892,276.798452 C478.52802,265.176197 469.93967,255.032655 457.626274,252.037057 L457.626274,202.447883 C469.996992,199.502073 478.655403,189.345254 478.735473,177.685658 Z M183.061114,190.165932 C175.503657,190.165932 169.37653,184.578022 169.37653,177.685658 C169.37653,170.793294 175.503657,165.205384 183.061114,165.205384 C190.618571,165.205384 196.745698,170.793294 196.745698,177.685658 C196.745698,184.578022 190.618571,190.165932 183.061114,190.165932 Z M316.776967,342.650983 C289.354117,342.650154 263.838373,329.851234 249.154742,308.728536 L384.399193,308.728536 C369.715562,329.850404 344.199818,342.650154 316.776967,342.650983 Z M396.846341,269.628103 C396.810856,278.480468 395.010205,287.253171 391.532646,295.518033 L241.875708,295.518033 C238.39815,287.253171 236.597499,278.480468 236.562013,269.628103 L236.562013,188.838243 L396.846341,188.838243 L396.846341,269.628103 Z M450.568341,190.164272 C450.542864,190.164272 450.518298,190.165102 450.492821,190.165102 L450.34724,189.965949 C442.789783,189.965949 436.662657,184.378039 436.662657,177.485675 C436.662657,170.593311 442.789783,165.005401 450.34724,165.005401 C457.904697,165.005401 464.031824,170.593311 464.031824,177.485675 C464.152838,184.378039 458.124888,190.053908 450.568341,190.164272 Z" id="Shape" fill="url(#linearGradient-7)" transform="translate(316.735473, 253.845342) rotate(-62.000000) translate(-316.735473, -253.845342) "></path>
                    <path d="M330.360203,241.217216 C329.042129,240.100505 327.330883,239.480486 325.554858,239.476262 L303.961846,239.476262 L330.449274,213.932145 C332.99545,211.066034 332.586082,206.805302 329.53337,204.41392 C326.803654,202.275952 322.820643,202.329169 320.156605,204.538937 L281.79302,241.57115 C279.010221,244.236219 279.056106,248.51469 281.894687,251.127387 C283.250548,252.375028 285.076957,253.069382 286.975343,253.059246 L309.144169,253.059246 L281.864997,281.576753 C279.209056,284.340653 279.433983,288.601385 282.368834,291.105114 L282.368834,291.105114 C285.312681,293.598706 289.850812,293.387528 292.517549,290.632075 L330.881134,250.761627 C333.544272,247.990968 333.311248,243.717566 330.360203,241.217216 Z" id="Path" fill="url(#linearGradient-8)" transform="translate(306.235473, 247.845342) rotate(-62.000000) translate(-306.235473, -247.845342) "></path>
                </g>
                <g id="robotic-arm" transform="translate(1193.000000, 153.000000)" fill-rule="nonzero" opacity="0.690848214">
                    <path d="M84.3567791,97.6880312 C74.4163493,97.6880312 66.3567791,105.747601 66.3567791,115.688031 C66.3567791,125.628461 74.4163493,133.688031 84.3567791,133.688031 C94.2972089,133.688031 102.356779,125.628461 102.356779,115.688031 C102.344474,105.751117 94.2936931,97.700336 84.3567791,97.6880312 Z M84.3567791,126.488031 C78.3925214,126.488031 73.5567791,121.652289 73.5567791,115.688031 C73.5567791,109.723773 78.3925214,104.888031 84.3567791,104.888031 C90.3210368,104.888031 95.1567791,109.723773 95.1567791,115.688031 C95.1567791,121.652289 90.3210368,126.488031 84.3567791,126.488031 Z" id="Shape" fill="url(#linearGradient-9)" transform="translate(84.356779, 115.688031) rotate(24.000000) translate(-84.356779, -115.688031) "></path>
                    <path d="M177.768128,93.6340697 C187.708558,93.6340697 195.768128,85.5744995 195.768128,75.6340697 C195.768128,65.6936399 187.708558,57.6340697 177.768128,57.6340697 C167.827699,57.6340697 159.768128,65.6936399 159.768128,75.6340697 C159.780433,85.5709836 167.831214,93.6217649 177.768128,93.6340697 Z M177.768128,64.8340697 C183.732386,64.8340697 188.568128,69.669812 188.568128,75.6340697 C188.568128,81.5983274 183.732386,86.4340697 177.768128,86.4340697 C171.803871,86.4340697 166.968128,81.5983274 166.968128,75.6340697 C166.968128,69.669812 171.803871,64.8340697 177.768128,64.8340697 Z" id="Shape" fill="url(#linearGradient-9)" transform="translate(177.768128, 75.634070) rotate(24.000000) translate(-177.768128, -75.634070) "></path>
                    <path d="M232.977772,140.022524 L232.977772,128.096189 C232.950558,119.343634 226.419312,111.977268 217.734795,110.898932 L180.539005,68.7723692 C180.661466,67.6498106 180.724398,66.5238505 180.727799,65.3961893 C180.727799,48.0815734 166.692423,34.0461893 149.377816,34.0461893 C132.063209,34.0461893 118.027832,48.0815734 118.027832,65.3961893 C118.027832,65.9506654 118.08396,66.4898336 118.111173,67.0341044 L77.8538623,107.289736 C65.2267856,108.009194 54.2767427,116.265102 50.1079704,128.206744 C45.939198,140.148387 49.3749059,153.425193 58.8111965,161.846084 L58.8111965,215.179523 L37.9112074,215.179523 C35.9875511,215.179523 34.4278759,216.739199 34.4278759,218.662856 L34.4278759,239.562856 C34.4278759,241.486513 35.9875511,243.046189 37.9112074,243.046189 L170.277805,243.046189 C172.201461,243.046189 173.761136,241.486513 173.761136,239.562856 L173.761136,218.662856 C173.761136,216.739199 172.201461,215.179523 170.277805,215.179523 L100.611175,215.179523 L100.611175,161.846084 C108.606849,154.807981 112.398033,144.136871 110.635958,133.630744 L147.602133,96.6560445 C148.194027,96.6900615 148.779118,96.7461893 149.377816,96.7461893 C151.150096,96.735984 152.917275,96.5744039 154.662343,96.2648496 L198.144457,130.535203 L198.144457,140.029327 C191.807106,142.796604 187.706368,149.048916 187.694462,155.962856 L187.694462,190.796189 C187.687659,192.007192 188.310168,193.133152 189.337479,193.772671 C190.366491,194.412189 191.65233,194.471718 192.734068,193.930849 L206.667394,186.964183 C207.854583,186.372288 208.601255,185.156183 208.594451,183.829523 L208.594451,159.446189 L222.527777,159.446189 L222.527777,183.829523 C222.520974,185.156183 223.267645,186.372288 224.454835,186.964183 L238.388161,193.930849 C239.469899,194.471718 240.755738,194.412189 241.784749,193.772671 C242.812061,193.133152 243.43457,192.007192 243.427822,190.796189 L243.427822,155.962856 C243.419262,149.045514 239.316823,142.789801 232.977772,140.022524 Z M149.377816,41.0128559 C162.84511,41.0128559 173.761136,51.9288876 173.761136,65.3961893 C173.761136,78.8634909 162.84511,89.7795226 149.377816,89.7795226 C135.910521,89.7795226 124.994495,78.8634909 124.994495,65.3961893 C125.009803,51.9356914 135.917325,41.0281634 149.377816,41.0128559 Z M166.794473,236.079523 L41.394539,236.079523 L41.394539,222.146189 L166.794473,222.146189 L166.794473,236.079523 Z M93.6445116,215.179523 L65.7778595,215.179523 L65.7778595,166.586342 C74.5440168,170.996637 84.8783543,170.996637 93.6445116,166.586342 L93.6445116,215.179523 Z M79.7111855,162.929523 C66.243891,162.929523 55.327865,152.013491 55.327865,138.546189 C55.327865,125.078888 66.243891,114.162856 79.7111855,114.162856 C93.1784801,114.162856 104.094506,125.078888 104.094506,138.546189 C104.079199,152.006687 93.1716763,162.914215 79.7111855,162.929523 Z M108.418055,126.005849 C104.453385,116.999868 96.5002312,110.368268 86.927873,108.084031 L119.67255,75.341038 C122.798704,84.6242572 130.069818,91.9208883 139.342827,95.0776591 L108.418055,126.005849 Z M178.487786,76.9721498 L209.31561,111.888824 C204.541336,113.746149 200.82669,117.612172 199.161563,122.456183 L162.705641,93.7288876 C169.891713,90.3356995 175.530016,84.3487203 178.487786,76.9721498 Z M205.11112,128.096189 C205.11112,122.325218 209.790146,117.646189 215.561114,117.646189 C221.332083,117.646189 226.011109,122.325218 226.011109,128.096189 L226.011109,138.546189 L205.11112,138.546189 L205.11112,128.096189 Z M236.461103,185.159585 L229.49444,181.676251 L229.49444,155.962856 C229.49444,154.039199 227.934765,152.479523 226.011109,152.479523 L205.11112,152.479523 C203.187464,152.479523 201.627788,154.039199 201.627788,155.962856 L201.627788,181.676251 L194.661125,185.159585 L194.661125,155.962856 C194.661125,150.191884 199.340151,145.512856 205.11112,145.512856 L226.011109,145.512856 C231.782077,145.512856 236.461103,150.191884 236.461103,155.962856 L236.461103,185.159585 Z" id="Shape" fill="url(#linearGradient-9)" transform="translate(138.927876, 138.546189) rotate(24.000000) translate(-138.927876, -138.546189) "></path>
                    <path d="M58.4004625,148.584402 C56.7437241,148.584402 55.4004625,150.151541 55.4004625,152.084402 L55.4004625,173.084402 C55.4004625,175.017264 56.7437241,176.584402 58.4004625,176.584402 C60.0572009,176.584402 61.4004625,175.017264 61.4004625,173.084402 L61.4004625,152.084402 C61.4004625,150.151541 60.0572009,148.584402 58.4004625,148.584402 Z" id="Path" fill="url(#linearGradient-10)" transform="translate(58.400463, 162.584402) rotate(24.000000) translate(-58.400463, -162.584402) "></path>
                    <path d="M134.311608,82.2061863 L119.644801,96.8729924 C118.692318,97.7932483 118.309177,99.1575193 118.645768,100.439433 C118.98057,101.721346 119.981393,102.722169 121.263306,103.056971 C122.54522,103.393562 123.909491,103.01042 124.829747,102.057937 L139.496553,87.3911314 C140.885889,85.9516646 140.866194,83.6653474 139.451793,82.2509457 C138.037392,80.8365445 135.751074,80.8168502 134.311608,82.2061863 Z" id="Path" fill="url(#linearGradient-9)" transform="translate(129.525713, 92.177026) rotate(24.000000) translate(-129.525713, -92.177026) "></path>
                </g>
            </g>
        </g>
    </g>
</svg>