<?xml version="1.0" encoding="UTF-8"?>
<svg width="381px" height="365px" viewBox="0 0 381 365" version="1.1" xmlns="http://www.w3.org/2000/svg" xmlns:xlink="http://www.w3.org/1999/xlink">
    <!-- Generator: Sketch 58 (84663) - https://sketch.com -->
    <title>Group 3</title>
    <desc>Created with Sketch.</desc>
    <g id="Page-1" stroke="none" stroke-width="1" fill="none" fill-rule="evenodd">
        <g id="Artboard" transform="translate(-800.000000, -1684.000000)">
            <g id="Group-3" transform="translate(801.000000, 1685.000000)">
                <g id="Group-2">
                    <path d="M141,328 C145,323.5 145.068728,323.665996 148,317.5 C155.116745,302.529769 156.38055,287.359898 157.067009,270.451936 C157.646147,256.208806 154.658153,241.835636 153.543052,227.499834 C152.890963,219.104025 152.442839,210.664869 152.5277,202.251124 C152.584273,196.62502 151.166949,192.483168 146.73781,188.613353 C128.226241,172.439053 108.449204,157.497891 94.3905947,136.778165 C93.7667932,135.858916 93.1534133,134.933688 92.9613598,133.610866 C108.053187,147.786734 121.087511,164.40347 142.448616,174.30595 C136.815049,154.457643 124.653154,139.434272 120.599189,121.406526 C121.620496,120.937186 122.643292,120.46934 123.666088,120 C131.104065,134.999455 138.542041,149.997416 146.154205,165.346634 C150.544636,161.177877 153.669599,157.282652 152.365422,150.874813 C152.043844,149.29789 155.013973,147.045356 156.471495,145.103722 C158.12107,146.795739 161.45744,149.006421 161.126929,150.087099 C159.751291,154.578715 157.473448,158.846123 155.146475,162.979007 C152.104884,168.379409 148.259349,173.376238 145.761166,178.996363 C145.109077,180.462678 147.596839,184.498405 149.629033,185.791333 C156.008482,189.849482 158.283347,195.420281 158.578127,202.702528 C158.721051,206.236032 159.888259,210.186561 161.844524,213.098264 C167.281572,221.189151 170.154929,229.822619 170.564346,239.575628 C170.91421,247.9535 172.069509,256.296994 173,266.018614" id="Fill-4" stroke="#737373" stroke-linecap="round"></path>
                    <path d="M200.557159,333.922243 C200.322693,328.61233 200.600611,326.181296 199.595116,321.01942 C197.812577,311.860531 196.673316,302.122949 192.580692,293.961444 C184.918484,278.683669 182.83084,262.211126 178.772785,246.097462 C176.00429,235.102309 172.968263,223.800613 167.670247,213.89705 C159.417366,198.472733 156.337753,184.111594 165.994421,168.163912 C170.682226,160.422594 171.355562,152.358286 165.815566,143.238275 C158.44193,131.10069 161.78757,118.028525 168.095591,105.747389 C163.12222,118.634133 168.036975,130.338072 171.451753,142.463694 C174.364535,152.805389 172.290418,163.097738 167.05703,172.67831 C162.409806,181.189722 162.178346,190.45777 166.765451,198.563948 C176.945157,216.552754 180.163044,236.298572 184.31729,256.042895 C187.312736,270.284407 192.779086,284.011526 197.142247,297.968926 C197.85917,297.877711 198.577596,297.786496 199.296022,297.69528 C199.49141,296.262755 200.046011,294.774903 199.828078,293.408173 C197.142247,276.496003 194.339183,259.601777 191.575197,242.70157 C190.77561,237.81334 189.059203,232.853334 189.409398,228.044357 C190.181931,217.445466 187.411933,207.933679 183.054784,198.513107 C180.77025,193.57254 178.757755,188.361319 177.666589,183.060378 C176.349976,176.663361 177.4201,170.374008 184.070801,167.015499 C189.45599,164.295496 190.38784,160.012874 188.557206,155.179971 C186.634891,150.104825 184.40296,144.926501 181.210624,140.591543 C172.766864,129.126856 172.431698,117.209085 177.642541,104.581033 C179.889501,99.1350448 182.149988,93.6920477 182.963102,87.0572735 C178.912562,91.2935402 174.862022,95.5283116 169.837549,100.782897 C169.669215,98.3485018 168.806503,96.053172 169.526432,94.471114 C172.494824,87.9410128 175.810405,81.5544632 179.247728,75.251652 C184.724599,65.2120139 191.212978,55.6254605 195.706898,45.1805883 C198.709858,38.2003931 198.996928,30.061318 200.585582,22 C205.186213,43.3577824 192.882792,59.8886431 184.837322,77.8669822 C195.400289,71.8931433 202.121631,61.6007947 207.92014,42.9435763 C208.668626,52.9114386 204.080018,62.9809832 197.336132,74.133146 C190.184937,85.9582067 184.449553,98.7208387 179.079393,111.483471 C175.675136,119.5732 178.798336,127.473022 182.924025,134.988545 C186.254636,141.058085 189.271123,147.422205 191.402354,153.983708 C193.257035,159.70035 191.991523,165.070076 186.269666,168.898118 C180.62446,172.675319 179.113962,178.29327 181.207618,184.709726 C182.440064,188.488422 183.547763,192.394221 185.427995,195.857403 C190.333732,204.889189 191.582712,214.483219 192.182402,224.60211 C192.747524,234.178196 195.464917,243.615216 197.023511,253.147938 C198.586614,262.70608 200.417247,272.265718 201.183769,281.900122 C202.102055,293.42717 202.679827,304.982329 203.225935,316.539076 C203.466397,321.627742 205.24545,327.912983 205.5,333 C205.58567,334.718133 205,334 203.5,334 L200.557159,333.922243 Z" id="Fill-6" stroke="#737373"></path>
                    <path d="M196.427493,153 C201.67134,163.611078 207.15558,172.300759 210.285165,181.771568 C213.011607,190.024296 215.225908,199.493609 213.93137,207.8451 C209.511727,236.365271 211.030233,264.399106 216.808618,292.434438 C217.861269,297.541702 218.68398,302.699844 219.499225,307.852 C220.819207,316.208904 223.616988,322.920185 230.849372,327.736801 C236.5,331.5 251.78733,331.47702 253,332" id="Path" stroke="#737373"></path>
                    <path d="M153.978177,77.6315703 C152.568891,75.6359984 150.967478,74.3802378 150.794352,72.9475195 C150.121906,67.3936039 149.769321,61.7885199 149.557136,56.1919639 C149.366065,51.1923739 149.517022,46.1799918 149.368176,41.1750718 C147.593637,55.0619926 140.27274,68.8113981 148.520493,83 C144.942913,73.5945879 140.111226,64.3256253 143.598021,54.1057811 C147.664365,42.1888479 147.120708,31.8581386 136.281346,23.7937679 C135.486446,23.202132 135.02724,22.1510455 134.354794,21.2353424 C133.631678,22.0295203 133.060574,23.1605576 132.182277,23.5123411 C130.597754,24.1476835 128.365065,25.1209512 127.260861,24.4696187 C125.99092,23.7202132 124.624915,20.9368594 125.094677,19.7813038 C126.600027,16.0801148 128.935114,12.7221812 130.949284,9.23206232 C131.700903,9.62861829 132.452522,10.0241082 133.204141,10.4206642 C131.463383,14.2753588 129.722625,18.1300533 127.981866,21.9847478 C136.466084,19.3207872 134.893173,12.6560886 134.246063,5 C135.222535,6.84206642 135.735578,7.35268553 135.717632,7.84305043 C135.317543,18.3592456 141.488843,25.4226322 147.868105,32.6277983 C150.261252,35.3322673 152.277533,39.1837638 152.688179,42.7229192 C153.926451,53.4128741 154.301205,64.2041 154.97365,74.9590816 C155.002153,75.4195982 154.637955,75.9056991 153.978177,77.6315703" id="Fill-28" stroke="#737373"></path>
                    <path d="M37,54.7252388 C39.5260638,65.8916419 42.4803071,69.0883817 69.5044971,89 C71.387314,85.2553579 73.2603551,81.520362 75.1412168,77.7892245 C77.0240337,74.0561578 79.2118552,70.4407744 80.7446988,66.5726613 C85.2904405,55.1091562 82.9305652,46.8038063 73.9720325,40.057277 C68.9590081,36.2817672 65.0701994,35.6296863 59.6016232,40.2289788 C53.1241857,45.6752048 45.2761826,49.5356009 37,54.7252388 M74.8231111,26.6304599 C66.8389318,18.0114329 58.8528155,9.39047722 50.8666992,0.771450172 L51.5795031,0 C63.7707755,10.1426411 75.960111,20.2852823 88.2172403,30.4838535 C90.8302092,25.0586302 93.3172752,19.8899141 95.8062783,14.7192693 C96.4532254,14.9661333 97.1021094,15.2129974 97.7490565,15.4579328 C96.5888131,20.4800734 95.4305066,25.5022141 93.6969208,33.0103529 C96.8115643,29.4771111 98.13645,27.9727832 99.4593987,26.470384 C100.09085,26.6902473 100.722301,26.9101106 101.351816,27.1319026 C100.588651,31.0624412 99.8274225,34.9929798 99.4942641,36.7036706 C107.323486,52.4181106 114.658781,67.1354512 121.976644,81.8605064 C122.259441,82.4275223 122.350479,83.576983 122.602284,83.5981979 C133.950976,84.5567247 126.621492,91.0523352 125.482555,97.2644377 C131.702157,95.9471865 136.955212,94.8362983 142.651833,93.6289788 C142.37291,96.6106337 142.113356,99.4052119 141.654295,104.328993 C146.771763,101.66749 150.885881,99.5286439 155,97.391727 L154.817925,97.1776495 C151.166742,100.996328 147.773175,105.169873 143.560271,108.21903 C142.979181,108.63947 138.324648,103.474612 135.109282,100.481385 C121.858489,106.273047 114.937705,103.26632 109.806678,88.550908 C107.612094,82.2520173 105.012684,76.0919877 102.593412,69.8625276 C99.2308365,72.2636662 96.6469221,75.5307577 93.6020094,76.034129 C81.1589313,78.0919723 78.0869011,87.7813865 74.7688761,97.4052273 C70.9104371,108.595112 75.00906,117.376144 83.2954063,125 C73.3045288,122.097419 69.3918547,113.680897 68.4504886,105.04837 C67.2360101,93.9028436 61.134563,87.0562233 53.0612831,80.8209773 C43.9555997,73.7911376 33.4979131,67.7256106 33.9705331,53.8279358 C34.0150834,52.5473285 32.0413136,50.6746332 30.5711554,49.9552559 C23.7414086,46.6168053 16.7605783,43.5869347 11.147247,41.0430778 C7.22295119,43.2937837 3.61050711,45.3631987 0,47.4345425 C1.51858239,34.7364726 8.20499363,31.0296545 21.8451176,32.2659034 C19.0132714,33.972737 16.423546,35.5329949 13.6536827,37.2031845 C30.4045762,49.8086804 42.4176476,48.4142842 55.4030767,32.3796923 C51.2114793,30.929366 47.1922721,29.5388271 42.8011672,28.0190702 C53.9212966,27.5349853 64.3789833,27.077901 74.8366699,26.6227454 C74.7572543,29.4732538 73.4517383,33.8840202 74.7921197,34.9293352 C86.038152,43.7007236 89.9566369,54.9484671 86.9136612,68.7593538 C99.7751243,67.5790351 101.270463,65.1547529 94.9714454,55.4055514 C88.6240034,45.5772762 81.5695684,36.2022279 74.8231111,26.6304599" id="Fill-8" stroke="#737373"></path>
                    <g id="Asset-81" transform="translate(58.000000, 304.000000)" opacity="0.7">
                        <g id="Group">
                            <path d="M28.9314573,34.7520588 C32.2819471,34.610043 35.613319,34.123545 38.8827136,33.2988235 C45.6301508,31.7020588 51.5847236,34.2676471 58.121809,32.5811765 C60.1530567,32.067008 62.2216243,31.7547901 64.3029146,31.6482353 C65.3384925,31.6482353 66.3740704,31.6482353 67.4096482,31.5585294 L69.7396985,31.5585294 L70.160402,31.5585294 C72.2494088,31.9459628 74.381948,31.9459628 76.4709548,31.5585294 C80.2040891,30.7486123 83.994239,30.3043513 87.7975879,30.2308824 C88.8807065,30.2353608 89.9621647,30.3252939 91.0337688,30.5 C92.1139708,30.6018799 93.1408589,31.0648272 93.9786935,31.8276471 C94.5099838,32.6041793 94.6329592,33.633649 94.3023116,34.5367647 C94.1241124,35.433983 93.7266518,36.2595182 93.1534673,36.9229412 C91.6748387,38.2585424 89.848358,39.0321353 87.9432161,39.1297059 C85.9367839,39.4167647 83.7685427,39.5423529 81.6650251,40.0267647 C80.9626051,40.1835675 80.2747067,40.4117867 79.6100503,40.7085294 C79.2931841,40.8554126 78.9897517,41.0356493 78.7039196,41.2467647 L78.2832161,41.5517647 C78.2164427,41.601808 78.1565003,41.6622293 78.1052261,41.7311765 C78.1052261,41.7311765 78.1052261,41.7311765 78.0081407,41.9285294 L77.8786935,42.2694118 L77.8786935,42.4308824 L77.8786935,42.5205882 L77.8786935,42.7897059 C77.7722073,43.5068174 77.8053098,44.2408898 77.9757789,44.9426471 C78.1219671,45.5864678 78.3743212,46.1947437 78.7201005,46.7367647 C78.9549548,47.1097185 79.2323315,47.4474223 79.5453266,47.7414706 C79.7556784,47.9388235 80.0792965,48.2079412 80.2249246,48.3155882 L80.7588945,48.6564706 L81.179598,48.8717647 C81.4117187,48.9877652 81.6493945,49.0895843 81.8915578,49.1767647 C82.5498902,49.4356004 83.2263999,49.6336281 83.9141709,49.7688235 C85.079196,50.02 86.098593,50.1635294 87.1503518,50.2891176 C89.140603,50.5402941 91.0823116,50.6838235 92.8460302,50.8452941 L98.3151759,51.4373529 C102.020603,51.8141176 105.823116,52.1370588 109.755075,52.155 C113.8087,52.2013957 117.855231,51.7683592 121.82603,50.8632353 C129.738492,49.0691176 136.761005,45.7679412 143.346633,43.4894118 C146.460251,42.3588825 149.653598,41.5187066 152.893367,40.9776471 C156.037542,40.5393855 159.209409,40.3953476 162.375377,40.5470588 L163.605126,40.5470588 C163.912563,40.5470588 163.896382,40.6726471 164.058191,40.7264706 C164.259386,40.831487 164.453995,40.9513645 164.640704,41.0852941 C164.907707,41.2724698 165.138674,41.5163681 165.320302,41.8029412 C165.584005,42.1298445 165.584005,42.6242731 165.320302,42.9511765 C165.058635,43.2382753 164.751452,43.4693966 164.414171,43.6329412 C164.106734,43.7764706 164.074372,43.7405882 164.236181,43.7405882 C164.39799,43.7405882 164.236181,43.7405882 164.058191,43.7405882 L164.058191,43.7405882 L166.970754,52.7111765 C167.601809,54.8820588 168.022513,55.7970588 168.313769,55.7432353 C168.67302,56.0971962 169.051267,56.4267204 169.446432,56.73 C170.240921,57.3388495 171.09272,57.8501834 171.986834,58.255 L172.763518,58.5779412 C173.216583,58.7394118 173.863819,58.9188235 174.187437,59.0085294 C174.511055,59.0982353 175.028844,59.17 175.336281,59.2238235 L175.951156,59.2238235 L176.38804,59.2238235 L177.45598,59.2238235 L178.782814,59.2238235 L180.85397,59.2238235 C183.442915,59.1161765 185.886231,58.9547059 188.329548,58.7573529 C198.03809,58.0038235 207.439196,56.8197059 212.956884,54.6847059 C205.308748,55.8943033 197.605213,56.6250696 189.882915,56.8735294 C187.941206,56.8735294 185.999497,56.9632353 184.041608,56.9632353 L181.048141,56.9632353 C180.012563,56.9632353 179.041709,56.9632353 177.666332,56.8555882 C177.27799,56.8555882 176.970553,56.8555882 176.161508,56.7479412 L175.740804,56.7479412 L175.158291,56.6582353 L174.753769,56.5685294 L174.090352,56.4070588 C173.750669,56.306412 173.41583,56.186649 173.087136,56.0482353 L172.844422,55.9585294 C172.714975,55.9585294 172.310452,55.7073529 172.067739,55.5638235 C171.497934,55.2504692 170.956155,54.8780243 170.449648,54.4514706 L169.705327,53.7876471 C169.527337,53.7876471 169.23608,53.1955882 168.815377,51.7602941 L166.630955,45.0144118 C166.080804,43.3279412 166.469146,44.53 166.339698,44.1532353 L166.339698,44.1532353 L166.72804,44.1532353 L167.569447,44.0097059 L169.608241,43.6508824 L167.391457,44.2967647 L167.391457,44.2967647 L167.391457,44.2967647 L167.391457,44.2967647 L169.964221,52.2267647 C170.417286,53.2673529 170.708543,53.1417647 171.129246,53.6082353 C171.522538,53.9327187 171.939256,54.2207504 172.375176,54.4694118 C172.813943,54.7329984 173.274514,54.9492841 173.750553,55.1152941 C174.359815,55.3467875 174.988702,55.5090904 175.627538,55.5997059 L176.290955,55.5997059 L177.051457,55.5997059 C177.828141,55.5997059 178.265025,55.5997059 178.766633,55.5997059 L181.420302,55.4202941 L186.387839,55.0255882 L205.934372,53.2314706 L215.642915,52.2447059 L217.956784,52.0473529 L219.396884,51.9217647 C220.076482,51.9217647 220.75608,51.7961765 221.419497,51.6885294 C224.057847,51.4167631 226.629459,50.6142454 229.008342,49.3202941 C230.178885,48.6605179 231.266793,47.834231 232.244523,46.8623529 C233.169818,45.8607633 234.004421,44.761103 234.736382,43.5791176 C236.13786,41.1368449 237.124934,38.4311094 237.648945,35.5952941 L238.037286,33.6217647 L238.150553,33.0476471 L238.150553,32.7605882 C238.150553,32.4197059 238.263819,32.0608824 238.344724,31.72 C238.532494,31.0352873 238.878314,30.416834 239.34794,29.9258824 C239.614322,29.650401 239.89529,29.3927865 240.189347,29.1544118 L240.658593,28.8135294 C240.933668,28.67 241.176382,28.5085294 241.467638,28.365 C242.69793,27.7246591 243.968826,27.1849831 245.270151,26.7502941 C248.282977,25.8099132 251.340455,25.0552286 254.428543,24.4897059 C251.313689,24.9839121 248.22838,25.6848773 245.189246,26.5888235 C243.872268,26.9871789 242.584803,27.4970091 241.338191,28.1138235 L240.529146,28.5444118 L240.027538,28.8852941 C239.713431,29.1166845 239.415898,29.3746071 239.137588,29.6567647 C238.589832,30.1802746 238.186085,30.8642142 237.972563,31.6302941 C237.863562,32.0063026 237.777075,32.3898824 237.713668,32.7785294 L237.519497,33.8370588 L236.953166,35.8823529 C236.371117,38.6921239 235.31122,41.353071 233.830251,43.7226471 C232.323981,46.0840115 230.265197,47.9449512 227.875678,49.105 C225.446346,50.2002254 222.87213,50.8486448 220.254472,51.0247059 C218.733467,51.1502941 218.037688,51.1861765 217.180101,51.2220588 L214.882412,51.3655882 L204.979698,52.0473529 C198.361709,52.4241176 191.792261,52.7291176 185.15809,52.8726471 L180.109648,52.8726471 C179.219698,52.8726471 178.491558,52.8726471 177.229447,52.8726471 L176.663116,52.8726471 L176.258593,52.8726471 L175.578995,52.765 L175.336281,52.765 L174.834673,52.6214706 L174.268342,52.4241176 C173.696664,52.1799474 173.153429,51.8607116 172.650251,51.4732353 C172.164824,51.6885294 171.517588,50.02 170.595276,46.8982353 C169.381709,43.2023529 170.093668,45.3194118 169.899497,44.7273529 L169.899497,44.7273529 L170.045126,44.7273529 L170.692362,44.5479412 L176.468945,43.2920588 C178.82163,42.6572063 181.139346,41.8724727 183.410553,40.9417647 C184.713468,40.5331502 185.960082,39.9295568 187.11598,39.1476471 C187.677841,38.7827778 188.072329,38.1691091 188.200101,37.4611765 C188.228422,36.9353323 188.103631,36.4133104 187.844121,35.9720588 C186.992313,34.4338497 185.558963,33.4051046 183.944523,33.1732353 L178.443015,31.7558824 C173.200492,30.4563944 167.878754,29.5868846 162.521005,29.1544118 C159.284824,28.9032353 156.17809,28.7597059 152.94191,28.8494118 C149.687685,28.979373 146.444596,29.3449556 143.233367,29.9438235 C146.238694,29.0014713 149.298632,28.28814 152.391759,27.8088235 C155.516275,27.3769234 158.660493,27.1433074 161.809045,27.1091176 L164.365628,27.1091176 C165.271759,27.1091176 166.161709,27.1091176 167.051658,27.1091176 C168.815377,27.1091176 170.546734,27.2347059 172.245729,27.3423529 C175.627538,27.5576471 178.928442,27.8088235 181.954271,28.1497059 C184.980101,28.4905882 187.82794,28.9211765 190.708141,29.1544118 C192.176781,29.1899251 193.639302,29.3761117 195.076985,29.7105882 C196.445705,30.0769963 197.712469,30.8100837 198.766231,31.8455882 C199.314883,32.3270025 199.757548,32.9405287 200.060704,33.6397059 C200.35224,34.5378667 200.12896,35.5422951 199.494372,36.1873529 C198.118146,37.4979057 196.524085,38.4974425 194.80191,39.1297059 C191.580562,40.4305168 188.28275,41.4855274 184.931558,42.2873529 C181.695377,43.1126471 178.70191,43.7585294 175.789347,44.4582353 L174.721407,44.7452941 L174.462513,44.7452941 L174.349246,44.835 C174.349246,44.7273529 174.349246,44.835 174.689045,45.9114706 C175.028844,46.9879412 175.12593,46.9520588 175.336281,47.1314706 C175.488634,47.236041 175.651565,47.3203475 175.821709,47.3826471 L176.03206,47.4723529 C176.265336,47.5387043 176.503691,47.5807497 176.74402,47.5979412 L177.148543,47.5979412 C178.119397,47.5979412 178.944623,47.5979412 179.802211,47.5979412 L184.850653,47.5979412 C191.533367,47.4544118 198.21608,47.1852941 204.866432,46.8623529 L214.817688,46.3241176 L217.228643,46.2164706 L218.506935,46.2164706 L220.125025,46.1088235 C222.210382,45.9778056 224.263847,45.4812574 226.209045,44.6376471 C228.128231,43.7563654 229.755564,42.240197 230.869146,40.2958824 C231.962929,38.389093 232.756314,36.2899571 233.215377,34.0882353 L233.797889,31.3252941 C233.943982,30.6808983 234.122246,30.0459986 234.331859,29.4235294 C234.763129,28.1747658 235.489744,27.0778265 236.435377,26.2479412 C237.155429,25.6192109 237.930608,25.0722507 238.749246,24.6152941 C239.718074,24.0946088 240.712005,23.6334216 241.726533,23.2338235 C243.893309,22.4701748 246.104404,21.8707533 248.344523,21.4397059 C252.907538,20.4888235 257.713266,19.6455882 262.308643,18.91 C271.564121,17.2773529 280.609246,15.6626471 289.26603,13.725 C294.005578,12.7030942 298.689312,11.385311 303.294874,9.77794118 C292.566935,12.7382353 281.20794,14.9091176 269.541508,16.9544118 L251.839598,19.7352941 C248.91186,20.1943292 246.010605,20.8412984 243.150452,21.6729412 C241.772755,22.1019639 240.421525,22.6293392 239.105226,23.2517647 C237.913854,23.8081017 236.788886,24.5251771 235.755779,25.3867647 C234.809622,26.1929261 234.058985,27.2471678 233.571357,28.4547059 C233.320458,29.0650202 233.10956,29.6945925 232.940302,30.3385294 C232.778492,30.9844118 232.632864,31.5944118 232.438693,32.4735294 C232.07557,34.3269772 231.533064,36.1315479 230.820603,37.8558824 C230.075323,39.5925636 228.965622,41.1059823 227.584422,42.2694118 C224.752764,44.4761765 220.885528,44.6376471 217.71407,44.7452941 C214.542613,44.8529412 211.824221,44.9785294 208.814573,45.0682353 C202.86,45.3014706 196.873065,45.445 190.902312,45.5347059 C187.908844,45.5347059 184.915377,45.5347059 181.93809,45.5347059 C180.449447,45.5347059 178.960804,45.5347059 177.45598,45.3911765 L176.873467,45.3911765 C176.759872,45.3814914 176.649494,45.3447755 176.549849,45.2835294 C176.549849,45.2835294 176.436583,45.0682353 176.452764,45.0502941 L176.452764,45.0502941 C176.495473,45.0406278 176.539502,45.0406278 176.582211,45.0502941 C176.952671,44.9094527 177.331031,44.7955831 177.714874,44.7094118 C178.459196,44.5120588 179.332965,44.3326471 180.158191,44.1532353 C186.538204,42.9957659 192.802375,41.1572166 198.863317,38.6632353 C200.229403,38.0735478 201.49791,37.23692 202.617286,36.1873529 C203.199095,35.6438548 203.569921,34.8729157 203.652864,34.0344118 C203.636655,33.2083146 203.348958,32.4172071 202.843819,31.8097059 C201.087855,29.6880489 198.771171,28.2372621 196.225829,27.6652941 C193.91196,27.1629412 191.59809,26.5708824 188.91206,25.8711765 C187.585226,25.5482353 186.096583,25.2611765 184.559397,25.01 C183.022211,24.7588235 181.323216,24.6511765 179.510955,24.5255882 C176.064422,24.2385294 172.504623,23.9694118 168.799196,23.8438235 C166.938392,23.8438235 165.045226,23.8438235 163.119698,23.8438235 C161.501608,23.8438235 160.029146,23.8438235 158.621407,23.9514706 C156.614975,23.9514706 154.592362,24.2026471 152.537387,24.4717647 C150.437009,24.7441633 148.351866,25.1454654 146.291558,25.6738235 C142.357055,26.6972481 138.473694,27.9488707 134.657487,29.4235294 C127.327538,32.2223529 120.628643,34.8058824 114.528442,35.38 C108.428241,35.9541176 101.357186,35.075 93.3152764,34.4291176 C91.179397,34.2317647 89.4642211,34.0882353 87.9432161,34.0882353 C87.3133548,34.0392121 86.6866213,33.9493525 86.0662312,33.8191176 L85.9691457,33.8191176 C85.9691457,33.8191176 85.9691457,33.8191176 85.9691457,33.8191176 L85.6940704,35.1647059 C85.3584066,36.9537903 84.9151382,38.7159627 84.3672362,40.4394118 C84.0784695,41.4998543 83.6238851,42.4957835 83.0242211,43.3817647 C82.9505298,43.4802348 82.8631316,43.5650276 82.7653266,43.6329412 L82.6520603,43.6329412 L82.6520603,43.6329412 C74.221809,41.8388235 94.059598,46.1088235 92.4738693,45.8755882 L93.4609045,46.36 L97.4090452,48.3155882 C98.5902513,48.8897059 100.564322,49.9123529 100.127437,49.5535294 C101.487181,48.9081548 102.79684,48.1400845 104.043216,47.2570588 C104.609548,46.8623529 104.933166,46.5214706 105.386231,46.1626471 C105.839296,45.8038235 106.276181,45.4091176 106.535075,45.14 L107.425025,44.225 C107.748643,43.92 107.894271,43.7405882 108.136985,43.4894118 L109.237286,42.2694118 C109.978881,41.3974594 110.797408,40.6100949 111.680603,39.9191176 C112.379306,39.501667 113.035679,39.0024478 113.638492,38.43 C114.522477,37.530556 115.227837,36.4368465 115.709648,35.2185294 C116.240005,33.9171968 116.604861,32.5405274 116.793769,31.1279412 C117.051071,29.5559768 117.051071,27.9454938 116.793769,26.3735294 C116.50434,24.8712614 115.954826,23.4455134 115.175678,22.1752941 C114.575853,21.1756375 113.875588,20.2547378 113.088342,19.4302941 C109.529939,15.8888813 105.081709,13.6356196 100.337789,12.9714706 C92.9250359,11.8356357 85.4290096,11.5171185 77.959598,12.0205882 C75.9369849,12.0205882 73.9143719,12.2 71.8755779,12.3435294 L67.0536683,12.5588235 L60.4356784,13.1867647 C56.0506533,13.6173529 51.6979899,14.1376471 47.3776884,14.7117647 C39.7079397,15.7164706 29.0932663,17.0620588 19.8701508,18.9997059 C15.686644,19.8194925 11.5568286,20.9462832 7.5079397,22.3726471 C4.69147908,23.1901507 2.11173172,24.7964174 0.0161809045,27.0373529 C4.70864322,27.4858824 10.0968844,26.1761765 14.7893467,26.3735294 C12.9161744,27.3608645 10.9734007,28.1769108 8.98040201,28.8135294 C11.0440769,28.8412069 13.1047497,28.6307604 15.1291457,28.1855882 C13.7645299,28.4788561 12.4894956,29.1517724 11.4237186,30.1411765 C14.0471093,29.8827054 16.6240609,29.2121785 19.0772864,28.1497059 C20.1775879,27.7729412 25.1613065,25.4764706 26.6337688,25.6379412 C22.7744685,27.3215842 18.9941311,29.2197752 15.3071357,31.3252941 C16.6339698,31.3252941 17.9284422,31.0561765 19.2229146,31.11 C17.6857286,31.9532353 14.5951759,32.4735294 13.8346734,33.4602941 C17.0708543,33.1194118 19.999598,32.3479412 23.3975879,32.0788235 C26.0340442,31.9849234 28.6589441,31.6488708 31.2453266,31.0741176 C28.1547739,32.0967647 23.9639196,32.9758824 21.8765829,34.465 C23.368397,34.5662875 24.8656862,34.4395105 26.3263317,34.0882353 C26.1750596,34.1836935 26.0687427,34.3474196 26.0350754,34.5367647 C26.6984925,34.5367647 27.6531658,34.5367647 28.2680402,34.5367647 C28.2680402,34.7520588 28.478392,34.9314706 28.3651256,35.1647059 L28.3651256,34.7161765" id="Path" fill="#A4A4A4" fill-rule="nonzero"></path>
                            <path d="M23.219598,20.3094118 C26.7925484,19.7834927 30.3918474,19.507848 33.9960804,19.4841176" id="Path" fill="#A4A4A4" fill-rule="nonzero"></path>
                            <path d="M162.488643,25.7097059 L166.420603,25.62 C169.04191,25.62 172.892965,25.62 177.375075,25.8711765 C179.656583,25.9788235 182.229347,26.0326471 184.721206,26.3376471 C187.213065,26.6426471 189.575477,27.0194118 192.083518,27.3961765 L195.772764,27.9344118 C197.085551,28.1704359 198.364241,28.5987909 199.575276,29.2082353 C200.92082,29.8853648 202.118557,30.8768011 203.086533,32.1147059 C203.650808,32.7892213 203.875266,33.7309132 203.685226,34.6264706 C203.42546,35.4477132 202.945576,36.1613386 202.309849,36.6717647 C199.697439,38.5872976 196.82348,40.0230886 193.798693,40.9238235 C190.69196,42.0361765 187.326332,42.9870588 183.847437,44.0635294 C182.957487,44.3326471 182.067538,44.6017647 181.112864,44.9426471 L180.400905,45.2117647 L180.028744,45.3911765 L180.028744,45.3911765 C180.028744,45.3911765 180.336181,45.6244118 178.71809,44.6735294 C178.102299,44.2195203 177.278332,44.3423578 176.792563,44.9605882 C176.862052,44.7627293 176.916185,44.5586554 176.954372,44.3505882 C176.954372,44.1173529 177.1,43.5252941 177.067638,43.6867647 C177.461099,43.7098412 177.855384,43.7098412 178.248844,43.6867647 C180.077286,43.6867647 181.986633,43.5611765 183.89598,43.4714706 L195.562412,42.7179412 L219.591055,40.9238235 C221.426198,40.8299744 223.223194,40.3104609 224.86603,39.3988235 C226.407599,38.2677041 227.52381,36.5515936 228.005126,34.5726471 C228.273636,33.6178795 228.495102,32.6476223 228.668543,31.6661765 C228.862714,30.7332353 229.105427,29.3697059 229.461407,28.1855882 C230.053186,25.6990385 231.352694,23.4905331 233.166834,21.8882353 C234.167667,20.9955128 235.252714,20.2255376 236.403015,19.5917647 C237.489834,18.967808 238.614414,18.4282753 239.768643,17.9770588 C241.974146,17.1524104 244.228739,16.4989687 246.51608,16.0214706 C251.062915,15.0347059 255.383216,14.4426471 259.687337,13.725 C268.263216,12.3794118 276.515477,11.1773529 284.201407,9.88558824 C299.573266,7.32 312.615075,4.23411765 321.417487,0" id="Path" stroke="#A4A4A4"></path>
                            <path d="M186.04804,49.4638235 C186.04804,49.4638235 192.601307,49.3382353 203.167437,48.5847059 L211.791859,47.9208824 L216.500503,47.5082353 L219.186533,47.3108824 C220.335377,47.2211765 221.484221,47.0597059 222.616884,46.8444118 C224.970236,46.4656634 227.197752,45.4283301 229.089246,43.8302941 C230.922134,42.0243187 232.27599,39.6981754 233.005025,37.1023529 C233.380734,35.771012 233.688657,34.4173083 233.927337,33.0476471 C234.186231,31.7379412 234.234774,31.2535294 234.428945,30.4282353 C234.73435,28.8509996 235.495636,27.4273612 236.597186,26.3735294 C237.257675,25.7270871 237.979215,25.16165 238.749246,24.6870588 C239.681586,24.127257 240.643382,23.6299908 241.629447,23.1979412 C243.793945,22.3037994 246.010364,21.5725323 248.263618,21.0091176 C252.939899,19.8608824 257.972161,18.8920588 262.826432,17.8335294 C272.729146,15.7164706 282.745126,13.5635294 292.275678,10.9441176" id="Path" stroke="#A4A4A4"></path>
                        </g>
                    </g>
                </g>
                <g id="Asset-81" transform="translate(58.000000, 304.000000)" opacity="0.7">
                    <g id="Group">
                        <path d="M28.9314573,34.7520588 C32.2819471,34.610043 35.613319,34.123545 38.8827136,33.2988235 C45.6301508,31.7020588 51.5847236,34.2676471 58.121809,32.5811765 C60.1530567,32.067008 62.2216243,31.7547901 64.3029146,31.6482353 C65.3384925,31.6482353 66.3740704,31.6482353 67.4096482,31.5585294 L69.7396985,31.5585294 L70.160402,31.5585294 C72.2494088,31.9459628 74.381948,31.9459628 76.4709548,31.5585294 C80.2040891,30.7486123 83.994239,30.3043513 87.7975879,30.2308824 C88.8807065,30.2353608 89.9621647,30.3252939 91.0337688,30.5 C92.1139708,30.6018799 93.1408589,31.0648272 93.9786935,31.8276471 C94.5099838,32.6041793 94.6329592,33.633649 94.3023116,34.5367647 C94.1241124,35.433983 93.7266518,36.2595182 93.1534673,36.9229412 C91.6748387,38.2585424 89.848358,39.0321353 87.9432161,39.1297059 C85.9367839,39.4167647 83.7685427,39.5423529 81.6650251,40.0267647 C80.9626051,40.1835675 80.2747067,40.4117867 79.6100503,40.7085294 C79.2931841,40.8554126 78.9897517,41.0356493 78.7039196,41.2467647 L78.2832161,41.5517647 C78.2164427,41.601808 78.1565003,41.6622293 78.1052261,41.7311765 C78.1052261,41.7311765 78.1052261,41.7311765 78.0081407,41.9285294 L77.8786935,42.2694118 L77.8786935,42.4308824 L77.8786935,42.5205882 L77.8786935,42.7897059 C77.7722073,43.5068174 77.8053098,44.2408898 77.9757789,44.9426471 C78.1219671,45.5864678 78.3743212,46.1947437 78.7201005,46.7367647 C78.9549548,47.1097185 79.2323315,47.4474223 79.5453266,47.7414706 C79.7556784,47.9388235 80.0792965,48.2079412 80.2249246,48.3155882 L80.7588945,48.6564706 L81.179598,48.8717647 C81.4117187,48.9877652 81.6493945,49.0895843 81.8915578,49.1767647 C82.5498902,49.4356004 83.2263999,49.6336281 83.9141709,49.7688235 C85.079196,50.02 86.098593,50.1635294 87.1503518,50.2891176 C89.140603,50.5402941 91.0823116,50.6838235 92.8460302,50.8452941 L98.3151759,51.4373529 C102.020603,51.8141176 105.823116,52.1370588 109.755075,52.155 C113.8087,52.2013957 117.855231,51.7683592 121.82603,50.8632353 C129.738492,49.0691176 136.761005,45.7679412 143.346633,43.4894118 C146.460251,42.3588825 149.653598,41.5187066 152.893367,40.9776471 C156.037542,40.5393855 159.209409,40.3953476 162.375377,40.5470588 L163.605126,40.5470588 C163.912563,40.5470588 163.896382,40.6726471 164.058191,40.7264706 C164.259386,40.831487 164.453995,40.9513645 164.640704,41.0852941 C164.907707,41.2724698 165.138674,41.5163681 165.320302,41.8029412 C165.584005,42.1298445 165.584005,42.6242731 165.320302,42.9511765 C165.058635,43.2382753 164.751452,43.4693966 164.414171,43.6329412 C164.106734,43.7764706 164.074372,43.7405882 164.236181,43.7405882 C164.39799,43.7405882 164.236181,43.7405882 164.058191,43.7405882 L164.058191,43.7405882 L166.970754,52.7111765 C167.601809,54.8820588 168.022513,55.7970588 168.313769,55.7432353 C168.67302,56.0971962 169.051267,56.4267204 169.446432,56.73 C170.240921,57.3388495 171.09272,57.8501834 171.986834,58.255 L172.763518,58.5779412 C173.216583,58.7394118 173.863819,58.9188235 174.187437,59.0085294 C174.511055,59.0982353 175.028844,59.17 175.336281,59.2238235 L175.951156,59.2238235 L176.38804,59.2238235 L177.45598,59.2238235 L178.782814,59.2238235 L180.85397,59.2238235 C183.442915,59.1161765 185.886231,58.9547059 188.329548,58.7573529 C198.03809,58.0038235 207.439196,56.8197059 212.956884,54.6847059 C205.308748,55.8943033 197.605213,56.6250696 189.882915,56.8735294 C187.941206,56.8735294 185.999497,56.9632353 184.041608,56.9632353 L181.048141,56.9632353 C180.012563,56.9632353 179.041709,56.9632353 177.666332,56.8555882 C177.27799,56.8555882 176.970553,56.8555882 176.161508,56.7479412 L175.740804,56.7479412 L175.158291,56.6582353 L174.753769,56.5685294 L174.090352,56.4070588 C173.750669,56.306412 173.41583,56.186649 173.087136,56.0482353 L172.844422,55.9585294 C172.714975,55.9585294 172.310452,55.7073529 172.067739,55.5638235 C171.497934,55.2504692 170.956155,54.8780243 170.449648,54.4514706 L169.705327,53.7876471 C169.527337,53.7876471 169.23608,53.1955882 168.815377,51.7602941 L166.630955,45.0144118 C166.080804,43.3279412 166.469146,44.53 166.339698,44.1532353 L166.339698,44.1532353 L166.72804,44.1532353 L167.569447,44.0097059 L169.608241,43.6508824 L167.391457,44.2967647 L167.391457,44.2967647 L167.391457,44.2967647 L167.391457,44.2967647 L169.964221,52.2267647 C170.417286,53.2673529 170.708543,53.1417647 171.129246,53.6082353 C171.522538,53.9327187 171.939256,54.2207504 172.375176,54.4694118 C172.813943,54.7329984 173.274514,54.9492841 173.750553,55.1152941 C174.359815,55.3467875 174.988702,55.5090904 175.627538,55.5997059 L176.290955,55.5997059 L177.051457,55.5997059 C177.828141,55.5997059 178.265025,55.5997059 178.766633,55.5997059 L181.420302,55.4202941 L186.387839,55.0255882 L205.934372,53.2314706 L215.642915,52.2447059 L217.956784,52.0473529 L219.396884,51.9217647 C220.076482,51.9217647 220.75608,51.7961765 221.419497,51.6885294 C224.057847,51.4167631 226.629459,50.6142454 229.008342,49.3202941 C230.178885,48.6605179 231.266793,47.834231 232.244523,46.8623529 C233.169818,45.8607633 234.004421,44.761103 234.736382,43.5791176 C236.13786,41.1368449 237.124934,38.4311094 237.648945,35.5952941 L238.037286,33.6217647 L238.150553,33.0476471 L238.150553,32.7605882 C238.150553,32.4197059 238.263819,32.0608824 238.344724,31.72 C238.532494,31.0352873 238.878314,30.416834 239.34794,29.9258824 C239.614322,29.650401 239.89529,29.3927865 240.189347,29.1544118 L240.658593,28.8135294 C240.933668,28.67 241.176382,28.5085294 241.467638,28.365 C242.69793,27.7246591 243.968826,27.1849831 245.270151,26.7502941 C248.282977,25.8099132 251.340455,25.0552286 254.428543,24.4897059 C251.313689,24.9839121 248.22838,25.6848773 245.189246,26.5888235 C243.872268,26.9871789 242.584803,27.4970091 241.338191,28.1138235 L240.529146,28.5444118 L240.027538,28.8852941 C239.713431,29.1166845 239.415898,29.3746071 239.137588,29.6567647 C238.589832,30.1802746 238.186085,30.8642142 237.972563,31.6302941 C237.863562,32.0063026 237.777075,32.3898824 237.713668,32.7785294 L237.519497,33.8370588 L236.953166,35.8823529 C236.371117,38.6921239 235.31122,41.353071 233.830251,43.7226471 C232.323981,46.0840115 230.265197,47.9449512 227.875678,49.105 C225.446346,50.2002254 222.87213,50.8486448 220.254472,51.0247059 C218.733467,51.1502941 218.037688,51.1861765 217.180101,51.2220588 L214.882412,51.3655882 L204.979698,52.0473529 C198.361709,52.4241176 191.792261,52.7291176 185.15809,52.8726471 L180.109648,52.8726471 C179.219698,52.8726471 178.491558,52.8726471 177.229447,52.8726471 L176.663116,52.8726471 L176.258593,52.8726471 L175.578995,52.765 L175.336281,52.765 L174.834673,52.6214706 L174.268342,52.4241176 C173.696664,52.1799474 173.153429,51.8607116 172.650251,51.4732353 C172.164824,51.6885294 171.517588,50.02 170.595276,46.8982353 C169.381709,43.2023529 170.093668,45.3194118 169.899497,44.7273529 L169.899497,44.7273529 L170.045126,44.7273529 L170.692362,44.5479412 L176.468945,43.2920588 C178.82163,42.6572063 181.139346,41.8724727 183.410553,40.9417647 C184.713468,40.5331502 185.960082,39.9295568 187.11598,39.1476471 C187.677841,38.7827778 188.072329,38.1691091 188.200101,37.4611765 C188.228422,36.9353323 188.103631,36.4133104 187.844121,35.9720588 C186.992313,34.4338497 185.558963,33.4051046 183.944523,33.1732353 L178.443015,31.7558824 C173.200492,30.4563944 167.878754,29.5868846 162.521005,29.1544118 C159.284824,28.9032353 156.17809,28.7597059 152.94191,28.8494118 C149.687685,28.979373 146.444596,29.3449556 143.233367,29.9438235 C146.238694,29.0014713 149.298632,28.28814 152.391759,27.8088235 C155.516275,27.3769234 158.660493,27.1433074 161.809045,27.1091176 L164.365628,27.1091176 C165.271759,27.1091176 166.161709,27.1091176 167.051658,27.1091176 C168.815377,27.1091176 170.546734,27.2347059 172.245729,27.3423529 C175.627538,27.5576471 178.928442,27.8088235 181.954271,28.1497059 C184.980101,28.4905882 187.82794,28.9211765 190.708141,29.1544118 C192.176781,29.1899251 193.639302,29.3761117 195.076985,29.7105882 C196.445705,30.0769963 197.712469,30.8100837 198.766231,31.8455882 C199.314883,32.3270025 199.757548,32.9405287 200.060704,33.6397059 C200.35224,34.5378667 200.12896,35.5422951 199.494372,36.1873529 C198.118146,37.4979057 196.524085,38.4974425 194.80191,39.1297059 C191.580562,40.4305168 188.28275,41.4855274 184.931558,42.2873529 C181.695377,43.1126471 178.70191,43.7585294 175.789347,44.4582353 L174.721407,44.7452941 L174.462513,44.7452941 L174.349246,44.835 C174.349246,44.7273529 174.349246,44.835 174.689045,45.9114706 C175.028844,46.9879412 175.12593,46.9520588 175.336281,47.1314706 C175.488634,47.236041 175.651565,47.3203475 175.821709,47.3826471 L176.03206,47.4723529 C176.265336,47.5387043 176.503691,47.5807497 176.74402,47.5979412 L177.148543,47.5979412 C178.119397,47.5979412 178.944623,47.5979412 179.802211,47.5979412 L184.850653,47.5979412 C191.533367,47.4544118 198.21608,47.1852941 204.866432,46.8623529 L214.817688,46.3241176 L217.228643,46.2164706 L218.506935,46.2164706 L220.125025,46.1088235 C222.210382,45.9778056 224.263847,45.4812574 226.209045,44.6376471 C228.128231,43.7563654 229.755564,42.240197 230.869146,40.2958824 C231.962929,38.389093 232.756314,36.2899571 233.215377,34.0882353 L233.797889,31.3252941 C233.943982,30.6808983 234.122246,30.0459986 234.331859,29.4235294 C234.763129,28.1747658 235.489744,27.0778265 236.435377,26.2479412 C237.155429,25.6192109 237.930608,25.0722507 238.749246,24.6152941 C239.718074,24.0946088 240.712005,23.6334216 241.726533,23.2338235 C243.893309,22.4701748 246.104404,21.8707533 248.344523,21.4397059 C252.907538,20.4888235 257.713266,19.6455882 262.308643,18.91 C271.564121,17.2773529 280.609246,15.6626471 289.26603,13.725 C294.005578,12.7030942 298.689312,11.385311 303.294874,9.77794118 C292.566935,12.7382353 281.20794,14.9091176 269.541508,16.9544118 L251.839598,19.7352941 C248.91186,20.1943292 246.010605,20.8412984 243.150452,21.6729412 C241.772755,22.1019639 240.421525,22.6293392 239.105226,23.2517647 C237.913854,23.8081017 236.788886,24.5251771 235.755779,25.3867647 C234.809622,26.1929261 234.058985,27.2471678 233.571357,28.4547059 C233.320458,29.0650202 233.10956,29.6945925 232.940302,30.3385294 C232.778492,30.9844118 232.632864,31.5944118 232.438693,32.4735294 C232.07557,34.3269772 231.533064,36.1315479 230.820603,37.8558824 C230.075323,39.5925636 228.965622,41.1059823 227.584422,42.2694118 C224.752764,44.4761765 220.885528,44.6376471 217.71407,44.7452941 C214.542613,44.8529412 211.824221,44.9785294 208.814573,45.0682353 C202.86,45.3014706 196.873065,45.445 190.902312,45.5347059 C187.908844,45.5347059 184.915377,45.5347059 181.93809,45.5347059 C180.449447,45.5347059 178.960804,45.5347059 177.45598,45.3911765 L176.873467,45.3911765 C176.759872,45.3814914 176.649494,45.3447755 176.549849,45.2835294 C176.549849,45.2835294 176.436583,45.0682353 176.452764,45.0502941 L176.452764,45.0502941 C176.495473,45.0406278 176.539502,45.0406278 176.582211,45.0502941 C176.952671,44.9094527 177.331031,44.7955831 177.714874,44.7094118 C178.459196,44.5120588 179.332965,44.3326471 180.158191,44.1532353 C186.538204,42.9957659 192.802375,41.1572166 198.863317,38.6632353 C200.229403,38.0735478 201.49791,37.23692 202.617286,36.1873529 C203.199095,35.6438548 203.569921,34.8729157 203.652864,34.0344118 C203.636655,33.2083146 203.348958,32.4172071 202.843819,31.8097059 C201.087855,29.6880489 198.771171,28.2372621 196.225829,27.6652941 C193.91196,27.1629412 191.59809,26.5708824 188.91206,25.8711765 C187.585226,25.5482353 186.096583,25.2611765 184.559397,25.01 C183.022211,24.7588235 181.323216,24.6511765 179.510955,24.5255882 C176.064422,24.2385294 172.504623,23.9694118 168.799196,23.8438235 C166.938392,23.8438235 165.045226,23.8438235 163.119698,23.8438235 C161.501608,23.8438235 160.029146,23.8438235 158.621407,23.9514706 C156.614975,23.9514706 154.592362,24.2026471 152.537387,24.4717647 C150.437009,24.7441633 148.351866,25.1454654 146.291558,25.6738235 C142.357055,26.6972481 138.473694,27.9488707 134.657487,29.4235294 C127.327538,32.2223529 120.628643,34.8058824 114.528442,35.38 C108.428241,35.9541176 101.357186,35.075 93.3152764,34.4291176 C91.179397,34.2317647 89.4642211,34.0882353 87.9432161,34.0882353 C87.3133548,34.0392121 86.6866213,33.9493525 86.0662312,33.8191176 L85.9691457,33.8191176 C85.9691457,33.8191176 85.9691457,33.8191176 85.9691457,33.8191176 L85.6940704,35.1647059 C85.3584066,36.9537903 84.9151382,38.7159627 84.3672362,40.4394118 C84.0784695,41.4998543 83.6238851,42.4957835 83.0242211,43.3817647 C82.9505298,43.4802348 82.8631316,43.5650276 82.7653266,43.6329412 L82.6520603,43.6329412 L82.6520603,43.6329412 C74.221809,41.8388235 94.059598,46.1088235 92.4738693,45.8755882 L93.4609045,46.36 L97.4090452,48.3155882 C98.5902513,48.8897059 100.564322,49.9123529 100.127437,49.5535294 C101.487181,48.9081548 102.79684,48.1400845 104.043216,47.2570588 C104.609548,46.8623529 104.933166,46.5214706 105.386231,46.1626471 C105.839296,45.8038235 106.276181,45.4091176 106.535075,45.14 L107.425025,44.225 C107.748643,43.92 107.894271,43.7405882 108.136985,43.4894118 L109.237286,42.2694118 C109.978881,41.3974594 110.797408,40.6100949 111.680603,39.9191176 C112.379306,39.501667 113.035679,39.0024478 113.638492,38.43 C114.522477,37.530556 115.227837,36.4368465 115.709648,35.2185294 C116.240005,33.9171968 116.604861,32.5405274 116.793769,31.1279412 C117.051071,29.5559768 117.051071,27.9454938 116.793769,26.3735294 C116.50434,24.8712614 115.954826,23.4455134 115.175678,22.1752941 C114.575853,21.1756375 113.875588,20.2547378 113.088342,19.4302941 C109.529939,15.8888813 105.081709,13.6356196 100.337789,12.9714706 C92.9250359,11.8356357 85.4290096,11.5171185 77.959598,12.0205882 C75.9369849,12.0205882 73.9143719,12.2 71.8755779,12.3435294 L67.0536683,12.5588235 L60.4356784,13.1867647 C56.0506533,13.6173529 51.6979899,14.1376471 47.3776884,14.7117647 C39.7079397,15.7164706 29.0932663,17.0620588 19.8701508,18.9997059 C15.686644,19.8194925 11.5568286,20.9462832 7.5079397,22.3726471 C4.69147908,23.1901507 2.11173172,24.7964174 0.0161809045,27.0373529 C4.70864322,27.4858824 10.0968844,26.1761765 14.7893467,26.3735294 C12.9161744,27.3608645 10.9734007,28.1769108 8.98040201,28.8135294 C11.0440769,28.8412069 13.1047497,28.6307604 15.1291457,28.1855882 C13.7645299,28.4788561 12.4894956,29.1517724 11.4237186,30.1411765 C14.0471093,29.8827054 16.6240609,29.2121785 19.0772864,28.1497059 C20.1775879,27.7729412 25.1613065,25.4764706 26.6337688,25.6379412 C22.7744685,27.3215842 18.9941311,29.2197752 15.3071357,31.3252941 C16.6339698,31.3252941 17.9284422,31.0561765 19.2229146,31.11 C17.6857286,31.9532353 14.5951759,32.4735294 13.8346734,33.4602941 C17.0708543,33.1194118 19.999598,32.3479412 23.3975879,32.0788235 C26.0340442,31.9849234 28.6589441,31.6488708 31.2453266,31.0741176 C28.1547739,32.0967647 23.9639196,32.9758824 21.8765829,34.465 C23.368397,34.5662875 24.8656862,34.4395105 26.3263317,34.0882353 C26.1750596,34.1836935 26.0687427,34.3474196 26.0350754,34.5367647 C26.6984925,34.5367647 27.6531658,34.5367647 28.2680402,34.5367647 C28.2680402,34.7520588 28.478392,34.9314706 28.3651256,35.1647059 L28.3651256,34.7161765" id="Path" fill="#FFFFFF" fill-rule="nonzero"></path>
                        <path d="M23.219598,20.3094118 C26.7925484,19.7834927 30.3918474,19.507848 33.9960804,19.4841176" id="Path" fill="#FFFFFF" fill-rule="nonzero"></path>
                        <path d="M162.488643,25.7097059 L166.420603,25.62 C169.04191,25.62 172.892965,25.62 177.375075,25.8711765 C179.656583,25.9788235 182.229347,26.0326471 184.721206,26.3376471 C187.213065,26.6426471 189.575477,27.0194118 192.083518,27.3961765 L195.772764,27.9344118 C197.085551,28.1704359 198.364241,28.5987909 199.575276,29.2082353 C200.92082,29.8853648 202.118557,30.8768011 203.086533,32.1147059 C203.650808,32.7892213 203.875266,33.7309132 203.685226,34.6264706 C203.42546,35.4477132 202.945576,36.1613386 202.309849,36.6717647 C199.697439,38.5872976 196.82348,40.0230886 193.798693,40.9238235 C190.69196,42.0361765 187.326332,42.9870588 183.847437,44.0635294 C182.957487,44.3326471 182.067538,44.6017647 181.112864,44.9426471 L180.400905,45.2117647 L180.028744,45.3911765 L180.028744,45.3911765 C180.028744,45.3911765 180.336181,45.6244118 178.71809,44.6735294 C178.102299,44.2195203 177.278332,44.3423578 176.792563,44.9605882 C176.862052,44.7627293 176.916185,44.5586554 176.954372,44.3505882 C176.954372,44.1173529 177.1,43.5252941 177.067638,43.6867647 C177.461099,43.7098412 177.855384,43.7098412 178.248844,43.6867647 C180.077286,43.6867647 181.986633,43.5611765 183.89598,43.4714706 L195.562412,42.7179412 L219.591055,40.9238235 C221.426198,40.8299744 223.223194,40.3104609 224.86603,39.3988235 C226.407599,38.2677041 227.52381,36.5515936 228.005126,34.5726471 C228.273636,33.6178795 228.495102,32.6476223 228.668543,31.6661765 C228.862714,30.7332353 229.105427,29.3697059 229.461407,28.1855882 C230.053186,25.6990385 231.352694,23.4905331 233.166834,21.8882353 C234.167667,20.9955128 235.252714,20.2255376 236.403015,19.5917647 C237.489834,18.967808 238.614414,18.4282753 239.768643,17.9770588 C241.974146,17.1524104 244.228739,16.4989687 246.51608,16.0214706 C251.062915,15.0347059 255.383216,14.4426471 259.687337,13.725 C268.263216,12.3794118 276.515477,11.1773529 284.201407,9.88558824 C299.573266,7.32 312.615075,4.23411765 321.417487,0" id="Path" stroke="#A4A4A4"></path>
                        <path d="M186.04804,49.4638235 C186.04804,49.4638235 192.601307,49.3382353 203.167437,48.5847059 L211.791859,47.9208824 L216.500503,47.5082353 L219.186533,47.3108824 C220.335377,47.2211765 221.484221,47.0597059 222.616884,46.8444118 C224.970236,46.4656634 227.197752,45.4283301 229.089246,43.8302941 C230.922134,42.0243187 232.27599,39.6981754 233.005025,37.1023529 C233.380734,35.771012 233.688657,34.4173083 233.927337,33.0476471 C234.186231,31.7379412 234.234774,31.2535294 234.428945,30.4282353 C234.73435,28.8509996 235.495636,27.4273612 236.597186,26.3735294 C237.257675,25.7270871 237.979215,25.16165 238.749246,24.6870588 C239.681586,24.127257 240.643382,23.6299908 241.629447,23.1979412 C243.793945,22.3037994 246.010364,21.5725323 248.263618,21.0091176 C252.939899,19.8608824 257.972161,18.8920588 262.826432,17.8335294 C272.729146,15.7164706 282.745126,13.5635294 292.275678,10.9441176" id="Path" stroke="#A4A4A4"></path>
                    </g>
                </g>
            </g>
        </g>
    </g>
</svg>