<?xml version="1.0" encoding="UTF-8"?>
<svg width="73px" height="124px" viewBox="0 0 73 124" version="1.1" xmlns="http://www.w3.org/2000/svg" xmlns:xlink="http://www.w3.org/1999/xlink">
    <!-- Generator: Sketch 58 (84663) - https://sketch.com -->
    <title>HigherCS</title>
    <desc>Created with Sketch.</desc>
    <g id="Page-1" stroke="none" stroke-width="1" fill="none" fill-rule="evenodd">
        <g id="Artboard" transform="translate(-862.000000, -1616.000000)" fill="#FFFFFF" stroke="#FFFFFF">
            <g id="HigherCS" transform="translate(863.000000, 1617.000000)">
                <path d="M58.0355705,91.0770622 C55.1931588,84.225367 52.8236258,77.1281463 49.4081058,70.5705701 C42.1658671,56.6728053 34.2914102,43.1049653 26.9078218,29.2762545 C25.7102053,27.033277 25.7153453,24.1534678 26.8178721,21 C45.4605974,53.1740673 75.8199183,80.2688263 70.3509743,119.289474 C66.9534443,111.578439 62.3737178,101.187085 57.7965612,90.795731 C57.7965612,90.7931734 58.0355705,91.0770622 58.0355705,91.0770622" id="Fill-54" stroke-width="2"></path>
                <path d="M5.93311496,0 C8.77970932,1.53024601 13.4222237,2.52925453 14.113714,4.69416478 C15.7679152,9.88430792 16.5302649,15.7819842 15.5944318,21.0543986 C15.259682,22.9395864 9.09979847,24.3805093 5.41510809,24.9775638 C3.72425548,25.252585 -0.0483983297,22.9278334 0.000470242974,21.9123706 C0.103094245,19.827381 1.65711486,16.7034226 3.46769547,15.9817859 C13.600594,11.9410902 12.1614145,7.31509304 5.93311496,0" id="Fill-160"></path>
            </g>
        </g>
    </g>
</svg>