<?xml version="1.0" encoding="UTF-8"?>
<svg  viewBox="0 0 799 662" version="1.1" xmlns="http://www.w3.org/2000/svg" xmlns:xlink="http://www.w3.org/1999/xlink">
    <!-- Generator: Sketch 58 (84663) - https://sketch.com -->
    <title>LeavesBg</title>
    <desc>Created with Sketch.</desc>
    <g id="Page-1" stroke="none" stroke-width="1" fill="none" fill-rule="evenodd" fill-opacity="0.631173514">
        <g id="Artboard-Copy-9" transform="translate(-586.000000, -205.000000)" fill="#222A21">
            <path d="M712.753737,682.737836 C687.402703,682.737836 661.377369,689.613334 636.700635,682.737836 C627.291649,680.116278 624.935843,664.498253 618.129529,656.373382 C609.190491,645.702626 595.178611,640.008294 589.59798,626.510198 C573.629992,587.887786 614.819684,533.526971 634.699238,509.399132 C641.211442,501.495262 646.401188,510.967978 649.965711,498.351958 C650.782703,495.460355 649.957409,491.88462 648.499571,489.370963 C636.789318,469.179727 621.688708,451.815026 610.868645,430.939401 C595.686873,401.648536 604.623589,365.514141 620.503279,343.250734 C630.720039,328.926784 576.680014,343.783388 634.187252,321.349229 C637.070725,320.224357 636.598111,328.255951 638.934753,330.550616 C727.277275,417.30608 597.359244,278.655911 659.181448,351.102217 C676.082569,370.907783 700.743832,407.457106 729.509622,381.103146 C778.997585,335.764437 763.222487,246.047409 816.291145,210.519349 C825.867324,204.10835 839.155758,203.148813 849.244386,208.342973 C896.850987,232.853374 877.96079,319.105793 924.925134,354.683595 C983.583295,399.120039 1014.14463,349.375687 1058.59986,337.685823 C1075.10288,333.346223 1092.47045,333.592949 1109.28642,335.647193 C1148.24927,340.406907 1178.09995,377.782675 1198.67441,412.839667 C1212.31987,436.090268 1199.88927,452.281975 1226.74052,467.249066 C1300.06652,508.121539 1231.29851,455.726466 1322.85414,484.357034 C1329.63158,486.476422 1333.84363,495.970496 1335.86322,503.916869 C1349.77569,558.657528 1298.69645,553.924318 1318.85134,627.94275 C1333.3439,681.16634 1400.32757,662.316907 1381.779,718.138381 C1377.33021,731.526906 1367.2561,741.345756 1358.64657,751.500296 C1350.19629,761.467017 1342.31783,774.268252 1330.85973,778.195338 C1312.93101,784.340128 1293.49498,781.98348 1274.89042,780.20642 C1268.53398,779.599269 1255.45127,757.803856 1249.19806,753.125691 C1237.59338,744.443977 1206.25483,728.078036 1191.64625,732.050658 C1175.8139,736.356068 1151.90071,742.584842 1138.46958,758.332464 C1132.07598,765.82879 1129.59245,780.010647 1120.85263,782.54809 C1099.96847,788.611422 1026.19851,747.688941 998.371765,762.85051 C979.630524,773.061789 967.707165,799.923926 951.711279,814.449905 C902.991055,858.693091 843.369556,887.99118 782.290661,848.307703 C779.049638,846.201983 774.915441,843.365079 774.447976,839.023669 C770.594786,803.238579 773.027308,766.801613 769.653931,730.948696 C768.557697,719.297711 737.606083,724.784166 728.299475,718.634265 C727.260458,717.947672 727.22896,716.118117 726.693702,714.860043 L712.753737,682.737836 Z" id="LeavesBg"></path>
        </g>
    </g>
</svg>
