<?xml version="1.0" encoding="UTF-8"?>
<svg id="manSVG" viewBox="0 0 72 169"  version="1.1" xmlns="http://www.w3.org/2000/svg" xmlns:xlink="http://www.w3.org/1999/xlink">
    <!-- Generator: Sketch 58 (84663) - https://sketch.com -->
    <title>Main Character</title>
    <desc>Created with Sketch.</desc>
    <g  stroke="none" stroke-width="1" fill="none" fill-rule="evenodd">
        <g id="Artboard"  fill="#FFFFFF" stroke="#979797">
            <g id="Group-2" >
                <g id="Main-Character" >
                    <path d="M25.0632157,118.845546 C21.1948029,133.512666 21.1868911,150.226783 25.0394804,168.987896 C31.0915867,151.947415 34.1195821,139.32952 34.1234666,131.134211 C34.1292778,118.841248 30.865835,96.8448655 25.0632157,118.845546 Z" id="Path-2" transform="translate(28.139713, 139.228499) rotate(-17.000000) translate(-28.139713, -139.228499) "></path>
                    <path d="M36.2260741,119.816081 C34.6181002,135.142715 37.1048376,151.534074 43.6862862,168.990157 C47.083413,150.803137 48.1723247,137.691101 46.9530212,129.654048 C45.124066,117.598468 38.638035,96.8261294 36.2260741,119.816081 Z" id="Path-2" transform="translate(41.594290, 139.228244) rotate(9.000000) translate(-41.594290, -139.228244) "></path>
                    <path d="M29.4604317,54.1512578 C21.8820841,60.8877798 12.0619402,82.3604437 0,118.569249 L35,136 L70,118.569249 C61.1590727,82.6972698 52.8497202,61.8982581 45.0719424,56.1722144 C33.4052758,47.5831489 40.827953,44.0464748 29.4604317,54.1512578 Z" id="Path"></path>
                    <ellipse id="Oval" cx="35.5" cy="28" rx="29" ry="27.5"></ellipse>
                </g>
            </g>
        </g>
    </g>
</svg>
