<?xml version="1.0" encoding="UTF-8"?>
<svg width="240.8px" height="85px" viewBox="0 0 344 121" version="1.1" xmlns="http://www.w3.org/2000/svg" xmlns:xlink="http://www.w3.org/1999/xlink">
    <!-- Generator: Sketch 58 (84663) - https://sketch.com -->
    <title>market</title>
    <desc>Created with Sketch.</desc>
    <g id="Page-1" stroke="none" stroke-width="1" fill="none" fill-rule="evenodd">
        <g id="Artboard-Copy-9" transform="translate(-966.000000, -489.000000)">
            <g id="market" transform="translate(961.000000, 484.000000)">
                <g id="Marketization-of-Unpaid-Work" stroke="#979797">
                    <path d="M67.8397302,4.25650073 C67.8739055,5.23685366 66.693311,6.50508818 67.9892469,8.54554482 C69.2851828,10.5860015 74.1104761,19.0057542 76.094963,23.2306083 C78.0794499,27.4554624 76.9885655,31.2971233 78.5846988,34.9220948 C80.1808322,38.5470663 82.1824067,43.2620968 83.4826145,45.4250976 C84.5403544,47.1847334 84.3122457,51.5877379 84.8406428,54.7974066 C83.2015062,56.7295331 81.8014699,58.0743968 80.6413133,58.8319888 C77.5870973,60.8264175 75.4938942,62.1083183 74.3617041,62.6776912 C76.8647447,62.7632952 79.0843852,62.4290251 81.0206255,61.6748806 C82.582585,61.0665145 84.2490893,59.9743118 86.0201385,58.3982725 C86.7523159,60.1471696 87.0906459,61.093591 87.1987717,64.1899082 C87.2311773,65.1178838 87.2691674,66.9938442 87.2772971,69.4060385 C85.2012229,78.0885541 82.9337164,83.7977728 80.4746129,86.5346671 C77.1794994,90.2020105 74.8603318,92.6203015 73.5171101,93.78954 C77.4496036,92.7093767 80.6430582,91.2923865 83.0974739,89.5385692 C84.4020815,88.6063542 85.6264317,87.4176912 86.7705246,85.9725801 C86.461374,89.9683827 85.9780697,93.5341255 85.2340955,95.6681854 C82.89582,102.375434 80.9342465,102.321359 81.1435698,108.326021 C81.3528932,114.330682 70.8226891,121.44719 67.27508,121.571291 C63.7274708,121.695392 58.7251656,116.310344 57.0125267,116.370254 C55.2998878,116.430165 53.5529415,117.505125 52.4111823,117.545066 C50.6985434,117.604976 47.9979895,123.717955 45.9653475,125.138689 C43.9327055,126.559423 26.3197091,123.740133 20.470328,117.564688 C14.6209468,111.389244 7.63174659,93.5977838 7.10630229,78.5248575 C7.00218673,75.5381922 6.97319676,72.77531 7.02532965,70.2169104 C7.68943575,71.5528672 8.48100733,72.7335197 9.39811917,73.7606543 C11.2118706,75.7919954 13.7906508,77.7843231 17.13446,79.7376373 C16.1948573,78.4683979 14.6736794,75.9764139 12.5709261,72.2616853 C10.4681729,68.5469566 10.0325318,60.9171889 11.2640027,49.3723822 L11.1953636,49.318224 C11.4632933,48.8359181 11.7451087,48.3715707 12.041106,47.9242291 C16.11338,41.7697907 16.4846459,41.8794968 17.7491246,39.5040859 C18.5695962,37.9627731 21.6315588,32.6754306 25.2105906,27.9256476 C25.228151,27.9928608 25.2471376,28.0606891 25.266383,28.1285887 C25.369632,31.836702 25.8707132,34.7485109 26.7696264,36.8640155 C27.6685397,38.97952 29.0669077,40.9212422 30.9647304,42.689182 C30.5281834,41.3351131 29.8801345,38.6227067 29.0205839,34.551963 C28.5476541,32.3122158 28.559909,28.5780006 29.0573487,23.3493175 C29.7794436,22.6008264 30.4985587,21.9296953 31.2020755,21.3656096 C36.8021323,16.8754368 43.5827835,11.1170294 50.7405265,9.14893103 C57.8982695,7.18083264 61.1173318,8.17246698 63.2723051,6.74745367 C65.4272785,5.32244036 67.805555,3.2761478 67.8397302,4.25650073 Z" id="Combined-Shape-Copy-9" fill="#314725" transform="translate(47.138647, 64.750000) rotate(6.000000) translate(-47.138647, -64.750000) "></path>
                    <path d="M55.725855,67.3431926 C55.740636,67.7669709 55.2300229,68.315192 55.7905217,69.1972224 C56.3510205,70.0792529 58.4379842,73.7188687 59.2962848,75.545151 C60.1545854,77.3714333 59.6827724,79.0320723 60.3731081,80.5990427 C61.0634439,82.1660131 61.9291349,84.2041846 62.4914814,85.1391873 C62.7214674,85.5215807 62.8108993,86.1927606 62.8720088,86.9420055 C61.6058078,88.0499903 60.6048631,88.7532908 59.8684655,89.0528208 C58.4071795,89.6471994 57.412702,90.0184973 56.8850328,90.1667143 C57.940656,90.4094924 58.9106096,90.4507305 59.7948937,90.2904286 C60.6791778,90.1301266 61.6930249,89.667589 62.8364351,88.9028158 C62.9017709,88.8817356 62.9665078,88.860206 63.0306457,88.8382271 C63.0848998,89.2938999 63.1658715,89.7121086 63.2982172,90.0434113 C63.820588,91.3510699 64.0395435,91.5555621 64.0987381,93.2506726 C64.1331418,94.235865 64.1821361,97.6928585 64.0185961,100.984867 C62.211727,102.832032 60.7271103,103.967327 59.56374,104.391915 C57.5607547,105.122933 56.1840815,105.57528 55.4337205,105.748954 C57.1547842,106.134741 58.6620165,106.241991 59.9554176,106.070704 C61.1463022,105.912993 62.4014684,105.412712 63.7209163,104.569863 C63.6002994,105.498585 63.4457216,106.293856 63.2490057,106.857822 C62.2376898,109.757172 61.3892994,109.733797 61.4798328,112.329439 C61.5703662,114.92508 57.0159998,118.001341 55.4816409,118.054986 C53.9472821,118.108631 52.5765208,116.777598 51.8357958,116.803495 C51.0950708,116.829393 50.7191655,116.683425 50.7542703,117.689898 C50.7893751,118.696372 50.8484989,120.391485 50.8762152,121.186124 L49.5534901,121.232315 L49.4500233,118.265867 C49.5082511,117.910252 49.2904567,117.741077 48.79664,117.758342 C48.0559151,117.78424 47.144202,118.982927 46.2650741,119.597069 C45.3859462,120.211212 37.7682364,118.992514 35.2383495,116.323048 C32.7084627,113.653581 29.6858701,105.962838 29.458341,99.4472569 C29.3646325,96.7637966 29.4113897,94.4982495 29.6218476,92.5757006 C29.6429334,92.599841 29.665392,92.6224995 29.6880257,92.6451603 C30.3233198,93.9526063 31.0821434,94.942025 31.9644963,95.6134162 C32.8468492,96.2848074 34.0115551,96.8501895 35.458614,97.3095624 C34.9797678,96.8675112 34.1607067,95.9619299 33.0014307,94.5928184 C32.0953392,93.5227192 31.3305357,91.2949639 30.7070202,87.9095522 C30.9607237,87.2893304 31.2554177,86.728902 31.5926685,86.2194896 C33.3539475,83.5591038 33.5145219,83.6065265 34.0614153,82.5797051 C34.6083087,81.5528836 37.4578317,76.6799379 39.8798845,74.7389659 C40.1077298,74.5563765 40.3400937,74.3689356 40.5766869,74.1784636 C40.6793026,75.547039 40.9394405,76.6316847 41.3576916,77.4280362 C41.7759427,78.2243877 42.4055629,78.9642481 43.2465524,79.6476174 C43.0383438,79.140059 42.718319,78.1268679 42.2864781,76.608044 C42.0703844,75.8480224 42.0070472,74.6370956 42.0964667,72.9752635 C44.0080859,71.4978126 46.127951,70.0632982 48.3303631,69.4580488 C51.4261231,68.6072968 52.8183837,69.0359517 53.7504206,68.4199596 C54.6824574,67.8039675 55.711074,66.9194144 55.725855,67.3431926 Z" id="Combined-Shape-Copy-10" fill="#33790F"></path>
                </g>
                <text id="Marketization-of-Unp" font-family="Helvetica-Light, Helvetica" font-size="16" font-weight="300" line-spacing="25" fill="#FFFFFF">
                    <tspan x="138" y="60">Marketization of Unpaid Work</tspan>
                </text>
                <path d="M84,57.5 L124,57.5 L84,57.5 Z" id="Path-17-Copy-5" stroke="#FFFFFF" transform="translate(104.000000, 57.500000) scale(-1, 1) translate(-104.000000, -57.500000) "></path>
            </g>
        </g>
    </g>
</svg>
