<?xml version="1.0" encoding="UTF-8"?>
<svg width="121px" height="126px" preserveAspectRatio="none"  viewBox="0 0 121 126" version="1.1" xmlns="http://www.w3.org/2000/svg" xmlns:xlink="http://www.w3.org/1999/xlink">
    <!-- Generator: Sketch 58 (84663) - https://sketch.com -->
    <title>Group 3</title>
    <desc>Created with Sketch.</desc>
    <g id="Page-1" stroke="none" stroke-width="1" fill="none" fill-rule="evenodd" opacity="0.953404018">
        <g id="Artboard-Copy-10" transform="translate(-1019.000000, -499.000000)">
            <g id="Group-3" transform="translate(1010.000000, 491.000000)">
                <g id="Rising-Incomes" transform="translate(81.597645, 77.693295) rotate(47.000000) translate(-81.597645, -77.693295) translate(45.097645, 26.693295)" stroke="#979797">
                    <path d="M52.6656833,3.30249772 C52.6925453,4.07304511 51.7645901,5.06986448 52.7832044,6.67364255 C53.8018187,8.27742062 57.5945317,14.8952603 59.1543517,18.2159524 C60.7141718,21.5366446 59.8567293,24.5561508 61.1113008,27.4053414 C62.3658723,30.2545319 63.9391233,33.9604978 64.9610954,35.6605942 C65.7926189,37.0438711 65.6131337,40.5054728 66.0287139,43.0283428 C64.7400055,44.5458966 63.6396478,45.6028512 62.7278136,46.1982738 C60.3271793,47.7658744 58.6819076,48.7734353 57.7919986,49.2209566 C59.7594053,49.2882405 61.5040576,49.0255075 63.0259555,48.4327577 C64.2536356,47.9546001 65.5634845,47.0961708 66.9555023,45.8574698 C67.5312863,47.2325043 67.7970634,47.9767068 67.8820199,50.4095437 C67.9074769,51.1385379 67.937319,52.611852 67.9437303,54.5063661 C66.3123245,61.3327522 64.52987,65.8208888 62.5967859,67.9722959 C60.0068046,70.8547904 58.1839233,72.7555424 57.1281421,73.6745519 C60.2191083,72.8255546 62.7291851,71.7118147 64.6583723,70.3333323 C65.6839512,69.6005146 66.6464291,68.666073 67.5458058,67.5300074 C67.3024944,70.6706133 66.9225971,73.4736348 66.3377712,75.151148 C64.499871,80.4229767 62.958061,80.3804745 63.1225906,85.1000772 C63.2871201,89.81968 55.0103091,95.4131825 52.2218645,95.5107244 C49.4334198,95.6082663 45.5015743,91.3756735 44.1554287,91.4227627 C42.809283,91.4698519 41.4361715,92.3147596 40.5387411,92.3461524 C39.1925954,92.3932416 37.0699419,97.1979806 35.4722717,98.314663 C33.8746014,99.4313454 20.030668,97.2154119 15.4330151,92.3615755 C10.8353623,87.5077391 5.34180396,73.5238335 4.92880121,61.6766674 C4.84700769,59.3303842 4.82420277,57.1598115 4.86509311,55.149803 C5.38815426,56.1982549 6.00991147,57.1253878 6.73018466,57.9320524 C8.15580545,59.5286657 10.1827441,61.0946149 12.8110005,62.6299 C12.0724665,61.6322908 10.8768104,59.6736168 9.22403225,56.753878 C7.57125408,53.8341392 7.22883721,47.8372198 8.19678166,38.7631196 L8.14220196,38.721684 C8.35298436,38.3421909 8.57470261,37.976842 8.80759009,37.6248861 C12.0084247,32.7875604 12.3002423,32.8737883 13.294131,31.0067396 C13.9390126,29.7953107 16.345642,25.6396734 19.1587034,21.9064574 C19.1727723,21.959307 19.1876583,22.0124831 19.2027466,22.0657149 C19.283901,24.9802541 19.6777541,27.2689062 20.384306,28.9316712 C21.0908578,30.5944361 22.1899845,32.1206099 23.6816859,33.5101925 C23.338557,32.4459082 22.8291863,30.3139845 22.1535737,27.1144215 C21.7818141,25.3538441 21.7914819,22.4184177 22.1825771,18.3081425 C22.7509812,17.7200743 23.315731,17.1930799 23.8682407,16.7500825 C28.269923,13.2208525 33.5995604,8.69480318 39.2255944,7.14789795 C44.8516285,5.60099272 47.381833,6.38040719 49.0756565,5.26036128 C50.76948,4.14031538 52.6388214,2.53195033 52.6656833,3.30249772 Z" id="Combined-Shape" fill="#314725" transform="translate(36.394489, 50.849770) rotate(6.000000) translate(-36.394489, -50.849770) "></path>
                    <path d="M46.5824315,21.8674041 C46.6039168,22.4833839 45.8617029,23.2802468 46.6764294,24.5623157 C47.4911559,25.8443846 50.5247122,31.1347218 51.7723157,33.7893012 C53.0199192,36.4438806 52.334104,38.8576904 53.3375581,41.1353489 C54.3410122,43.4130074 55.5993584,46.3755767 56.4167705,47.7346431 C56.7509793,48.2903138 56.8809958,49.2655145 56.9698213,50.354208 C55.1297361,51.9653684 53.6745627,52.9878436 52.6040227,53.4232768 C50.4799353,54.2872316 49.0343886,54.8269288 48.2673824,55.0423686 C49.8018088,55.395257 51.2117082,55.4551983 52.4970806,55.2221926 C53.7824531,54.9891869 55.256155,54.3168687 56.9181863,53.2052381 C57.0126279,53.1747677 57.1062085,53.1436515 57.1989281,53.1118894 C57.2791813,53.7728335 57.3969102,54.3812383 57.5894208,54.8631425 C58.3487255,56.76388 58.6669954,57.0611182 58.7530372,59.5250338 C58.8030436,60.9570302 58.8742592,65.9817795 58.6365558,70.7667855 C56.0105525,73.4516231 53.8522933,75.1020881 52.1610817,75.7193066 C49.2495942,76.7818724 47.2484977,77.4393769 46.1577924,77.6918201 C48.6594859,78.2525786 50.8503598,78.4084709 52.730414,78.1594971 C54.4615501,77.9302444 56.2861347,77.2029968 58.204168,75.9777544 C58.0287817,77.3265494 57.8039963,78.48338 57.5178883,79.3036074 C56.0478657,83.5179361 54.8146673,83.4839596 54.9462643,87.2568358 C55.0778613,91.029712 48.4577525,95.5011884 46.2274483,95.579164 C43.9971441,95.6571395 42.004641,93.7224254 40.9279424,93.7600688 C39.8512438,93.7977121 39.3048376,93.5855414 39.355865,95.0484934 C39.4068924,96.5114454 39.4928333,98.9753646 39.5331208,100.130406 L37.610442,100.197547 L37.4600454,95.8856884 C37.5446838,95.3687868 37.2281035,95.1228838 36.5103044,95.1479794 C35.4336058,95.1856228 34.1083634,96.9279658 32.8304859,97.8206478 C31.5526083,98.7133298 20.4797029,96.9419005 16.802325,93.0617172 C13.1249471,89.1815338 8.73137782,78.0027098 8.40065454,68.5320341 C8.26447436,64.632344 8.33238176,61.3398489 8.63813026,58.5457263 C8.66955878,58.579613 8.70191353,58.6122527 8.7345183,58.6448958 C9.65796535,60.5453245 10.7609716,61.9834868 12.0435369,62.9593826 C13.3261022,63.9352785 15.0190885,64.7570855 17.1224957,65.4248037 C16.4264573,64.7822634 15.2358914,63.4659622 13.5507978,61.4759001 C12.2336282,59.920349 11.1218619,56.6818433 10.2154989,51.7603832 C10.5847577,50.8594389 11.0129978,50.045121 11.5030577,49.3049088 C14.0632071,45.4379242 14.2966139,45.5068552 15.091564,44.0143263 C15.886514,42.5217974 20.0285067,35.4387625 23.5491398,32.6174768 C23.8803649,32.3520471 24.2181595,32.0795642 24.562103,31.8026748 C24.7111532,33.7920456 25.089283,35.3686244 25.6972419,36.5261554 C26.3052008,37.6836863 27.2204005,38.759105 28.442841,39.7524115 C28.1401943,39.0146538 27.6750146,37.5419371 27.0473019,35.3342616 C26.7331028,34.2292185 26.6410752,32.4683863 26.771219,30.0517652 C29.5500809,27.9061226 32.6313204,25.8211518 35.8325364,24.9414381 C40.3324528,23.7048336 42.3562067,24.3279017 43.7109913,23.4325309 C45.0657759,22.5371601 46.5609463,21.2514243 46.5824315,21.8674041 Z" id="Combined-Shape" fill="#33790F"></path>
                </g>
                <path d="M45.1584574,131.716314 C45.4573993,127.074186 48.9941953,116.818668 48.0535835,101.440611 C47.3462028,89.875648 44.7093523,65.7442387 40.143032,29.0463826 L40.9613288,25.147546 C46.0999929,48.4451332 49.6119679,74.9883043 51.4972538,104.777059 C51.9342833,111.682412 53.4697919,121.056069 52.2460405,132.724365 C52.1715904,133.434236 51.340287,133.492366 49.7521304,132.898756 C46.6579172,132.603718 45.1266929,132.209571 45.1584574,131.716314 Z" id="Path-9" fill="#342A03" transform="translate(46.426446, 79.225900) rotate(4.000000) translate(-46.426446, -79.225900) "></path>
                <g id="Aging-Health-Care" transform="translate(41.333463, 63.116265) rotate(-33.000000) translate(-41.333463, -63.116265) translate(32.833463, 51.116265)" stroke="#979797">
                    <path d="M12.2991253,0.82217176 C12.3053808,1.0016143 12.0892817,1.23375032 12.3264932,1.60723289 C12.5637048,1.98071545 13.4469393,3.52185619 13.8101851,4.29516806 C14.1734308,5.06847993 13.9737524,5.77165262 14.2659129,6.43516275 C14.5580734,7.09867288 14.9244469,7.96170601 15.1624404,8.3576189 C15.3560966,8.67977461 15.3142791,9.48599219 15.4110844,10.0735205 C15.110709,10.4270339 14.8546047,10.6730052 14.6423611,10.8115991 C14.0833093,11.1766567 13.7001638,11.4112942 13.4929247,11.5155115 C13.951088,11.5311803 14.3573768,11.469996 14.7117914,11.3319583 C14.9973248,11.2207486 15.3019445,11.0212083 15.6256507,10.7333374 C15.760912,11.0522625 15.8228608,11.2254525 15.8426557,11.7923057 C15.8485714,11.9617092 15.855504,12.3037083 15.857017,12.7435367 C15.4773187,14.3355417 15.0621311,15.3811233 14.6118478,15.8822618 C14.0087015,16.5535276 13.5841949,16.9961685 13.338328,17.2101844 C14.0581421,17.0124727 14.6426805,16.7531086 15.0919433,16.4320921 C15.3310575,16.2612354 15.5554424,16.0433146 15.7650979,15.7783298 C15.7078605,16.5094355 15.6193538,17.163036 15.4830362,17.5540492 C15.055032,18.7817354 14.6959804,18.7718376 14.7342955,19.8709232 C14.7726106,20.9700087 12.845134,22.2726052 12.1957702,22.2953204 C11.5464064,22.3180357 10.6307712,21.3323634 10.3172852,21.3433294 C10.0037992,21.3542953 9.68403351,21.5510547 9.47504285,21.5583653 C9.16155687,21.5693313 8.66724032,22.6882431 8.29518012,22.9482924 C7.92311992,23.2083418 4.69919022,22.6923025 3.62850394,21.561957 C2.55781765,20.4316115 1.27849586,17.1750856 1.18231713,14.4161565 C1.16319507,13.8676315 1.15791739,13.3603452 1.16759305,12.8907287 C1.28813713,13.138642 1.4334147,13.3555215 1.60181739,13.5441228 C1.93381127,13.9159369 2.40583807,14.28061 3.01789778,14.6381421 C2.84591042,14.4058222 2.56746996,13.9496926 2.18257642,13.2697535 C1.79768287,12.5898143 1.71794196,11.1932714 1.94335368,9.08012481 L1.9310528,9.0697384 C1.98001677,8.98162726 2.03151345,8.89679119 2.08559674,8.81505673 C2.83099658,7.68855622 2.89895409,7.70863668 3.13040763,7.27384452 C3.28057689,6.99174722 3.8409688,6.02409146 4.49601659,5.15475121 C4.49940133,5.16689043 4.50287037,5.17928277 4.5063866,5.1916881 C4.52528558,5.8704164 4.6170048,6.40339018 4.78154428,6.79060942 C4.94608375,7.17782865 5.20204474,7.53323899 5.54942726,7.85684042 C5.46952054,7.60899338 5.35089995,7.112518 5.19356552,6.3674143 C5.10700794,5.95749529 5.10924191,5.2740861 5.20026744,4.31718672 C5.33329654,4.17912165 5.46450267,4.05672612 5.59287155,3.95380109 C6.61792084,3.13192562 7.85906927,2.07791413 9.16924158,1.71767592 C10.4794139,1.35743772 11.0686396,1.5389452 11.4630917,1.27811259 C11.8575437,1.01727998 12.2928698,0.642729217 12.2991253,0.82217176 Z" id="Combined-Shape" fill="#314725" transform="translate(8.509938, 11.894824) rotate(6.000000) translate(-8.509938, -11.894824) "></path>
                    <path d="M10.0571554,9.52334025 C10.0607363,9.62600355 9.93703399,9.75881403 10.0728217,9.97249219 C10.2086095,10.1861703 10.7142022,11.0678932 10.9221361,11.5103231 C11.1300701,11.952753 11.0157675,12.3550546 11.1830099,12.7346644 C11.3502522,13.1142741 11.5599766,13.6080357 11.6962119,13.8345468 C11.7518347,13.9270276 11.7735215,14.0892326 11.7883242,14.2703715 C11.4814477,14.5398493 11.2390822,14.7101189 11.060754,14.7826524 C10.7067394,14.9266448 10.4658149,15.0165944 10.3379806,15.052501 C10.5937183,15.1113157 10.8287016,15.121306 11.0429303,15.0824717 C11.257159,15.0436374 11.502776,14.9315844 11.7797812,14.7463126 C11.7956665,14.7411874 11.8114057,14.7359526 11.8269986,14.7306081 C11.8398035,14.8401685 11.859451,14.9420183 11.8916536,15.02263 C12.0182044,15.3394196 12.0712494,15.3889593 12.0855897,15.7996119 C12.0939234,16.0382587 12.1057915,16.875601 12.0661857,17.6730441 C11.6280185,18.1210851 11.2686069,18.3958577 10.9869305,18.4986573 C10.5016825,18.6757516 10.1681665,18.7853357 9.98638225,18.8274096 C10.4033312,18.9208693 10.7684768,18.9468514 11.0818192,18.9053558 C11.3951616,18.8638601 11.7268735,18.7244714 12.0769551,18.4871896 L11.9940425,18.5427498 C11.9647543,18.7671803 11.9273359,18.9595664 11.8797316,19.0960408 C11.6347278,19.7984289 11.4291947,19.7927662 11.4511276,20.4215789 C11.4730604,21.0503916 10.3697089,21.7956376 9.99799157,21.8086336 C9.62627419,21.8216295 9.29419035,21.4991771 9.11474059,21.505451 C8.93529082,21.5117249 8.84422311,21.4763631 8.85272768,21.7201885 C8.86123225,21.9640138 8.87555573,22.374667 8.88227032,22.5671738 L8.56182385,22.5783641 L8.53675776,21.859721 C8.55086415,21.7735707 8.49810076,21.7325869 8.37846758,21.7367695 C8.19901782,21.7430434 7.97814408,22.0334339 7.76516449,22.1822142 C7.5521849,22.3309945 5.70670067,22.0357563 5.09380435,21.3890591 C4.48090803,20.7423619 3.74864649,18.8792245 3.69352594,17.3007786 C3.67081783,16.6505033 3.68215854,16.101529 3.73318216,15.6356913 C3.73852216,15.6422221 3.74382588,15.6475719 3.7491699,15.6529222 C3.90307774,15.9696603 4.08691211,16.209354 4.300673,16.3720033 C4.51443389,16.5346526 4.79659827,16.6716205 5.14716613,16.7829068 C5.03115974,16.6758168 4.83273208,16.4564333 4.55188316,16.1247563 C4.3323204,15.865457 4.14700228,15.3255772 3.9959288,14.5051168 C4.05768728,14.355072 4.12899896,14.2195018 4.21059313,14.0962577 C4.63728471,13.4517603 4.67618584,13.4632488 4.80867751,13.214494 C4.94116919,12.9657391 5.6315013,11.7852333 6.21827349,11.315019 L6.38636815,11.1784793 L6.40665226,11.3693578 C6.43868324,11.6130921 6.49522932,11.812128 6.57629051,11.9664655 C6.67761699,12.1593873 6.83015027,12.3386237 7.03389035,12.5041748 C6.98344924,12.3812152 6.90591929,12.1357624 6.8013005,11.7678165 C6.74894937,11.5836967 6.73360506,11.2903429 6.75526759,10.8877552 C7.2176513,10.5303206 7.73156555,10.1824094 8.26550625,10.0356792 C9.01549231,9.8295785 9.35278464,9.93342319 9.57858207,9.78419473 C9.8043795,9.63496626 10.0535746,9.42067696 10.0571554,9.52334025 Z" id="Combined-Shape" fill="#33790F"></path>
                </g>
                <g id="Sum-of-Investment-in-Infrasstructure" transform="translate(50.364917, 18.854443) rotate(20.000000) translate(-50.364917, -18.854443) translate(37.864917, 3.354443)" stroke="#979797">
                    <path d="M12.6117675,29.9165146 L12.8154511,29.9165146 C12.8833478,29.5542355 12.8833507,29.0437526 12.8154599,28.3850659 C12.7136237,27.3970358 12.2044309,24.5317497 12.3289251,20.8760355 C12.4534193,17.2203213 12.9173948,12.0825591 13.6076747,8.82205398 C14.0678613,6.64838386 14.4262008,5.40510989 14.6826931,5.09223204 C14.8411151,4.84522437 14.8411158,4.72172054 14.6826952,4.72172054 C14.4450643,4.72172054 13.9132198,5.38864563 13.3247807,8.82205559 C12.7363416,12.2554656 12.328952,16.158189 12.1705188,18.3565582 C12.0120857,20.5549274 12.0912674,25.5691826 12.3288903,26.977125 C12.5665132,28.3850673 12.521253,27.8910522 12.6117762,28.3850671 C12.6721251,28.7144103 12.6721221,29.2248928 12.6117675,29.9165146 Z" id="Path-4" fill="#404B09" transform="translate(13.444796, 17.319118) rotate(16.000000) translate(-13.444796, -17.319118) "></path>
                    <g id="Added-Investment-in-Infrastructure" transform="translate(8.906299, 19.485031) scale(-1, 1) rotate(8.000000) translate(-8.906299, -19.485031) translate(1.906299, 9.485031)">
                        <path d="M10.140092,0.813886811 C10.1452436,0.961663023 9.9672796,1.15283386 10.1626303,1.46040774 C10.357981,1.76798161 11.0853506,3.03715635 11.3844942,3.67400141 C11.6836377,4.31084648 11.5191967,4.88992987 11.7597995,5.43634998 C12.0004022,5.98277008 12.3021216,6.69350326 12.4981162,7.01954916 C12.6575328,7.2847458 12.6231878,7.94825694 12.7027845,8.43205324 C12.4556346,8.72365736 12.2446544,8.92630524 12.0698156,9.040474 C11.60942,9.34110974 11.2938884,9.5343406 11.123221,9.62016659 C11.5005318,9.63307036 11.8351227,9.58268322 12.1269935,9.46900517 C12.3622591,9.37737377 12.613259,9.21292498 12.8799933,8.97565878 C12.9910612,9.23890835 13.0420056,9.38168841 13.0582935,9.8481148 C13.0631693,9.98773954 13.0688839,10.2697383 13.0701236,10.6323853 C12.7569354,11.943784 12.4152416,12.8039088 12.044687,13.2163139 C11.5479783,13.769121 11.1983846,14.1336488 10.995906,14.3098972 C11.588694,14.1470758 12.0700786,13.9334819 12.4400598,13.6691154 C12.6367275,13.5285883 12.8212959,13.349401 12.993765,13.1315534 C12.9472294,13.7332257 12.8743545,14.2711935 12.7621362,14.59308 C12.4096622,15.6041157 12.1139727,15.5959645 12.1455263,16.5010938 C12.1770799,17.4062231 10.5897462,18.4789496 10.054976,18.4976563 C9.52020585,18.516363 8.76615328,17.7046329 8.50798836,17.7136637 C8.24982344,17.7226945 7.98648699,17.8847316 7.81437704,17.8907521 C7.55621212,17.8997829 7.14912789,18.8212397 6.84272538,19.035398 C6.53632286,19.2495562 3.88132193,18.8245827 2.99958028,17.89371 C2.11783864,16.9628372 1.06427951,14.2809923 0.985073507,12.008933 C0.969338623,11.5575709 0.964986621,11.1401153 0.972928538,10.7536342 C1.07228793,10.9569647 1.19189946,11.1355134 1.33054431,11.2907877 C1.60395103,11.5969875 1.99267898,11.8973065 2.49672816,12.1917448 C2.35509151,12.0004225 2.1257876,11.6247864 1.80881645,11.0648365 C1.49184529,10.5048866 1.4261763,9.35479241 1.61180948,7.61455403 L1.60119327,7.60687553 C1.64166177,7.53400002 1.68423264,7.46384392 1.72895083,7.39626267 C2.34280952,6.46855636 2.39877453,6.48509322 2.58938332,6.12702908 C2.7130787,5.89466374 3.17474971,5.09747816 3.71435026,4.38143189 C3.71669619,4.39155561 3.71959926,4.40192829 3.72254248,4.41231203 C3.73810634,4.97126475 3.81363982,5.41018433 3.94914292,5.72907076 C4.08464601,6.04795719 4.29543742,6.34064806 4.58151714,6.60714335 C4.5157116,6.40303403 4.41802406,5.99417195 4.28845453,5.38055713 C4.21719579,5.04309032 4.21901033,4.48054778 4.29389814,3.69292951 C4.40345738,3.57849885 4.51154512,3.47766482 4.61729479,3.39287567 C5.46145302,2.71603705 6.48357527,1.84802758 7.5625407,1.55136083 C8.64150613,1.25469407 9.12675084,1.40417082 9.45159371,1.18936749 C9.77643657,0.974564171 10.1349404,0.666110599 10.140092,0.813886811 Z" id="Combined-Shape-Copy-6" fill="#314725" transform="translate(7.019586, 9.932542) rotate(6.000000) translate(-7.019586, -9.932542) "></path>
                        <path d="M8.71328609,8.59310528 C8.71615078,8.67523592 8.61718893,8.7814843 8.72581913,8.95242683 C8.83444934,9.12336935 9.23892351,9.82874764 9.40527064,10.1826916 C9.57161778,10.5366355 9.48017575,10.8584768 9.61396963,11.1621646 C9.74776351,11.4658524 9.91554299,11.8608616 10.0245313,12.0420705 C10.0691222,12.1162094 10.0864511,12.2463604 10.0982951,12.3916366 C9.85290225,12.6061844 9.65889458,12.7425009 9.51616491,12.800555 C9.23295326,12.9157489 9.04021369,12.9877086 8.9379462,13.0164339 C9.14253638,13.0634857 9.33052297,13.0714778 9.50190596,13.0404104 C9.67328896,13.009343 9.86978254,12.9197006 10.0913867,12.7714832 C10.1049065,12.7671212 10.1182939,12.7626599 10.131549,12.7580994 C10.1394658,12.8468855 10.1551727,12.9281735 10.1808847,12.9925371 C10.2821253,13.2459687 10.3245613,13.2856005 10.3360335,13.6141226 C10.3427,13.805026 10.3521935,14.4748153 10.3205173,15.1127275 C9.97037572,15.4709959 9.68260367,15.6910622 9.45710611,15.7733589 C9.06890777,15.9150344 8.80209491,16.0027017 8.65666753,16.0363607 C8.99022667,16.1111285 9.28234318,16.1319142 9.53301708,16.0987177 C9.7335562,16.0721605 9.94350056,15.995482 10.1628502,15.8686823 L10.3144563,15.7726165 L10.262988,15.8071579 C10.239529,15.9873344 10.2095347,16.1417874 10.171347,16.2512657 C9.97534397,16.8131762 9.81091753,16.808646 9.82846379,17.3116962 C9.84601006,17.8147463 8.96332888,18.4109432 8.66595499,18.4213399 C8.36858109,18.4317367 8.10291401,18.1737748 7.9593542,18.1787939 C7.81579439,18.183813 7.74294022,18.1555236 7.74974388,18.3505839 C7.75654753,18.5456441 7.76800632,18.8741667 7.77337799,19.0281721 L7.51702081,19.0371243 L7.49696794,18.4622099 C7.50825305,18.3932896 7.46604234,18.3605026 7.3703358,18.3638487 C7.22677599,18.3688678 7.050077,18.6011802 6.87969333,18.7202044 C6.70930966,18.8392287 5.23292227,18.6030381 4.74260522,18.0856804 C4.25228816,17.5683226 3.66647892,16.0778127 3.62238249,14.8150559 C3.6042035,14.2944778 3.61330106,13.855052 3.65419175,13.482217 C3.65764635,13.4874711 3.66225297,13.4921207 3.66689765,13.4967708 C3.79002393,13.7501613 3.93709142,13.9419163 4.10810013,14.0720358 C4.27910885,14.2021552 4.50484035,14.3117295 4.78529464,14.4007586 C4.69248952,14.3150865 4.5337474,14.1395797 4.30906826,13.8742381 C4.13363751,13.6670578 3.98553406,13.2359737 3.8647579,12.5809856 C3.91373119,12.4584533 3.97077213,12.3500176 4.03603623,12.2514392 C4.3773895,11.7358413 4.4085104,11.7450321 4.51450375,11.5460282 C4.62049709,11.3470244 5.17276277,10.4026197 5.64218053,10.0264483 L5.77645626,9.91761652 L5.79288354,10.0699193 C5.81850832,10.2649068 5.86374519,10.4241355 5.92859414,10.5476054 C6.00965533,10.7019429 6.13168195,10.8453321 6.29467402,10.9777729 C6.25432112,10.8794052 6.19229716,10.683043 6.10860214,10.3886863 C6.06675462,10.2415079 6.05446538,10.0070817 6.0717344,9.68540754 L6.20847323,9.58078009 C6.54232803,9.33311598 6.9049737,9.10602685 7.27996673,9.00297647 C7.87995558,8.83809588 8.14978945,8.92117163 8.33042739,8.80178886 C8.51106534,8.68240608 8.71042139,8.51097464 8.71328609,8.59310528 Z" id="Combined-Shape-Copy-7" fill="#33790F"></path>
                    </g>
                    <g id="Investment-in-Infrastructure" transform="translate(18.711345, 5.683901) rotate(46.000000) translate(-18.711345, -5.683901) translate(15.211345, 1.183901)">
                        <path d="M4.51187044,0.40429702 C4.51407827,0.467629682 4.43780798,0.549560042 4.52152971,0.681377417 C4.60525143,0.813194793 4.91698126,1.35712682 5.04518565,1.63006042 C5.17339003,1.90299402 5.10291531,2.15117262 5.20603078,2.38535266 C5.30914624,2.61953271 5.43845455,2.92413264 5.52245225,3.0638666 C5.59076617,3.17750988 5.57605758,3.46182207 5.61015605,3.66915751 C5.50425987,3.79418521 5.41383158,3.88104398 5.33889484,3.92997724 C5.14158244,4.05882113 5.00635463,4.14163436 4.93321142,4.17841692 C5.09491608,4.18394711 5.23831216,4.16235262 5.36339966,4.11363346 C5.48848716,4.0649143 5.6239532,3.96816398 5.76979778,3.82338252 L5.68677296,3.90278714 C5.73380496,4.01527512 5.75556217,4.07662684 5.76252824,4.27610902 C5.76462577,4.33617439 5.7670855,4.45771942 5.7676042,4.61398896 C5.63294903,5.17532411 5.48670373,5.54313474 5.32812545,5.7196229 C5.11525027,5.95654025 4.96542441,6.11276644 4.87864787,6.18830147 C5.13269989,6.11852087 5.33900757,6.02698061 5.4975709,5.91368068 C5.58193276,5.85340072 5.66109989,5.7765223 5.73507229,5.68304542 C5.71496501,5.940893 5.6837247,6.17163534 5.63560369,6.30966554 C5.4845434,6.74296652 5.35781929,6.73947319 5.37134227,7.12738575 C5.38486524,7.5152983 4.7045794,7.97503823 4.47539217,7.98305538 C4.24620495,7.99107252 3.92303956,7.64318818 3.81239745,7.64705853 C3.70175534,7.65092887 3.58889686,7.72037334 3.51513546,7.72295357 C3.40449335,7.72682392 3.23002868,8.12173397 3.09871331,8.21351608 C2.96739795,8.3052982 1.82954041,8.12316668 1.45165113,7.72422122 C1.07376186,7.32527576 0.622236517,6.17591366 0.588291085,5.20217398 C0.582633513,5.03988403 0.58040964,4.88782211 0.581850026,4.74524625 L0.584379378,4.66846248 C0.62710597,4.75347152 0.677762844,4.82878316 0.736349999,4.8943974 C0.853524311,5.0256259 1.020122,5.15433405 1.23614308,5.28052186 C1.17544166,5.19852658 1.07716855,5.03753968 0.941323773,4.79756115 C0.805478992,4.55758262 0.77733514,4.06468513 0.856892218,3.31886868 C0.8696515,3.28440248 0.887912566,3.25430607 0.907095651,3.22531524 C1.17017795,2.82772683 1.19416295,2.83481405 1.27585244,2.68135799 C1.3288892,2.5817269 1.52690637,2.23980654 1.75830126,1.93282013 C1.75902028,1.93770427 1.76024781,1.94208946 1.76149207,1.94647926 C1.7681623,2.18603042 1.80053379,2.37413881 1.85860655,2.51080443 C1.9166793,2.64747004 2.00701848,2.77290898 2.12962407,2.88712125 C2.1014217,2.79964583 2.05955561,2.62441922 2.00402581,2.36144144 C1.9735691,2.21720472 1.97426002,1.97702903 2.00609857,1.64091439 C2.05335558,1.58909079 2.09965702,1.54589937 2.14495735,1.50957796 C2.50673945,1.21950426 2.94479184,0.847500209 3.4072056,0.720357313 C3.86961935,0.593214418 4.07758137,0.65727588 4.21679974,0.565217313 C4.35601811,0.473158745 4.5096626,0.340964358 4.51187044,0.40429702 Z" id="Combined-Shape" fill="#314725" transform="translate(3.175611, 4.312292) rotate(6.000000) translate(-3.175611, -4.312292) "></path>
                        <path d="M3.52625399,5.33459984 C3.52697016,5.3551325 3.5022297,5.38169459 3.52938725,5.42443022 C3.5565448,5.46716586 3.65766335,5.64351043 3.69925013,5.73199641 C3.74083691,5.82048239 3.71797641,5.90094272 3.75142488,5.97686467 C3.78487335,6.05278662 3.82681822,6.15153893 3.85406529,6.19684114 C3.86517371,6.2153105 3.86951461,6.2476843 3.87247487,6.28384859 C3.81088786,6.33805936 3.7625567,6.37198917 3.72697369,6.38646226 C3.65617078,6.41526075 3.60798589,6.43325066 3.58241902,6.44043199 C3.63356656,6.45219493 3.68056321,6.45419298 3.72340896,6.44642612 C3.76625471,6.43865926 3.8153781,6.41624866 3.87077915,6.37919431 C3.87402389,6.37814743 3.87723814,6.37707768 3.88042191,6.37598507 C3.8826947,6.39750246 3.88663999,6.41815244 3.89315363,6.43445778 C3.91846379,6.4978157 3.92907278,6.50772364 3.93194084,6.58985416 C3.93360468,6.63750007 3.9359729,6.80446672 3.92810151,6.96370394 C3.83979353,7.05463235 3.76829609,7.10919391 3.71220899,7.12966325 C3.61515941,7.16508212 3.5484562,7.18699893 3.51209935,7.1954137 C3.59548913,7.21410565 3.66851826,7.21930206 3.73118674,7.21100294 C3.77296572,7.20547019 3.81637756,7.19123583 3.86142225,7.16829986 L3.92629653,7.12922765 L3.9134556,7.13982324 C3.90762423,7.18413447 3.9001951,7.22211738 3.89076921,7.24913995 C3.84176846,7.38961757 3.80066185,7.38848502 3.80504842,7.51424756 C3.80943498,7.6400101 3.58876469,7.78905932 3.51442121,7.7916585 C3.44007774,7.79425768 3.37366097,7.72976722 3.33777102,7.73102199 C3.30188106,7.73227677 3.28366752,7.72520441 3.28536844,7.77396948 C3.28706935,7.82273455 3.28993405,7.90486519 3.29127697,7.94336655 L3.22718767,7.9456046 L3.22217445,7.80187598 C3.22499573,7.78464593 3.21444305,7.77644916 3.19051642,7.77728568 C3.15462646,7.77854046 3.11045172,7.83661856 3.0678558,7.86637463 C3.02525988,7.89613069 2.65616304,7.83708305 2.53358377,7.70774361 C2.41100451,7.57840416 2.2645522,7.20577669 2.25352809,6.8900875 C2.2489591,6.75924877 2.25128219,6.64891513 2.26164467,6.55538764 C2.2626837,6.55853389 2.26366683,6.55952501 2.26465688,6.56051623 C2.29543845,6.62386385 2.33220532,6.67180259 2.3749575,6.70433246 C2.41770968,6.73686232 2.47414255,6.76425588 2.54425613,6.78651316 C2.52105485,6.76509515 2.48136932,6.72121844 2.42519953,6.65488304 C2.38151192,6.60328884 2.34460325,6.49615196 2.31447352,6.3334724 C2.3264293,6.30081515 2.34066213,6.27377259 2.35694153,6.24918333 C2.44227984,6.12028384 2.45006007,6.12258154 2.4765584,6.07283058 C2.50305674,6.02307961 2.64112316,5.78697845 2.7584776,5.69293559 L2.79226802,5.665567 C2.79721138,5.73208789 2.8098157,5.78464052 2.830081,5.82322488 C2.8503463,5.86180925 2.88085296,5.89765654 2.92160097,5.93076675 C2.91151275,5.90617483 2.89600676,5.85708427 2.875083,5.78349509 C2.86462112,5.7467005 2.86154881,5.68809394 2.86586607,5.6076754 L2.95095983,5.5451931 C3.01990252,5.49813399 3.09292554,5.45767771 3.16792415,5.43706764 C3.31792136,5.39584749 3.38537983,5.41661643 3.43053932,5.38677073 C3.4756988,5.35692504 3.52553781,5.31406718 3.52625399,5.33459984 Z" id="Combined-Shape" fill="#33790F"></path>
                    </g>
                </g>
                <g id="Marketization-of-Unpaid-Work" transform="translate(35.283325, 31.906220) rotate(312.000000) translate(-35.283325, -31.906220) translate(25.783325, 18.906220)" stroke="#979797">
                    <path d="M13.1480097,0.824932927 C13.1546332,1.01493091 12.9258223,1.26072199 13.1769875,1.65617412 C13.4281527,2.05162625 14.3633421,3.68342233 14.7479553,4.50222313 C15.1325685,5.32102393 14.9211443,6.06555972 15.2304907,6.76809986 C15.5398371,7.47063999 15.927762,8.38443979 16.1797551,8.80364166 C16.3847701,9.14469336 16.3405395,9.99811783 16.4429763,10.6201812 C16.1253848,10.9943989 15.8539788,11.2551179 15.6290829,11.4019736 C15.0371457,11.7885053 14.6314622,12.0369449 14.4120326,12.1472926 C14.8971466,12.1638832 15.3273348,12.0990997 15.7025973,11.9529422 C16.0051049,11.8351214 16.3278454,11.6236638 16.6708188,11.3185695 C16.8135237,11.6570534 16.8790385,11.840596 16.8999831,12.4403689 C16.9062335,12.6193568 16.9135559,12.9803187 16.9151789,13.4445928 C16.5131721,15.1331654 16.0735542,16.2402834 15.5967747,16.7709106 C14.9581492,17.4816626 14.5086716,17.9503412 14.248342,18.1769463 C15.010498,17.9676045 15.6294211,17.6929837 16.1051111,17.3530839 C16.3579686,17.172407 16.59527,16.9420244 16.8170153,16.6619361 C16.7571105,17.4360715 16.6634316,18.1273519 16.5192094,18.5410385 C16.0660286,19.8409414 15.6858562,19.8304614 15.7264252,20.9941991 C15.7669941,22.1579368 13.7261366,23.5371566 13.0385749,23.561208 C12.3510132,23.5852594 11.381517,22.5416064 11.0495907,22.5532174 C10.7176644,22.5648285 10.379089,22.7731619 10.1578047,22.7809026 C9.8258784,22.7925136 9.3024844,23.9772438 8.90853831,24.2525901 C8.51459222,24.5279365 5.10101959,23.9815419 3.96735176,22.7847055 C2.83368393,21.5878692 1.47910791,18.1397828 1.37727162,15.2185638 C1.35702893,14.6378934 1.35143892,14.1008691 1.36167503,13.6037149 C1.48933936,13.8659359 1.64315298,14.0955535 1.82144836,14.2952341 C2.17297129,14.6889196 2.67276438,15.075044 3.3208276,15.4536075 C3.13872333,15.2076216 2.84390403,14.7246609 2.43636968,14.0047253 C2.02883534,13.2847897 1.94440378,11.8060973 2.18307502,9.56864792 L2.16931847,9.5589685 C2.22138139,9.46520231 2.27615104,9.37493742 2.33368531,9.2879876 C3.12293221,8.09522235 3.19488722,8.11648402 3.43995567,7.65611585 C3.59902506,7.35729939 4.19281208,6.33198882 4.88676682,5.41121253 C4.88932583,5.42467812 4.89307417,5.43807171 4.89687458,5.45147964 C4.91688526,6.17013314 5.01399974,6.73445831 5.188218,7.14445515 C5.36243627,7.55445199 5.63345379,7.93076882 6.00127058,8.27340562 C5.91666346,8.01097935 5.79106519,7.48529954 5.62447579,6.6963662 C5.53287292,6.26255375 5.5351896,5.53945618 5.63142583,4.5270735 C5.77195852,4.37978686 5.9111216,4.24993866 6.04727041,4.14077575 C7.13261671,3.27055466 8.44677388,2.15454249 9.83401515,1.77311381 C11.2212564,1.39168512 11.8451425,1.58386951 12.2627976,1.30769381 C12.6804527,1.0315181 13.1413862,0.63493494 13.1480097,0.824932927 Z" id="Combined-Shape-Copy-9" fill="#314725" transform="translate(9.135924, 12.548918) rotate(6.000000) translate(-9.135924, -12.548918) "></path>
                    <path d="M10.800221,13.0514946 C10.8030857,13.1336252 10.7041238,13.2398736 10.812754,13.4108161 C10.9213842,13.5817587 11.3258584,14.287137 11.4922055,14.6410809 C11.6585527,14.9950248 11.5671106,15.3168661 11.7009045,15.6205539 C11.8346984,15.9242417 12.0024779,16.3192509 12.1114662,16.5004598 C12.1560571,16.5745987 12.173386,16.7047497 12.18523,16.850026 C11.9398371,17.0645737 11.7458295,17.2008902 11.6030998,17.2589443 C11.3198881,17.3741383 11.1271486,17.4460979 11.0248811,17.4748232 C11.2294713,17.521875 11.4174579,17.5298672 11.5888409,17.4987997 C11.7602238,17.4677323 11.9567174,17.3780899 12.1783216,17.2298725 C12.1918414,17.2255105 12.2052288,17.2210492 12.2184839,17.2164887 C12.2264007,17.3052748 12.2421076,17.3865628 12.2678195,17.4509264 C12.3690602,17.704358 12.4114962,17.7439898 12.4229684,18.0725119 C12.4296349,18.2634153 12.4391284,18.9332046 12.4074522,19.5711168 C12.0573106,19.9293852 11.7695386,20.1494515 11.544041,20.2317483 C11.1558427,20.3734237 10.8890298,20.461091 10.7436024,20.4947501 C11.0771616,20.5695179 11.3692781,20.5903035 11.619952,20.557107 C11.8204911,20.5305498 12.0304355,20.4538713 12.2497851,20.3270716 L12.4013911,20.2310058 L12.3499229,20.2655472 C12.3264639,20.4457237 12.2964696,20.6001767 12.2582819,20.709655 C12.0622789,21.2715655 11.8978524,21.2670353 11.9153987,21.7700855 C11.932945,22.2731356 11.0502638,22.8693325 10.7528899,22.8797292 C10.455516,22.890126 10.1898489,22.6321641 10.0462891,22.6371832 C9.90272928,22.6422023 9.82987511,22.6139129 9.83667877,22.8089732 C9.84348242,23.0040334 9.85494121,23.332556 9.86031288,23.4865614 L9.60395571,23.4955136 L9.58390283,22.9205992 C9.59518794,22.851679 9.55297723,22.8188919 9.45727069,22.822238 C9.31371088,22.8272571 9.13701189,23.0595695 8.96662822,23.1785937 C8.79624455,23.297618 7.31985716,23.0614274 6.82954011,22.5440697 C6.33922305,22.0267119 5.75341381,20.536202 5.70931738,19.2734453 C5.69113839,18.7528671 5.70023595,18.3134414 5.74112664,17.9406063 C5.74458124,17.9458604 5.74918786,17.95051 5.75383255,17.9551602 C5.87695882,18.2085506 6.02402631,18.4003056 6.19503502,18.5304251 C6.36604374,18.6605445 6.59177524,18.7701188 6.87222953,18.8591479 C6.77942442,18.7734758 6.62068229,18.597969 6.39600315,18.3326274 C6.2205724,18.1254472 6.07246895,17.694363 5.95169279,17.0393749 C6.00066608,16.9168427 6.05770702,16.8084069 6.12297113,16.7098285 C6.46432439,16.1942306 6.49544529,16.2034214 6.60143864,16.0044176 C6.70743198,15.8054137 7.25969766,14.861009 7.72911542,14.4848376 L7.86339115,14.3760058 L7.87981843,14.5283086 C7.90544321,14.7232961 7.95068008,14.8825248 8.01552903,15.0059948 C8.09659022,15.1603322 8.21861684,15.3037214 8.38160891,15.4361623 C8.34125602,15.3377945 8.27923206,15.1414323 8.19553703,14.8470756 C8.15368951,14.6998972 8.14140027,14.465471 8.15866929,14.1437969 L8.29540812,14.0391694 C8.62926292,13.7915053 8.99190859,13.5644162 9.36690162,13.4613658 C9.96689047,13.2964852 10.2367243,13.3795609 10.4173623,13.2601782 C10.5980002,13.1407954 10.7973563,12.969364 10.800221,13.0514946 Z" id="Combined-Shape-Copy-10" fill="#33790F"></path>
                </g>
                <g id="Technology-Spending" transform="translate(47.880558, 40.018324) scale(-1, 1) rotate(-24.000000) translate(-47.880558, -40.018324) translate(42.380558, 32.518324)" stroke="#979797">
                    <path d="M7.32597419,0.609225845 C7.32965391,0.714780282 7.20253676,0.851330881 7.34207297,1.07102651 C7.48160918,1.29072213 8.00115889,2.19727551 8.21483287,2.65216484 C8.42850685,3.10705418 8.31104897,3.52068517 8.48290809,3.91098525 C8.6547672,4.30128533 8.87028104,4.80895188 9.01027721,5.04184181 C9.12407913,5.23115642 9.09964292,5.70464638 9.15636848,6.05016262 C8.98056383,6.25845606 8.82949433,6.40363984 8.7043482,6.48535955 C8.37549418,6.70009936 8.1501145,6.83812141 8.02820916,6.89942568 C8.29771693,6.90864266 8.53671039,6.87265185 8.74518956,6.79145324 C8.95366872,6.71025464 9.17944546,6.54900412 9.42251976,6.30770168 L9.28437036,6.44058162 C9.36260122,6.62771893 9.39880487,6.73009425 9.41040385,7.06224584 C9.41387744,7.16171642 9.41794702,7.36235043 9.41884686,7.62040362 C9.19560934,8.55799086 8.95133119,9.17324884 8.6863992,9.46810231 C8.33160724,9.86296457 8.08189748,10.1233415 7.9372699,10.2492333 C8.36068994,10.1329323 8.70453607,9.98036516 8.9688083,9.79153195 C9.10905803,9.69131783 9.24069336,9.56357849 9.36371427,9.40831391 C9.33099496,9.83789597 9.27895927,10.2217586 9.19886294,10.4515067 C8.94709578,11.173675 8.73588894,11.1678528 8.75842724,11.8143737 C8.78096553,12.4608947 7.6471558,13.2271279 7.26517708,13.2404898 C6.88319837,13.2538517 6.34458939,12.6740444 6.16018588,12.680495 C5.97578236,12.6869456 5.7876849,12.8026864 5.66474922,12.8069868 C5.4803457,12.8134373 5.18957126,13.4716208 4.97071232,13.624591 C4.75185338,13.7775611 2.85542414,13.4740086 2.22560868,12.8090995 C1.59579322,12.1441904 0.843250986,10.2285869 0.786675267,8.60568744 C0.775379386,8.28166009 0.772296346,7.98209651 0.778086782,7.70487069 C0.848192954,7.85311884 0.933956836,7.98131092 1.03344012,8.09272648 C1.22873064,8.31144064 1.50639347,8.52595423 1.86642859,8.73626725 C1.76525955,8.59960845 1.60147105,8.33129695 1.37506308,7.93133273 C1.14865511,7.53136852 1.10174869,6.7098727 1.23434382,5.46684528 C1.25554582,5.40950623 1.28601106,5.35929131 1.31801621,5.31092289 C1.75648671,4.64827552 1.79646171,4.66008756 1.93261085,4.40432747 C2.02096417,4.23835319 2.35072584,3.66894062 2.73615189,3.15748132 C2.73802215,3.16537446 2.74000313,3.17244842 2.74201025,3.17952957 C2.75312729,3.57878152 2.80707978,3.8922955 2.9038677,4.12007152 C3.00065563,4.34784755 3.15122092,4.55691245 3.35556358,4.74726623 C3.30855962,4.60147386 3.23878281,4.30942952 3.14623314,3.87113322 C3.0953739,3.63027425 3.09662814,3.22889858 3.14999587,2.6670062 C3.22838237,2.58394469 3.30558568,2.51192273 3.38111904,2.45136074 C3.98408921,1.96790458 4.71417652,1.34789783 5.48486612,1.135993 C6.25555571,0.924088174 6.60215908,1.03085728 6.83418969,0.877426333 C7.06622031,0.723995387 7.32229447,0.503671408 7.32597419,0.609225845 Z" id="Combined-Shape-Copy" fill="#314725" transform="translate(5.098875, 7.122551) rotate(6.000000) translate(-5.098875, -7.122551) "></path>
                    <path d="M6.30362167,6.14972476 C6.30577019,6.21132274 6.2315488,6.29100903 6.31302145,6.41921592 C6.39449411,6.54742281 6.69784973,7.07645653 6.82261008,7.34191447 C6.94737043,7.60737241 6.87878892,7.84875339 6.97913433,8.07651924 C7.07947974,8.30428509 7.20531435,8.60054202 7.28705557,8.73644867 C7.32034616,8.79179911 7.33337641,8.88877612 7.34225657,8.99713246 C7.15808642,9.15970785 7.01273704,9.26180847 6.90578078,9.30531203 C6.69337205,9.39170751 6.54881737,9.44567723 6.47211675,9.46722121 C6.62555939,9.50251005 6.76654933,9.50850418 6.89508658,9.48520361 C7.02362382,9.46190304 7.17099401,9.39467122 7.33719714,9.28350816 C7.34730429,9.28024722 7.35731283,9.2769123 7.36722276,9.27350342 C7.37326779,9.34011851 7.38504593,9.40104911 7.40432059,9.4492986 C7.48025106,9.63937235 7.51207805,9.66909617 7.52068223,9.91548774 C7.5256845,10.058734 7.53280907,10.5614896 7.50901086,11.0401304 C7.24600844,11.3084719 7.03044119,11.473254 6.86148668,11.534915 C6.57033793,11.6411716 6.37022829,11.706922 6.26115775,11.7321664 C6.5113271,11.7882422 6.73041449,11.8038314 6.91841991,11.7789341 C7.10642534,11.7540367 7.30545253,11.6704035 7.51550149,11.5280344 L7.46580388,11.5609874 C7.44822354,11.6958099 7.42575704,11.8113828 7.39716734,11.8933451 C7.25016508,12.314778 7.12684525,12.3113803 7.14000495,12.6886679 C7.15316465,13.0659556 6.49115377,13.5131032 6.26812334,13.5209007 C6.04509292,13.5286983 5.84584261,13.3352269 5.73817275,13.3389912 C5.63050289,13.3427556 5.57586227,13.3215385 5.58096501,13.4678337 C5.58606775,13.6141289 5.59466184,13.8605208 5.5986906,13.9760249 L5.40642271,13.982739 L5.39138306,13.5515532 C5.39984689,13.499863 5.36818886,13.4752727 5.29640895,13.4777823 C5.18873909,13.4815466 5.05621485,13.6557809 4.9284271,13.7450491 C4.80063934,13.8343173 3.69334881,13.6571744 3.32561101,13.2691561 C2.95787322,12.8811377 2.5185163,11.7632553 2.48544397,10.8161878 C2.47180476,10.4256121 2.47863787,10.0959449 2.50933441,9.81625327 C2.51147244,9.82007566 2.51513533,9.82377458 2.51883034,9.82747393 C2.61117505,10.0175168 2.72147567,10.161333 2.8497322,10.2589226 C2.97798874,10.3565122 3.14728736,10.4386929 3.35762808,10.5054647 C3.28802425,10.4412107 3.16896765,10.3095806 3.0004583,10.1105744 C2.86894773,9.955263 2.75791318,9.6321832 2.66735463,9.14133496 C2.70374323,9.04913945 2.74661475,8.96759243 2.79568428,8.89347523 C3.05169923,8.50677677 3.07503991,8.51366987 3.15453491,8.36441698 C3.23402992,8.21516409 3.64822918,7.5068606 4.0002925,7.22473203 L4.10074929,7.14360819 L4.11709562,7.28444109 C4.13683676,7.4183988 4.16950579,7.52878506 4.21510271,7.61559989 C4.2758986,7.73135298 4.36741857,7.83889485 4.48966261,7.93822551 C4.45939795,7.86444973 4.41287998,7.71717806 4.35010871,7.49641051 C4.31872307,7.38602674 4.30950614,7.21020705 4.3224579,6.96895146 L4.48986647,6.84310606 C4.72209703,6.67621909 4.97149407,6.52779127 5.22863215,6.45712816 C5.67862379,6.33346771 5.88099919,6.39577452 6.01647765,6.30623744 C6.1519561,6.21670036 6.30147314,6.08812678 6.30362167,6.14972476 Z" id="Combined-Shape-Copy-2" fill="#33790F"></path>
                </g>
                <g id="Sum-of-Investment-in-Energy-Transitions-and-Efficiency" transform="translate(36.799734, 48.445523) rotate(-38.000000) translate(-36.799734, -48.445523) translate(31.799734, 39.445523)" stroke="#979797">
                    <path d="M3.21466994,16.9259017 L3.54929311,16.9259017 C3.66083551,16.6890258 3.66083742,16.3552481 3.54929882,15.9245687 C3.38199093,15.2785496 2.54544371,13.4050962 2.74994928,11.0148208 C2.95445486,8.62454544 3.71667124,5.26523679 4.85068414,3.13336413 C5.60669273,1.71211568 6.19538628,0.899203752 6.61676476,0.694628329 C6.87702815,0.533123315 6.87702861,0.452370808 6.61676614,0.452370808 C6.22637245,0.452370808 5.3526317,0.888441561 4.38592974,3.13336678 C3.41922778,5.378292 2.74996689,7.93007504 2.48969622,9.36747116 C2.22942556,10.8048673 2.35953807,14.0834183 2.74992651,15.0039947 C3.14031495,15.924571 3.06595609,15.6015614 3.21467566,15.9245706 C3.31382203,16.1399101 3.31382013,16.4736871 3.21466994,16.9259017 Z" id="Path-4" fill="#404B09" transform="translate(4.583122, 8.689136) scale(-1, 1) rotate(16.000000) translate(-4.583122, -8.689136) "></path>
                    <path d="M5.3795313,6.01375907 C5.38026725,6.03486996 5.35484382,6.06218008 5.38275106,6.1061192 C5.4106583,6.15005833 5.51456824,6.331369 5.55730304,6.42234687 C5.60003784,6.51332474 5.57654626,6.59605093 5.61091808,6.67411095 C5.64528991,6.75217096 5.68839267,6.85370428 5.71639191,6.90028226 C5.73917095,6.93817622 5.73425702,7.03299844 5.74563809,7.10211628 C5.71025209,7.14379449 5.68015365,7.1726952 5.65520611,7.18898581 C5.5894353,7.23193377 5.54435937,7.25953818 5.5199783,7.27179904 C5.57387985,7.27364243 5.62167854,7.26644427 5.66337438,7.25020455 C5.70507021,7.23396483 5.75022556,7.20171472 5.79884042,7.15345424 L5.77038236,7.17823559 C5.78752131,7.21946721 5.79420562,7.24103054 5.79641724,7.30436307 C5.79709125,7.32366441 5.79787747,7.36201068 5.79808808,7.411412 C5.75355308,7.60327337 5.70465408,7.72650648 5.65161631,7.78553436 C5.58065791,7.86450681 5.53071596,7.91658221 5.50179045,7.94176055 C5.58647445,7.91850035 5.65524368,7.88798693 5.70809812,7.85022029 C5.73622534,7.83012225 5.76262018,7.8044888 5.78728262,7.77331992 C5.78063191,7.85878002 5.77020264,7.93605242 5.75410905,7.98221524 C5.70375562,8.1266489 5.66151425,8.12548446 5.66602191,8.25478864 C5.67052957,8.38409283 5.44376762,8.53733947 5.36737188,8.54001185 C5.29097614,8.54268423 5.18325434,8.42672279 5.14637364,8.4280129 C5.10949294,8.42930302 5.07187344,8.45245118 5.04728631,8.45331125 C5.01040561,8.45460137 4.95225072,8.58623805 4.90847893,8.61683209 C4.86470714,8.64742613 4.48542129,8.58671562 4.3594582,8.4537338 C4.23349511,8.32075198 4.08298666,7.93763128 4.07167152,7.61305139 C4.06938383,7.54742809 4.06878043,7.48682182 4.06999851,7.43079107 C4.08401815,7.46260207 4.10115282,7.48820407 4.12102449,7.5104592 C4.16008259,7.55420203 4.21561516,7.59710475 4.28762218,7.63916735 C4.26738838,7.61183559 4.23463068,7.55817329 4.18934908,7.47818045 C4.14406749,7.3981876 4.1346862,7.23388844 4.16120523,6.98528296 L4.17793971,6.95409848 C4.26563381,6.821569 4.27362881,6.82393141 4.30085864,6.77277939 C4.31855802,6.73953058 4.38469617,6.62533158 4.46194283,6.52291143 C4.46177953,6.52441185 4.46225523,6.52611479 4.46273851,6.52781981 C4.46496192,6.6076702 4.47575242,6.670373 4.49511001,6.7159282 C4.51446759,6.76148341 4.54458065,6.80329639 4.58544918,6.84136715 C4.57604839,6.81220867 4.56209303,6.7537998 4.54358309,6.66614054 C4.53348412,6.61831387 4.53365903,6.53884221 4.54410784,6.42772557 L4.59056027,6.38218605 C4.71115431,6.28549482 4.85717177,6.16149346 5.01130969,6.1191125 C5.16544761,6.07673153 5.23476828,6.09808536 5.2811744,6.06739917 C5.32758053,6.03671298 5.37879536,5.99264818 5.3795313,6.01375907 Z" id="Added-Investment-in-Energy-Transitions-and-Efficiency" fill="#314725" transform="translate(4.934111, 7.316424) scale(-1, 1) rotate(45.000000) translate(-4.934111, -7.316424) "></path>
                    <path d="M8.86873205,10.858681 C8.869468,10.8797918 8.84404457,10.907102 8.87195181,10.9510411 C8.89985905,10.9949802 9.00376899,11.1762909 9.04650379,11.2672688 C9.08923858,11.3582466 9.06574701,11.4409728 9.10011883,11.5190328 C9.13449065,11.5970928 9.17759342,11.6986262 9.20559266,11.7452041 C9.22837169,11.7830981 9.22345777,11.8779203 9.23483884,11.9470382 C9.19945284,11.9887164 9.1693544,12.0176171 9.14440685,12.0339077 C9.07863605,12.0768557 9.03356012,12.1044601 9.00917905,12.1167209 C9.0630806,12.1185643 9.11087929,12.1113662 9.15257513,12.0951264 C9.19427096,12.0788867 9.23942631,12.0466366 9.28804117,11.9983761 L9.25958311,12.0231575 C9.27672206,12.0643891 9.28340636,12.0859524 9.28561799,12.149285 C9.286292,12.1685863 9.28707822,12.2069326 9.28728883,12.2563339 C9.24275383,12.4481953 9.19385483,12.5714284 9.14081705,12.6304562 C9.06985866,12.7094287 9.01991671,12.7615041 8.9909912,12.7866824 C9.0756752,12.7634222 9.14444443,12.7329088 9.19729887,12.6951422 C9.22542609,12.6750441 9.25182093,12.6494107 9.27648337,12.6182418 C9.26983266,12.7037019 9.25940339,12.7809743 9.2433098,12.8271371 C9.19295637,12.9715708 9.150715,12.9704063 9.15522266,13.0997105 C9.15973032,13.2290147 8.93296837,13.3822614 8.85657263,13.3849337 C8.78017689,13.3876061 8.67245509,13.2716447 8.63557439,13.2729348 C8.59869369,13.2742249 8.56107419,13.2973731 8.53648706,13.2982331 C8.49960635,13.2995233 8.44145147,13.4311599 8.39767968,13.461754 C8.35390789,13.492348 7.97462204,13.4316375 7.84865895,13.2986557 C7.72269586,13.1656739 7.57218741,12.7825532 7.56087227,12.4579733 C7.55858458,12.39235 7.55798118,12.3317437 7.55919926,12.275713 C7.5732189,12.307524 7.59035357,12.333126 7.61022524,12.3553811 C7.64928334,12.3991239 7.70481591,12.4420266 7.77682293,12.4840892 C7.75658913,12.4567575 7.72383142,12.4030952 7.67854983,12.3231023 C7.63326824,12.2431095 7.62388695,12.0788103 7.65040598,11.8302048 L7.66714046,11.7990204 C7.75483456,11.6664909 7.76282956,11.6688533 7.79005938,11.6177013 C7.80775877,11.5844525 7.87389692,11.4702535 7.95114358,11.3678333 C7.95098028,11.3693337 7.95145598,11.3710367 7.95193926,11.3727417 C7.95416267,11.4525921 7.96495317,11.5152949 7.98431076,11.5608501 C8.00366834,11.6064053 8.0337814,11.6482183 8.07464993,11.686289 C8.06524914,11.6571306 8.05129378,11.5987217 8.03278384,11.5110624 C8.02268487,11.4632358 8.02285978,11.3837641 8.03330859,11.2726475 L8.07976102,11.2271079 C8.20035506,11.1304167 8.34637252,11.0064153 8.50051044,10.9640344 C8.65464836,10.9216534 8.72396903,10.9430072 8.77037515,10.9123211 C8.81678128,10.8816349 8.86799611,10.8375701 8.86873205,10.858681 Z" id="Investment-in-Energy-Transitions-and-Efficiency" fill="#314725" transform="translate(8.423312, 12.161346) rotate(6.000000) translate(-8.423312, -12.161346) "></path>
                </g>
                <g id="Sum-of-Investment-in-Real-Estate-Construction" transform="translate(31.476115, 79.388597) scale(-1, 1) rotate(53.000000) translate(-31.476115, -79.388597) translate(15.476115, 52.888597)" stroke="#979797">
                    <path d="M19.7144091,50.0019255 L20.2963624,50.0019255 C20.49035,49.4529318 20.4903544,48.6793534 20.2963757,47.6811902 C20.0054076,46.1839453 18.550549,41.8419388 18.9062188,36.3021248 C19.2618886,30.7623108 20.5874934,22.9766215 22.5596967,18.0356968 C23.874499,14.741747 24.8983165,12.857706 25.6311494,12.3835738 C26.0837819,12.0092622 26.0837829,11.8221064 25.6311526,11.8221064 C24.952207,11.8221064 23.4326564,12.8327603 21.7514282,18.0357014 C20.0702,23.2386426 18.9062596,29.1527728 18.4536102,32.4841488 C18.0009608,35.8155249 18.2272326,43.4140495 18.906166,45.5476219 C19.5850994,47.6811942 19.4557807,46.9325717 19.7144224,47.6811935 C19.8868501,48.1802747 19.8868457,48.953852 19.7144091,50.0019255 Z" id="Path-4" fill="#404B09" transform="translate(22.094361, 30.912016) rotate(16.000000) translate(-22.094361, -30.912016) "></path>
                    <g id="Added-Investment-in-Real-Estimate-Construction" transform="translate(15.558698, 20.239479) rotate(-8.000000) translate(-15.558698, -20.239479) translate(2.558698, 1.739479)">
                        <path d="M18.7762251,1.23463921 C18.7857924,1.50908074 18.4552878,1.8641123 18.818082,2.43532093 C19.1808761,3.00652956 20.5317054,5.36356834 21.0872577,6.54628061 C21.6428101,7.72899287 21.3374196,8.80443346 21.7842533,9.81921366 C22.231087,10.8339939 22.791423,12.1539269 23.155413,12.7594407 C23.4514358,13.2518879 23.3877046,14.4838793 23.5354565,15.3823296 C23.0771762,15.9235814 22.6849707,16.3003812 22.3599976,16.5125868 C21.5049771,17.0709104 20.91899,17.4297677 20.6020361,17.5891588 C21.3027563,17.6131229 21.9241393,17.5195468 22.4661851,17.3084304 C22.9033473,17.1381642 23.3697625,16.8325169 23.8654308,16.3914883 C24.0707029,16.8806056 24.1654645,17.1454495 24.1957423,18.0124912 C24.2048078,18.2720931 24.2154346,18.7967138 24.2177203,19.4713225 C23.6363884,21.9036648 23.0016717,23.501635 22.3133302,24.267718 C21.3908711,25.2943599 20.7416257,25.97134 20.365594,26.2986585 C21.4664861,25.9962759 22.360486,25.5996014 23.0475938,25.1086351 C23.4128615,24.8476365 23.7556557,24.5148294 24.0759764,24.1102138 C23.9893982,25.2283031 23.854078,26.2269615 23.6457359,26.8245694 C22.9911413,28.7022071 22.4420035,28.6870693 22.5006031,30.3680237 C22.5592026,32.0489781 19.6112973,34.0411845 18.6181527,34.0759254 C17.625008,34.1106664 16.2246247,32.6031676 15.7451755,32.6199391 C15.2657264,32.6367106 14.776673,32.9376366 14.4570402,32.9488176 C13.9775911,32.9655891 13.2215775,34.676866 12.6525443,35.0745885 C12.083511,35.472311 7.15279503,34.6830744 5.51527483,32.9543108 C3.87775463,31.2255471 1.92114482,26.244978 1.77404796,22.0254394 C1.74485522,21.1880328 1.73675991,20.4134695 1.75144888,19.6963211 C1.93669901,20.0728007 2.15854817,20.4038166 2.41563658,20.6917409 C2.92339193,21.2603977 3.64531527,21.818133 4.5814066,22.3649469 C4.3183671,22.009634 3.89251699,21.3120241 3.30385627,20.2721171 C2.71519555,19.2322102 2.59323886,17.096321 2.9379862,13.8644497 L2.918245,13.8502354 C2.99340836,13.7148788 3.072477,13.5845737 3.1555344,13.4590515 C4.2955577,11.7361684 4.39949271,11.7668797 4.75348047,11.1019034 C4.98318977,10.6703879 5.84050967,9.19001811 6.84256484,7.86026576 C6.84714401,7.87917603 6.85249474,7.89829235 6.8579189,7.9174289 C6.88682322,8.95548396 7.02709968,9.77062031 7.27874829,10.362838 C7.53039689,10.9550556 7.92186665,11.4986244 8.45315756,11.9935442 C8.33094727,11.614484 8.14952756,10.8551688 7.90889843,9.71559838 C7.77656442,9.08889159 7.77993044,8.04421008 7.91899648,6.58155384 C8.12141885,6.3699043 8.32269281,6.18206981 8.51960176,6.02418995 C10.0873242,4.76720393 11.9855512,3.15518636 13.9893442,2.60423381 C15.9931371,2.05328126 16.8943059,2.33088093 17.4975855,1.93196048 C18.1008651,1.53304002 18.7666579,0.96019767 18.7762251,1.23463921 Z" id="Combined-Shape-Copy-4" fill="#314725" transform="translate(12.981005, 18.169284) rotate(6.000000) translate(-12.981005, -18.169284) "></path>
                        <path d="M15.1418707,14.8951561 C15.147242,15.0491511 14.9616885,15.2483668 15.1653702,15.568884 C15.3690518,15.8894013 16.1274409,17.2119855 16.4393417,17.8756304 C16.7512426,18.5392753 16.5797888,19.1427277 16.8306524,19.7121423 C17.0815159,20.2815569 17.3961024,21.0221993 17.6004554,21.3619659 C17.683908,21.5007179 17.7164342,21.7441023 17.7386386,22.0158834 C17.2779332,22.4201837 16.9146226,22.6753803 16.6472685,22.7841243 C16.1162466,23.000113 15.75486,23.1350373 15.5631084,23.1888972 C15.946715,23.2771193 16.2991899,23.2921047 16.620533,23.2338532 C16.9418761,23.1756018 17.3103016,23.0075223 17.7258094,22.7296146 C17.7501621,22.7217575 17.7742858,22.7137286 17.7981806,22.705528 C17.8160498,22.8714702 17.8454835,23.0235975 17.893618,23.1440907 C18.0834442,23.6192751 18.1630117,23.6935846 18.1845221,24.3095636 C18.1970212,24.6674919 18.2148206,25.9232534 18.155437,27.1192921 C17.4987867,27.7912982 16.9592914,28.2038435 16.5365332,28.3581317 C15.8086614,28.6237732 15.3083872,28.7881493 15.0357109,28.8512601 C15.6611343,28.9914497 16.2088528,29.0304228 16.6788663,28.9681794 C17.1488799,28.9059359 17.6464479,28.6968529 18.1715703,28.3409302 L18.0473865,28.4228505 C18.0034267,28.7601048 17.9472418,29.0492076 17.8757349,29.254207 C17.5082292,30.3077891 17.1999297,30.299295 17.2328289,31.242514 C17.2657282,32.1857331 15.6107009,33.3036022 15.0531249,33.3230961 C14.4955488,33.34259 13.9974231,32.8589115 13.7282484,32.8683223 C13.4590738,32.8777331 13.3224722,32.8246904 13.3352291,33.1904284 C13.3479859,33.5561664 13.3694711,34.1721462 13.379543,34.4609065 L12.8988733,34.4776918 L12.8612742,33.3997272 C12.8824338,33.2705018 12.8032887,33.2090261 12.6238389,33.2152999 C12.3546643,33.2247108 12.0233537,33.6602965 11.7038843,33.883467 C11.3844149,34.1066375 8.61618855,33.6637802 7.69684407,32.6937344 C6.77749959,31.7236886 5.67910727,28.9289825 5.59642645,26.5613136 C5.56235342,25.5855897 5.5793862,24.7619142 5.65598399,24.0630144 C5.66327359,24.0728261 5.67155026,24.0811771 5.67989239,24.089529 C5.91075416,24.5646362 6.1865057,24.9241768 6.50714704,25.1681507 C6.82778838,25.4121247 7.25103494,25.6175765 7.77688674,25.784506 C7.60287715,25.6238709 7.30523566,25.2947956 6.88396227,24.7972801 C6.55466882,24.4083911 6.27672652,23.5987607 6.05013536,22.368389 C6.14287512,22.1423609 6.2497542,21.9392199 6.37202723,21.7545323 C7.0120646,20.7877861 7.0704163,20.8050189 7.26915381,20.4318867 C7.46789133,20.0587544 8.50338949,18.2879957 9.38354778,17.5826743 C9.46641982,17.5162642 9.55093686,17.4480879 9.63699348,17.3788088 C9.67405113,17.8763165 9.76858357,18.2704612 9.9205733,18.5598439 C10.072563,18.8492267 10.301363,19.1180814 10.6069731,19.366408 C10.5313114,19.1819685 10.4150165,18.8137894 10.2580883,18.2618705 C10.1796025,17.9858349 10.1565692,17.5461191 10.1889881,16.9427231 C10.8841514,16.4045865 11.6542842,15.8835405 12.4543969,15.6636646 C13.579376,15.3545135 14.0853145,15.5102805 14.4240106,15.2864378 C14.7627068,15.0625951 15.1364994,14.7411612 15.1418707,14.8951561 Z" id="Combined-Shape-Copy-5" fill="#33790F"></path>
                    </g>
                    <g id="Investment-in-Real-State-Construction" transform="translate(20.080701, 43.097408) scale(-1, 1) rotate(-52.000000) translate(-20.080701, -43.097408) translate(14.580701, 35.597408)">
                        <path d="M7.32597419,0.609225845 C7.32965391,0.714780282 7.20253676,0.851330881 7.34207297,1.07102651 C7.48160918,1.29072213 8.00115889,2.19727551 8.21483287,2.65216484 C8.42850685,3.10705418 8.31104897,3.52068517 8.48290809,3.91098525 C8.6547672,4.30128533 8.87028104,4.80895188 9.01027721,5.04184181 C9.12407913,5.23115642 9.09964292,5.70464638 9.15636848,6.05016262 C8.98056383,6.25845606 8.82949433,6.40363984 8.7043482,6.48535955 C8.37549418,6.70009936 8.1501145,6.83812141 8.02820916,6.89942568 C8.29771693,6.90864266 8.53671039,6.87265185 8.74518956,6.79145324 C8.95366872,6.71025464 9.17944546,6.54900412 9.42251976,6.30770168 L9.28437036,6.44058162 C9.36260122,6.62771893 9.39880487,6.73009425 9.41040385,7.06224584 C9.41387744,7.16171642 9.41794702,7.36235043 9.41884686,7.62040362 C9.19560934,8.55799086 8.95133119,9.17324884 8.6863992,9.46810231 C8.33160724,9.86296457 8.08189748,10.1233415 7.9372699,10.2492333 C8.36068994,10.1329323 8.70453607,9.98036516 8.9688083,9.79153195 C9.10905803,9.69131783 9.24069336,9.56357849 9.36371427,9.40831391 C9.33099496,9.83789597 9.27895927,10.2217586 9.19886294,10.4515067 C8.94709578,11.173675 8.73588894,11.1678528 8.75842724,11.8143737 C8.78096553,12.4608947 7.6471558,13.2271279 7.26517708,13.2404898 C6.88319837,13.2538517 6.34458939,12.6740444 6.16018588,12.680495 C5.97578236,12.6869456 5.7876849,12.8026864 5.66474922,12.8069868 C5.4803457,12.8134373 5.18957126,13.4716208 4.97071232,13.624591 C4.75185338,13.7775611 2.85542414,13.4740086 2.22560868,12.8090995 C1.59579322,12.1441904 0.843250986,10.2285869 0.786675267,8.60568744 C0.775379386,8.28166009 0.772296346,7.98209651 0.778086782,7.70487069 C0.848192954,7.85311884 0.933956836,7.98131092 1.03344012,8.09272648 C1.22873064,8.31144064 1.50639347,8.52595423 1.86642859,8.73626725 C1.76525955,8.59960845 1.60147105,8.33129695 1.37506308,7.93133273 C1.14865511,7.53136852 1.10174869,6.7098727 1.23434382,5.46684528 C1.25554582,5.40950623 1.28601106,5.35929131 1.31801621,5.31092289 C1.75648671,4.64827552 1.79646171,4.66008756 1.93261085,4.40432747 C2.02096417,4.23835319 2.35072584,3.66894062 2.73615189,3.15748132 C2.73802215,3.16537446 2.74000313,3.17244842 2.74201025,3.17952957 C2.75312729,3.57878152 2.80707978,3.8922955 2.9038677,4.12007152 C3.00065563,4.34784755 3.15122092,4.55691245 3.35556358,4.74726623 C3.30855962,4.60147386 3.23878281,4.30942952 3.14623314,3.87113322 C3.0953739,3.63027425 3.09662814,3.22889858 3.14999587,2.6670062 C3.22838237,2.58394469 3.30558568,2.51192273 3.38111904,2.45136074 C3.98408921,1.96790458 4.71417652,1.34789783 5.48486612,1.135993 C6.25555571,0.924088174 6.60215908,1.03085728 6.83418969,0.877426333 C7.06622031,0.723995387 7.32229447,0.503671408 7.32597419,0.609225845 Z" id="Combined-Shape" fill="#314725" transform="translate(5.098875, 7.122551) rotate(6.000000) translate(-5.098875, -7.122551) "></path>
                        <path d="M5.5795382,10.7328599 C5.58025438,10.7533926 5.55551392,10.7799547 5.58267147,10.8226903 C5.60982902,10.8654259 5.71094756,11.0417705 5.75253434,11.1302565 C5.79412113,11.2187425 5.77126062,11.2992028 5.80470909,11.3751247 C5.83815756,11.4510467 5.88010243,11.549799 5.9073495,11.5951012 C5.91845793,11.6135706 5.92279883,11.6459444 5.92575908,11.6821087 C5.86417207,11.7363194 5.81584091,11.7702492 5.78025791,11.7847223 C5.709455,11.8135208 5.66127011,11.8315107 5.63570323,11.8386921 C5.68685078,11.850455 5.73384743,11.852453 5.77669317,11.8446862 C5.81953892,11.8369193 5.86866232,11.8145087 5.92406336,11.7774544 C5.92730811,11.7764075 5.93052236,11.7753378 5.93370613,11.7742451 C5.93597892,11.7957625 5.9399242,11.8164125 5.94643785,11.8327179 C5.971748,11.8960758 5.982357,11.9059837 5.98522506,11.9881142 C5.98688889,12.0357601 5.98925711,12.2027268 5.98138572,12.361964 C5.89307775,12.4528924 5.82158031,12.507454 5.76549321,12.5279233 C5.66844363,12.5633422 5.60174041,12.585259 5.56538357,12.5936738 C5.64877335,12.6123657 5.72180248,12.6175621 5.78447095,12.609263 C5.82624994,12.6037303 5.86966177,12.5894959 5.91470647,12.5665599 L5.97958075,12.5274877 L5.96673982,12.5380833 C5.96090845,12.5823945 5.95347932,12.6203774 5.94405343,12.6474 C5.89505268,12.7878776 5.85394607,12.7867451 5.85833263,12.9125076 C5.8627192,13.0382702 5.6420489,13.1873194 5.56770543,13.1899186 C5.49336196,13.1925178 5.42694519,13.1280273 5.39105523,13.1292821 C5.35516528,13.1305368 5.33695174,13.1234645 5.33865265,13.1722296 C5.34035357,13.2209946 5.34321826,13.3031253 5.34456118,13.3416266 L5.28047189,13.3438647 L5.27545867,13.2001361 C5.27827995,13.182906 5.26772727,13.1747092 5.24380063,13.1755458 C5.20791068,13.1768005 5.16373593,13.2348786 5.12114002,13.2646347 C5.0785441,13.2943908 4.70944725,13.2353431 4.58686799,13.1060037 C4.46428872,12.9766642 4.31783641,12.6040368 4.3068123,12.2883476 C4.30224332,12.1575088 4.30456641,12.0471752 4.31492889,11.9536477 C4.31596791,11.956794 4.31695105,11.9577851 4.3179411,11.9587763 C4.34872267,12.0221239 4.38548954,12.0700627 4.42824172,12.1025925 C4.4709939,12.1351224 4.52742677,12.162516 4.59754034,12.1847732 C4.57433906,12.1633552 4.53465353,12.1194785 4.47848375,12.0531431 C4.43479614,12.0015489 4.39788747,11.894412 4.36775774,11.7317325 C4.37971352,11.6990752 4.39394634,11.6720327 4.41022574,11.6474434 C4.49556406,11.5185439 4.50334428,11.5208416 4.52984262,11.4710906 C4.55634096,11.4213397 4.69440738,11.1852385 4.81176181,11.0911957 L4.84555224,11.0638271 C4.85049559,11.130348 4.86309992,11.1829006 4.88336522,11.2214849 C4.90363051,11.2600693 4.93413717,11.2959166 4.97488519,11.3290268 C4.96479696,11.3044349 4.94929097,11.2553443 4.92836722,11.1817552 C4.91790534,11.1449606 4.91483303,11.086354 4.91915028,11.0059355 L5.00424405,10.9434532 C5.07318673,10.8963941 5.14620976,10.8559378 5.22120837,10.8353277 C5.37120558,10.7941076 5.43866405,10.8148765 5.48382353,10.7850308 C5.52898302,10.7551851 5.57882203,10.7123272 5.5795382,10.7328599 Z" id="Combined-Shape" fill="#33790F"></path>
                    </g>
                </g>
            </g>
        </g>
    </g>
</svg>
