<?xml version="1.0" encoding="UTF-8"?>
<svg width="210px" height="201px" viewBox="0 0 210 201" version="1.1" xmlns="http://www.w3.org/2000/svg" xmlns:xlink="http://www.w3.org/1999/xlink">
    <!-- Generator: Sketch 58 (84663) - https://sketch.com -->
    <title>OneBulletPoint</title>
    <desc>Created with Sketch.</desc>
    <g id="Page-1" stroke="none" stroke-width="1" fill="none" fill-rule="evenodd">
        <g id="Artboard" transform="translate(-916.000000, -1342.000000)" fill="#FFFFFF">
            <g id="OneBulletPoint" transform="translate(916.000000, 1342.000000)">
                <path d="M117.50624,4.31305841 C117.467667,4.37576954 118.444171,0.859900145 120.344394,0.26110996 C122.675009,-0.473217193 126.449063,0.412830446 128.432522,2.02511348 C136.624189,8.67047077 134.413352,22.5195167 125.226911,28.8412037 C122.1492,30.9592217 120.529138,35.2721293 118.42793,38.6929206 C107.327054,56.7739566 102.345059,72.6378507 105.179153,89.1612231 C115.039605,70.7868607 124.902087,52.4165443 136.165374,31.4305666 C131.433088,45.2775897 127.577828,56.5554791 123.227211,69.2838164 L144.945785,69.2838164 C141.232636,65.1003769 139.267448,62.8872808 137.30429,60.6741846 C137.795587,60.0106603 138.288914,59.349159 138.780211,58.6876577 C142.186807,61.1172084 145.593404,63.5487821 149,65.9783328 C146.20854,69.3687799 144.003794,74.6668593 140.501781,75.7329486 C134.11695,77.6790167 126.960662,77.1146165 117.965055,77.7498196 C107.26615,88.8982409 99.1191467,103.008246 104.842147,122.394078 C107.473225,131.299059 108.695377,141.09818 108.094452,150.330877 C107.526009,159.03761 104.249343,167.736251 101.059973,176.018167 C99.9413585,178.923109 95.5460778,180.57585 91.8755616,182 C102.856658,172.611536 101.713682,160.172479 100.065198,147.173068 C97.1722302,153.225704 94.2812926,159.27834 91.388325,165.330976 C90.2575299,164.815126 89.1287649,164.299277 88,163.78545 C90.39152,158.455003 92.0765467,152.637029 95.3572736,147.921556 C99.2917097,142.269462 100.314907,137.023979 99.2571971,130.162167 C94.2142976,97.4937122 95.5075049,65.6425248 114.586881,36.8520453 C117.739708,32.0940909 120.886445,27.1237278 124.985323,23.2477751 C130.79562,17.7554935 129.32579,12.3056936 125.854228,7.04807304 C124.749825,5.37510181 121.073219,5.39128533 117.50624,4.31305841" id="Fill-20"></path>
                <path d="M187.591585,129 C185.630086,115.430608 188.489936,103.731683 197.015223,93.9552388 C199.298279,91.3365841 203.761896,90.6004001 207.222656,89 C208.191347,92.6609152 210.590968,96.635909 209.865455,99.9267317 C207.409561,111.057514 203.416222,121.586147 190.883528,125.657164 C189.727931,126.033258 188.954184,127.569642 187.591585,129" id="Fill-46"></path>
                <path d="M1.06337709,37 C-0.357895125,55.1781593 10.7901445,64.2950343 24.7539898,72.1415588 C29.4209459,54.6922554 7.59588151,56.4011547 4.93022479,43.1767446 C16.3826759,52.4830397 40.5854402,50.2058799 28.9170216,75.4399404 C32.230581,77.2044304 35.1163189,78.7403809 38,80.2763314 C16.3374255,85.8127534 -5.06187422,58.4435982 1.06337709,37" id="Fill-48"></path>
                <path d="M50,165.302035 C45.2734248,169.868065 37.3133007,173.322438 43.8930797,181.983074 C44.0117974,182.139529 39.9351515,187.201688 38.1463369,186.993767 C33.6491485,186.472935 26.85608,185.359219 25.5924405,182.413326 C24.0450857,178.808674 25.6930487,170.790329 28.6328216,168.785228 C34.216579,164.980889 41.7018322,164.097739 48.3983168,162 C48.9315405,163.101364 49.4667763,164.20067 50,165.302035" id="Fill-66"></path>
                <path d="M81.9517867,156 C77.5776508,147.360446 77.2215229,135.263006 63.0770082,132.746491 C65.7026969,137.339802 67.4833364,140.461189 69.2659879,143.580512 C68.2056523,144.464079 67.1473287,145.347647 66.0869931,146.231214 C63.6584826,143.190339 59.9744703,140.463254 59.1616134,137.021883 C58.3869849,133.733278 60.6002091,129.703551 61.501595,126 C65.3928455,127.110652 71.1472285,126.962015 72.8232428,129.571429 C77.7506847,137.24071 81.0584489,146.008258 85,154.344344 C83.9839289,154.897605 82.9678578,155.448803 81.9517867,156" id="Fill-102"></path>
                <path d="M109,199.707247 C126.88686,191.681411 126.88686,191.681411 129.024563,171 C136.501476,176.885886 137.33516,184.08111 134.490946,191.69164 C131.349996,200.091865 122.381333,202.925355 109,199.707247" id="Fill-108"></path>
                <path d="M143,106.791895 C146.266491,106.612117 151.963859,105.351601 152.390431,106.434405 C154.501866,111.782298 156.266589,117.812111 155.966625,123.472034 C155.826382,126.131516 150.769846,128.499632 147.939667,131 C147.289095,128.952178 146.071709,126.860962 146.200265,124.868933 C146.27623,123.711738 149.164844,122.969894 149.645955,121.593658 C150.769846,118.37831 152.125528,114.683551 151.508069,111.608719 C151.22174,110.174624 146.564507,109.730344 143.890153,108.837651 C143.592137,108.155732 143.296068,107.473814 143,106.791895" id="Fill-166"></path>
                <path d="M34,120.557683 C34.6128547,118.01864 35.4591778,114.508312 36.3055009,111 C39.963868,112.005542 44.6936885,111.993451 47.0137811,114.272544 C50.1176607,117.321411 51.3537927,122.149622 52,127 C49.9446439,123.699244 48.5480023,119.497733 45.5671106,117.456423 C43.9474233,116.348111 39.6386798,118.90932 34,120.557683" id="Fill-198"></path>
                <path d="M133,50.4628116 C136.64315,49.408686 140.288414,48.3545604 143.931563,47.3004349 C143.487535,46.7228871 143.041391,46.1453394 142.595248,45.5677917 C140.290528,45.2870954 137.983693,45.0084185 135.490789,44.7055089 C135.746635,44.0895926 135.867157,43.3202021 136.11243,43.2818335 C139.764037,42.7042858 143.449475,41.8601776 147.082052,42.01971 C147.819986,42.0520203 149.598215,47.0439714 148.796849,47.8577886 C145.709792,50.987855 141.768509,53.3505503 138.148618,56 L133,50.4628116 Z" id="Fill-204"></path>
                <path d="M99.8196658,17 C101.980326,23.0187305 104.593858,30.2986472 107,37 C97.3034803,36.2653486 94.1354991,27.314256 99.8196658,17" id="Fill-208"></path>
            </g>
        </g>
    </g>
</svg>