<?xml version="1.0" encoding="UTF-8"?>
<svg width="85px" height="80px" viewBox="0 0 85 80" version="1.1" xmlns="http://www.w3.org/2000/svg" xmlns:xlink="http://www.w3.org/1999/xlink">
    <!-- Generator: Sketch 58 (84663) - https://sketch.com -->
    <title>Physical and Manual Skills</title>
    <desc>Created with Sketch.</desc>
    <g id="Page-1" stroke="none" stroke-width="1" fill="none" fill-rule="evenodd" stroke-linecap="round" stroke-linejoin="round">
        <g id="Artboard" transform="translate(-873.000000, -2013.000000)" stroke="#FFFFFF">
            <path d="M957.5,2022.5 C944,2037 935.816788,2058.69221 934.139383,2062.86124 C929.065072,2075.47344 919.709817,2081.67659 906.321883,2082.20327 C902.376635,2082.35824 898.447579,2082.90877 894.503412,2083.10383 C886.557867,2083.4983 879.828819,2086.3192 874,2092 C875.41079,2090.35926 876.618651,2088.46928 878.266912,2087.12006 C885.619859,2081.09681 894.607035,2080.19083 903.574782,2079.26967 C907.134679,2078.90338 911.07237,2079.23499 914.141136,2077.77416 C918.173815,2075.85274 923.079738,2073.25292 924.886672,2069.58999 C932.354037,2054.46141 925.52386,2039 937,2023 L942,2013" id="Physical-and-Manual-Skills"></path>
        </g>
    </g>
</svg>