<?xml version="1.0" encoding="UTF-8"?>
<svg width="1068px" height="351px" preserveAspectRatio="none" viewBox="0 0 1068 351" version="1.1" xmlns="http://www.w3.org/2000/svg" xmlns:xlink="http://www.w3.org/1999/xlink">
    <!-- Generator: Sketch 58 (84663) - https://sketch.com -->
    <title>Group 3</title>
    <desc>Created with Sketch.</desc>
    <g id="Page-1" stroke="none" stroke-width="1" fill="none" fill-rule="evenodd" opacity="0.224772135">
        <g id="Artboard-Copy-13" transform="translate(-264.000000, -373.000000)">
            <g id="Group-3" transform="translate(115.000000, 252.457437)">
                <g id="robotic" transform="translate(298.500000, 289.042563) rotate(23.000000) translate(-298.500000, -289.042563) translate(66.000000, 74.542563)" fill="#BDBDBD" fill-rule="nonzero">
                    <path d="M134.78205,174.439909 C118.796767,174.439909 105.837951,186.280853 105.837951,200.887192 C105.837951,215.49353 118.796767,227.334474 134.78205,227.334474 C150.767334,227.334474 163.72615,215.49353 163.72615,200.887192 C163.72615,186.280853 150.767334,174.439909 134.78205,174.439909 Z M134.78205,214.110833 C126.788956,214.110833 120.310001,208.190774 120.310001,200.887192 C120.349799,193.610057 126.8179,187.729669 134.78205,187.729669 L134.78205,187.66355 C142.775144,187.66355 149.2541,193.583609 149.2541,200.887192 C149.2541,208.190774 142.775144,214.110833 134.78205,214.110833 Z" id="Shape" transform="translate(134.782050, 200.887192) rotate(-62.000000) translate(-134.782050, -200.887192) "></path>
                    <path d="M174.338986,101.349238 C158.353703,101.349238 145.394887,113.190182 145.394887,127.79652 C145.394887,142.402858 158.353703,154.243803 174.338986,154.243803 C190.324269,154.243803 203.283085,142.402858 203.283085,127.79652 C203.283085,113.190182 190.324269,101.349238 174.338986,101.349238 Z M174.338986,141.020161 C166.345892,141.020161 159.866936,135.100102 159.866936,127.79652 C159.906735,120.519385 166.374836,114.638997 174.338986,114.638997 L174.338986,114.572879 C182.33208,114.572879 188.811036,120.492938 188.811036,127.79652 C188.811036,135.100102 182.33208,141.020161 174.338986,141.020161 Z" id="Shape" transform="translate(174.338986, 127.796520) rotate(-62.000000) translate(-174.338986, -127.796520) "></path>
                    <path d="M270.184644,174.077967 C267.167043,158.819658 253.801129,147.082497 237.078439,145.004996 C232.462871,129.323314 219.175632,115.955322 192.461288,115.955322 L151.900241,115.955322 L151.900241,101.816101 C164.16821,98.266835 170.98229,86.2493001 167.119375,74.9756811 C163.257334,63.7012587 150.180768,57.4390296 137.913674,60.9890989 C125.645705,64.5383649 118.831624,76.5558998 122.69454,87.8295188 C124.978721,94.4958404 130.65989,99.717712 137.913674,101.816101 L137.913674,115.633977 L97.4225601,115.633977 C78.5406937,115.633977 58.6797675,123.603356 52.6655434,144.68365 C31.3526367,147.372512 16.4464521,165.430547 19.3722673,185.017386 C21.6660644,200.375312 34.4559064,212.630643 51.0570881,215.379757 L50.9871553,215.701103 C53.0851404,243.915277 75.8832458,254.262616 97.3526272,254.262616 L192.461288,254.262616 C224.420595,254.262616 237.218304,234.98186 238.82676,215.701103 C259.991933,212.164691 274.031825,193.52984 270.184644,174.077967 Z M50.7764826,202.847265 C37.5679177,199.338168 29.9548541,186.653037 33.7723129,174.514194 C36.1456586,166.968188 42.5654932,161.068276 50.7764826,158.88714 L50.7764826,202.847265 Z M135.605016,81.7641141 C135.605016,77.0435422 139.769516,73.2163121 144.906083,73.2163121 C150.04265,73.2163121 154.207151,77.0435422 154.207151,81.7641141 C154.207151,86.484686 150.04265,90.3119162 144.906083,90.3119162 C139.769516,90.3119162 135.605016,86.484686 135.605016,81.7641141 Z M225.049116,211.073722 C225.049116,222.25656 220.783213,241.023163 192.460414,241.023163 L97.4216859,241.023163 C85.253372,241.023163 64.8329831,237.102743 64.8329831,211.073722 L64.7630503,158.88714 C64.7630503,132.79385 85.1834392,128.937699 97.3517531,128.937699 L192.460414,128.937699 C220.853146,128.937699 225.049116,147.704302 225.049116,158.88714 L225.049116,211.073722 L225.049116,211.073722 Z M238.755953,202.397381 L238.755953,158.437256 C249.417214,161.2651 256.767155,170.220208 256.798625,180.417319 C256.767155,190.614429 249.417214,199.569537 238.755953,202.397381 Z" id="Shape" transform="translate(144.912485, 157.128961) rotate(-62.000000) translate(-144.912485, -157.128961) "></path>
                    <path d="M238.590821,182.171355 L158.310698,182.064711 C154.435287,182.059571 151.296925,184.861358 151.301509,188.322201 C151.306103,191.783043 154.451906,194.593178 158.327317,194.598325 L238.60744,194.704968 C242.48285,194.710109 245.621212,191.908322 245.616629,188.447479 C245.612035,184.986637 242.466232,182.176502 238.590821,182.171355 Z" id="Path" transform="translate(198.459069, 188.384840) rotate(-62.000000) translate(-198.459069, -188.384840) "></path>
                    <path d="M460.88557,171.40118 L460.88557,171.40118 C460.751258,157.721178 448.443738,146.729774 433.395556,146.851874 C420.803611,146.954023 409.928749,154.885742 407.090646,166.038351 L388.339673,169.358197 L220.915262,169.358197 L202.164289,166.038351 C198.951342,152.672777 184.428995,144.205573 169.726687,147.126399 C155.02438,150.047226 145.710344,163.249201 148.923291,176.614775 C151.107393,185.699662 158.703468,192.907559 168.595133,195.279334 L168.595133,242.970203 C156.715128,245.851127 148.429059,255.606368 148.369365,266.783716 L148.369365,278.083962 C148.369365,281.609703 151.51384,284.468282 155.392201,284.468282 C159.270562,284.468282 162.415037,281.609703 162.415037,278.083962 L162.415037,266.719873 C162.415037,260.091353 168.326509,254.717351 175.617969,254.717351 C182.909429,254.717351 188.820901,260.091353 188.820901,266.719873 L188.820901,278.083962 C188.820901,281.609703 191.965376,284.468282 195.843737,284.468282 C199.722098,284.468282 202.866573,281.609703 202.866573,278.083962 L202.866573,266.719873 C202.806879,255.542525 194.52081,245.787284 182.640805,242.90636 L182.640805,195.215491 C191.56244,193.030457 198.651993,186.873579 201.462006,178.871632 L213.190142,180.978457 L213.190142,259.760964 C213.204188,271.310997 215.8834,282.729353 221.055718,293.278643 L221.055718,293.853232 C241.789764,335.636211 295.857701,354.22735 341.818652,335.378444 C362.102358,327.059675 378.346178,312.293542 387.496933,293.853232 L387.848075,293.150957 C393.075698,282.655933 395.826895,271.281469 395.924336,259.760964 L395.924336,180.978457 L407.652473,178.871632 C410.462485,186.873579 417.552038,193.030457 426.473673,195.215491 L426.473673,242.90636 C414.593668,245.787284 406.307599,255.542525 406.247905,266.719873 L406.247905,278.083962 C406.247905,281.609703 409.39238,284.468282 413.270741,284.468282 C417.149103,284.468282 420.293577,281.609703 420.293577,278.083962 L420.293577,266.719873 C420.3006,260.091353 426.21734,254.72214 433.508799,254.728524 C440.790602,254.734908 446.692418,260.100131 446.699441,266.719873 L446.699441,278.083962 C446.699441,281.609703 449.843916,284.468282 453.722277,284.468282 C457.600638,284.468282 460.745113,281.609703 460.745113,278.083962 L460.745113,266.719873 C460.685419,255.542525 452.39935,245.787284 440.519345,242.90636 L440.519345,195.215491 C452.454655,192.382449 460.808319,182.614439 460.88557,171.40118 Z M175.617969,183.403701 C168.326509,183.403701 162.415037,178.0297 162.415037,171.40118 C162.415037,164.772659 168.326509,159.398658 175.617969,159.398658 C182.909429,159.398658 188.820901,164.772659 188.820901,171.40118 C188.820901,178.0297 182.909429,183.403701 175.617969,183.403701 Z M304.627468,330.051527 C278.16981,330.050729 253.552137,317.741761 239.38532,297.427653 L369.869615,297.427653 C355.702799,317.740963 331.085125,330.050729 304.627468,330.051527 Z M381.878664,259.824009 C381.844428,268.3375 380.107154,276.774378 376.751994,284.722856 L232.362484,284.722856 C229.007324,276.774378 227.27005,268.3375 227.235814,259.824009 L227.235814,182.126837 L381.878664,182.126837 L381.878664,259.824009 Z M433.709828,183.402105 C433.685248,183.402105 433.661546,183.402903 433.636966,183.402903 L433.496509,183.211373 C426.20505,183.211373 420.293577,177.837372 420.293577,171.208852 C420.293577,164.580332 426.20505,159.206331 433.496509,159.206331 C440.787969,159.206331 446.699441,164.580332 446.699441,171.208852 C446.816196,177.837372 441.00041,183.295965 433.709828,183.402105 Z" id="Shape" transform="translate(304.587433, 244.645423) rotate(-62.000000) translate(-304.587433, -244.645423) "></path>
                    <path d="M317.66701,232.517515 C316.397069,231.439183 314.749375,230.83922 313.040125,230.832878 L292.25903,230.805274 L317.717852,206.211448 C320.164625,203.451418 319.765204,199.343023 316.824219,197.033532 C314.194409,194.968777 310.361231,195.014993 307.800189,197.142078 L270.926451,232.796666 C268.251694,235.362564 268.301323,239.487598 271.036511,242.010189 C272.342986,243.214802 274.101608,243.88658 275.928599,243.879234 L297.263856,243.907574 L271.046862,271.367103 C268.494321,274.028449 268.716237,278.136609 271.543935,280.554265 L271.543935,280.554265 C274.380279,282.96216 278.747502,282.764359 281.310445,280.11117 L318.180555,241.720173 C320.740015,239.05232 320.510289,234.931934 317.66701,232.517515 Z" id="Path" transform="translate(294.455849, 238.876778) rotate(-62.000000) translate(-294.455849, -238.876778) "></path>
                </g>
                <g id="Group-2" transform="translate(692.425169, 36.000000)">
                    <path d="M406.530385,36.8254468 C406.640219,39.9803274 402.845954,44.0616418 407.01091,50.6280496 C411.175867,57.1944573 426.683685,84.2901227 433.061548,97.8861551 C439.439412,111.482188 435.933462,123.845064 441.063211,135.51061 C446.19296,147.176156 452.625741,162.349628 456.804427,169.310396 C460.204132,174.973554 459.470626,189.144742 461.169355,199.474015 C455.900062,205.690167 451.401081,210.017445 447.672883,212.455207 C437.857059,218.873492 431.129797,222.998786 427.491097,224.831088 C435.535519,225.106572 442.669133,224.030854 448.891939,221.603937 C453.912027,219.646084 459.268131,216.131088 464.96025,211.058949 C467.312929,216.688536 468.399731,219.734821 468.747637,229.697565 C468.8519,232.683273 468.974039,238.718452 469.000231,246.478856 C462.328686,274.422647 455.040829,292.797232 447.137131,301.60539 C436.547097,313.407293 429.093616,321.189612 424.77669,324.952347 C437.415174,321.476266 447.67849,316.91624 455.566639,311.272268 C459.759077,308.272579 463.693626,304.447765 467.370288,299.797827 C466.377574,312.657142 464.824295,324.130902 462.433442,330.998029 C454.918552,352.582672 448.614329,352.408653 449.287065,371.732297 C449.959801,391.055941 416.117197,413.957625 404.715678,414.356994 C393.314158,414.756364 377.237449,397.426703 371.733267,397.619502 C366.229085,397.812301 360.614644,401.271638 356.945189,401.40017 C351.441007,401.592969 342.761805,421.26519 336.229178,425.837264 C329.696551,430.409338 273.090843,421.336559 254.29175,401.463318 C235.492657,381.590076 213.030345,324.335255 211.34164,275.828965 C211.007236,266.223556 210.913974,257.337405 211.081092,249.108519 C213.22018,253.398969 215.762316,257.194698 218.70722,260.49725 C224.536363,267.034323 232.824202,273.445846 243.570737,279.731821 C240.550986,275.647272 235.662132,267.627801 228.904178,255.673407 C222.146223,243.719013 220.746133,219.165604 224.703908,182.013181 L224.48411,181.837456 C225.34496,180.285858 226.25041,178.792017 227.20141,177.352869 C240.289129,157.547228 241.482326,157.900274 245.546183,150.255947 C248.182926,145.296097 258.022756,128.282381 269.52449,112.997688 C269.583403,113.214008 269.644091,113.43108 269.7056,113.64838 C270.037428,125.581485 271.647833,134.951998 274.536815,141.759918 C277.425796,148.567838 281.919955,154.816508 288.019292,160.505927 C286.616291,156.148389 284.533553,147.419575 281.771077,134.319486 C280.250996,127.111027 280.29054,115.092259 281.889709,98.2631818 C284.210852,95.8586026 286.521525,93.6993219 288.782086,91.8843897 C306.779886,77.4345331 328.57195,58.9033622 351.575935,52.569811 C374.57992,46.2362598 384.925536,49.4274452 391.851319,44.8415999 C398.777102,40.2557546 406.42055,33.6705662 406.530385,36.8254468 Z" id="Combined-Shape" stroke="#BDBDBD" stroke-width="5" transform="translate(340.000000, 231.500000) rotate(43.000000) translate(-340.000000, -231.500000) "></path>
                    <path d="M359.118261,97.6591072 C359.205956,100.178233 356.176493,103.437104 359.501928,108.680284 C362.827363,113.923465 375.209301,135.558959 380.301591,146.415193 C385.393882,157.271427 382.594619,167.143003 386.690375,176.457772 C390.786131,185.77254 395.922269,197.888337 399.258666,203.446409 C400.623276,205.7197 401.153851,209.709931 401.516416,214.16419 C394.006064,220.748042 388.066145,224.929933 383.696334,226.710786 C375.026537,230.244037 369.12631,232.451196 365.995653,233.332264 C372.258656,234.775445 378.013383,235.020583 383.259833,234.067677 C388.506284,233.114771 394.52143,230.365242 401.305273,225.81909 C401.688876,225.695083 402.068999,225.568461 402.445642,225.439224 C402.779382,228.143709 403.259792,230.629823 404.045023,232.599296 C407.144245,240.3726 408.442629,241.588216 408.794507,251.664683 C408.999018,257.521117 409.289639,278.071184 408.319219,297.640431 C397.602272,308.617943 388.791994,315.368753 381.888401,317.893182 C370.004705,322.238677 361.836915,324.927624 357.385029,325.960022 C367.596086,328.253314 376.538483,328.890855 384.21222,327.872645 C391.278495,326.935039 398.726236,323.960606 406.555441,318.949348 C405.838052,324.467838 404.920644,329.197785 403.753052,332.551627 C397.752922,349.78665 392.719429,349.647699 393.256563,365.077347 C393.793697,380.506995 366.772679,398.793656 357.669341,399.112546 C348.566002,399.431437 340.433287,391.519183 336.038572,391.67313 C331.643857,391.827077 329.413613,390.959378 329.62189,396.942303 C329.830166,402.925228 330.180948,413.001733 330.345406,417.725951 L322.497671,418 L321.883804,400.366117 C322.229268,398.252183 320.937096,397.246532 318.007286,397.349163 C313.612571,397.503111 308.203385,404.62864 302.987526,408.279374 C297.771668,411.930109 252.575858,404.685628 237.566061,388.817134 C222.556263,372.94864 204.621634,327.2315 203.273317,288.499934 C202.714709,272.4534 202.998867,258.920771 204.266461,247.448719 C204.375777,247.560343 204.485234,247.670863 204.595395,247.781392 C208.344439,255.513538 212.822464,261.364892 218.029469,265.335454 C223.236475,269.306015 230.109722,272.649646 238.649211,275.366346 C235.823409,272.752085 230.989906,267.39654 224.148702,259.299708 C218.820085,252.993082 214.319494,239.887387 210.646931,219.982622 C212.163273,216.273063 213.921774,212.916939 215.936265,209.868206 C226.385919,194.05369 227.338606,194.335592 230.58332,188.231709 C233.828034,182.127826 250.73423,153.160871 265.104249,141.622871 C266.45748,140.536333 267.837576,139.420895 269.242815,138.287412 L269.241878,138.265052 C269.84719,146.426416 271.390586,152.874032 273.872066,157.6079 C276.353547,162.341767 280.089078,166.739826 285.078662,170.802077 C283.843362,167.784924 281.944658,161.762066 279.382549,152.733501 C278.100117,148.214364 277.724483,141.013382 278.255647,131.130558 C289.599288,122.354352 302.175251,113.828273 315.240869,110.230753 C333.607987,105.173504 341.868258,107.721619 347.398025,104.059889 C352.927792,100.398158 359.030565,95.139981 359.118261,97.6591072 Z" id="Combined-Shape" stroke="#BDBDBD" stroke-width="5" transform="translate(306.000000, 257.500000) rotate(37.000000) translate(-306.000000, -257.500000) "></path>
                    <path d="M152,352.510449 L152.667203,353 C153.751894,351.964594 154.966938,350.275672 156.312336,347.933235 C158.330432,344.419579 163.482349,333.715949 172.591369,321.92026 C181.700388,310.124572 195.44896,294.241481 205.470643,285.113208 C212.151765,279.027693 216.284769,275.775598 217.869655,275.356924 C218.976516,274.920466 219.270478,274.511855 218.751542,274.131094 C217.973138,273.559951 214.6436,274.488174 204.543972,284.433276 C194.444344,294.378379 183.820728,306.311355 178.069264,313.203853 C172.317799,320.096351 160.642398,336.8763 158.069631,342.105598 C155.496865,347.334895 156.524447,345.591666 155.645132,347.443684 C155.058923,348.678363 153.843879,350.367285 152,352.510449 Z" id="Path-4" stroke="#979797" fill="#404B09"></path>
                    <g id="Added-Investment-in-Infrastructure" transform="translate(126.000000, 269.000000)" stroke="#BDBDBD" stroke-width="5">
                        <path d="M51.2436837,7.61631056 C51.2647129,8.22360586 50.5382543,9.009234 51.3356862,10.2732275 C52.1331182,11.537221 55.10228,16.7529714 56.3234001,19.3701248 C57.5445202,21.9872782 56.8732631,24.3670564 57.8554164,26.612603 C58.8375698,28.8581495 60.0692045,31.7789505 60.8692651,33.1188559 C61.5201859,34.2089886 61.3797392,36.9368934 61.7049925,38.9252198 C60.6962483,40.1216094 59.8347843,40.9546778 59.120919,41.423969 C57.2415594,42.6594497 55.9535427,43.4535437 55.2568688,43.8062508 C56.7970721,43.8592796 58.1628899,43.6522106 59.3543223,43.1850438 C60.3153915,42.8082035 61.3407831,42.1316778 62.4304972,41.1554666 C62.8813656,42.2389505 63.0895366,42.8253977 63.1559401,44.7430177 C63.1758545,45.3181292 63.1992248,46.4810176 63.204205,47.97627 C61.926371,53.3537964 60.5312875,56.8896723 59.0183427,58.5848359 C56.990751,60.8566303 55.5636909,62.3546793 54.7371624,63.0789828 C57.156955,62.4098584 59.1219927,61.5320812 60.6322754,60.445651 C61.4350627,59.8681617 62.1884625,59.1318039 62.8924751,58.2365776 C62.7022336,60.7115011 62.4048428,62.920641 61.947009,64.2427398 C60.5081911,68.3976519 59.3011704,68.3641545 59.429974,72.0838382 C59.5587775,75.8035218 53.0791965,80.2119564 50.8962358,80.2888326 C48.7132752,80.3657087 45.6351922,77.0298546 44.5813491,77.0669673 C43.5275061,77.1040799 42.4525526,77.7699812 41.7499905,77.7947229 C40.6961475,77.8318356 39.0344078,81.6186181 37.7836563,82.4987145 C36.5329048,83.3788108 25.6950486,81.6323563 22.095732,77.8068784 C18.4964153,73.9814005 14.1957304,62.9601964 13.8724058,53.6230313 C13.8083301,51.7725968 13.7904964,50.0608328 13.8225968,48.4757775 C14.2314638,49.3044738 14.7184448,50.0356482 15.2826376,50.6717695 C16.3986985,51.9301162 17.9855068,53.1642954 20.0430626,54.3743071 C19.4648942,53.5880565 18.5288634,52.0443571 17.2349701,49.7432091 C15.9410768,47.4420611 15.6730125,42.7156795 16.4307771,35.5640645 L16.3879687,35.5315529 C16.5530057,35.2324092 16.7266066,34.9444165 16.9089544,34.6669829 C19.4147585,30.8545176 19.6432106,30.9224768 20.421286,29.4509906 C20.9261549,28.4961888 22.8103185,25.2207961 25.012647,22.2784411 C25.0234825,22.3205575 25.0351135,22.3623854 25.0469024,22.404257 C25.1104349,24.7013071 25.4187666,26.5050737 25.9718975,27.8155568 C26.5250285,29.1260399 27.3854903,30.3288707 28.553283,31.4240493 C28.2846613,30.5852496 27.8858955,28.9050062 27.3569858,26.3833189 C27.0659838,24.9959068 27.073517,22.6827696 27.3795851,19.4439071 C27.8241696,18.9797778 28.266546,18.5641616 28.6993293,18.2148215 C32.1452285,15.4333122 36.3175863,11.8661747 40.7219811,10.6470047 C45.1263759,9.42783471 47.1071708,10.0421185 48.4331968,9.15937118 C49.7592228,8.27662391 51.2226546,7.00901527 51.2436837,7.61631056 Z" id="Combined-Shape-Copy-6" transform="translate(38.505629, 45.089976) rotate(-22.000000) translate(-38.505629, -45.089976) "></path>
                        <path d="M53.1594706,37.6429623 C53.1711645,37.9804831 52.7671969,38.4171173 53.2106312,39.119616 C53.6540655,39.8221146 55.3051508,42.7209094 55.9841887,44.1754634 C56.6632266,45.6300174 56.2899554,46.9526438 56.8361092,48.2006672 C57.382263,49.4486906 58.0671478,51.072005 58.5120439,51.8166937 C58.6939542,52.1211842 58.7647167,52.6555758 58.8130623,53.2521526 C57.810868,54.1353619 57.019283,54.6952417 56.436865,54.9337317 C55.2807799,55.4071283 54.4940066,55.7028508 54.0765452,55.8208991 C54.9116934,56.0142613 55.6790647,56.0471056 56.3786593,55.9194321 C57.0782538,55.7917587 57.8803512,55.4233677 58.7849513,54.8142593 C58.8365538,54.7974982 58.8876841,54.7803804 58.9383421,54.762906 C58.981367,55.1249326 59.0454555,55.4585055 59.1502867,55.7226937 C59.5635564,56.7641865 59.7368372,56.9270537 59.7836132,58.277137 C59.8107971,59.0617582 59.849561,61.8148455 59.720213,64.4366578 C58.2910724,65.9079978 57.116314,66.8124325 56.1957838,67.1506497 C54.6111374,67.7328735 53.521993,68.0931475 52.9283507,68.2314715 C54.2899569,68.5387343 55.4823922,68.6241542 56.5056565,68.4877311 C57.5289208,68.3513081 58.6121737,67.893047 59.7554152,67.1129479 L59.4849311,67.293419 C59.389247,68.0322066 59.2669662,68.6655127 59.1113534,69.1146366 C58.3112586,71.4238417 57.640061,71.4052246 57.7116858,73.4725397 C57.7833106,75.5398548 54.1801587,77.9899619 52.9662625,78.032688 C51.7523663,78.075414 50.6678991,77.015304 50.0818802,77.0359304 C49.4958614,77.0565567 49.1984668,76.9402996 49.2262397,77.7419116 C49.2540125,78.5435236 49.3007879,79.8936069 49.322724,80.5267476 L48.2762516,80.5632912 L48.1943947,78.2006454 C48.2404612,77.9174136 48.0681548,77.7826732 47.6774755,77.7964241 C47.0914567,77.8170504 46.3701619,78.7717523 45.6746467,79.2608898 C44.9791314,79.7500272 38.9524389,78.7793877 36.9509384,76.6532746 C34.9494378,74.5271615 32.557922,68.4018283 32.3781284,63.2124455 C32.3040869,61.0753679 32.3410815,59.2710851 32.5075348,57.7399442 C32.5242804,57.7588924 32.5419926,57.7768817 32.5598424,57.794873 C33.0624505,58.8361966 33.6627879,59.6242252 34.3608546,60.158959 C35.0589213,60.6936927 35.9803694,61.1439948 37.1251989,61.5098652 C36.7463634,61.1577908 36.0983696,60.4365349 35.1812173,59.3460975 C34.464422,58.4938722 33.8593894,56.7197582 33.3661195,54.0237555 C33.5670283,53.5286279 33.80004,53.0825773 34.0666859,52.6771073 C35.4601082,50.5582263 35.5871454,50.5959965 36.0198159,49.7781781 C36.4524864,48.9603597 38.7068646,45.0792716 40.623053,43.5333723 C40.803423,43.3878575 40.9873723,43.2384739 41.1746715,43.0866742 C41.2555065,44.1769672 41.4613126,45.04084 41.7922087,45.6750991 C42.1231049,46.3093583 42.6212241,46.8986247 43.2865664,47.4428985 C43.1218438,47.0386505 42.8686587,46.231688 42.5270111,45.0220112 C42.3560794,44.4167908 42.3059586,43.4525669 42.3766487,42.1293396 C43.8892277,40.9518129 45.5662562,39.8093816 47.3085842,39.3273528 C49.7577708,38.649766 50.8592471,38.9911708 51.5966209,38.5005601 C52.3339947,38.0099494 53.1477768,37.3054415 53.1594706,37.6429623 Z" id="Combined-Shape-Copy-7" transform="translate(46.076349, 59.058972) rotate(-28.000000) translate(-46.076349, -59.058972) "></path>
                    </g>
                    <g id="Investment-in-Infrastructure" transform="translate(201.000000, 259.000000)" stroke="#BDBDBD" stroke-width="5">
                        <path d="M25.4955945,-0.826995541 C25.5045543,-0.570857389 25.1950356,-0.239504023 25.5347936,0.293608872 C25.8745516,0.826721767 27.1396079,3.02656209 27.6598847,4.13039549 C28.1801614,5.23422888 27.8941622,6.2379449 28.3126235,7.18504615 C28.7310848,8.13214741 29.2558414,9.36404988 29.5967194,9.92918005 C29.8740024,10.3888782 29.8142369,11.53908 29.9527163,12.3776538 C29.5235457,12.8822027 29.156188,13.2339382 28.8518101,13.4320168 C28.0510804,13.953104 27.5023013,14.2880279 27.2054729,14.4367888 C27.8616998,14.4591547 28.4436272,14.3718194 28.951255,14.1747831 C29.3604712,14.0159453 29.7970579,13.7308713 30.2610151,13.3195609 C30.4540179,13.7757285 30.5427465,14.023059 30.5709914,14.8318878 C30.5794378,15.0737604 30.589355,15.5621266 30.5915122,16.1901803 C30.0473547,18.4630443 29.4528487,19.9548226 28.8081059,20.6699335 C27.9442197,21.6281053 27.3361991,22.2599355 26.9840441,22.565424 C28.0150334,22.2832083 28.8522675,21.9129893 29.4957464,21.4547671 C29.8375175,21.2113914 30.1582794,20.9011151 30.4580321,20.5239383 C30.377658,21.5670364 30.2509607,22.4986828 30.0559085,23.0562603 C29.4428784,24.8086723 28.9286089,24.7945441 28.9834876,26.3633902 C29.0383663,27.9322364 26.2776426,29.7915762 25.3475591,29.8240001 C24.4174756,29.8564241 23.1060117,28.4494652 22.6570058,28.4651182 C22.208,28.4807711 21.7499998,28.7616274 21.4506626,28.7720627 C21.0016568,28.7877157 20.2936474,30.3848621 19.7607457,30.7560592 C19.2278441,31.1272563 14.6102111,30.3906564 13.0766677,28.7771895 C11.5431242,27.1637227 9.71075225,22.5153237 9.57299542,18.5771996 C9.54565068,17.7954804 9.53807193,17.0724376 9.55183991,16.4030017 C9.72553086,16.755104 9.93320419,17.0638652 10.1738455,17.3324497 C10.6493602,17.863181 11.325444,18.3837191 12.2020968,18.8940642 C11.9557594,18.5624483 11.5569492,17.9113642 11.0056664,16.940812 C10.4543836,15.9702598 10.3401707,13.9768199 10.6630278,10.9604925 L10.6442955,10.9476652 C10.7147593,10.8211787 10.7888888,10.699418 10.8667625,10.5821316 C11.9343983,8.97415302 12.0317338,9.00281609 12.3632446,8.38218923 C12.5783444,7.97949738 13.3810737,6.59811932 14.3193681,5.35715862 C14.3240175,5.37457233 14.329004,5.39232558 14.3340586,5.41009751 C14.3611276,6.37892135 14.492497,7.13969365 14.7281668,7.69241442 C14.9638366,8.24513519 15.3304494,8.7524516 15.8280053,9.21436364 C15.7135549,8.8605842 15.5436547,8.15191009 15.3183046,7.08834131 C15.1943862,6.50349229 15.197525,5.52862556 15.327721,4.16374113 C15.5171294,3.96596958 15.705726,3.79055379 15.8902305,3.64312472 C17.3584081,2.46997113 19.1361044,0.965464171 21.0126636,0.451256413 C22.8892227,-0.0629513442 23.7331704,0.196134317 24.2981439,-0.17618086 C24.8631174,-0.548496036 25.4866347,-1.08313369 25.4955945,-0.826995541 Z" id="Combined-Shape" transform="translate(20.068329, 14.978224) rotate(72.000000) translate(-20.068329, -14.978224) "></path>
                        <path d="M14.6438424,20.5243118 C14.62003,20.7068028 14.589571,20.863241 14.5507752,20.9740828 C14.3519212,21.5422206 14.1851031,21.5376402 14.2029046,22.0462653 C14.2207061,22.5548905 13.3251859,23.1576946 13.0234866,23.1682066 C12.7217872,23.1787185 12.4522559,22.9178978 12.3066079,22.9229726 C12.16096,22.9280473 12.0870461,22.8994443 12.0939487,23.0966663 C12.1008513,23.2938883 12.1124768,23.6260517 12.1179262,23.7817533 L11.8578413,23.7908356 L11.837496,23.2095294 C11.8489453,23.1398454 11.8061206,23.106695 11.7090219,23.1100781 C11.563374,23.1151529 11.3841048,23.3500399 11.2112428,23.4703832 C11.0383809,23.5907265 9.54051869,23.3519184 9.04306973,22.8288271 C8.54562077,22.3057358 7.95123817,20.7987093 7.90655275,19.5219564 C7.88812367,18.995399 7.89737205,18.5509591 7.93889668,18.1738959 C7.94237879,18.1797083 7.94702803,18.1843847 7.95171547,18.1890616 C8.07663268,18.4452603 8.22583934,18.6391403 8.39933546,18.7707018 C8.57283158,18.9022633 8.80184645,19.0130519 9.08638009,19.1030676 C8.99222508,19.0164461 8.83117397,18.8389943 8.60322676,18.5707121 C8.42517844,18.3611583 8.27487543,17.9250517 8.15231772,17.2623923 C8.20203692,17.1394347 8.25995027,17.0296894 8.32622335,16.9299288 C8.67254177,16.4086168 8.70411534,16.4179095 8.81165041,16.2167002 C8.91918548,16.0154909 9.47948414,15.06062 9.9557298,14.6802797 L10.0924946,14.5703249 L10.1086249,14.7242324 C10.1346224,14.9213808 10.1805172,15.0823742 10.2463094,15.2072125 C10.3285497,15.3632604 10.4523513,15.5082386 10.6177141,15.6421472 C10.5767743,15.5426894 10.5138482,15.344151 10.4289357,15.0465321 C10.3864379,14.8975768 10.3739871,14.6602336 10.3915834,14.3345025 C10.767155,14.0453657 11.1841253,13.7641086 11.6173384,13.6454654 C12.2260544,13.4787575 12.4998131,13.5627539 12.6830785,13.4420481 C12.866344,13.3213423 13.0685997,13.148011 13.0715061,13.2310518 C13.0744125,13.3140927 12.9740112,13.4215185 13.0842215,13.5943555 C13.1944317,13.7671925 13.6047892,14.480388 13.7735559,14.8382545 C13.9423227,15.1961209 13.8495506,15.521529 13.9852905,15.8285824 C14.1210305,16.1356358 14.2912504,16.5350226 14.401824,16.7182397 C14.4469864,16.7930724 14.4645845,16.9243449 14.4765992,17.0709284 C14.2271617,17.2889812 14.0306714,17.4265126 13.8860632,17.48513 C13.5987321,17.6016006 13.403189,17.6743577 13.299434,17.7034014 C13.5070001,17.7509746 13.697721,17.7590554 13.8715969,17.7276436 C14.0454727,17.6962319 14.2448244,17.605596 14.4696519,17.455736 C14.4828474,17.4514932 14.4959187,17.4471574 14.5088658,17.4427288 C14.5184986,17.5323257 14.5344216,17.6143021 14.5604516,17.6792397 C14.6631648,17.93548 14.7062578,17.9755496 14.7178572,18.3077139 C14.7246015,18.5008442 14.734244,19.1787214 14.702048,19.8240352 C14.3462228,20.1856671 14.0546651,20.4077646 13.8261454,20.4908797 C13.4323005,20.6341252 13.1616067,20.7227641 13.014064,20.7567962 C13.3524749,20.8323926 13.6488404,20.8534086 13.9031605,20.8198442 C14.1066166,20.7929926 14.3196147,20.7154644 14.5421548,20.5872594 L14.6438424,20.5243118 Z" id="Combined-Shape" transform="translate(11.311081, 18.500070) rotate(66.000000) translate(-11.311081, -18.500070) "></path>
                    </g>
                    <path d="M67.2301219,330.202667 C67.2560906,330.977267 66.358996,331.979329 67.3437347,333.591542 C68.3284734,335.203754 71.9950539,341.856398 73.5029997,345.194555 C75.0109455,348.532711 74.1820186,351.568097 75.3948674,354.432272 C76.6077163,357.296447 78.1286464,361.021904 79.1166312,362.730941 C79.920419,364.121351 79.7470205,367.600589 80.1486214,370.136661 C78.9033707,371.662497 77.8393279,372.725352 76.9576207,373.324041 C74.6368231,374.899885 73.0462675,375.912745 72.1859537,376.36262 C74.0879313,376.430258 75.7745626,376.166143 77.2458474,375.570276 C78.4329874,375.089487 79.6996022,374.22624 81.0456919,372.980537 C81.6014074,374.363708 81.8584332,375.111821 81.9404531,377.557457 C81.9650284,378.29076 81.9938705,379.773264 82.0000288,381.67952 C80.4223526,388.539608 78.6994376,393.050213 76.8309505,395.212576 C74.327103,398.110231 72.5648444,400.020979 71.5441748,400.944822 C74.5323462,400.091359 76.9589465,398.971762 78.8239757,397.58603 C79.8154073,396.849388 80.7458413,395.910078 81.6152777,394.7681 C81.380138,397.925142 81.0128946,400.742865 80.4475236,402.429184 C78.6707455,407.728738 77.1802109,407.686012 77.3392687,412.430436 C77.4983266,417.17486 69.4967735,422.79778 66.8010629,422.895835 C64.1053523,422.99389 60.3042663,418.739037 59.0028888,418.786374 C57.7015113,418.833711 56.3740647,419.683062 55.5064797,419.71462 C54.2051021,419.761957 52.1530408,424.591965 50.6085035,425.71452 C49.0639662,426.837075 35.680434,424.609488 31.2356831,419.730124 C26.7909322,414.85076 21.4800706,400.793311 21.0807601,388.88384 C21.0017119,386.525714 20.9796648,384.344148 21.0191664,382.323926 C21.5253179,383.377293 22.1262131,384.308918 22.8222786,385.119529 C24.2004882,386.72454 26.1600178,388.298724 28.7008676,389.842084 C27.9868947,388.839228 26.831002,386.870253 25.2331894,383.935159 C23.6353769,381.000064 23.3043477,374.971606 24.2401017,365.849783 L24.1879067,365.807064 C24.3915091,365.425957 24.6056641,365.059041 24.8305967,364.705564 C27.9249827,359.842798 28.2070954,359.929479 29.1679308,358.052611 C29.7914174,356.834711 32.1183428,352.656629 34.8381407,348.90354 C34.8508953,348.956951 34.8653718,349.010729 34.8800463,349.064564 C34.9585019,351.994431 35.3392568,354.29512 36.0223112,355.96663 C36.7053656,357.638139 37.7679391,359.17234 39.2100317,360.56923 C38.8783141,359.499349 38.3858832,357.356213 37.7327392,354.139823 C37.3733658,352.370098 37.3826881,349.419497 37.760706,345.288017 C38.3095161,344.696809 38.855874,344.166614 39.3903824,343.720975 C43.6456799,340.173185 48.7980721,335.623332 54.2370037,334.068291 C59.6759354,332.51325 62.1219941,333.296764 63.759487,332.170828 C65.3969798,331.044891 67.2041533,329.428067 67.2301219,330.202667 Z" id="Combined-Shape-Copy-9" stroke="#BDBDBD" stroke-width="5" transform="translate(51.500000, 378.000000) rotate(276.000000) translate(-51.500000, -378.000000) "></path>
                    <path d="M81.7042474,357.088292 C81.7153158,357.425745 81.3329553,357.862291 81.7526716,358.564649 C82.1723879,359.267006 83.7351614,362.165219 84.3778795,363.619481 C85.0205977,365.073743 84.6672916,366.396103 85.1842332,367.643876 C85.7011748,368.891649 86.3494272,370.514637 86.770527,371.259176 C86.9426111,371.563435 87.0096101,372.097292 87.0553679,372.693345 C86.1067003,373.577494 85.3575527,374.137171 84.8063435,374.375588 C83.712094,374.84889 82.967403,375.144553 82.5722704,375.262577 C83.3627488,375.455901 84.0890757,375.488738 84.751251,375.361091 C85.4134263,375.233443 86.1726218,374.865126 87.0288375,374.25614 C87.0776622,374.239388 87.1260402,374.22228 87.1739716,374.204816 C87.214741,374.566715 87.2754027,374.900243 87.3746321,375.164392 C87.7657972,376.205675 87.9298098,376.36851 87.9741213,377.718321 C87.9998297,378.502793 88.0365116,381.255379 87.9140735,383.87669 C86.5610774,385.347892 85.4493342,386.251948 84.578157,386.590052 C83.0782688,387.172159 82.0473795,387.532361 81.4854894,387.670657 C82.7742673,387.977858 83.9029227,388.063261 84.8714555,387.926865 C85.7592773,387.801836 86.6948101,387.406428 87.6780538,386.74064 L87.893,386.59 L87.6914253,386.732404 C87.6008518,387.47121 87.4850966,388.104532 87.3377813,388.553645 C86.5804812,390.862386 85.945184,390.843773 86.0129778,392.910673 C86.0807716,394.977573 82.6703419,397.427188 81.5213735,397.469905 C80.3724051,397.512622 79.3459428,396.452725 78.7912684,396.473348 C78.236594,396.49397 77.9551062,396.377736 77.9813936,397.179187 C78.007681,397.980638 78.0519545,399.33045 78.0727077,399.963175 L77.0822176,400 L77.004739,397.637829 C77.0483415,397.354654 76.8852513,397.21994 76.5154683,397.233689 C75.9607939,397.254311 75.2780792,398.208821 74.619765,398.69786 C73.9614508,399.186899 68.2571086,398.216455 66.3626625,396.090769 C64.4682165,393.965083 62.2046158,387.84098 62.0343955,382.652641 C61.9644471,380.519499 61.9992438,378.717994 62.15614,377.188778 C62.2659106,377.319965 62.3835322,377.450516 62.5082077,377.581168 C62.9868091,378.612121 63.5584718,379.392301 64.2231959,379.921709 C64.88792,380.451118 65.7653558,380.896935 66.8555033,381.259162 C66.4947627,380.910594 65.8777197,380.196521 65.0043745,379.116943 C64.2558506,378.191662 63.6353159,376.168732 63.1427705,373.048152 C63.2902207,372.715753 63.4534204,372.407351 63.6326804,372.119417 C64.9515726,370.000962 65.0718149,370.038724 65.4813431,369.22107 C65.8908713,368.403416 68.0246694,364.523107 69.8383664,362.977519 C70.0089649,362.832139 70.1829463,362.682896 70.3600941,362.531241 C70.4369918,363.620984 70.63179,364.484683 70.9449874,365.118815 C71.2581849,365.752947 71.7296611,366.342095 72.3594162,366.88626 C72.2035041,366.482093 71.9638611,365.675292 71.6404873,364.465858 C71.4786574,363.860607 71.4312343,362.896243 71.498218,361.572766 C72.930006,360.39636 74.5172568,359.254251 76.1663079,358.772344 C78.4844947,358.094893 79.5270562,358.436229 80.22499,357.945717 C80.9229238,357.455205 81.693179,356.750839 81.7042474,357.088292 Z" id="Combined-Shape-Copy-10" stroke="#BDBDBD" stroke-width="5" transform="translate(75.000000, 378.500000) rotate(270.000000) translate(-75.000000, -378.500000) "></path>
                    <path d="M187.28331,336.111889 C187.298635,336.539533 186.769203,337.092755 187.35036,337.98283 C187.931517,338.872906 190.095398,342.54572 190.985333,344.38866 C191.875267,346.231601 191.386065,347.907387 192.101844,349.48865 C192.817623,351.069914 193.71522,353.126676 194.298292,354.070207 C194.772655,354.837823 194.670327,356.758626 194.907329,358.158746 C194.172177,359.00141 193.544368,359.588023 193.024123,359.918481 C191.654474,360.788478 190.715786,361.347661 190.20806,361.59603 C191.330538,361.633372 192.325926,361.487558 193.194224,361.15859 C193.894275,360.893365 194.641155,360.417326 195.434863,359.730474 C195.76479,360.492666 195.916413,360.905815 195.964795,362.25568 C195.979283,362.659986 195.996281,363.476813 195.999948,364.527203 C195.069299,368.317719 194.052306,370.808726 192.949367,372.002777 C191.471688,373.602523 190.431668,374.657415 189.829306,375.167454 C191.592815,374.696271 193.024906,374.07816 194.125578,373.313121 C194.710665,372.906446 195.259756,372.38789 195.772851,371.757451 C195.634125,373.500383 195.417393,375.05597 195.083736,375.986945 C194.035147,378.912741 193.155488,378.889152 193.249358,381.50847 C193.343228,384.127787 188.621005,387.232108 187.030095,387.286242 C185.439185,387.340377 183.195923,384.991343 182.427898,385.017477 C181.659872,385.043611 180.876462,385.512524 180.364445,385.529946 C179.59642,385.55608 178.385368,388.222647 177.473839,388.842391 C176.56231,389.462135 168.663839,388.232321 166.040709,385.538506 C163.41758,382.844691 160.283304,375.083807 160.047636,368.508787 C160.000962,367.206225 159.987963,366.00124 160.011327,364.88542 C160.309886,365.468538 160.664563,365.982972 161.075426,366.430573 C161.888795,367.316673 163.045238,368.185754 164.544754,369.037817 C164.123393,368.484157 163.441228,367.397119 162.498257,365.776702 C161.555287,364.156286 161.359926,360.828074 161.912173,355.792068 L161.880946,355.769225 C162.001231,355.558556 162.127759,355.355741 162.260662,355.160363 C164.086855,352.475711 164.253348,352.523567 164.820398,351.487379 C165.188359,350.814992 166.561643,348.508315 168.166782,346.436285 C168.174256,346.465748 168.182809,346.495472 168.191479,346.525228 C168.237781,348.142759 168.462488,349.412931 168.865602,350.335743 C169.268716,351.258556 169.895808,352.105562 170.746878,352.876763 C170.55111,352.286099 170.260496,351.102909 169.875034,349.327194 C169.663009,348.350451 169.668443,346.722155 169.891339,344.442307 C170.215023,344.114229 170.53767,343.821305 170.853314,343.575122 C173.364635,341.616446 176.405389,339.104548 179.615247,338.246036 C182.825105,337.387524 184.26868,337.820088 185.235068,337.198478 C186.201456,336.576867 187.267984,335.684246 187.28331,336.111889 Z" id="Combined-Shape-Copy" stroke="#BDBDBD" stroke-width="5" transform="translate(178.000000, 362.500000) scale(-1, 1) rotate(-18.000000) translate(-178.000000, -362.500000) "></path>
                    <path d="M178.914968,358.065705 C178.923908,358.316833 178.615079,358.641705 178.95408,359.16439 C179.293081,359.687074 180.555317,361.843884 181.074434,362.926125 C181.593551,364.008367 181.308189,364.992449 181.725718,365.921024 C182.143246,366.849599 182.666833,368.057404 183.006951,368.61148 C183.145956,368.837928 183.200067,369.235275 183.237026,369.678905 C182.471154,370.336486 181.865842,370.753189 181.4205,370.93067 C180.536686,371.282895 179.935206,371.502923 179.616062,371.590755 C180.254523,371.734624 180.84117,371.759061 181.376002,371.664067 C181.910835,371.569074 182.524029,371.294977 183.215586,370.841778 C183.255476,370.829168 183.294996,370.816287 183.334147,370.803135 C183.365882,371.073633 183.414852,371.321399 183.494881,371.517687 C183.810821,372.292596 183.943292,372.413775 183.979054,373.418286 C183.999838,374.002151 184.029477,376.051017 183.930544,378.001976 C182.837408,379.096385 181.939691,379.768944 181.236196,380.020504 C180.024752,380.4537 179.192113,380.721757 178.73828,380.824675 C179.779213,381.05329 180.690816,381.116845 181.47309,381.015342 C182.168445,380.925116 182.900036,380.645688 183.667862,380.177058 L183.750952,380.124934 C183.677767,380.675389 183.584211,381.147254 183.465117,381.481782 C182.853453,383.199915 182.34033,383.186063 182.395087,384.724222 C182.449843,386.26238 179.695273,388.085349 178.767263,388.117139 C177.839253,388.148928 177.010189,387.360168 176.562185,387.375514 C176.11418,387.390861 175.886825,387.304362 175.908057,387.90079 C175.929289,388.497219 175.965048,389.50173 175.98181,389.972595 L175.181801,390 L175.119223,388.242105 C175.15444,388.03137 175.022714,387.931118 174.724044,387.94135 C174.276039,387.956696 173.724617,388.66703 173.192903,389.030966 C172.661189,389.394902 168.05385,388.672711 166.523725,387.090805 C164.9936,385.508899 163.165312,380.951427 163.027851,377.090336 C162.961268,375.219811 163.012155,373.691949 163.20344,372.434496 C163.352537,372.622395 163.520046,372.809695 163.706484,372.997255 C164.105319,373.822018 164.581704,374.446162 165.135641,374.869689 C165.689578,375.293215 166.420774,375.649869 167.329231,375.93965 C167.028613,375.660796 166.514411,375.089538 165.786623,374.225876 C165.163587,373.486522 164.646958,371.871114 164.236736,369.379651 L164.318746,369.251659 C165.384001,367.675134 165.48112,367.703237 165.811892,367.09475 C166.142664,366.486263 167.866111,363.598591 169.331016,362.448386 C169.468511,362.340428 169.608727,362.229608 169.75149,362.116998 C169.814519,362.927244 169.971856,363.569997 170.224822,364.041909 C170.477789,364.513821 170.858595,364.952257 171.367242,365.357216 C171.241314,365.056441 171.047756,364.456031 170.786571,363.555988 C170.655891,363.105667 170.617576,362.388217 170.671625,361.403638 C171.827379,360.528003 173.109733,359.677683 174.44203,359.318954 C176.314406,358.814804 177.156473,359.068822 177.720187,358.70379 C178.283901,358.338757 178.906029,357.814578 178.914968,358.065705 Z" id="Combined-Shape-Copy-2" stroke="#BDBDBD" stroke-width="5" transform="translate(173.500000, 374.000000) scale(-1, 1) rotate(-24.000000) translate(-173.500000, -374.000000) "></path>
                    <path d="M194.036242,403.671105 L195.340005,404 C196.0047,403.175847 196.328942,401.860059 196.312731,400.052637 C196.288415,397.341504 194.848946,389.133877 197.967682,379.912132 C201.086417,370.690386 207.319439,358.19677 213.808713,350.907295 C218.134896,346.047646 221.218239,343.421678 223.058744,343.029391 C224.229674,342.648527 224.308119,342.330192 223.294081,342.074384 C221.773024,341.690673 217.945147,342.550905 211.997931,350.450497 C206.050715,358.350088 200.964305,367.751707 198.553935,373.162276 C196.143564,378.572844 193.46569,391.625178 194.092466,395.637916 C194.719243,399.650654 194.7433,398.304224 195.008968,399.723742 C195.18608,400.670088 194.861838,401.985875 194.036242,403.671105 Z" id="Path-4" stroke="#979797" fill="#404B09"></path>
                    <path d="M207.302842,362.023222 C207.305821,362.111979 207.202919,362.226798 207.315874,362.411531 C207.428829,362.596264 207.849405,363.358546 208.022375,363.741043 C208.195344,364.12354 208.100262,364.471344 208.239382,364.799531 C208.378503,365.127718 208.552962,365.554593 208.666289,365.75042 C208.758527,365.909806 208.738581,366.308741 208.784723,366.599364 C208.642375,366.77328 208.520002,366.895459 208.418639,366.964213 C208.152431,367.144779 207.969985,367.260835 207.871303,367.312384 C208.08947,367.320134 208.282935,367.289871 208.4517,367.221594 C208.620464,367.153318 208.803231,367.017729 209,366.814828 L208.888003,366.926146 C208.951451,367.083766 208.980811,367.169754 208.990196,367.449292 C208.992995,367.532701 208.996275,367.700705 208.997014,367.916825 C208.816449,368.706651 208.618644,369.224261 208.404109,369.472274 C208.116904,369.804297 207.914763,370.023237 207.797687,370.129094 C208.140446,370.031302 208.418791,369.903014 208.63272,369.744233 C208.746618,369.659695 208.853499,369.551863 208.95336,369.420737 C208.926101,369.781738 208.883936,370.105549 208.818949,370.299177 C208.615143,370.906418 208.444171,370.901522 208.462416,371.445154 C208.48066,371.988786 207.562839,372.633079 207.253626,372.644314 C206.944414,372.65555 206.508409,372.168015 206.359134,372.173439 C206.209859,372.178863 206.057593,372.276184 205.958077,372.2798 C205.808802,372.285224 205.573419,372.838663 205.396252,372.967289 C205.219086,373.095915 203.683922,372.84067 203.174085,372.281577 C202.664248,371.722483 202.055064,370.111734 202.009261,368.747107 C202.00014,368.475318 201.997635,368.223999 202.002276,367.991375 C202.059326,368.11471 202.128642,368.222272 202.209022,368.315779 C202.36711,368.499687 202.591879,368.680062 202.883328,368.856905 C202.801431,368.741995 202.668844,368.516383 202.485567,368.18007 C202.302289,367.843757 202.264318,367.152997 202.371654,366.107788 C202.389063,366.059153 202.413608,366.017147 202.439387,365.976679 C202.79433,365.419487 202.82669,365.429419 202.936903,365.214362 C203.00848,365.074694 203.275777,364.595272 203.588089,364.164953 C203.588646,364.171694 203.590368,364.178084 203.592113,364.184481 C203.601113,364.520195 203.644787,364.783816 203.723137,364.975343 C203.801487,365.16687 203.92337,365.342664 204.088786,365.502724 C204.050736,365.380134 203.994252,365.134566 203.919333,364.766021 C203.878177,364.563569 203.879176,364.226246 203.92233,363.754052 C203.985619,363.683886 204.048224,363.623206 204.109473,363.572195 C204.597579,363.165677 205.188586,362.64434 205.812461,362.466158 C206.436336,362.287977 206.716912,362.377754 206.904741,362.248741 C207.092571,362.119727 207.299863,361.934466 207.302842,362.023222 Z" id="Added-Investment-in-Energy-Transitions-and-Efficiency" stroke="#979797" stroke-width="5" transform="translate(205.500000, 367.500000) rotate(43.000000) translate(-205.500000, -367.500000) "></path>
                    <path d="M193.060391,381.023222 C193.063795,381.111979 192.946193,381.226798 193.075284,381.411531 C193.204376,381.596264 193.685035,382.358546 193.882714,382.741043 C194.080394,383.12354 193.971728,383.471344 194.130723,383.799531 C194.289717,384.127718 194.489099,384.554593 194.618616,384.75042 C194.724031,384.909806 194.701235,385.308741 194.753969,385.599364 C194.591286,385.77328 194.451431,385.895459 194.335587,385.964213 C194.031349,386.144779 193.82284,386.260835 193.71006,386.312384 C193.959394,386.320134 194.180498,386.289871 194.373371,386.221594 C194.566245,386.153318 194.775121,386.017729 195,385.814828 L194.872004,385.926146 C194.944517,386.083766 194.978075,386.169754 194.988816,386.449291 C194.99202,386.532968 194.995779,386.701783 194.996605,386.918904 C194.789852,387.707511 194.563961,388.224467 194.318982,388.472274 C193.990747,388.804297 193.75973,389.023237 193.625928,389.129094 C194.017653,389.031302 194.335761,388.903014 194.580251,388.744233 C194.710421,388.659695 194.83257,388.551863 194.946698,388.420737 C194.915544,388.781738 194.867356,389.105549 194.793085,389.299177 C194.560164,389.906418 194.364767,389.901522 194.385618,390.445154 C194.406469,390.988786 193.35753,391.633079 193.004145,391.644314 C192.650759,391.65555 192.152467,391.168015 191.981867,391.173439 C191.811267,391.178863 191.63725,391.276184 191.523516,391.2798 C191.352916,391.285224 191.083908,391.838663 190.881431,391.967289 C190.678955,392.095915 188.924482,391.84067 188.341812,391.281577 C187.759141,390.722483 187.06293,389.111734 187.010589,387.747106 C187.00015,387.474939 186.997293,387.223298 187.002626,386.990401 C187.067362,387.114114 187.146765,387.222013 187.238882,387.315779 C187.419554,387.499687 187.676433,387.680062 188.009518,387.856905 C187.915922,387.741995 187.764394,387.516383 187.554933,387.18007 C187.345473,386.843757 187.302078,386.152997 187.424747,385.107788 C187.444644,385.059153 187.472695,385.017147 187.502157,384.976679 C187.907806,384.419487 187.944788,384.429419 188.070746,384.214362 C188.152484,384.074803 188.457555,383.596019 188.814123,383.16596 C188.815803,383.172366 188.817668,383.178421 188.819558,383.184481 C188.829843,383.520195 188.879757,383.783816 188.9693,383.975343 C189.058843,384.16687 189.198137,384.342664 189.387184,384.502724 C189.343698,384.380134 189.279145,384.134566 189.193523,383.766021 C189.146488,383.563567 189.14763,383.226241 189.19695,382.754041 C189.269333,382.683841 189.340854,382.623187 189.410826,382.572195 C189.968662,382.165677 190.644098,381.64434 191.357098,381.466158 C192.070098,381.287977 192.390757,381.377754 192.605419,381.248741 C192.820081,381.119727 193.056986,380.934466 193.060391,381.023222 Z" id="Investment-in-Energy-Transitions-and-Efficiency" stroke="#979797" stroke-width="5" transform="translate(191.000000, 386.500000) scale(-1, 1) rotate(4.000000) translate(-191.000000, -386.500000) "></path>
                    <path d="M156,364.063007 L154.611827,366 C152.346384,365.317859 149.80619,363.446862 146.991245,360.387007 C142.768827,355.797225 131.981397,340.453015 112.942002,328.237975 C93.9026069,316.022936 65.1748327,301.604289 44.2460023,296.2183 C30.2934486,292.62764 21.6646902,291.478528 18.3597268,292.770963 C16.0509103,293.372192 15.4363472,292.919531 16.5160376,291.412981 C18.1355733,289.153156 25.0788889,286.539821 46.1740209,293.528032 C67.269153,300.516243 89.4656927,310.946336 101.484606,317.497147 C113.503519,324.047958 137.914934,343.179258 143.301418,350.599415 C148.687901,358.019572 146.538132,355.778486 148.379418,358.450014 C149.606942,360.231033 152.147136,362.102031 156,364.063007 Z" id="Path-4" stroke="#979797" fill="#404B09"></path>
                    <g id="Added-Investment-in-Real-Estimate-Construction" transform="translate(10.000000, 191.000000)" stroke="#BDBDBD" stroke-width="5">
                        <path d="M95.3650166,13.7128063 C95.4040547,14.8304797 94.055472,16.276359 95.5358082,18.6026276 C97.0161444,20.9288962 102.528035,30.528025 104.794897,35.3446651 C107.061759,40.1613052 105.815651,44.5410773 107.6389,48.6738077 C109.462149,52.8065381 111.74853,58.1820149 113.233746,60.6479927 C114.442057,62.6542119 114.181399,67.6743838 114.785106,71.3336887 C112.912505,73.5359966 111.313334,75.0691472 109.988153,75.9328211 C106.499348,78.2066145 104.108301,79.6680744 102.81501,80.3172007 C105.674211,80.4147956 108.209687,80.0337033 110.421438,79.173924 C112.205798,78.480285 114.109599,77.2349459 116.13284,75.4379066 C116.968902,77.4325107 117.355425,78.5116803 117.47868,82.0412378 C117.515622,83.0991371 117.558977,85.2376787 117.568251,87.9875203 C115.196904,97.8866862 112.606748,104.395622 109.797732,107.515884 C106.033753,111.696921 103.384588,114.453948 101.850238,115.786965 C106.342291,114.5555 109.990146,112.940029 112.793803,110.94055 C114.283855,109.877893 115.682253,108.522941 116.988996,106.875695 C116.636275,111.430943 116.084243,115.495886 115.234447,117.928757 C112.563456,125.575507 110.322768,125.513857 110.561876,132.359607 C110.800984,139.205357 98.7724244,147.318692 94.7200216,147.460176 C90.6676189,147.60166 84.9535295,141.462315 82.9971971,141.530617 C81.0408647,141.59892 79.0453434,142.824452 77.7411218,142.869987 C75.7847894,142.93829 72.6999705,149.907529 70.3781014,151.527269 C68.0562323,153.147009 47.9370612,149.932813 41.2553644,142.892358 C34.5736677,135.851904 26.5898419,115.568353 25.9897552,98.3841197 C25.870862,94.9794619 25.8377562,91.8298797 25.8972894,88.913376 C26.6559998,90.4357481 27.5601477,91.7816628 28.6076775,92.9525826 C30.6795098,95.2684588 33.6252279,97.5398568 37.4448317,99.7667767 C36.3715319,98.3197518 34.6339037,95.4787092 32.2319471,91.2436491 C29.8299905,87.008589 29.3323615,78.3101005 30.7390599,65.1481834 L30.6604868,65.0867429 C30.9665899,64.5367703 31.2885608,64.0072796 31.6267382,63.4971839 C36.278461,56.4806777 36.7025548,56.6057506 38.1469577,53.8976099 C39.0841413,52.1404649 42.5815756,46.1128828 46.6696821,40.6979369 C46.6902913,40.7743613 46.7119266,40.8514992 46.7338559,40.928718 C46.8517964,45.1562361 47.424177,48.4759095 48.4509977,50.8877381 C49.4778184,53.2995668 51.0751619,55.5132709 53.2430281,57.5288505 C52.7443643,55.9851137 52.0041038,52.8927737 51.0222467,48.2518306 C50.4820198,45.698341 50.496022,41.4410289 51.0642531,35.4798945 C51.8892178,34.6265448 52.7105891,33.8614781 53.5141454,33.2184313 C59.9110411,28.0993086 67.6565195,21.5343066 75.8327464,19.2905317 C84.0089734,17.0467567 87.6860799,18.1772918 90.147687,16.5526733 C92.6092942,14.9280547 95.3259786,12.5951328 95.3650166,13.7128063 Z" id="Combined-Shape-Copy-4" transform="translate(71.718357, 82.679783) rotate(-24.000000) translate(-71.718357, -82.679783) "></path>
                        <path d="M102.111905,63.5764082 C102.133822,64.2035584 101.376694,65.0148719 102.207791,66.3201903 C103.038889,67.6255088 106.133401,73.0117829 107.406073,75.7145015 C108.678746,78.4172201 107.97915,80.8748028 109.002767,83.1937652 C110.026385,85.5127276 111.310016,88.5290213 112.143853,89.9127335 C112.484893,90.4786732 112.617496,91.4720412 112.708109,92.5809327 C110.83102,94.2201362 109.346567,95.2611881 108.254492,95.704527 C106.087724,96.584149 104.613131,97.1336334 103.830713,97.35298 C105.395971,97.7122678 106.834201,97.7732962 108.145401,97.536065 C109.456602,97.2988339 110.959916,96.6143236 112.655344,95.4825343 C112.751665,95.4515172 112.847108,95.4198428 112.941673,95.3875111 C113.023652,96.0607312 113.143736,96.6799827 113.340066,97.1705038 C114.114628,99.10571 114.439462,99.4083325 114.527064,101.916936 C114.57798,103.374973 114.650647,108.491261 114.408156,113.363248 C111.729751,116.095862 109.527955,117.77643 107.802651,118.404881 C104.832661,119.486716 102.791355,120.156144 101.678733,120.413165 C104.230695,120.984093 106.465592,121.142812 108.383423,120.889323 C110.149166,120.655937 112.010215,119.915627 113.966571,118.668395 C113.788229,120.041372 113.558941,121.219116 113.267096,122.054181 C111.767535,126.344934 110.509557,126.310342 110.643799,130.151637 C110.77804,133.992931 104.024908,138.545495 101.749788,138.624885 C99.4746689,138.704274 97.4421289,136.734476 96.3437954,136.772802 C95.2454618,136.811128 94.6880762,136.595109 94.740129,138.084591 C94.7921817,139.574073 94.8798495,142.082674 94.9209438,143.25858 L92.9596356,143.327071 L92.8062152,138.936968 C92.8925543,138.410693 92.5696127,138.16033 91.8373903,138.185881 C90.7390567,138.224207 89.3871852,139.998146 88.0836303,140.907017 C86.7800753,141.815887 75.4846733,140.012334 71.7334029,136.061786 C67.9821326,132.111238 63.4996326,120.729715 63.162911,111.087272 C63.0242629,107.116909 63.093578,103.764743 63.4054223,100.919977 C63.4369038,100.954053 63.4700649,100.987443 63.5034834,101.020837 C64.445486,102.955729 65.5706558,104.419971 66.8789927,105.413564 C68.1873297,106.407157 69.9143345,107.243867 72.060007,107.923694 C71.3499827,107.269502 70.1354937,105.92933 68.4165403,103.90318 C67.0729166,102.319435 65.9388196,99.0222487 65.0142491,94.0116218 C65.3908787,93.0942824 65.8277198,92.2651503 66.3276532,91.511475 C68.9392458,87.574365 69.1773426,87.6445461 69.9882662,86.1249511 C70.7991899,84.605356 75.0244108,77.3938747 78.6157868,74.5214268 C78.9538555,74.2510333 79.2986331,73.9734507 79.6496899,73.6913783 C79.8011495,75.7172956 80.1868773,77.3224647 80.8070524,78.5009868 C81.4272275,79.6795088 82.3608171,80.7744296 83.607821,81.7857491 C83.299093,81.0346126 82.8245661,79.5351891 82.1842403,77.2874788 C81.8637768,76.1625688 81.7698797,74.3701821 81.9025488,71.9103187 C84.7368467,69.7249477 87.8802223,67.6019206 91.1460034,66.7061878 C95.7363401,65.4471583 97.800759,66.0815254 99.1827663,65.1699176 C100.564774,64.2583098 102.089988,62.949258 102.111905,63.5764082 Z" id="Combined-Shape-Copy-5" transform="translate(88.836512, 103.369670) rotate(-30.000000) translate(-88.836512, -103.369670) "></path>
                    </g>
                    <g id="Investment-in-Real-State-Construction" transform="translate(100.000000, 332.000000)" stroke="#BDBDBD" stroke-width="5">
                        <path d="M31.6500887,2.58442723 C31.6648724,3.01450204 31.1541665,3.57086873 31.7147672,4.46600453 C32.2753679,5.36114032 34.3627109,9.05483416 35.2211675,10.9082517 C36.0796241,12.7616692 35.6077253,14.4469823 36.2981865,16.037235 C36.9886477,17.6274878 37.8544962,19.6959427 38.4169448,20.6448379 C38.8745873,21.4169168 38.7757945,23.3490387 39.0045279,24.7571648 C38.2952904,25.6040745 37.6896878,26.1940219 37.1878444,26.5263587 C35.8666404,27.4013023 34.961155,27.9636643 34.471388,28.2134447 C35.5541625,28.2509987 36.5143427,28.1043564 37.3519286,27.7735179 C38.0275341,27.5066601 38.7483543,27.0275918 39.5143892,26.336313 C39.8314232,27.1033895 39.9778059,27.5186217 40.0244967,28.8768449 C40.0384894,29.2839308 40.0549094,30.1068664 40.058421,31.1650355 C39.160042,34.9749758 38.1793136,37.4789058 37.1157324,38.6793536 C35.6903202,40.2881946 34.6870862,41.349084 34.1060305,41.8620217 C35.8071629,41.3881607 37.1885991,40.7665358 38.2503393,39.997147 C38.8147588,39.588141 39.3444519,39.0666059 39.8394188,38.4325417 C39.7054232,40.1862569 39.496381,41.7501385 39.1746068,42.686172 C38.1631071,45.6286006 37.3145624,45.6048783 37.4051123,48.2390866 C37.4956622,50.8732948 32.940468,53.9952631 31.4058302,54.0497053 C29.8711925,54.1041475 27.707277,51.74176 26.9664174,51.7680425 C26.2255578,51.7943249 25.4698574,52.2659034 24.975951,52.283425 C24.2350914,52.3097075 23.066876,54.9914338 22.1875883,55.614701 C21.3083005,56.2379683 13.6892062,55.0011629 11.1588595,52.2920333 C8.62851278,49.5829036 5.60509899,41.7778995 5.37779682,35.1654994 C5.33277573,33.8557594 5.32022822,32.6441179 5.34274572,31.5221176 C5.63078796,32.1080394 5.97290023,32.6253575 6.36920289,33.0754726 C7.15380211,33.9666095 8.26934031,34.8406314 9.71581749,35.6975383 C9.30936074,35.1407308 8.65132403,34.0475127 7.74170734,32.4178841 C6.83209065,30.7882554 6.64363941,27.4411232 7.17635362,22.3764874 L7.1459722,22.353987 C7.26208011,22.1419516 7.38421837,21.9378266 7.51251582,21.7411915 C9.27411496,19.0412772 9.43471854,19.0894046 9.98171135,18.0473264 C10.3366338,17.3711622 11.6611878,15.0516393 13.2094176,12.9679393 C13.2170297,12.9974725 13.2252362,13.0272035 13.2335545,13.0569656 C13.2782183,14.6836921 13.4949778,15.9610848 13.883833,16.8891437 C14.2726882,17.8172026 14.8775993,18.6690242 15.6985664,19.4446085 C15.5097233,18.8505868 15.229388,17.6606708 14.8575604,15.8748605 C14.6530153,14.8924726 14.6582781,13.254705 14.873349,10.9615576 C15.186026,10.6317855 15.4970037,10.3374715 15.8012381,10.0900882 C18.2237311,8.12027697 21.15693,5.59409903 24.2532526,4.73070635 C27.3495753,3.86731368 28.742089,4.30233757 29.6742953,3.67719299 C30.6065015,3.0520484 31.6353051,2.15435241 31.6500887,2.58442723 Z" id="Combined-Shape" transform="translate(22.695139, 29.122554) rotate(-8.000000) translate(-22.695139, -29.122554) "></path>
                        <path d="M29.4039894,43.1906739 C29.4068667,43.2743329 29.3074694,43.3825585 29.4165775,43.5566821 C29.5256857,43.7308057 29.9319396,44.4493104 30.0990187,44.8098409 C30.2660977,45.1703713 30.1742534,45.4982018 30.3086359,45.8075409 C30.4430185,46.1168801 30.6115362,46.5192401 30.7210041,46.703821 C30.7656253,46.7790598 30.783067,46.9109308 30.79496,47.0582479 C30.5482068,47.2787268 30.3536066,47.4173484 30.2104009,47.4764202 C29.9259431,47.5937578 29.7323555,47.6670565 29.629638,47.6963164 C29.8351284,47.7442438 30.0239421,47.7523847 30.1960792,47.7207391 C30.3682163,47.6890935 30.5655744,47.597783 30.7881537,47.4468074 C30.8013005,47.4425057 30.8143227,47.4381093 30.8272203,47.4336181 C30.8366056,47.5244573 30.8523521,47.606748 30.8780454,47.6719749 C30.9797315,47.9301227 31.0223677,47.9704915 31.0338775,48.3051275 C31.0405645,48.4995646 31.0500997,49.1817035 31.0182977,49.8314293 C30.6664072,50.1967129 30.3774924,50.4207464 30.1510822,50.5045452 C29.7611758,50.648857 29.4931889,50.7381557 29.3471217,50.7724412 C29.6821485,50.8486003 29.9755503,50.8697728 30.2273272,50.8359585 C30.4287487,50.8089071 30.6396168,50.7308017 30.8599316,50.6016424 L31.012718,50.5037853 L30.9605895,50.5383441 C30.9370161,50.722143 30.9068654,50.8797023 30.8684658,50.9913453 C30.6716003,51.5637124 30.5064504,51.5590979 30.5240739,52.0715094 C30.5416974,52.5839208 29.6551324,53.1912123 29.35645,53.2018025 C29.0577676,53.2123927 28.7909316,52.9496304 28.6467401,52.9547429 C28.5025487,52.9598555 28.4293739,52.9310396 28.4362075,53.1297297 C28.4430411,53.3284199 28.4545503,53.6630559 28.4599453,53.8199166 L28.2024605,53.8290461 L28.1823194,53.243433 C28.1936541,53.1732302 28.1512577,53.139833 28.05513,53.1432414 C27.9109386,53.1483539 27.7334621,53.3849894 27.5623287,53.5062286 C27.3911954,53.6274678 25.9083118,53.3868819 25.4158373,52.8598966 C24.9233629,52.3329113 24.3349241,50.8146664 24.2906849,49.5284091 C24.2724526,48.9982873 24.2815842,48.5507836 24.3226233,48.1710772 C24.3268854,48.1769181 24.331125,48.1812548 24.3353966,48.185592 C24.4590647,48.4436978 24.6067793,48.6390211 24.7785404,48.771562 C24.9503016,48.9041028 25.1770263,49.0157162 25.4587146,49.106402 C25.3655011,49.0191357 25.2060605,48.8403629 24.9803928,48.5700835 C24.8042242,48.3590886 24.6554925,47.9201111 24.5341977,47.2531511 C24.5827962,47.1289592 24.6403095,47.0179563 24.7061594,46.9170859 C25.0490147,46.3918932 25.0802725,46.401255 25.1867322,46.1985479 C25.2931919,45.9958408 25.8478876,45.0338617 26.3193708,44.6506901 L26.4551272,44.5391785 C26.4749877,44.8102136 26.5256268,45.0243359 26.6070447,45.1815454 C26.6884625,45.338755 26.8110261,45.4848125 26.9747353,45.6197179 C26.9342049,45.5195197 26.871908,45.3195034 26.7878447,45.019669 C26.7458345,44.8698281 26.7334823,44.6312063 26.7507883,44.3038036 C27.1229063,44.0108956 27.535599,43.7276663 27.9643633,43.6081724 C28.5669922,43.4402236 28.8380133,43.5248453 29.0194461,43.4032409 C29.2008788,43.2816365 29.4011121,43.1070149 29.4039894,43.1906739 Z" id="Combined-Shape" transform="translate(27.661169, 48.498916) rotate(-14.000000) translate(-27.661169, -48.498916) "></path>
                    </g>
                </g>
            </g>
        </g>
    </g>
</svg>
