<?xml version="1.0" encoding="UTF-8"?>
<svg width="231.7px" height="412.3px" viewBox="0 0 331 589" version="1.1" xmlns="http://www.w3.org/2000/svg" xmlns:xlink="http://www.w3.org/1999/xlink">
    <!-- Generator: Sketch 58 (84663) - https://sketch.com -->
    <title>Rising Incomes</title>
    <desc>Created with Sketch.</desc>
    <g id="Page-1" stroke="none" stroke-width="1" fill="none" fill-rule="evenodd">
        <g id="Artboard-Copy-9" transform="translate(-560.000000, -261.000000)">
            <g id="Rising-Incomes" transform="translate(477.000000, 218.000000)">
                <g transform="translate(243.000000, 298.500000) rotate(-13.000000) translate(-243.000000, -298.500000) translate(55.000000, 36.000000)" id="Combined-Shape" stroke="#979797">
                    <path d="M271.738906,17.040253 C271.877505,21.0161288 267.089539,26.1595243 272.345279,34.4347095 C277.601019,42.7098948 297.170264,76.8566699 305.218461,93.9908003 C313.266658,111.124931 308.842515,126.705 315.315723,141.406273 C321.78893,156.107547 329.906427,175.229615 335.179492,184.001785 C339.469516,191.138586 338.543978,208.997221 340.687502,222.014445 C334.038447,229.848507 328.361105,235.30199 323.656437,238.374177 C311.269895,246.462693 302.780793,251.661513 298.189133,253.970636 C308.340354,254.317808 317.342229,252.962157 325.194759,249.903683 C331.52999,247.43618 338.289291,243.006068 345.472662,236.613347 C348.440514,243.709551 349.812154,247.548823 350.250574,260.103516 C350.381983,263.866566 350.536034,271.473388 350.569028,281.254645 C342.149906,316.468984 332.953678,339.623998 322.980374,350.723928 C309.616859,365.597043 300.211346,375.404556 294.763836,380.146468 C310.712281,375.765806 323.663514,370.019123 333.617533,362.90642 C338.907699,359.1263 343.872468,354.306434 348.511841,348.44682 C347.259511,364.653283 345.29956,379.111737 342.282721,387.765419 C332.799714,414.967037 324.844444,414.747734 325.693367,439.099973 C326.542289,463.452212 283.836461,492.313605 269.448935,492.816903 C255.061409,493.3202 234.774283,471.480838 227.82858,471.72381 C220.882878,471.966781 213.798041,476.326341 209.167573,476.488322 C202.22187,476.731293 191.269624,501.522819 183.026132,507.284685 C174.782639,513.04655 103.352154,501.612761 79.6296634,476.567902 C55.9071732,451.523043 27.5620834,379.36879 25.4311149,318.2397 C25.009129,306.134587 24.8914432,294.93592 25.1023348,284.565568 C27.8012564,289.972178 31.0093263,294.755988 34.7257055,298.918209 C42.0814751,307.156426 52.5398618,315.236421 66.1008654,323.158196 C62.2902547,318.010725 56.1210331,307.904345 47.5932005,292.839057 C39.0653679,277.773768 37.298601,246.830822 42.2928999,200.010217 C42.2007697,199.93551 42.1085494,199.861943 42.016239,199.789515 C43.1020269,197.833085 44.2445211,195.950661 45.4444856,194.137151 C61.9598187,169.177484 63.4655084,169.622404 68.5936718,159.988793 C71.9208841,153.738394 84.3371892,132.2981 98.8507128,113.036238 C98.9265166,113.308801 99.0029075,113.581674 99.080331,113.854832 C99.4990631,128.893291 101.531226,140.702294 105.176818,149.281841 C108.822411,157.861387 114.49357,165.736149 122.190295,172.906127 C120.419855,167.414625 117.791657,156.414311 114.305701,139.905183 C112.387556,130.821043 112.437417,115.675043 114.455284,94.4671819 C117.383821,91.436198 120.299966,88.7146708 123.152862,86.4271944 C145.864203,68.2170491 173.363511,44.8635082 202.392135,36.8817758 C231.42076,28.9000435 244.475845,32.9216717 253.21546,27.142451 C261.955074,21.3632304 271.600306,13.0643772 271.738906,17.040253 Z" fill="#314725" transform="translate(187.784513, 262.375000) rotate(6.000000) translate(-187.784513, -262.375000) "></path>
                    <path d="M240.351177,112.831584 C240.462034,116.009921 236.632436,120.121579 240.836178,126.736807 C245.039919,133.352036 260.692146,160.649154 267.129401,174.346272 C273.566655,188.043389 270.028058,200.498182 275.205576,212.25046 C280.383094,224.002738 286.875777,239.289024 291.093375,246.301544 C292.818448,249.16979 293.489147,254.20438 293.947472,259.824415 C284.453511,268.130678 276.944727,273.406918 271.420756,275.653795 C260.461111,280.111635 253.00253,282.896369 249.045011,284.007997 C256.962184,285.828832 264.236837,286.138118 270.868967,284.935854 C277.501098,283.733589 285.104952,280.264557 293.680528,274.528758 C294.16541,274.372313 294.645894,274.212569 295.12198,274.049525 C295.543992,277.46178 296.151284,280.598411 297.143894,283.083224 C301.061675,292.890663 302.703841,294.424355 303.1478,307.137684 C303.40583,314.526682 303.773291,340.454467 302.546708,365.144699 C288.999576,378.994542 277.8623,387.511968 269.135315,390.697005 C254.112925,396.17964 243.787876,399.572236 238.160168,400.874794 C251.068146,403.768199 262.372389,404.572574 272.072897,403.287917 C281.00539,402.10497 290.420089,398.352259 300.316992,392.029786 C299.410462,398.992133 298.250782,404.959822 296.774808,409.191306 C289.189938,430.936428 282.82701,430.761115 283.50601,450.228428 C284.185011,469.695741 250.027263,492.767697 238.519572,493.170035 C227.01188,493.572374 216.731171,483.589623 211.175733,483.783855 C205.620296,483.978088 202.801006,482.883328 203.064292,490.431878 C203.327578,497.980428 203.771007,510.693775 203.978878,516.653571 L194.05844,517 L193.28244,494.751642 C193.719148,492.08453 192.08569,490.815718 188.382065,490.945206 C182.826628,491.139439 175.98878,500.129592 169.395321,504.735659 C162.801861,509.341726 105.669038,500.201493 86.6948861,480.180496 C67.7207346,460.159499 45.0512903,402.478924 43.3448221,353.612066 C42.642288,333.494122 42.9924086,316.508033 44.5692381,302.092606 C44.7336457,302.260866 44.8999118,302.428595 45.0674576,302.596342 C49.8321634,312.402187 55.5233399,319.822827 62.140987,324.858261 C68.758634,329.893695 77.4939281,334.13406 88.3468693,337.579357 C84.7555232,334.263973 78.612565,327.472113 69.9179949,317.203777 C63.121028,309.176521 57.3841205,292.463571 52.7072724,267.064926 C54.6146178,262.423957 56.8239986,258.222741 59.3522785,254.403811 C72.5618711,234.450917 73.7661791,234.806588 77.8678796,227.105427 C81.9695801,219.404266 103.341002,182.857173 121.506398,168.299884 C122.78943,167.271695 124.091566,166.222994 125.411889,165.159559 L126.738,164.091 L126.79646,164.831608 C127.600327,174.765823 129.531491,182.64459 132.589952,188.467911 C135.726835,194.440547 140.448987,199.9895 146.756408,205.11477 C145.194843,201.308082 142.794657,193.709148 139.555851,182.317969 C137.934636,176.616009 137.459819,167.530125 138.1314,155.060317 C152.471843,143.988572 168.368941,133.231814 184.884988,128.693006 C208.103188,122.312365 218.545143,125.527277 225.535419,120.907336 C232.525695,116.287396 240.24032,109.653247 240.351177,112.831584 Z" fill="#33790F"></path>
                </g>
                <text font-family="Helvetica-Light, Helvetica" font-size="16" font-weight="300" line-spacing="25" fill="#FFFFFF">
                    <tspan x="297" y="626">Rising Incomes</tspan>
                </text>
                <polyline id="Path-17" stroke="#FFFFFF" points="243 535.5 243 623.5 283 623.5"></polyline>
            </g>
        </g>
    </g>
</svg>
