<?xml version="1.0" encoding="UTF-8"?>
<svg  viewBox="0 0 1339 548" version="1.1" xmlns="http://www.w3.org/2000/svg" xmlns:xlink="http://www.w3.org/1999/xlink">
    <!-- Generator: Sketch 58 (84663) - https://sketch.com -->
    <title>Group 7</title>
    <desc>Created with Sketch.</desc>
    <g id="Page-1" stroke="none" stroke-width="1" fill="none" fill-rule="evenodd" opacity="0.702869234">
        <g id="Artboard-Copy-4" transform="translate(-101.000000, -38.000000)" fill-rule="nonzero">
            <g id="Group-7" transform="translate(94.000000, 36.000000)">
                <g id="Group-2" transform="translate(53.000000, 13.000000)" fill="#2B2C2C">
                    <path d="M1.02060775,32.4305325 C5.32075911,31.1435517 9.61404122,31.7386073 13.8386308,32.7280603 C16.194784,33.2746812 18.3036442,32.2713897 20.0690418,31.427241 C24.3966702,29.3514655 28.7517755,27.27569 32.4886483,23.9613684 C35.3119106,21.4635186 37.0910467,18.3152591 39.1586913,15.3814964 C41.0477355,12.6968268 42.9299104,10.5380203 46.0691582,9.2441202 C49.0916288,8.04017041 50.6921644,5.02337669 52.649901,2.56704236 C53.4192572,1.59834713 53.797066,0.318285576 56.173827,0 C51.8324601,3.84018466 53.7283735,8.64906456 52.7392013,12.8628888 C52.2995692,14.6688135 54.5595529,16.4539804 53.3643032,18.6819794 C52.5743393,20.1419415 52.6018163,22.051655 50.8845034,22.9995925 C49.9846315,23.4977786 50.025847,24.5702626 49.5862149,25.3313803 C48.7825125,26.7152306 50.9600652,28.6249441 49.1191058,29.4068195 C46.7217371,30.4239495 44.6540924,32.1745201 41.9338689,32.4858865 C38.657236,32.8180105 35.4973804,34.0496373 32.1245779,33.7797865 C30.1324951,33.6206437 29.5486087,36.2568786 27.1924555,36.0631396 C32.2482245,40.2146906 37.400163,42.4772858 43.6786587,42.2904661 C47.8482943,42.179758 52.0454069,42.9823912 55.2396088,46.386663 C50.4654791,47.0163149 46.2202818,50.4205867 40.9309582,50.2476054 C34.0617068,50.0192701 29.99511,45.7016571 26.4505763,40.4776221 C24.8912563,38.1873498 23.434975,35.634146 19.6431482,35.1428791 C21.2574223,39.8548895 19.938526,44.2070988 19.6431482,48.6008235 C19.5263709,50.316798 19.2378624,52.1780766 20.1789498,53.6933928 C23.2907207,58.730608 25.1797648,64.3213633 28.9028991,69.2132742 C32.1177087,73.4340177 36.280475,74.9977686 40.1753406,77.5163762 C41.9201304,81.6679272 45.4440564,84.2626465 48.3085342,87.4455023 C48.9954593,88.1997007 49.8747235,89.0922842 49.3251834,90.1301719 C48.6382582,91.4102335 47.42927,90.8982089 46.364536,90.5314885 C44.9906858,90.6214388 43.9259518,90.5314885 42.648271,91.9983699 C40.7386192,94.2609652 38.574805,91.4932645 37.3383397,90.3723457 C33.1755734,86.6082728 30.2973571,81.8962625 29.8508557,76.0425756 C29.4799162,71.8218321 26.7871696,68.8742309 24.0394691,66.1065302 C22.342764,64.4251521 22.0542554,66.5839586 21.8138316,67.4903805 C20.9895215,70.5348513 21.0719525,73.3648252 22.9747351,76.2570724 C26.5673536,81.7371197 28.5800442,88.1512659 32.6672488,93.3822202 C34.5013389,95.7209272 36.6994994,97.5337712 39.6258004,97.7897835 C44.4342764,98.1772616 49.3114449,99.1044413 53.934451,96.3574984 C55.0404005,95.7070887 57.4515077,94.7037973 58.2277331,96.0668898 C59.0039586,97.4299824 57.8636628,99.2082301 56.2493888,100.31531 C54.779369,101.325521 53.2406567,102.135074 52.5537315,104.29388 C52.1003609,105.719246 49.4556992,105.857631 47.8895098,105.553184 C44.6678309,104.93737 43.0810339,108.196338 40.079171,108.320884 C38.7534055,108.376239 39.3922459,112.79764 41.2950285,113.489565 C47.1819769,115.66221 52.9178018,118.775874 60,116.949191 C58.4132029,119.163352 56.9157061,120.644072 54.5732914,120.900084 C52.7529398,121.093823 51.0424962,120.692506 49.9915008,123.259549 C49.4282221,124.643399 46.7286064,123.854604 45.3753638,122.78904 C42.3048085,120.38114 39.5708464,117.661874 38.8014903,113.517242 C38.1557806,110.057617 36.8094074,107.123854 33.3953895,105.214141 C29.7409477,103.207558 29.5966934,99.3881306 30.2286646,95.8108775 C30.5927349,93.735102 30.3797881,92.1298356 29.0402841,90.7390661 C26.4643148,88.0682349 26.6566539,83.7782989 23.544883,81.4257534 C21.6352311,82.899554 21.5665386,84.9684102 21.4841076,87.1548937 C21.3948073,90.5384078 22.3221562,93.9980336 20.8727442,97.3054359 C19.2859471,95.2780951 20.048434,92.8840341 19.8904413,90.6421965 C19.773664,88.9262221 19.938526,87.1825707 19.6500175,85.4804348 C19.9492206,81.3626272 19.6507022,77.2228777 18.763884,73.1918439 C18.2280824,70.4241432 18.8806613,67.7117966 19.5332402,65.0132885 C20.4700496,61.706901 19.8851422,58.1515957 17.9395739,55.3263361 C16.0711375,59.7200609 11.9633252,61.4567931 8.94085458,64.3213633 C7.56700431,65.6014248 6.47479334,65.0132885 6.67400163,63.1658483 C7.36092677,56.9385218 7.92420538,50.648922 14.0927931,46.9955572 C16.1877004,45.7373241 17.6120797,43.59917 17.9739201,41.1695473 C18.4272907,38.8100825 16.6000699,36.0077856 13.8523693,35.1843946 C10.1361043,34.0703951 6.2961928,33.0394266 2.57992781,35.2743449 C2.09351252,35.6182558 1.43445619,35.5720747 1,35.1636369 L1.02060775,32.4305325 Z" id="Path"></path>
                    <path d="M0.0206137737,96.6026605 C4.83049429,94.0250432 9.64037481,91.3662412 14.4502553,88.8968702 C16.360465,87.9294181 17.4048962,86.116291 19.1089682,85 C20.7649413,88.9712896 19.5349862,93.1184797 19.8922916,97.1777195 C19.2051658,97.7595439 19.2532646,98.5781573 19.2395221,99.3561782 C19.2051658,100.891924 17.5560639,102.116461 16.9582645,101.886438 C13.3371116,100.499531 11.6055546,104.186674 8.76772506,104.47082 C7.7988777,104.565536 5.23589851,106.317775 6.01922191,102.874186 C6.19787461,102.102931 5.13282964,102.035277 4.45257511,102.028511 C2.96838341,102.028511 1.4841917,102.028511 0,102.028511 L0.0206137737,96.6026605 Z" id="Path"></path>
                    <path d="M46.2978775,90.6923622 C47.1146878,90.4418221 48.3084875,91.1121862 48.7483084,90.0558548 C49.1113352,89.1891215 48.1130115,88.7015839 47.5894152,88.1937323 C45.8301314,86.4331802 44.0475768,84.6974563 42.2417511,82.9865607 C40.7351829,81.7347155 39.910415,79.8772926 40.00774,77.9554442 C47.7918724,78.503924 55.6737428,80.0613355 62.9412602,75.6938118 C64.211854,74.9286488 65.733774,74.569767 66.7041726,75.8292389 C67.6745712,77.0887109 66.0060441,77.7929317 65.3079157,78.4903813 C64.0373219,79.8920516 62.8714473,81.4968627 60.7910245,82.0453424 C59.8866872,82.3325576 59.1899566,83.0388236 58.9340028,83.927779 C57.8658662,86.9613458 55.3944914,88.1801896 52.3715952,88.6203277 C51.5757287,88.7422121 50.3540039,88.5796996 50.3540039,89.4870611 C50.3609852,94.4369213 47.708097,90.516307 46.2978775,90.6923622 Z" id="Path"></path>
                </g>
                <path d="M191.618696,335.488406 C190.431925,338.239594 189.83507,341.403459 186.760571,342.999148 C183.352943,343.054172 182.249455,340.433666 181.506856,337.998865 C180.222923,333.789547 177.78692,331.51294 173.435428,330.068566 C166.245403,327.681911 161.803689,321.99383 158.278078,315.487272 C155.502006,310.335673 156.105802,304.482521 154.238894,299.124583 C153.982107,298.395518 153.725321,297.143728 154.655305,296.621002 C155.418724,296.180812 156.105802,297.006168 156.737358,297.480748 C158.770831,298.987024 158.999856,297.700843 158.985976,296.050131 C158.817338,291.824563 159.192819,287.594924 160.103345,283.463447 C160.575277,281.551372 161.991073,280.13451 162.185398,278.146777 C162.275621,277.232007 163.073741,276.771183 163.851041,277.837268 C164.378495,278.559455 164.899008,279.295398 165.391761,280.045097 C165.840929,280.881609 166.726041,281.397284 167.68202,281.379423 C169.028415,281.207473 168.424619,279.928171 168.494021,279.137205 C169.042295,272.665036 172.35276,267.252074 174.913686,261 C177.655057,267.018223 180.958582,271.867191 184.192705,276.750549 C184.465498,277.261201 184.899338,277.669413 185.428057,277.912926 C190.175139,279.28852 191.674217,281.138694 192.18085,286.352194 C192.184818,287.502358 192.263637,288.651071 192.416817,289.791179 C192.687483,290.9398 192.340475,292.70056 193.867314,292.982557 C195.394153,293.264553 194.637674,291.001701 196.095111,290.451464 C200.3078,299.014535 199.676243,307.446926 195.886906,315.89995 C193.110834,322.014464 189.349258,327.234843 183.200259,330.467488 C181.354172,331.437282 181.722001,335.887328 183.755474,338.122668 C186.267818,340.873856 186.968776,340.873856 189.307617,337.544919 C189.839866,336.635033 190.648778,335.915223 191.618696,335.488406 Z" id="Path" fill="#2B2C2C"></path>
                <g id="Group-6" transform="translate(1290.000000, 477.000000)" fill="#2B2C2C">
                    <path d="M67.8954104,36.5318579 C65.3625241,36.3953242 63.1161222,34.9981297 60.4968357,34.9935786 C58.473255,34.9935786 56.7407062,34.675 54.8762836,36.2587905 C53.0478977,37.8574879 51.3196545,39.5673972 49.7013739,41.378803 C48.9919838,42.1524938 48.7600678,43.1400873 50.4835219,43.3403367 C54.576157,43.7954489 57.6138017,46.1210723 59.6282876,49.5207606 C63.2298065,55.5874065 62.784164,61.8770574 59.6601192,67.9664589 C58.9027483,69.3503881 57.7691245,70.4912586 56.3905585,71.2569202 C55.6902632,71.6483167 55.1354838,72.10798 55.1718628,73 L45.1676437,73 C44.5628432,72.330985 44.49918,71.4981297 44.4946326,70.6561721 C44.4082325,61.3491272 44.5992222,52.0420823 44.4082325,42.7350374 C44.3723844,42.3550407 44.4793969,41.9753198 44.7083591,41.6700748 C46.0725708,42.6940773 47.3640245,43.1992519 48.2916885,41.2149626 C49.360321,38.9394015 51.1838173,37.3055486 53.1073557,35.530611 C49.6649949,35.4122818 46.2590131,34.3837282 42.8757681,36.0266833 C41.8725592,36.5564912 40.7585704,36.8418452 39.6243969,36.8595387 C36.4412363,36.7275561 33.6491497,37.8107232 30.7524735,38.807419 C29.6281141,39.1808891 28.6022878,39.8031147 27.7512078,40.6278678 C25.7185324,42.5575436 23.6585728,44.5190773 20.6664018,44.8240025 C18.6382737,44.8922693 16.5737667,45.3837905 14.6320387,44.3688903 L14.6320387,44.3688903 C14.1227331,41.8885287 14.1773015,39.2807357 12.8403741,36.9687656 C12.6679731,36.6214738 12.651265,36.2171942 12.7944205,35.8568397 C12.9375759,35.4964851 13.2270878,35.214056 13.5906905,35.0800499 C14.5365439,34.747818 15.1913655,35.307606 15.5733448,36.1177057 C15.9917031,37.0279302 16.4828193,37.3374065 17.4923359,36.9141521 C18.4245472,36.5273067 18.8792845,37.6013716 19.5841272,37.951808 C20.8573914,38.9348504 22.4671612,39.1897132 23.8722993,39.8860349 C24.3634155,40.1272444 24.9000054,40.2683292 25.35929,39.8587282 C26.996344,38.4069202 29.3973566,38.361409 30.8161367,36.7275561 C28.6834191,35.9083541 26.409733,35.0572943 23.8950361,34.8206359 C21.1666127,34.5657731 19.3476638,32.5450748 17.8151994,30.5198254 C14.2546068,25.8503741 11.7671942,20.7303616 12.0172997,14.6409601 C12.0336413,14.3357061 12.0685694,14.0317337 12.1218892,13.7307357 C12.1218892,13.6761222 12.2173841,13.630611 12.3901842,13.4531172 C14.6638704,14.786596 16.4828193,16.7754364 18.5973474,18.3410224 C20.4526753,19.7063591 22.439877,20.9169576 24.1906153,22.4370324 C24.5271209,22.7237531 24.9181949,22.9376559 25.0682582,22.4370324 C25.9186168,19.7291147 27.1373126,21.7361596 27.9149132,22.3278055 C29.3010282,23.3384547 30.5273777,24.5520077 31.5528111,25.9277431 C33.0579913,28.0758728 35.1907089,29.049813 37.500774,29.832606 C38.4577404,30.081036 39.320952,30.6047699 39.9836393,31.3390274 C42.5392625,34.524813 45.9497917,34.042394 49.3557736,33.6783042 C49.519479,32.886409 48.9010364,32.7680798 48.5781729,32.6907107 C45.1858332,31.9261222 43.0667577,29.423005 41.2250719,26.8652743 C38.8331541,23.5429551 37.7190479,19.7336658 38.7240172,15.5511845 C39.3197229,13.0617207 40.615724,10.9363466 41.9071778,8.75180798 C43.485116,6.02113466 45.3631807,3.54077307 47.0502558,0.910224439 C47.2891625,0.366889191 47.8214534,0.0117359689 48.4144675,0 C47.1457507,2.44850374 47.1684875,4.96982544 47.4777088,7.39102244 C47.9824672,11.3140898 48.8419205,15.2144015 51.2747647,18.5139651 C51.9341337,19.4241895 52.6389764,19.4514963 53.1573768,18.3819825 C53.4938824,17.6993142 53.1300926,16.5160224 54.3351463,16.4796135 C55.4947675,16.4952022 56.5774755,17.0632051 57.2500119,18.0087905 C60.4331725,22.1821696 62.1793635,26.8652743 61.6382262,32.2037406 C61.4972576,33.5690773 61.7246262,34.3063591 63.3389434,34.3655237 C64.9532606,34.4246883 66.449346,34.8206359 68,35.0982544 C67.8681262,35.5988778 68.0909474,36.0812968 67.8954104,36.5318579 Z" id="Path"></path>
                    <path d="M45.4767231,41.8149994 C46.243359,44.2748273 45.9413509,46.7980762 45.9413509,49.2986748 C45.9413509,57.1991165 45.9413509,65.0995583 45.9413509,73 L34.3256561,73 C34.5046957,72.1598137 33.9615942,71.3343294 33.103685,71.1426714 C30.3159183,70.146056 29.3448462,67.9716225 29.7304872,65.2535806 C30.0371416,63.0519667 30.394905,60.8322325 31.8631288,58.7619906 C30.4692454,58.1912018 29.0753621,58.4041151 27.7511728,58.4539458 C26.2922416,58.5128367 25.7486271,58.0009389 26.1063905,56.6102074 C27.7511728,50.1548579 31.0314451,44.7686049 37.3317979,41.7923491 C39.840788,40.6054708 42.7632968,40.8682148 45.4767231,41.8149994 Z" id="Path"></path>
                    <path d="M20,37.7325321 C18.9782406,37.696972 18.0577367,36.4657035 16.856479,37.7592022 C16.5066875,38.1325833 15.5447609,37.1146754 15.4757231,36.1812227 C15.4158904,35.5322508 15.0154712,35.0432995 14.269863,35.1677598 C13.5242548,35.2922202 13.694548,35.927857 13.685343,36.4212534 C13.6761379,36.9146498 13.5610749,37.5547316 13.7865984,37.692527 C16.6033405,39.3905219 14.8912031,41.8530589 15.0016636,44 C12.4610727,43.3910333 10.8593959,41.4085576 8.90792751,39.9728185 C6.76775585,38.381504 4.76565978,37.3724861 2.03636559,38.0170129 C1.40121787,38.1681434 0.351843378,38.5948646 0.0388720379,37.701417 C-0.200458987,37.0168851 0.720044954,36.7057342 1.30456496,36.3679132 C7.35687837,32.785233 13.3125389,33.5675552 19.2083666,36.7146242 C19.5489531,36.8968697 19.7330539,37.3813761 20,37.7325321 Z" id="Path"></path>
                </g>
                <g id="Group-4" transform="translate(1076.000000, 198.000000)" fill="#2B2C2C">
                    <path d="M12.7153058,27 C12.1329612,26.7455013 11.7549069,26.3845758 11.6915064,25.6881748 C11.6187134,24.8922879 10.752241,24.7210797 10.2544303,24.3277635 C8.63654563,23.066838 7.2910479,21.5514139 5.81874934,20.1447301 C5.68723125,19.9730472 5.6009108,19.7719459 5.56749584,19.559383 C6.7627111,18.9347044 5.56749584,18.696401 5.33267948,18.4627249 C4.15859769,17.2526992 2.5853281,16.4197943 1.85504922,14.8025707 C1.78650915,14.6261442 1.72771893,14.446189 1.67893696,14.2634961 C1.51221734,13.703599 1.76581901,13.5832905 2.24249621,13.7753213 C2.53836483,13.8956298 2.89293753,14.0460154 3.07844245,13.7892031 C3.26394737,13.5323907 3.06435347,13.1529563 2.84362609,12.8799486 C2.02176884,10.7560411 1.01675483,8.69691517 0.516595987,6.44807198 C1.00736217,6.21670951 1.50282469,6.94318766 1.81747861,6.44807198 C2.08282109,6.02930591 1.98185006,5.46709512 1.78695248,4.99511568 C1.39480916,4.04421594 1.11068137,3.01233933 0.523640477,2.1933162 C0.0211334722,1.49922879 0.0727930709,0.788946015 0,0 C1.06136994,1.2562982 2.46791992,2.0059126 3.87212174,2.70462725 C5.067337,3.29691517 6.14044775,3.97249357 6.92473439,5.05758355 C7.04150502,5.21008377 7.22396491,5.29997182 7.41784874,5.30051414 C7.66675408,5.25192802 7.71606551,4.95578406 7.71136918,4.74293059 C7.71136918,4.18071979 7.65031693,3.62082262 7.60804999,2.94293059 C8.70464238,3.34318766 9.35978001,4.17609254 10.1910299,4.75449871 C11.3087558,5.52956298 12.1705318,6.62159383 13.393925,7.26709512 C13.6545712,8.12544987 12.9548184,8.75012853 12.8068841,9.51825193 C12.6965205,10.08509 12.5368453,10.6403599 12.5720678,11.2210797 C12.6025939,11.755527 12.3842147,12.4611825 13.4526291,12.2043702 C13.952788,12.0840617 14.1124631,12.5676093 13.9222618,12.9910026 C12.5509343,15.9131105 12.4617041,19.0064267 12.5697196,22.148329 C12.6067778,22.5333817 12.6012664,22.9212618 12.5532825,23.3051414 C12.403,24.1079692 12.3795184,24.8066838 13.0229152,25.4915167 C13.4808071,25.9634961 13.523074,26.6344473 12.7153058,27 Z" id="Path"></path>
                    <path d="M20.2323321,28.7471721 C20.5138052,30.8580834 21.9755734,32.1457393 23.543781,33.360686 C23.8299848,33.5952317 24.1090927,33.9400139 24.3716433,33.4849952 C24.5301197,33.2129222 24.6081753,32.8095036 24.0783435,32.5303942 C22.4628295,31.6766479 21.6373326,30.2318464 21.4291843,28.4704081 C21.2801691,27.2390432 21.4646641,27.1381885 22.7135535,27.5322253 C22.5432504,26.3594968 22.297257,25.2125683 22.2404893,24.0609489 C22.1955482,23.2306571 21.9708428,22.2268015 23.2433853,21.8960921 C23.7401026,21.767092 23.5059359,21.2229459 23.4988399,20.8664365 C23.4704561,19.5787806 23.3498247,18.2864338 23.9482509,17.0738325 C24.2628385,16.4335227 24.6341938,16.008995 25.1309112,16.9260687 C25.3272328,17.2872691 25.5235544,17.2896145 25.7387986,17.0034688 C26.4483948,16.0488678 27.1721829,15.0966122 27.0728395,13.7925381 C27.0515516,13.5392287 26.8150195,13.114701 27.2691611,13.0161918 C27.5890507,12.9550149 27.9173329,13.0698007 28.1277725,13.3164103 C28.8681179,14.1865749 29.783497,14.9207029 30.0980846,16.1051587 C30.2754837,16.7970685 30.3559046,17.5804512 31.3777231,17.6601967 C31.6450043,17.6789604 31.7845582,18.1034881 31.8200381,18.4271612 C32.1441233,19.2902738 32.1441233,20.240215 31.8200381,21.1033276 C31.8011155,21.3238006 31.7845582,21.5442736 31.7656357,21.767092 C31.7135986,22.1024923 31.8980936,22.4707291 31.6189858,22.7826749 C31.9217468,22.5035655 32.1227991,21.9758376 32.6573616,22.2103833 C33.0381782,22.3769108 33.0263516,22.8155113 32.9719492,23.1485662 C32.3191207,27.0514066 33.2959982,30.9964653 32.6337084,34.889924 C32.5698447,35.2605062 33.0878499,35.4950519 32.7448784,35.8468705 C31.7987502,36.0298161 31.022925,35.4551791 30.1430257,35.3496336 C28.8089848,35.1150879 28.8184461,35.1150879 28.7238333,36.444962 C28.6978148,36.7850533 28.8704832,37.2822902 28.2294813,37.2869811 C27.0941273,36.1283253 25.6773003,35.3379063 24.3408941,34.4583599 C23.1724257,33.6867045 22.3918698,34.2097415 22.3256409,35.5912156 C22.2854304,36.3957074 22.4604641,37.2166174 22.1411459,38 C21.6964656,37.615345 21.7674252,37.0852718 21.7674252,36.5927258 C21.7770492,35.7789903 21.7153185,34.9659655 21.5829302,34.1628323 C21.7880835,34.0596798 21.9989306,33.968062 22.2144708,33.8884138 C22.9879307,33.6538681 22.7797824,33.3231587 22.3067183,32.950231 C21.3463981,32.2184484 20.431019,31.4397567 20.1117007,30.2177736 C19.9508589,29.598573 19.3122223,29.8284277 19,29.5141365 C19.3595287,29.1974998 19.8491501,29.0661542 20.2323321,28.7471721 Z" id="Path"></path>
                    <path d="M16.4784186,46.8524805 C15.370058,47.9806298 13.259002,48.3484064 11.9078363,47.6331598 C11.5628692,47.4839281 11.1800014,47.4468446 10.8129649,47.5271138 C9.85523348,47.6354161 9.09759146,47.0465222 8.23203605,46.8502243 C7.78239687,46.7486908 7.93752239,46.3448134 8.06117316,46.1056458 C8.15994287,45.9243564 8.17079941,45.7077205 8.09065265,45.5174002 C8.01050589,45.3270798 7.84813384,45.1839198 7.64975331,45.1286685 C6.15245486,44.6142325 4.61468887,44.3525019 3.03645536,44.8218119 C2.60929814,44.950421 2.45417263,45.3994244 2.04724917,45.5957223 C1.88987546,45.2595338 2.16190716,45.1106181 2.33277005,44.9842654 C3.49508732,44.1336409 3.85255047,42.7798619 4.25048114,41.5501792 C4.5427466,40.6476598 4.04139892,39.6526322 3.35120278,38.9509234 C2.87683345,38.4748444 2.90156361,38.2063449 3.27476412,37.6490392 C3.76487083,36.9157422 4.31567882,36.2117771 4.66864557,35.3679215 C5.11828475,34.3074612 6.19966697,33.9035838 7.10568991,33.3372529 C7.38896259,33.1590053 8.00496826,33.4771434 8.00496826,32.9469132 C8.00496826,32.5317543 7.62052677,32.1955658 6.88087032,31.9045033 C8.90424662,31.9045033 10.6038827,31.9045033 12.2967742,31.9045033 C12.8902979,31.9045033 13.384901,31.818764 13.8997379,31.3336598 C14.4887652,30.7808667 15.3723062,31.0268032 16.1187072,31.2749961 C16.4243011,31.4009148 16.7190589,31.5518434 17,31.7262558 C15.4262629,32.3286875 15.4262629,33.7907688 15.5319281,35.0181952 C15.6443379,36.4058187 15.6893018,37.7844171 15.7050392,39.1697843 C15.7207765,40.5551516 15.6555789,41.9472877 16.0490131,43.3033231 C16.194613,43.7374676 16.1850743,44.2089404 16.0220348,44.6367955 C15.6241041,45.5144956 15.8646611,46.2139481 16.4784186,46.8524805 Z" id="Path"></path>
                    <path d="M20.5699391,28.2629869 C20.6025451,29.1721369 19.8898723,28.9537626 19.3518741,28.9983288 C17.5189541,29.0384384 15.8583798,28.3476627 14.1349226,27.8841745 C13.5013049,27.7045801 12.9590521,27.3079363 12.6117591,26.7700202 C13.1171513,26.1973448 12.9704245,25.4196651 12.5209283,25.1544964 C11.6591997,24.6508986 12.1226699,24.104963 12.1389729,23.5233745 C12.1785658,22.0794304 12.1669208,20.6265732 12.1506179,19.1870858 C12.1075076,17.7556462 12.3616144,16.3302441 12.8982256,14.9934089 C13.1590732,14.3627976 12.9354896,13.5606065 13.6737814,13.0837484 C13.7948892,13.0057576 13.7506383,12.7962966 13.5992535,12.7004793 C13.4478688,12.6046621 13.3663539,12.7428172 13.2429171,12.8341779 C12.3625565,13.5249535 12.2298037,12.9344518 12.1529469,12.2436761 C11.9759432,10.6192391 12.5395602,9.16861013 13.289497,7.76031907 C13.4711587,6.9180184 13.6924134,6.74198202 14.514549,7.40156138 C15.8723538,8.48674769 16.8691642,10.026509 18.2409429,10.8866361 C20.1041399,12.0498132 19.5684708,13.5606065 19.9271362,15.0312902 C20.2601827,16.3861018 20.5978871,17.7542834 21.3245339,19.0422458 C22.2561324,20.6978791 22.1792755,22.6231378 21.3687848,24.3077391 C20.7699918,25.5442921 20.4957713,26.9020133 20.5699391,28.2629869 L20.5699391,28.2629869 Z" id="Path"></path>
                    <path d="M32.3581878,35.991131 C32.1190911,35.5711706 32.013791,35.088061 32.0563878,34.6064931 C32.1024641,31.9041412 32.3720107,29.1856353 31.9227664,26.4925144 C31.7246382,25.299418 32.443429,24.2332468 32.3121114,23.06092 C32.2939523,22.9512899 32.270114,22.8426799 32.2406931,22.73553 C31.2892168,22.8832247 31.5771939,23.7878549 31.1717222,24.5586367 C30.8123268,23.5386201 31.0795695,22.8370701 31.4021039,22.1424434 C31.4274458,22.1701362 31.4712184,22.2278294 31.4735222,22.2255217 C32.5102397,21.4247394 33.9846823,21.5470491 34.9453739,20.7116508 C36.0650288,19.7377888 36.5995143,19.3108587 38.1568943,19.0108538 C38.4356562,19.3108587 38.0048424,19.3570133 37.9656776,19.5370163 C37.9196012,19.7539429 37.7882837,20.0331782 37.8758287,20.1785652 C37.997931,20.3862609 38.2882119,20.2824131 38.5047707,20.1970271 C39.4262973,19.8416366 40.347824,19.4908617 41.2693507,19.1216249 C42.0641674,18.8008504 42.0595598,19.1447022 41.944369,19.8000975 C41.7738865,20.7578054 41.0044117,21.470894 40.926082,22.4286019 C40.8938285,22.8439933 40.3593431,23.6632375 41.5181629,23.5686206 C41.8775583,23.5386201 41.7923171,23.949396 41.8222667,24.2032463 C42.0250025,25.8348114 41.3822377,27.1756025 40.398508,28.4079303 C40.1059232,28.7748594 39.5000195,29.0425561 40.0944042,29.718721 C40.2902286,29.949494 39.9653904,30.5056569 39.7096668,30.8472009 C38.8457355,32.0010659 37.7951951,32.9241579 36.4198166,33.4180121 C36.0995861,33.5333986 35.7793555,33.5380141 35.6203922,33.9510977 C34.9177281,35.7557426 34.4062808,36.0603629 32.3581878,35.991131 Z" id="Path"></path>
                    <path d="M16.32089,47 C16.0763247,46.8614521 15.8469094,46.6513955 15.587194,46.5955294 C15.0006701,46.4703893 15.0244773,46.233517 15.2668783,45.7485992 C15.6845873,44.9106076 15.8490737,44.0323924 15.5049508,43.0871379 C15.1305278,42.0592016 15.3101642,40.9686952 15.2603855,39.9027699 C15.1846351,38.3608654 15.3707645,36.8234301 15.043956,35.2681177 C14.8751409,34.4390647 15.2322496,33.4804023 15.4443505,32.5865447 C15.6218227,31.8468774 16.2949185,32.0792804 16.8013635,32.0122411 C17.0697361,31.9429671 17.2125795,32.1865433 17.4181875,32.2714598 C17.9852328,32.5798407 18.500335,33.017831 19.1496235,33.149675 C20.1127348,33.2323568 20.4785006,34.4591765 21.4892264,34.4524726 C22.0389573,34.5463277 21.9696999,34.9820833 21.9718642,35.37985 C21.9805213,36.2886053 21.9899,37.1981055 22,38.1083506 C21.9826856,40.2156201 21.7554347,42.251381 20.253414,43.878202 C19.7080116,44.2357451 19.1864165,44.6513889 18.521978,44.7407747 C17.7125317,44.6916125 17.1519793,44.9262501 17.1173505,45.907259 C17.0957076,46.4301657 16.753749,46.767597 16.32089,47 Z" id="Path"></path>
                </g>
                <g id="Group-3" transform="translate(1197.000000, 55.000000) rotate(27.000000) translate(-1197.000000, -55.000000) translate(1176.000000, 5.000000)" fill="#2B2C2C">
                    <path d="M28.4411063,30.9864083 C26.7256542,30.0203831 24.8559022,30.3837926 23.117759,30.6459994 C19.7912342,31.1474125 16.7914621,30.4619946 13.7054637,29.2199622 C11.1912826,28.212536 8.62264272,27.4397158 6.47605851,25.6778698 C6.00892675,25.3108849 5.57735688,24.8996155 5.18720033,24.4496378 C4.18425084,23.2536066 4.27955373,22.577389 6.27637625,22.4807864 C3.50351588,19.8541179 1.01656419,17.3930537 0,13.3955494 C1.87429023,15.1895962 2.35534293,14.1591694 2.61856045,12.6227293 C3.29021893,8.6712262 2.90446913,4.67372192 3.07238375,0 C5.83162942,4.33791316 9.97049792,6.1181596 13.7644607,8.510222 C14.0730606,7.10258528 14.4406574,6.4631686 16.0335772,7.9122064 C18.0621674,9.7522544 19.4826343,12.0201136 21.3569245,13.9291634 C21.7472126,14.3247737 21.6156038,14.527179 22.2645711,13.9705644 C23.2629824,13.1011418 24.1343231,14.2649721 24.6471435,15.1205944 C25.9133095,17.3072613 26.5777914,19.7981008 26.5713543,22.3335826 C26.6212748,25.30066 27.0796364,28.0561319 28.9539266,30.4251937 C29.1036883,30.9174065 28.8767766,31.0462099 28.4411063,30.9864083 Z" id="Path"></path>
                    <path d="M39.806486,93.4738697 C41.163105,93.785498 39.9278449,94.616507 40.1185518,95.1629858 C39.4258189,95.7687135 38.9644786,96.6131853 38.818278,97.5431039 C38.3025027,98.3650802 38.8919601,99.9548365 37.2492809,100 C36.8093518,99.8845328 36.5419042,99.4200584 36.651155,98.9612388 C36.9242125,98.8889771 37.3836425,98.7670356 37.2666179,98.5096035 C36.317418,96.3598193 36.5558016,93.848727 35.6196044,91.7847536 C34.1329581,88.5103975 34.1979718,84.820537 32.6549802,81.5687627 C31.8358077,79.8480322 32.5769638,77.9872947 33.2227664,76.1807534 C34.5490457,72.4818601 36.8331933,69.3113802 38.3415109,65.7163631 C39.2083601,63.7020696 39.0739985,61.7600377 37.9080863,60.1567323 C36.1353797,57.7404834 34.3670073,55.3648816 33.4221417,52.4473175 C32.7459993,50.3652787 31.4067173,50.3788277 29.8030463,51.1601568 C29.4823121,49.7149238 30.448849,49.2768376 31.4500598,48.8658494 C32.5899665,46.8380068 31.4847338,44.8011316 31.207342,42.8636161 C31.0036325,41.4590302 30.6005476,40.0137972 30.5225312,38.5504988 C30.3925038,35.944563 29.1355724,33.7947789 28,31.5953149 L28.4897698,31.0488362 C31.0296379,33.3792744 31.5887557,36.558787 31.8574789,39.819594 C32.069857,42.4074644 32.1218679,45.0134002 33.1187445,47.4973944 C34.978136,42.4119807 33.8078896,37.2091419 33.6041801,32.0469502 C32.8240158,29.5900541 33.3267883,27.0473473 33.1707555,24.549804 C33.0450623,22.3548563 32.8066788,20.1418433 33.6041801,18.0056082 C33.7645472,15.0202988 33.5304979,12.0078912 34.3106621,9 C34.8611114,11.2943074 36.0443605,13.3673135 36.2697413,15.7745298 C36.3217523,16.3435903 36.122377,17.2965408 36.8765358,17.4636458 C37.6306946,17.6307509 37.4529905,16.5919897 37.8257356,16.1945506 C38.0121082,15.9913147 38.220152,15.8061442 38.4585355,15.5712939 C39.2733738,17.6984962 39.9148422,19.7444042 39.823823,21.9619336 C39.823823,22.3322746 39.8628312,22.8652042 40.2572476,22.8652042 C42.537061,22.8652042 41.9085953,24.6175493 41.9519378,25.9227753 C42.2336638,33.73155 39.5811053,40.4247853 34.8654456,46.3773388 C33.5799743,47.8574836 33.2898029,50.0044407 34.1329581,51.7969626 C35.7019551,55.2881036 37.3533028,58.7340811 40.4262832,61.1141992 C41.5401844,61.9768227 40.9940694,63.0336493 40.7816914,63.9730508 C40.1315545,66.840935 38.4758725,69.2391186 37.127922,71.7592436 C34.6313963,76.4291528 33.3657965,80.945506 35.5545907,86.328999 C36.6807861,89.0830113 37.5727319,91.9347492 38.220152,94.8513574 C39.082667,94.9326517 39.5160916,94.3003623 39.806486,93.4738697 Z" id="Path"></path>
                    <path d="M32,48.4388245 C31.7778646,49.5165601 30.3951852,49.6874786 30.2773175,50.8506734 C27.901829,53.2245406 24.9370017,54.5111765 22.0356417,55.9260013 C21.7999062,56.039947 21.2921682,56.0257037 21.1743005,55.859533 C19.0844146,53.0108925 15.5801157,53.4856659 12.9326247,51.9521478 C11.4230108,51.0833124 11.4184774,51.2257445 12.0259497,49.5782807 C12.2707519,48.9041024 11.6134125,48.3771039 11.1192747,48.2109332 C7.55150852,47.0145042 5.45708926,44.0471703 3,40.9516476 C5.66562451,40.8946748 7.98671252,42.0768606 10.3848679,41.6115827 C10.4574019,41.4501597 10.5752697,41.3124754 10.5662029,41.1795388 C10.5344693,40.5101083 9.28779115,40.1777669 9.9496639,39.3943908 C10.6115367,38.6110146 11.5182117,39.1807427 12.0486165,39.5130841 C14.1022354,40.7854769 16.4051899,41.0560978 18.9756136,41.8109875 C18.6310771,40.9468999 18.0689386,40.2252443 18.6446772,39.6365252 C19.2204158,39.0478062 19.7054869,39.8501733 20.2222917,39.9308847 C24.2252618,40.5670811 26.8546194,43.2542987 29.3570424,46.2596145 C30.0914491,47.1189544 31.1114585,47.7171689 32,48.4388245 Z" id="Path"></path>
                </g>
                <g id="Group-5" transform="translate(1201.000000, 352.000000)" fill="#2B2C2C">
                    <path d="M15.0037223,18.6685121 C17.1516695,17.6348722 17.2163388,15.576427 17.2810082,13.7741831 C17.3502968,11.8040832 18.1494256,10.1520263 18.8423118,8.25260262 L20.4128538,9.39225684 C20.4960001,9.29065976 20.685389,9.16255909 20.7315814,8.99912031 C21.1935056,7.39565333 22.7086167,6.47686233 23.4153606,5.02358234 C23.6364978,4.61471281 24.110073,4.39096378 24.5840286,4.47142429 C27.3555734,4.70995656 28.8429691,3.81766915 29.5589514,1.16289324 C30.048591,-0.661436963 30.9447238,0.0320735499 31.7207563,0.747670385 C34.2059081,3.09323779 34.7555978,5.76568276 32.8894244,8.32327885 C32.7344605,8.48420693 32.628962,8.68292079 32.5845545,8.89752323 C32.5060274,13.5577372 28.1639406,14.6664706 25.2584378,16.9722826 C23.5308416,18.5315769 21.0641668,18.1561094 19.0825123,19.1146558 C18.3203375,19.485706 17.3087237,19.4326989 16.4495448,19.8125836 C15.2577806,20.3514899 14.9621491,19.6535621 15.0037223,18.6685121 Z" id="Path"></path>
                    <path d="M25.513061,18.417595 C26.3317561,18.417595 27.1459774,18.417595 27.9601988,18.4499549 C28.3270458,18.4499549 28.9310012,18.4499549 29.020476,18.6163771 C30.5326014,21.9217072 34.4381796,21.4548004 36.5587341,23.7708429 C36.7511051,23.9788707 37.1045308,24.0528361 36.9703185,24.6722966 C35.8697776,25.1345805 34.4471271,24.5104972 33.27948,25.2270373 C32.9081593,25.4581792 31.9373569,25.1669404 32.8902643,26.2163249 C33.4629035,26.8404082 32.4160475,27.0206989 31.8702507,27.1408927 C27.2399261,28.3104711 22.8109198,28.6479383 18.4490198,25.7864008 C16.8832095,24.7601305 15.0310796,23.6783861 13,23.4379985 C16.3955714,19.7489727 20.1311474,16.8966809 25.513061,18.417595 Z" id="Path"></path>
                    <path d="M1.29385246,18.3745833 C-0.396721311,17.3912532 0.752868852,15.5148068 0,14.2337713 C1.56885246,14.7344577 2.4704918,14.4141989 2.44344262,12.5106884 C2.41639344,10.7695627 3.48934426,9.42537753 4.43606557,8 C4.27377049,9.75916846 5.72991803,10.7424985 6.23934426,12.1588547 C6.66762295,13.3767405 7.41147541,13.9090018 8.24098361,12.1588547 C9.03442623,14.3871347 10.382377,16.1463032 10.4319672,18.3700726 C10.6663934,20.1517945 10.4635246,21.9786233 11,23.7287703 C10.242623,25.8352618 7.88934426,26.8005491 7.22663934,29.0739361 C7.05983607,29.6377721 7.02377049,30.5308884 6.37909836,31 L6.16270492,31 L5.94631148,31 C5.04467213,29.5791332 5.89672131,28.293587 6.64508197,27.3914493 C8.83155738,24.7075897 8.31762295,23.7242597 4.89590164,21.7846637 C3.34959016,20.8780153 2.07377049,19.9488135 1.29385246,18.3745833 Z" id="Path"></path>
                </g>
                <path d="M28.3443858,415 C30.2677252,415.110531 29.1836612,417.03792 30.1698098,417.949803 C30.2887071,417.258983 30.3866226,416.699418 30.4775441,416.15367 C30.8901878,418.032702 31.9252942,419.103474 33.8836035,419.835743 C36.7142967,420.896419 39.0216237,422.994814 40.3250422,425.693901 C41.8007682,428.678246 44.6193348,431.448436 43.8779748,434.950896 C42.6260557,440.878135 44.3535642,447.136969 41.6119312,452.843146 C41.4230942,453.230006 41.283215,453.844836 40.9754807,453.948459 C38.0380168,454.98469 38.0310228,454.963965 37.2267172,458.266087 C37.0378802,459.046714 36.8420493,459.820433 36.6532123,460.594152 C35.7649792,461.644199 36.0447377,462.929125 35.9118524,464.138061 C35.8279248,464.939413 36.0936954,466.072359 34.6389513,465.996368 C31.0160792,462.493908 27.6449896,458.887825 26.6658349,453.651406 C26.5749134,453.167832 25.8335535,449.810444 23.4835824,452.407929 C22.7282345,453.236914 21.8330074,452.338847 21.6861342,451.565128 C20.8188829,447.081703 17.5666907,442.929872 19.713837,437.997414 C19.8953754,437.344885 19.8281827,436.649242 19.525,436.042392 C19.3711328,435.696982 18.7626582,436.042392 18.3220386,436.201281 C17.6226424,436.477609 17.7555277,438.446447 16.3777172,437.292777 C15.2040605,436.467263 14.7131975,434.981902 15.1677618,433.631429 C17.3708598,427.690372 20.7629312,422.578301 26.2042335,419.034392 C27.597464,418.165075 28.4137579,416.626283 28.3443858,415 Z" id="Path" fill="#2C2C2C" transform="translate(29.500000, 440.500000) rotate(-56.000000) translate(-29.500000, -440.500000) "></path>
            </g>
        </g>
    </g>
</svg>
