<?xml version="1.0" encoding="UTF-8"?>
<svg width="141px" height="89px" viewBox="0 0 141 89" version="1.1" xmlns="http://www.w3.org/2000/svg" xmlns:xlink="http://www.w3.org/1999/xlink">
    <!-- Generator: Sketch 58 (84663) - https://sketch.com -->
    <title>SocialES</title>
    <desc>Created with Sketch.</desc>
    <g id="Page-1" stroke="none" stroke-width="1" fill="none" fill-rule="evenodd">
        <g id="Artboard" transform="translate(-768.000000, -1788.000000)" fill="#FFFFFF" stroke="#FFFFFF">
            <g id="SocialES" transform="translate(763.000000, 1779.000000)">
                <g id="Fill-39" transform="translate(15.000000, 0.000000)" stroke-width="2">
                    <path d="M5.49295775,28.0949395 C14.8630025,29.4427543 24.4167156,30.814267 33.9704287,32.1887419 C34.699177,30.7342868 35.4279254,29.2798316 36.1566737,27.8253765 L21.7298264,9.05668468 L24.4641139,6.4084507 C29.0647081,12.4454763 35.0724384,17.9433759 37.6615687,24.7446569 C38.9353971,28.0830905 33.8726697,33.835742 31.1235703,39.6683736 C53.9221364,46.3659766 85.513081,29.8989378 103.823624,58.2237849 C112.059073,70.9643378 117.693541,85.3903999 124.507042,99.0522065 C122.85699,100.086025 121.2099,101.122806 119.562811,102.156624 C116.56487,98.4182892 113.149233,94.9376685 110.660824,90.8853373 C105.532924,82.5229609 101.278929,73.6096096 95.9732859,65.3686846 C87.6815517,52.4829824 74.7714489,49.0260595 60.2646169,48.6735541 C39.4212293,48.1640504 19.6680018,44.4049801 5.49295775,28.0949395" id="Fill-38" transform="translate(65.000000, 54.282537) rotate(-6.000000) translate(-65.000000, -54.282537) "></path>
                </g>
                <path d="M6.16706217,43 C10.376305,48.2785883 14.5855478,53.5571767 18.7947906,58.835765 C19.421647,58.4854372 20.0460547,58.1351094 20.6729111,57.7847815 C19.3016627,53.5311388 17.932863,49.2774961 16.4685656,44.7327025 C17.6292294,44.8297528 18.6184872,44.7090317 18.7213308,44.9481068 C21.2777296,50.813731 23.8953448,56.6675198 25.9913959,62.6893712 C26.2117751,63.3166474 22.1274139,66.17608 21.9168293,65.9914478 C17.0513462,61.7425393 12.1932091,57.4297195 7.91050654,52.6458509 C5.96872089,50.4799727 5.26350744,47.2773135 4,44.5433361 C4.72235406,44.0296798 5.44470812,43.5136564 6.16706217,43" id="Fill-176" transform="translate(15.000000, 54.500000) rotate(71.000000) translate(-15.000000, -54.500000) "></path>
            </g>
        </g>
    </g>
</svg>