<?xml version="1.0" encoding="UTF-8"?>
<svg width="603px" height="335px" viewBox="0 0 603 335" version="1.1" xmlns="http://www.w3.org/2000/svg" xmlns:xlink="http://www.w3.org/1999/xlink">
    <!-- Generator: Sketch 58 (84663) - https://sketch.com -->
    <title>Group</title>
    <desc>Created with Sketch.</desc>
    <g id="Page-1" stroke="none" stroke-width="1" fill="none" fill-rule="evenodd" opacity="0.360212054">
        <g id="Artboard-Copy-6" transform="translate(-66.000000, -435.000000)" fill="#515151" fill-rule="nonzero">
            <g id="Group" transform="translate(66.000000, 435.000000)">
                <path d="M121.170865,68.4484198 C108.616239,77.2091862 101.205659,90.6857704 91.1934924,101.774849 C85.4975946,108.069183 80.0776226,115.054118 79.7425698,124.466023 C79.4666439,131.687735 78.1461417,138.455625 71.8589741,143.54634 C65.5718066,148.637056 65.0199549,153.964549 70.9917786,160.633781 C74.2437618,164.264369 76.3920416,169.552399 79.249845,173.63681 C88.1977261,186.403062 77.3972001,197.136974 76.8059304,208.817996 C76.1161158,222.393237 70.8932337,229.851728 59.0678402,241 C56.0129469,239.796381 57.0969413,237.487801 57.4122852,235.238415 C58.5369203,227.158646 57.00825,218.931812 53.0565986,211.797446 C46.5329232,199.958572 46.2964153,188.119699 56.0129469,177.267398 C58.2400627,174.741772 58.9692953,170.815212 60.1321256,167.40167 C63.7979976,156.786147 61.1175751,153.293679 49.7849064,153.352874 C38.0974759,153.352874 25.9961566,152.090061 19.1965554,165.014164 C18.5855767,166.198051 17.0088576,166.98731 16.0036991,165.803422 C15.3641296,164.736496 15.2479329,163.435064 15.6883553,162.271492 C23.433988,144.513182 34.5498578,131.60881 55.874984,130.701163 C67.2273617,130.207876 77.3183641,126.320779 77.554872,110.969707 C64.2118864,111.660308 53.5099053,124.959309 37.3091163,116.790486 C24.3800195,110.239643 10.859653,106.1355 0,92.1853611 C8.71137317,92.1853611 14.8999957,91.6131488 20.9506554,92.3432127 C27.4258657,93.1768582 33.9806284,91.5889942 39.3588512,87.8839037 C45.8825265,82.9313083 52.327366,83.4443262 58.6539515,84.3519731 C72.3122809,86.3251187 85.2610867,80.9778942 98.8011622,81.747421 C105.344547,82.1025872 106.073779,72.2171279 113.050761,70.5004912 C92.0803969,76.419928 74.3423068,69.8296217 60.5065964,55.8202882 C45.5474737,40.6665302 50.9477367,19.9485017 49.3118906,0 C58.1020998,5.56427051 60.0138717,14.9761749 67.0499808,20.3431308 C73.6327832,25.2957262 80.7280192,29.1630915 87.5473294,33.6026691 C90.7007677,35.5758146 92.9475924,34.5497789 95.9827768,31.9452268 C103.33423,25.6706239 119.002876,27.8213525 125.014118,35.0627968 C126.807636,38.5158015 134.060544,37.9238579 132.897713,42.1858523 C131.045068,48.5196496 141.057235,52.6237924 135.065702,58.8589324 L135.065702,58.8589324 C131.340703,63.1603897 127.063853,66.9488292 121.170865,68.4484198 Z" id="Path" transform="translate(68.500000, 120.500000) scale(1, -1) translate(-68.500000, -120.500000) "></path>
                <path d="M123,43.9642149 C126.741784,39.5172964 131.520791,36.091781 136.901282,34 C134.604037,38.9422506 132.208618,43.8446443 130.02918,48.8466802 C128.115646,52.4123375 128.115646,56.7199414 130.02918,60.2855988 C132.385329,63.9723583 135.801746,60.7240243 138.845106,60.2855988 C152.726754,58.0536147 166.628036,56.2999129 177.859016,67.9979011 C179.194167,69.8512451 180.843472,71.6647322 180.764933,74.1159291 C180.274069,88.3248995 181.157625,102.53387 180.175896,116.702983 C179.783204,122.223158 177.073632,125.750491 171.988276,124.3555 C180.391876,136.073417 185.437963,149.36568 181.805566,164.96964 C180.902376,168.855684 181.079087,172.941012 179.842108,176.627772 C178.34988,180.872527 176.896921,185.91442 170.456779,183.263939 C167.766842,178.122404 165.371423,172.801513 162.347698,167.899119 C157.655033,160.306388 152.530408,153.271652 141.790293,155.284423 C139.414509,155.722849 136.567495,156.280845 134.66294,153.650292 C143.675212,137.508264 139.198528,119.931389 139.630489,102.932438 C139.787566,97.5716909 134.820017,94.5425695 131.501773,90.9753806 C129.846047,89.3647432 128.273195,87.6685776 126.789474,85.893631 C125.061631,83.5420763 122.450232,80.8716667 125.041996,78.0219013 C128.046087,74.7337104 130.93237,77.1051935 133.465231,79.4567482 C134.878921,80.7720246 135.899919,82.6054401 138.000819,83.0438656 C140.74966,76.1685573 140.74966,76.1685573 138.39351,66.5431258 C133.641942,66.5431258 130.539679,73.1992213 124.943823,69.7715314 C126.102264,62.1190144 123.94246,54.3070699 126.102264,46.6545529 C126.632397,44.6617099 124.62967,44.1834276 123,43.9642149 Z" id="Path" transform="translate(153.000000, 109.000000) scale(1, -1) translate(-153.000000, -109.000000) "></path>
                <path d="M135.121765,296 C137.332222,292.151202 133.588385,288.421439 132.214317,287.667551 C126.439249,284.532963 131.776208,277.172632 130.581367,277.628933 C123.153435,280.505612 127.156154,273.42303 125.045267,272.073967 C129.546109,271.497029 133.85563,274.074663 135.460304,278.303465 C139.602421,288.064334 144.799982,282.945829 148.802702,279.216066 C152.805421,275.486303 155.314589,270.506673 159.635933,264.495406 C146.094394,265.288973 135.619616,260.011755 124.646987,256.420866 C133.926923,252.453033 135.400561,245.549003 134.604,236.006365 C133.588385,222.317341 136.754715,208.529122 135.500132,194.701224 C135.106871,192.966126 135.920754,191.182315 137.491534,190.336607 C131.019475,189.662076 123.691113,193.431517 117,188.630439 C124.408018,181.607375 133.050706,184.047592 141.056145,186.408453 C147.587946,188.392369 154.279059,190.158055 156.509431,199.264232 C157.664444,203.966114 164.056847,207.834751 170.608562,208.628317 C184.847092,210.314646 192.513992,219.004201 194.883762,232.713064 C195.959119,238.664813 189.128608,243.684122 192.613562,249.992976 C195.182472,252.889494 193.011843,254.337754 190.900956,255.944726 C189.347662,257.154915 186.32073,257.075558 186.81858,260.249825 C183.831476,266.102378 177.200105,267.272889 172.440653,270.764582 C160.392666,279.672367 150.555136,292.052006 135.121765,296 Z" id="Path" transform="translate(156.000000, 240.000000) scale(1, -1) translate(-156.000000, -240.000000) "></path>
                <path d="M186.118206,260.133245 C185.081584,259.350645 181.074641,259.691778 184.124703,257.303846 C187.174764,254.915913 191.121901,254.193513 191.939238,249.718648 C203.362016,246.628382 213.289665,239.906051 223.596081,234.648586 C234.819508,228.929587 246.720726,225.217255 258.203309,221.264123 C281.786461,213.137125 306.167014,206.79606 331.384839,205.531861 C336.328729,202.000129 342.747811,205.531861 347.711636,202.040262 C370.278101,200.936596 392.944241,200.294462 415.49077,202.301128 C432.714644,203.826195 449.679363,208.321127 467.022847,209.62546 C471.18927,206.555261 474.119721,210.628793 477.628288,211.471592 C481.2764,215.163858 486.14055,216.026724 490.865154,217.030057 C514.787202,222.207256 536.715745,232.10012 558.444938,243.538116 C571.621999,250.501248 584.360489,258.026245 596.999304,265.792043 C599.83008,267.517776 600.806897,270.046175 602.780466,272.092974 C604.076243,279.878839 599.431379,279.517639 594.228334,278.393906 C585.815747,272.373908 577.662316,265.892376 568.890899,260.333911 C562.029346,256.344651 554.334907,254.028639 546.424109,253.571447 C523.219723,251.283847 500.095077,247.812315 476.970432,244.641783 C474.358942,244.280583 470.511479,244.641783 470.79057,240.006384 C471.186251,239.931144 471.476565,239.588817 471.488296,239.183651 C491.724919,244.660049 512.709052,246.801457 533.625814,245.524716 C533.39431,243.017139 531.636634,240.91962 529.22017,240.267251 C518.634664,237.738851 509.484481,231.779053 499.098326,228.488121 C447.707751,212.171721 393.680254,205.951905 339.956906,210.167259 C306.386299,212.675592 273.79251,220.822656 242.275213,232.360986 C222.679069,239.605051 204.239157,249.718648 186.118206,260.133245 Z" id="Path" transform="translate(393.000000, 240.000000) scale(1, -1) translate(-393.000000, -240.000000) "></path>
                <path d="M118.242228,221.059943 C119.873087,221.059943 121.503945,221.241417 123.134803,221.180926 C140.209694,220.555848 140.327588,220.555848 139.895312,238.562128 C139.541632,252.999414 137.065871,267.235062 139.129005,281.934477 C140.248992,289.899181 130.896117,288.185257 125.767756,290 C117.338379,287.822309 110.363021,284.475117 108.496376,274.171411 C107.317442,267.698829 98.6719273,270.602417 95.3512638,265.178353 C92.855854,261.145592 89.7120306,259.713961 90.5176353,253.080069 C91.4214846,245.599296 84.4068285,238.662947 77.5100659,234.932642 C72.6960862,232.371839 70.652601,228.560879 68,223.661074 C85.1927844,225.737946 101.894346,226.322697 118.242228,221.059943 Z" id="Path" transform="translate(104.000000, 255.500000) scale(1, -1) translate(-104.000000, -255.500000) "></path>
                <path d="M124.738707,70.2599737 C130.779057,69.45331 134.665016,63.544498 140.846308,63 C142.640458,69.3551115 143.321683,75.9735286 142.859759,82.5615958 C142.859759,84.8807541 143.242314,87.6839106 140.725501,88.8132398 C138.208689,89.942569 137.000619,86.7965804 135.087841,85.7680842 C131.725379,84.0740903 130.295829,76.0679527 126.772292,79.5567733 C122.926602,83.3480929 129.812601,86.6755809 132.631432,88.954406 C141.329537,95.9522139 143.443659,104.260851 142.577876,115.170978 C141.61142,127.270934 145.074554,139.814555 138.993934,151.470846 C138.274421,153.330348 136.628962,154.67181 134.665016,155 L134.665016,155 C128.040765,153.608505 128.46359,146.509864 124.79911,142.718544 L121.275573,131.465585 C107.080749,141.105217 101.886047,138.584393 98.4027782,121.583954 C96.679124,112.751936 96.5427568,103.68272 98.0000881,94.8027181 C99.8918442,81.2623811 111.106548,70.9686707 124.738707,70.2599737 L124.738707,70.2599737 Z" id="Path" transform="translate(120.000000, 109.000000) scale(1, -1) translate(-120.000000, -109.000000) "></path>
                <path d="M170.487857,129.299688 C173.998331,129.354231 177.043127,126.901505 177.713757,123.478888 C181.427067,103.54464 183.976204,83.9492748 166.152316,68.5002329 C164.606777,67.1447041 162.137927,65.848978 163.3021,62.8787751 C163.944402,62.7193011 164.626849,62.3006819 165.128647,62.4402217 C169.143036,63.6163423 170.72872,70.8923426 175.525915,68.261022 C180.684405,65.4303588 177.994764,59.1710051 178.095124,54.4665226 C178.376131,40.971037 178.095124,27.4755514 178.095124,14 C190.660162,24.4854142 199.853113,36.625371 198.167069,54.1276404 C197.926206,56.7190926 198.167069,59.2108735 196.380666,61.6428518 C194.723001,63.5223358 193.893725,65.9836454 194.078599,68.475438 C194.263473,70.9672305 195.447045,73.2812425 197.364191,74.8991264 C203.385775,81.0588089 201.37858,86.5008585 195.356997,91.4246177 C189.335413,96.3483768 187.328219,101.192399 187.207787,109.724257 C187.087355,121.684806 181.928865,133.645354 178.757498,145.725508 C178.255699,147.718933 176.930951,149.493081 174.44203,148.875119 C171.953109,148.257158 172.434835,145.884982 172.133756,143.991229 L170.487857,129.299688 Z" id="Path" transform="translate(182.000000, 81.500000) scale(1, -1) translate(-182.000000, -81.500000) "></path>
                <path d="M486.760124,243.669718 C484.326216,243.669718 482.455584,241.735529 481.475067,240.321284 C479.639205,237.666108 476.72547,237.284816 474.458459,235.690324 C473.311046,234.886145 471.36392,234.754426 471.593402,237.347209 C471.836793,238.088995 471.509954,238.262309 470.842368,238.10286 C469.987023,237.707703 469.041277,237.139232 468.756162,238.699062 C468.459159,240.279689 468.261742,241.877308 468.16507,243.482538 C468.116392,245.47912 467.970357,247.489567 466.899438,249.160317 C465.703346,251.018247 463.992657,252.501818 461.941221,250.241799 C460.550416,248.68197 459.555991,249.13952 457.873118,249.818912 C454.215303,251.302483 451.176395,253.832873 447.602028,255.4135 C446.906626,255.711601 446.315534,256.106757 445.724442,255.767061 C445.02904,255.316444 445.362833,254.574658 445.592316,253.902199 C446.524155,251.129169 445.494959,250.304192 442.810707,251.184629 C440.988753,251.780831 438.888639,251.434202 437.310076,252.869245 C437.114285,253.086972 436.838852,253.217004 436.54583,253.230045 C436.252809,253.243085 435.966848,253.138039 435.752375,252.938571 C435.354451,252.489333 435.308815,251.829655 435.641111,251.330213 C437.365708,247.662881 437.727317,243.628122 438.812145,239.787476 C439.285018,238.123658 440.731455,237.603715 441.802374,236.612356 C442.873293,235.620998 445.084672,235.385291 443.777316,233.062878 C443.464385,232.515205 444.048523,232.022992 444.667431,231.835812 C444.892616,231.755788 445.125744,231.70001 445.362833,231.66943 C452.316855,231.18415 459.3126,230.144264 466.224898,231.919003 C466.480237,232.044343 466.714768,232.208009 466.9203,232.404283 C466.975932,226.726504 461.030244,222.005421 456.864785,221.534006 C450.725483,220.838388 444.883012,218.5244 439.938696,214.830206 C437.330938,212.868287 435.189099,210.746919 431.878985,210.414155 C429.792779,210.206178 427.706572,210.351762 425.620366,210.213111 C424.723297,210.150718 423.269906,210.843975 423.096056,209.304943 C422.956976,208.070945 424.389504,208.147203 425.182262,207.918428 C429.097377,206.843879 432.887318,205.374173 437.157088,207.301429 C439.265207,208.327638 441.70304,208.447901 443.902489,207.634193 C445.09858,207.14198 446.468522,207.724316 447.55335,208.375978 C451.551912,210.753852 455.640877,213.027736 458.846681,216.792124 C458.658922,212.493928 456.489268,209.166292 454.152716,206.067431 C452.761912,204.251096 450.383637,203.93913 448.130534,203.987658 C446.385074,204.029254 445.390649,203.45385 444.952546,201.609785 C443.596512,195.855748 440.731455,191.044541 435.585479,187.807028 C435.284142,187.629895 435.021634,187.394131 434.813582,187.113771 C434.493697,186.649288 434.257261,186.129345 433.923468,185.519278 C437.963754,184.701235 440.703639,187.904084 444.187603,188.666668 C445.508868,188.957836 446.586741,189.512442 448.130534,189.138083 C451.46151,188.340837 454.458693,190.268092 456.47536,192.271607 C458.220819,193.997818 460.473922,194.885187 462.038577,196.791645 C464.987082,200.306461 465.306967,204.285759 464.987082,208.473034 C464.852522,210.892391 464.519941,213.296747 463.992657,215.662115 C462.539266,221.603332 467.233231,225.700483 468.429323,230.837521 C468.505817,231.142555 469.973115,232.12698 470.042656,230.532488 C470.306908,224.362496 475.529379,221.783578 479.235872,218.358886 C486.600181,211.551098 489.395698,203.502378 486.690583,193.990885 C484.555699,186.496772 481.822768,179.113579 474.778344,174.420226 C472.427885,172.867329 469.910529,172.430577 467.274955,172.187937 C466.440472,172.111678 465.126162,172.631621 464.959266,171.356028 C464.736737,169.71994 466.35007,170.094299 467.205415,169.920985 C471.231793,169.144536 475.119091,169.096008 478.881217,171.293634 C479.945182,171.924499 481.961849,173.373407 482.080067,170.045771 C482.149607,168.07692 483.769894,169.116806 484.2984,169.685277 C486.780986,172.298858 490.473571,173.643777 491.850467,177.449761 C492.747536,179.92469 494.847651,180.049477 496.829547,178.538175 C498.999202,176.88129 499.89627,178.018232 500.57081,179.973218 C501.530465,182.746248 501.405293,185.644065 501.419201,188.528016 C501.419201,189.810542 501.21058,191.065338 503.505408,190.157171 C505.250867,189.463914 506.446959,191.072271 505.987993,192.978729 C504.177799,200.598546 501.101019,207.862566 496.885179,214.469712 C494.729432,217.852808 491.168973,219.183863 487.399894,220.015772 C483.477825,220.903141 479.221964,220.189086 475.863172,223.599913 C473.081563,226.372943 470.904954,229.145973 470.995357,234.116629 C475.397252,227.100864 482.740699,227.752526 488.769836,225.42318 C490.478924,225.545215 492.193859,225.287111 493.790639,224.66753 C495.709949,224.0228 497.05903,224.487283 496.899087,226.747302 C496.683512,229.866961 497.97696,232.376553 499.465121,234.990134 C500.953282,237.603715 499.951902,239.149679 496.906041,239.073421 C495.390064,239.031825 493.936674,239.413117 492.434605,239.399252 C491.37064,239.399252 490.577881,239.884532 490.682192,241.049205 C491.022939,244.570953 488.84633,244.030212 486.760124,243.669718 Z" id="Path-Copy" transform="translate(464.586624, 212.397896) rotate(38.000000) translate(-464.586624, -212.397896) "></path>
                <path d="M433.467844,290.919542 C433.090474,289.543823 433.961855,287.89296 432.733689,286.641055 C432.610186,280.374655 432.966971,274.349005 435.354691,268.247691 C437.124897,263.714696 437.454237,258.301242 434.133386,253.651311 C433.44726,252.660793 433.152226,251.360739 432.671937,250.212013 L433.412954,249.462246 C437.817884,255.116452 439.924292,261.155859 436.939643,268.261448 C435.992788,270.531385 435.766367,273.076465 434.949876,275.442702 C434.538201,276.605184 435.368414,276.130561 435.684032,276.309405 C440.747644,278.985179 445.029072,275.992989 449.303639,274.135769 C454.435863,271.900225 459.231886,268.908036 464.343527,266.617464 C468.268169,264.856543 472.577042,264.835907 476.789858,265.530646 C478.093498,265.743882 479.815675,265.805789 480.289102,267.236537 C480.687055,268.454049 478.299336,268.158269 478.313058,269.561503 C482.162227,271.783289 486.464239,271.521902 491.671937,271.666353 C488.927432,273.447909 487.891381,275.64906 485.558552,276.391948 C484.687172,278.661885 482.683683,279.32223 480.618443,279.872517 C478.203278,280.519105 477.366204,282.390083 476.892777,284.56372 C478.415977,286.269611 477.283869,287.576544 476.138038,288.690877 C474.216884,290.582491 472.597626,292.522255 472.529014,295.438779 C472.529014,296.752591 471.705662,297.502358 470.189323,297.075885 C468.446562,296.587505 466.504825,297.454208 464.844399,296.312361 C463.97988,296.731955 462.388067,295.053578 462.099894,297.495479 C461.942085,298.981256 460.363994,298.430968 459.602394,297.963224 C455.375856,295.349357 450.497498,294.331325 446.065122,292.178325 C442.339457,290.362376 441.845446,286.551634 439.560645,283.92401 C439.347946,283.683259 439.347946,283.236151 439.155831,282.9954 C438.016861,281.365173 436.823001,278.902635 434.881264,279.315351 C433.06989,279.700552 434.26375,282.266269 434.09908,283.862103 C433.893242,286.207704 434.497033,288.635848 433.467844,290.919542 Z" id="Path-Copy-2" transform="translate(462.171937, 273.962246) rotate(38.000000) translate(-462.171937, -273.962246) "></path>
                <path d="M310.454026,274.857541 C306.055325,277.911086 303.458917,282.608318 299.951005,286.473391 C297.955362,288.667267 296.056393,291.10185 295.939003,294.382348 C295.842328,296.89946 295.37967,299.258392 293.176867,301.032749 C290.974064,302.807107 290.780714,304.663992 292.873032,306.988538 C294.012413,308.253971 294.765095,310.097102 295.766369,311.520714 C298.901393,315.970362 295.117267,319.711642 294.910107,323.783036 C294.66842,328.514655 292.838505,331.114295 288.695302,335 C287.624974,334.580481 288.004768,333.775831 288.115253,332.991813 C288.509286,330.175628 287.973693,327.308183 286.589173,324.821516 C284.303506,320.695104 284.220642,316.568692 287.624974,312.786147 C288.405277,311.905846 288.660775,310.537252 289.06819,309.34747 C290.352583,305.647454 289.413457,304.430162 285.442887,304.450794 C281.348021,304.450794 277.108142,304.010644 274.7258,308.51531 C274.511735,308.927952 273.959308,309.203046 273.607135,308.790404 C273.383053,308.41853 273.342341,307.964918 273.49665,307.559358 C276.210448,301.36974 280.10506,296.87195 287.576637,296.555592 C291.554112,296.383658 295.089646,295.028819 295.17251,289.678238 C290.497595,289.918945 286.747996,294.554282 281.071807,291.707057 C276.541905,289.423776 271.804842,287.993286 268,283.130997 C271.05216,283.130997 273.220436,282.931554 275.340376,283.186016 C277.609062,283.476581 279.905622,282.923135 281.789962,281.631734 C284.07563,279.905518 286.333676,280.084329 288.55029,280.400688 C293.33569,281.088423 297.872498,279.22466 302.616466,279.492877 C304.909038,279.616669 305.164536,276.171115 307.609026,275.572785 C300.261745,277.635991 294.04694,275.338955 289.199391,270.456034 C283.958239,265.174226 285.850302,257.953005 285.277159,251 C288.35694,252.939414 289.026758,256.219912 291.491964,258.090552 C293.798347,259.816768 296.28427,261.164729 298.673517,262.712134 C299.778371,263.399869 300.56558,263.042247 301.629002,262.134436 C304.204694,259.947437 309.694438,260.697069 311.800567,263.221058 C312.428953,264.424595 314.970117,264.218274 314.562702,265.703783 C313.913601,267.911413 317.421513,269.341903 315.32229,271.515147 L315.32229,271.515147 C314.017181,273.01441 312.518722,274.334862 310.454026,274.857541 Z" id="Path-Copy-3"></path>
                <path d="M311,274.454261 C312.309624,272.912663 313.982277,271.725151 315.865449,271 C315.061413,272.713314 314.223016,274.41281 313.460213,276.146849 C312.790476,277.382944 312.790476,278.876246 313.460213,280.112341 C314.284865,281.390418 315.480611,280.264328 316.545787,280.112341 C321.404364,279.338586 326.269813,278.730636 330.200655,282.785939 C330.667958,283.428432 331.245215,284.057107 331.217727,284.906855 C331.045924,289.832632 331.355169,294.758408 331.011564,299.670368 C330.874122,301.584028 329.925771,302.806837 328.145897,302.32324 C331.087157,306.385451 332.853287,310.993436 331.581948,316.402809 C331.265831,317.74997 331.32768,319.166218 330.894738,320.444294 C330.372458,321.915809 329.863922,323.663666 327.609873,322.744832 C326.668395,320.962433 325.829998,319.117858 324.771694,317.418361 C323.129262,314.786214 321.335643,312.347506 317.576602,313.045267 C316.745078,313.197254 315.748623,313.390693 315.082029,312.478768 C318.236324,306.882865 316.669485,300.789548 316.820671,294.896579 C316.875648,293.038186 315.137006,291.988091 313.975621,290.751465 C313.396117,290.193111 312.845618,289.605107 312.326316,288.989792 C311.721571,288.174586 310.807581,287.248844 311.714699,286.260926 C312.76613,285.12102 313.77633,285.943134 314.662831,286.758339 C315.157622,287.214302 315.514972,287.849886 316.250287,288.001873 C317.212381,285.618433 317.212381,285.618433 316.387729,282.281617 C314.72468,282.281617 313.638888,284.589063 311.680338,283.400798 C312.085792,280.747925 311.329861,278.039784 312.085792,275.386912 C312.271339,274.696059 311.570385,274.530255 311,274.454261 Z" id="Path-Copy-4"></path>
                <path d="M315.272919,271 C316.038077,269.659794 314.742133,268.361037 314.266494,268.098522 C312.267432,267.007014 314.114841,264.444042 313.701242,264.602932 C311.130035,265.604633 312.515592,263.138377 311.7849,262.668614 C313.342884,262.467716 314.834641,263.365285 315.390105,264.837814 C316.823915,268.236688 318.623071,266.454351 320.008628,265.155595 C321.394184,263.856838 322.262742,262.122859 323.758592,260.02965 C319.071136,260.305982 315.445252,258.468379 311.647034,257.21798 C314.85932,255.836324 315.369425,253.432242 315.093692,250.109359 C314.742133,245.342646 315.838171,240.541391 315.403892,235.726319 C315.267763,235.122133 315.549492,234.500985 316.093223,234.206497 C313.852895,233.971616 311.316155,235.284189 309,233.612385 C311.564314,231.166854 314.556014,232.016572 317.327127,232.838658 C319.588135,233.529486 321.90429,234.144323 322.676341,237.315223 C323.076154,238.952486 325.288909,240.299601 327.55681,240.575932 C332.485532,241.163136 335.139459,244.188963 335.959764,248.962585 C336.332003,251.035069 333.967595,252.782864 335.173925,254.979697 C336.063163,255.988306 335.311792,256.492611 334.5811,257.052181 C334.043421,257.473586 332.995637,257.445953 333.16797,258.551278 C332.133973,260.589221 329.838498,260.99681 328.190995,262.212667 C324.020538,265.314485 320.61524,269.625252 315.272919,271 Z" id="Path-Copy-5"></path>
                <path d="M311.648246,283.525208 C313.749237,283.24463 315.100875,281.189391 317.25089,281 C317.874942,283.210474 318.11189,285.512532 317.95122,287.804033 C317.95122,288.610697 318.084283,289.585708 317.20887,289.978518 C316.333457,290.371328 315.913259,289.277071 315.247945,288.919334 C314.078393,288.330118 313.581158,285.545375 312.35558,286.758878 C311.017948,288.077598 313.413079,289.234985 314.393541,290.027619 C317.418969,292.46164 318.154316,295.3516 317.853174,299.146427 C317.517016,303.355107 318.721584,307.718106 316.606586,311.772468 C316.35632,312.419251 315.783987,312.885847 315.100875,313 L315.100875,313 C312.796788,312.516002 312.943857,310.046909 311.669256,308.728189 L310.443677,304.814117 C305.506347,308.167032 303.699495,307.290224 302.487923,301.377028 C301.888391,298.305021 301.840959,295.150511 302.347857,292.061815 C303.005859,287.352133 306.906625,283.771712 311.648246,283.525208 L311.648246,283.525208 Z" id="Path-Copy-6"></path>
                <path d="M327.561635,323.141373 C328.762587,323.160362 329.804228,322.30645 330.033654,321.114872 C331.303997,314.174801 332.17607,307.35271 326.078424,301.974155 C325.549687,301.50223 324.70508,301.051126 325.10335,300.017055 C325.323085,299.961534 325.556553,299.815793 325.728221,299.864373 C327.101565,300.273838 327.644036,302.806964 329.285181,301.890874 C331.049928,300.905384 330.129788,298.726202 330.164121,297.088345 C330.260255,292.389917 330.164121,287.691488 330.164121,283 C334.462687,286.650478 337.607644,290.876981 337.030839,296.970364 C336.948439,297.872573 337.030839,298.740082 336.419702,299.586771 C335.852606,300.24111 335.568906,301.09801 335.632152,301.965523 C335.695399,302.833036 336.100305,303.638655 336.756171,304.201918 C338.816186,306.3464 338.129514,308.24104 336.069499,309.955237 C334.009483,311.669435 333.322812,313.355872 333.281611,316.326223 C333.240411,320.490266 331.475664,324.654308 330.390723,328.859992 C330.219055,329.553999 329.765852,330.171665 328.914379,329.956523 C328.062906,329.741381 328.227707,328.915512 328.124706,328.256206 L327.561635,323.141373 Z" id="Path-Copy-7"></path>
            </g>
        </g>
    </g>
</svg>