<?xml version="1.0" encoding="UTF-8"?>
<svg width="197.4px" height="130.9px" viewBox="0 0 282 187" version="1.1" xmlns="http://www.w3.org/2000/svg" xmlns:xlink="http://www.w3.org/1999/xlink">
    <!-- Generator: Sketch 58 (84663) - https://sketch.com -->
    <title>Infras</title>
    <desc>Created with Sketch.</desc>
    <g id="Page-1" stroke="none" stroke-width="1" fill="none" fill-rule="evenodd">
        <g id="Artboard-Copy-9" transform="translate(-899.000000, -686.000000)">
            <g id="Infras" transform="translate(887.000000, 673.000000)">
                <g id="Sum-of-Investment-in-Infrasstructure" stroke="#979797">
                    <path d="M63.0810432,154.363275 L64.1319906,154.363275 C64.4823065,152.494 64.4823065,149.860022 64.1319906,146.46134 C63.6065169,141.363318 60.9791482,126.579052 61.6213939,107.716368 C62.2636396,88.8536848 64.6574644,62.3439673 68.2190086,45.5204928 C70.5933714,34.3048431 72.4422605,27.8898313 73.7656759,26.2754575 C74.5830795,25.0006693 74.5830795,24.3632752 73.7656759,24.3632752 C72.5395705,24.3632752 69.7954298,27.8048642 66.7593593,45.5204928 C63.7232888,63.2361213 61.6213939,83.3733105 60.8039903,94.7164108 C59.9865867,106.059511 60.3952885,131.931976 61.6213939,139.196658 C62.8474993,146.46134 62.6139554,143.912329 63.0810432,146.46134 C63.392435,148.160681 63.392435,150.794659 63.0810432,154.363275 Z" id="Path-4" fill="#404B09" transform="translate(67.378729, 89.363275) rotate(16.000000) translate(-67.378729, -89.363275) "></path>
                    <g id="Added-Investment-in-Infrastructure" transform="translate(43.500000, 100.000000) scale(-1, 1) rotate(8.000000) translate(-43.500000, -100.000000) translate(7.000000, 49.000000)">
                        <path d="M52.3197902,4.19950057 C52.3463709,4.96199729 51.4281308,5.94840192 52.4360809,7.53542375 C53.444031,9.12244557 57.1970369,15.6711422 58.7405268,18.9571398 C60.2840166,22.2431374 59.4355509,25.2310959 60.676988,28.0505182 C61.918425,30.8699405 63.4752052,34.5371864 64.4864779,36.2195203 C65.30931,37.588368 65.1316838,41.0138963 65.5429403,43.5104183 C64.2676902,45.0120012 63.1788597,46.0579042 62.276577,46.6471024 C59.9010757,48.1983248 58.2730288,49.1953587 57.3924365,49.6382042 C59.3392459,49.7047852 61.0656329,49.4447973 62.5715976,48.8582405 C63.7866373,48.3849958 65.0830141,47.5353209 66.460728,46.3092156 C67.029883,47.6708719 67.2927732,48.4075176 67.3768224,50.814373 C67.4020087,51.5356135 67.4315322,52.9931169 67.4378841,54.8673219 C65.8239079,61.6225815 64.0599555,66.0644911 62.1469211,68.19363 C59.5840551,71.0460082 57.7802581,72.9269011 56.7355301,73.8363089 C59.7941361,72.9961819 62.2779341,71.8940784 64.1869242,70.5299983 C65.2016777,69.8049002 66.1540017,68.8803193 67.043896,67.7562558 C66.8033757,70.8636719 66.4274528,73.637466 65.8487409,75.2974776 C64.0300822,80.5142263 62.5044139,80.4721681 62.667221,85.1424606 C62.830028,89.812753 54.6398693,95.3478147 51.8806178,95.4443375 C49.1213662,95.5408603 45.2306843,91.3524896 43.8986319,91.3990868 C42.5665794,91.445684 41.2078434,92.2817641 40.3198084,92.3128289 C38.987756,92.3594261 36.8873252,97.1139653 35.3063814,98.2189806 C33.7254376,99.3239959 20.0264404,97.1312145 15.4769218,92.3280909 C10.9274031,87.5249672 5.49135846,73.6871652 5.08267956,61.963778 C5.00174736,59.6421522 4.97917899,57.4943797 5.01963094,55.5054749 C5.53709275,56.5424089 6.15239562,57.4599653 6.8652038,58.2582867 C8.27589934,59.8382187 10.2816173,61.3878069 12.8823578,62.9070513 C12.1515557,61.9198651 10.9684173,59.9816553 9.33294256,57.0924219 C7.69746781,54.2031885 7.35863581,48.2689247 8.31644656,39.2896306 L8.26282615,39.2479296 C8.47128593,38.8726516 8.69055379,38.5113521 8.92086025,38.1632893 C12.0881844,33.3765039 12.3769468,33.4618308 13.3604302,31.614289 C13.9986224,30.4154007 16.3804567,26.3024989 19.1644159,22.60801 C19.1774554,22.6611304 19.1922205,22.7138775 19.2071868,22.7666801 C19.2874916,25.6507682 19.6772213,27.9155085 20.3763761,29.5609009 C21.0755309,31.2062934 22.1631504,32.7165217 23.6392347,34.091586 C23.2996982,33.0384213 22.7956602,30.9287719 22.1271208,27.7626379 C21.7593116,26.0207312 21.7688168,23.1166191 22.1556365,19.0503016 C22.7172674,18.4673818 23.2766188,17.945349 23.8238365,17.5065852 C28.1794362,14.0142286 33.4532761,9.53546733 39.0204095,8.00472414 C44.587543,6.47398094 47.091258,7.2452521 48.7673484,6.13690841 C50.4434388,5.02856473 52.2932094,3.43700384 52.3197902,4.19950057 Z" id="Combined-Shape-Copy-6" fill="#314725" transform="translate(36.218948, 51.250000) rotate(6.000000) translate(-36.218948, -51.250000) "></path>
                        <path d="M44.9579058,44.3387644 C44.9726867,44.7625427 44.4620737,45.3107638 45.0225725,46.1927942 C45.5830713,47.0748247 47.670035,50.7144405 48.5283356,52.5407228 C49.3866362,54.3670051 48.9148232,56.0276441 49.6051589,57.5946145 C50.2954946,59.1615849 51.1611857,61.1997564 51.7235321,62.1347591 C51.9535182,62.5171525 52.04295,63.1883324 52.1040596,63.9375773 C50.8378586,65.0455621 49.8369139,65.7488626 49.1005163,66.0483926 C47.6392303,66.6427713 46.6447528,67.0140691 46.1170836,67.1622861 C47.1727067,67.4050642 48.1426604,67.4463023 49.0269445,67.2860004 C49.9112286,67.1256984 50.9250757,66.6631609 52.0684859,65.8983876 C52.1338217,65.8773074 52.1985586,65.8557778 52.2626965,65.8337989 C52.3169506,66.2894718 52.3979223,66.7076804 52.530268,67.0389832 C53.0526388,68.3466417 53.2715943,68.5511339 53.3307889,70.2462444 C53.3651925,71.2314369 53.4141869,74.6884304 53.2506469,77.980439 C51.4437778,79.8276033 49.9591611,80.9628987 48.7957908,81.3874872 C46.7928055,82.1185052 45.4161323,82.5708514 44.6657713,82.7445258 C46.3868349,83.1303132 47.8940673,83.2375631 49.1874684,83.0662755 C50.378353,82.9085644 51.6335192,82.4082841 52.9529671,81.5654345 C52.8323502,82.494157 52.6777724,83.2894277 52.4810565,83.853394 C51.4697406,86.7527436 50.6213501,86.7293686 50.7118835,89.3250104 C50.8024169,91.9206521 46.2480506,94.9969128 44.7136917,95.0505579 C43.1793328,95.1042031 41.8085716,93.7731696 41.0678466,93.7990673 C40.3271216,93.824965 39.9512163,93.6789969 39.9863211,94.6854703 C40.0214259,95.6919436 40.0805497,97.3870566 40.1082659,98.181696 L38.7855409,98.2278866 L38.6820741,95.2614389 C38.7403019,94.9058239 38.5225074,94.736649 38.0286908,94.7539141 C37.2879658,94.7798117 36.3762528,95.9784989 35.4971249,96.5926411 C34.617997,97.2067834 27.0002872,95.9880856 24.4704003,93.3186194 C21.9405134,90.6491531 18.9179209,82.9584097 18.6903918,76.4428287 C18.5966833,73.7593685 18.6434405,71.4938213 18.8538984,69.5712724 C18.8749841,69.5954128 18.8974427,69.6180713 18.9200765,69.6407321 C19.5553706,70.9481782 20.3141941,71.9375968 21.1965471,72.608988 C22.0789,73.2803792 23.2436059,73.8457613 24.6906647,74.3051342 C24.2118186,73.863083 23.3927575,72.9575017 22.2334815,71.5883902 C21.32739,70.5182911 20.5625865,68.2905357 19.9390709,64.9051241 C20.1927745,64.2849023 20.4874684,63.7244739 20.8247193,63.2150614 C22.5859983,60.5546756 22.7465727,60.6020983 23.2934661,59.5752769 C23.8403595,58.5484554 26.6898824,53.6755097 29.1119353,51.7345377 C29.3397805,51.5519483 29.5721444,51.3645074 29.8087376,51.1740355 C29.9113533,52.5426108 30.1714913,53.6272565 30.5897424,54.423608 C31.0079935,55.2199595 31.6376137,55.9598199 32.4786032,56.6431892 C32.2703945,56.1356308 31.9503698,55.1224397 31.5185289,53.6036158 C31.3024351,52.8435942 31.239098,51.6326674 31.3285175,49.9708353 C33.2401366,48.4933845 35.3600018,47.05887 37.5624139,46.4536207 C40.6581739,45.6028686 42.0504345,46.0315235 42.9824714,45.4155314 C43.9145082,44.7995393 44.9431248,43.9149862 44.9579058,44.3387644 Z" id="Combined-Shape-Copy-7" fill="#33790F"></path>
                    </g>
                    <g id="Investment-in-Infrastructure" transform="translate(94.000000, 27.000000) rotate(46.000000) translate(-94.000000, -27.000000) translate(78.000000, 5.000000)">
                        <path d="M23.2799101,2.08550024 C23.2913018,2.41228455 22.8977703,2.83502939 23.329749,3.51518161 C23.7617276,4.19533382 25.3701587,7.00191808 26.0316543,8.41020277 C26.69315,9.81848745 26.3295218,11.0990411 26.8615663,12.3073649 C27.3936107,13.5156888 28.0608022,15.0873656 28.4942048,15.8083659 C28.8467978,16.3949327 28.7707429,17.8626875 28.9469004,18.9325872 C28.400578,19.576438 27.9338548,20.0247784 27.5471044,20.2773296 C26.5290324,20.9421392 25.8312981,21.3694394 25.4539014,21.5592304 C26.2882482,21.5877651 27.0281284,21.4763417 27.6735418,21.2249602 C28.1939612,21.0222626 28.7491975,20.6584309 29.3392509,20.1334652 C29.5841745,20.7159169 29.696893,21.0315137 29.7329239,22.0633027 C29.7437186,22.3724224 29.7563723,22.9971171 29.7590936,23.8004101 C29.0671878,26.6958989 28.3113004,28.5991891 27.4915376,29.5115557 C26.3931665,30.7340035 25.6201106,31.5401005 25.17237,31.9298467 C26.4832012,31.5697922 27.5476861,31.0974622 28.3658246,30.5128564 C28.8004031,30.2023258 29.208265,29.8064267 29.5894101,29.3251592 C29.4870387,30.6567616 29.3259571,31.8448983 29.0780318,32.5560618 C28.2986067,34.7918113 27.6447488,34.7737863 27.7145233,36.7753402 C27.7842977,38.7768941 24.2742297,41.1490634 23.0916933,41.1904303 C21.9091569,41.2317973 20.2417219,39.4367812 19.6708422,39.4567515 C19.0999626,39.4767217 18.5176472,39.8350418 18.1370608,39.8483552 C17.5661811,39.8683255 16.6659965,41.9059851 15.9884492,42.3795631 C15.3109018,42.8531411 9.43990304,41.9133776 7.49010932,39.8548961 C5.54031561,37.7964145 3.2105822,31.8659279 3.0354341,26.8416192 C3.00071491,25.8456624 2.99105779,24.9243602 3.00846426,24.0712713 C3.22988228,24.5177273 3.49370987,24.9112189 3.79937306,25.2535514 C4.40395686,25.9306651 5.26355028,26.5947744 6.37815332,27.2458791 C6.06495244,26.8227993 5.55789313,25.992138 4.85697538,24.7538951 C4.15605763,23.5156522 4.01084392,20.9723963 4.42133424,17.1241274 L4.39797175,17.1069439 C4.48742587,16.9458639 4.58152511,16.7907923 4.68036868,16.6414097 C6.03779332,14.5899302 6.16154864,14.6264989 6.58304152,13.8346953 C6.85655125,13.3208883 7.87732952,11.5582295 9.07044806,9.97488251 C9.07612646,9.99789222 9.08241778,10.0203658 9.08879432,10.0428629 C9.12321067,11.2789007 9.29023772,12.2495036 9.58987547,12.9546718 C9.88951322,13.65984 10.3556359,14.3070807 10.9882435,14.896394 C10.8427278,14.4450377 10.6267115,13.5409022 10.3401946,12.1839877 C10.1825689,11.4374882 10.1866354,10.1929435 10.3523943,8.45035354 C10.5930933,8.20032639 10.8328262,7.9765865 11.0673585,7.78853653 C12.9340441,6.29181225 15.1942612,4.37234314 17.5801755,3.71631034 C19.9660898,3.06027755 21.0391106,3.39082233 21.757435,2.91581789 C22.4757595,2.44081345 23.2685183,1.75871593 23.2799101,2.08550024 Z" id="Combined-Shape" fill="#314725" transform="translate(16.379549, 22.250000) rotate(6.000000) translate(-16.379549, -22.250000) "></path>
                        <path d="M18.194398,27.5255054 C18.1980932,27.6314499 18.0704399,27.7685052 18.2105646,27.9890128 C18.3506893,28.2095204 18.8724303,29.1194244 19.0870054,29.575995 C19.3015806,30.0325655 19.1836273,30.4477253 19.3562112,30.8394679 C19.5287952,31.2312105 19.7452179,31.7407534 19.8858046,31.974504 C19.9431972,32.0699297 19.9655781,32.2372914 19.9808536,32.4241937 C19.6639181,32.7025336 19.4139778,32.8781 19.2300506,32.9529124 C18.8647291,33.1015071 18.6161097,33.1943315 18.4841924,33.2313858 C18.7480982,33.2920803 18.9905866,33.3023898 19.2116576,33.2623144 C19.4327287,33.2222389 19.6861904,33.1066045 19.972043,32.9154112 C19.9883241,32.9101581 20.0044565,32.9047935 20.0204401,32.8993173 C20.0340068,33.012394 20.0542774,33.1174223 20.0874885,33.2005601 C20.2180812,33.5274747 20.2728201,33.5785977 20.2876187,34.0023754 C20.296218,34.2486272 20.3084636,35.1125974 20.2676063,35.9354605 C19.8157302,36.3978189 19.4446586,36.6815584 19.1538692,36.7876861 C18.6531229,36.9704406 18.3089546,37.0835271 18.1213643,37.1269457 C18.5516302,37.2233926 18.9284383,37.250205 19.2517886,37.2073831 C19.5751389,37.1645612 19.9174455,37.0207175 20.2787084,36.7758518 L20.1931496,36.8331723 C20.1629256,37.0647826 20.1243115,37.2633233 20.0751856,37.4041628 C19.8223567,38.1290002 19.610259,38.1231564 19.6328924,38.7720669 C19.6555257,39.4209773 18.5169342,40.1900425 18.1333444,40.2034537 C17.7497547,40.216865 17.4070644,39.8841067 17.2218832,39.8905811 C17.0367019,39.8970555 16.9427256,39.8605635 16.9515018,40.1121818 C16.960278,40.3638002 16.9750589,40.7875784 16.981988,40.9862383 L16.6513067,40.9977859 L16.62544,40.256174 C16.639997,40.1672702 16.5855484,40.1249765 16.4620942,40.1292928 C16.276913,40.1357672 16.0489847,40.435439 15.8292027,40.5889745 C15.6094208,40.7425101 13.7049933,40.4378357 13.0725216,39.7704691 C12.4400499,39.1031025 11.6844017,37.1804167 11.6275195,35.5515214 C11.6040782,34.880253 11.6157957,34.3135885 11.6684911,33.8327654 C11.6737059,33.8397062 11.6793015,33.8453514 11.6849406,33.8509973 C11.8437642,34.1778588 12.0334701,34.4252135 12.2540583,34.5930613 C12.4746465,34.7609091 12.765823,34.9022546 13.1275877,35.0170978 C13.0078762,34.906585 12.8031109,34.6801897 12.5132919,34.3379118 C12.2868793,34.0705173 12.0957543,33.5139904 11.9399169,32.6683312 C12.0030953,32.5120775 12.0767773,32.3719499 12.1611013,32.2445796 C12.6014211,31.5794832 12.6415647,31.5913388 12.778288,31.3346335 C12.9150114,31.0779281 13.6273921,29.8596917 14.2329053,29.3744487 L14.4070254,29.2337859 L14.4273008,29.4305242 C14.4603548,29.6820486 14.5187069,29.887446 14.6023571,30.0467163 C14.7069199,30.2458041 14.8643249,30.4307692 15.0745723,30.6016116 C15.0225202,30.474722 14.942514,30.2214242 14.8345537,29.8417182 C14.7805736,29.6518652 14.7647214,29.3494667 14.7869972,28.9345226 C15.2648348,28.5642422 15.7948592,28.205549 16.345525,28.0542194 C17.119465,27.8415314 17.4675301,27.9486951 17.7005394,27.7946971 C17.9335486,27.6406991 18.1907027,27.4195608 18.194398,27.5255054 Z" id="Combined-Shape" fill="#33790F"></path>
                    </g>
                </g>
                <text id="Investment-in-Infras" font-family="Helvetica-Light, Helvetica" font-size="16" font-weight="300" line-spacing="25" fill="#FFFFFF">
                    <tspan x="100" y="196.5">Investment in Infrastructure</tspan>
                </text>
                <polyline id="Path-17-Copy" stroke="#FFFFFF" points="46 144 46 194 86 194"></polyline>
            </g>
        </g>
    </g>
</svg>
