<?xml version="1.0" encoding="UTF-8"?>
<svg width="218.1px" height="163.8px" viewBox="0 0 303 234" version="1.1" xmlns="http://www.w3.org/2000/svg" xmlns:xlink="http://www.w3.org/1999/xlink">
    <!-- Generator: Sketch 58 (84663) - https://sketch.com -->
    <title>construction</title>
    <desc>Created with Sketch.</desc>
    <g id="Page-1" stroke="none" stroke-width="1" fill="none" fill-rule="evenodd">
        <g id="Artboard-Copy-9" transform="translate(-843.000000, -187.000000)">
            <g id="construction" transform="translate(806.000000, 154.471283)">
                <g id="Sum-of-Investment-in-Real-Estate-Construction" transform="translate(270.500000, 154.000000) scale(-1, 1) rotate(-22.000000) translate(-270.500000, -154.000000) translate(190.000000, 21.000000)" stroke="#979797">
                    <path d="M101.720899,258 L104.723606,258 C105.724508,255.167329 105.724508,251.175839 104.723606,246.025529 C103.222252,238.300064 95.7154847,215.896216 97.5504723,187.311995 C99.38546,158.727775 106.224959,118.555357 116.4008,93.0613221 C123.184694,76.065299 128.467234,66.3440889 132.248421,63.8976916 C134.58386,61.9658972 134.58386,61 132.248421,61 C128.745263,61 120.904861,66.2153312 112.230374,93.0613221 C103.555887,119.907313 97.5504723,150.4229 95.2150335,167.612059 C92.8795946,184.801219 94.0473141,224.007954 97.5504723,235.016742 C101.053631,246.025529 100.386362,242.162797 101.720899,246.025529 C102.61059,248.600684 102.61059,252.592174 101.720899,258 Z" id="Path-4" fill="#404B09" transform="translate(114.000000, 159.500000) rotate(16.000000) translate(-114.000000, -159.500000) "></path>
                    <g id="Added-Investment-in-Real-Estimate-Construction" transform="translate(80.000000, 103.000000) rotate(-8.000000) translate(-80.000000, -103.000000) translate(13.000000, 9.000000)">
                        <path d="M96.8796103,6.37050106 C96.9289745,7.7865664 95.2236715,9.61846071 97.0955788,12.565787 C98.9674862,15.5131132 105.937354,27.6749783 108.803835,33.7775453 C111.670317,39.8801123 110.094595,45.4291781 112.40012,50.6652481 C114.705646,55.901318 117.59681,62.7119176 119.474888,65.8362521 C121.002808,68.378071 120.673212,74.7384582 121.436595,79.3747037 C119.0687,82.165018 117.046509,84.1075006 115.370786,85.2017616 C110.959141,88.0826031 107.935625,89.9342376 106.300239,90.756665 C109.915742,90.8803154 113.12189,90.3974807 115.918681,89.3081609 C118.174783,88.4294339 120.581886,86.85187 123.13999,84.5754692 C124.197959,87.1019408 124.686516,88.4692949 124.84267,92.9409785 C124.889476,94.2813159 124.944347,96.9908182 124.956094,100.474829 C121.957384,113.016645 118.682068,121.263412 115.129996,125.216741 C110.370388,130.514015 107.020479,134.007102 105.08027,135.696002 C110.760539,134.135766 115.373306,132.089003 118.918573,129.555711 C120.802642,128.209439 122.570828,126.492885 124.223132,124.40605 C123.7774,130.177589 123.079326,135.32738 122.004805,138.409601 C118.627296,148.097849 115.793912,148.019741 116.096268,156.693141 C116.398623,165.366541 101.188329,175.645942 96.0640044,175.825198 C90.9396801,176.004455 83.7141281,168.226052 81.2403163,168.31259 C78.7665046,168.399127 76.2431378,169.951848 74.5939299,170.009539 C72.1201182,170.096077 68.2193182,178.925936 65.2832798,180.978107 C62.3472413,183.030278 36.9062465,178.95797 28.4571404,170.037883 C20.0080343,161.117796 9.91252286,135.419021 9.15354776,113.647016 C9.00321817,109.334653 8.96131739,105.345276 9.03649786,101.651039 C9.99703514,103.578129 11.1399184,105.282518 12.4639499,106.76539 C15.0838131,109.699549 18.8087179,112.577356 23.6386644,115.398809 C22.2814606,113.565464 20.0842036,109.965931 17.0468933,104.600212 C14.0095831,99.2344929 13.3803236,88.2137173 15.159115,71.5378854 L15.0601547,71.4593238 C15.4471089,70.762779 15.8541141,70.0921657 16.2815976,69.4461087 C22.163771,60.5563643 22.7000441,60.7148287 24.5265133,57.2836796 C25.7115952,55.0574209 30.1341477,47.4206295 35.3036148,40.5600274 C35.3298454,40.6574044 35.3571255,40.7548542 35.3847754,40.8524058 C35.5339129,46.2085695 36.2576968,50.4145158 37.556127,53.4702446 C38.8545573,56.5259734 40.8744222,59.3306832 43.6157217,61.884374 C42.9851537,59.9284966 42.0490832,56.0105764 40.8075101,50.1306132 C40.1243653,46.8953096 40.142092,41.501179 40.8606903,33.9482214 C41.9036628,32.8678397 42.9423734,31.8984401 43.9585535,31.0836583 C52.0475244,24.5978531 61.8417984,16.2801536 72.1807605,13.4373448 C82.5197226,10.594536 87.1694792,12.0268968 90.2822185,9.96854419 C93.3949578,7.91019163 96.8302461,4.95443571 96.8796103,6.37050106 Z" id="Combined-Shape-Copy-4" fill="#314725" transform="translate(66.978046, 93.750000) rotate(6.000000) translate(-66.978046, -93.750000) "></path>
                        <path d="M78.1274469,76.8561302 C78.1551612,77.6507144 77.1977617,78.678629 78.248697,80.3324361 C79.2996323,81.9862432 83.2126892,88.8105228 84.8220028,92.2348021 C86.4313165,95.6590815 85.5466671,98.7727796 86.8410465,101.710849 C88.135426,104.648919 89.7585968,108.47049 90.8129964,110.22362 C91.2442114,110.940593 91.411898,112.199019 91.5264784,113.603818 C89.1526589,115.681165 87.2756976,117.000019 85.8948416,117.561683 C83.1549304,118.676143 81.290285,119.372326 80.3009054,119.650233 C82.2801987,120.105442 84.0988618,120.182764 85.7568945,119.882198 C87.4149272,119.581631 89.3158905,118.714374 91.4597846,117.280424 C91.5811026,117.241281 91.7013192,117.201312 91.8204344,117.160517 C91.9255621,118.013221 92.0774012,118.797656 92.325626,119.41904 C93.3050714,121.8709 93.7156129,122.254323 93.8266027,125.432655 C93.8911127,127.27998 93.9829828,133.762376 93.6762924,139.935159 C90.2891504,143.397173 87.5050724,145.526283 85.3234814,146.322485 C81.5678839,147.693144 78.9866217,148.541293 77.5796947,148.866933 C80.8066891,149.590284 83.6327498,149.791378 86.0578768,149.470213 C88.2909443,149.174484 90.6445571,148.236346 93.1187151,146.655799 C92.8923132,148.396035 92.602377,149.888107 92.2333546,150.946061 C90.3371372,156.382341 88.7464051,156.338513 88.9161552,161.205341 C89.0859053,166.07217 80.5464684,171.840158 77.6695455,171.940743 C74.7926227,172.041328 72.2224453,169.54564 70.8335859,169.594198 C69.4447266,169.642756 68.7399041,169.369066 68.8057256,171.256204 C68.8715471,173.143341 68.9824043,176.321678 69.0343722,177.811627 L66.5542627,177.898234 L66.3602626,172.336145 C66.4694396,171.669367 66.0610751,171.352164 65.1351688,171.384536 C63.7463095,171.433094 62.0368476,173.680632 60.3884828,174.832149 C58.7401179,175.983666 44.456912,173.698607 39.7133742,168.693358 C34.9698363,163.688109 29.3024752,149.267965 28.8758582,137.051251 C28.7002162,132.021524 28.7877632,127.774836 29.1820187,124.170869 C29.223142,124.213529 29.2646699,124.255422 29.306517,124.29732 C30.4976935,126.748781 31.9204876,128.603941 33.5748994,129.862799 C35.2293111,131.121658 37.4131347,132.181749 40.12637,133.043074 C39.2285334,132.214228 37.6927939,130.516263 35.5191514,127.949179 C33.8198968,125.942349 32.385661,121.764064 31.2164442,115.414321 C31.6934505,114.253951 32.2457343,113.203795 32.8777223,112.249187 C36.1801204,107.260964 36.4811974,107.349881 37.5066225,105.424591 C38.5320477,103.499301 43.8749032,94.3625276 48.4162522,90.7232052 C48.8442361,90.3802297 49.2807231,90.0281248 49.7251678,89.6703223 C49.9151611,92.2383422 50.4029198,94.2720528 51.1871406,95.7652119 C51.9713613,97.2583709 53.1518993,98.6456092 54.7287546,99.9269267 C54.3383634,98.9752547 53.7383169,97.0755213 52.9286153,94.2277265 C52.523374,92.802456 52.404644,90.5314651 52.5724251,87.4147537 C56.1567648,84.6459514 60.1314471,81.9563088 64.2608997,80.8214856 C70.0654496,79.2263255 72.6759383,80.0300534 74.4235074,78.8750683 C76.1710765,77.7200831 78.0997326,76.061546 78.1274469,76.8561302 Z" id="Combined-Shape-Copy-5" fill="#33790F"></path>
                    </g>
                    <g id="Investment-in-Real-State-Construction" transform="translate(106.500000, 222.500000) scale(-1, 1) rotate(-52.000000) translate(-106.500000, -222.500000) translate(80.000000, 186.000000)">
                        <path d="M37.7998501,3.14250041 C37.8188364,3.68714092 37.1629506,4.39171566 37.8829149,5.52530268 C38.6028793,6.6588897 41.2835978,11.3365301 42.3860905,13.6836713 C43.4885833,16.0308124 42.8825364,18.1650685 43.7692771,20.1789416 C44.6560179,22.1928146 45.7680037,24.812276 46.4903414,26.0139431 C47.0781131,26.9917489 46.9511878,29.438785 47.2450091,31.2220418 C46.3340412,32.2943088 45.5563188,33.0413664 44.9118407,33.462216 C43.2150541,34.570232 42.0521635,35.2823991 41.423169,35.5987173 C42.8137471,35.6462751 44.0468807,35.4605695 45.1225697,35.0416004 C45.9900704,34.7037183 46.9156175,34.0971959 47.899211,33.2220331 C48.3068582,34.1929169 48.4948058,34.7187351 48.5548732,36.4388379 C48.5728741,36.9543185 48.5939769,37.9963319 48.5984968,39.3362094 C47.4448321,44.1610425 46.1852398,47.3322721 44.8192294,48.8525928 C42.9886108,50.8900059 41.7001843,52.2335008 40.9539501,52.8830778 C43.1386687,52.2829871 44.9128101,51.4957703 46.2763744,50.5214274 C47.0008354,50.0037595 47.6807484,49.3437467 48.3161135,48.541389 C48.1450288,50.7615329 47.8765677,52.741576 47.4633864,53.9267697 C46.1643444,57.6530188 45.0745814,57.6229772 45.1908721,60.9589004 C45.3071629,64.2948236 39.4570495,68.2484391 37.4861555,68.3173839 C35.5152616,68.3863288 32.7362031,65.3946354 31.784737,65.4279191 C30.833271,65.4612028 29.8627453,66.0584029 29.2284346,66.0805921 C28.2769685,66.1138758 26.7766608,69.5099752 25.6474153,70.2992719 C24.5181697,71.0885685 14.7331717,69.5222961 11.4835155,66.0914935 C8.23385934,62.6606909 4.35097033,52.7765466 4.05905683,44.4026986 C4.00121846,42.7435437 3.98511132,41.2086971 4.01406661,39.7874385 C4.38306887,40.5294437 4.82281024,41.1853205 5.33228843,41.7559191 C6.3399281,42.8844419 7.7725838,43.9912906 9.63025554,45.0764652 C9.10825407,44.3713322 8.26315522,42.9868966 7.09495897,40.9231585 C5.92676272,38.8594203 5.68473986,34.6206605 6.3688904,28.206879 L6.33064507,28.1769936 C6.47952849,27.9089733 6.63613009,27.6509352 6.80061447,27.4023495 C9.06298886,23.9832171 9.26924773,24.0441649 9.97173587,22.7244922 C10.4275077,21.8682932 12.1283021,18.9313847 14.1163958,16.2928214 C14.1268608,16.3297608 14.1373545,16.3672466 14.1479905,16.4047715 C14.2053511,18.4648344 14.4837295,20.0825061 14.9831258,21.2577864 C15.482522,22.4330667 16.2593931,23.5118012 17.3137391,24.49399 C17.071213,23.7417295 16.7111859,22.2348371 16.2336577,19.9733128 C15.9709414,18.7291154 15.9777261,16.6548004 16.2540116,13.7503678 C16.6554072,13.3336424 17.0548335,12.9608788 17.4455975,12.6475609 C20.5567402,10.1530204 24.3237686,6.95390523 28.3002925,5.86051724 C32.2768164,4.76712924 34.0651843,5.31803721 35.2623917,4.52636315 C36.4595991,3.73468909 37.7808639,2.59785989 37.7998501,3.14250041 Z" id="Combined-Shape" fill="#314725" transform="translate(26.299248, 36.750000) rotate(6.000000) translate(-26.299248, -36.750000) "></path>
                        <path d="M28.7887199,55.3794852 C28.7924152,55.4854298 28.6647619,55.6224851 28.8048866,55.8429927 C28.9450113,56.0635003 29.4667522,56.9734042 29.6813274,57.4299748 C29.8959025,57.8865454 29.7779493,58.3017052 29.9505332,58.6934478 C30.1231172,59.0851904 30.3395399,59.5947332 30.4801265,59.8284839 C30.5375192,59.9239096 30.5599001,60.0912713 30.5751755,60.2781736 C30.25824,60.5565135 30.0082998,60.7320798 29.8243726,60.8068923 C29.4590511,60.9554869 29.2104317,61.0483114 29.0785144,61.0853657 C29.3424202,61.1460602 29.5849086,61.1563697 29.8059796,61.1162942 C30.0270506,61.0762187 30.2805124,60.9605843 30.566365,60.769391 C30.5826461,60.764138 30.5987785,60.7587734 30.6147621,60.7532971 C30.6283288,60.8663739 30.6485994,60.9714021 30.6818105,61.0545399 C30.8124032,61.3814545 30.8671421,61.4325776 30.8819407,61.8563552 C30.89054,62.1026071 30.9027856,62.9665772 30.8619282,63.7894404 C30.4100521,64.2517988 30.0389806,64.5355382 29.7481912,64.6416659 C29.2474449,64.8244204 28.9032766,64.937507 28.7156863,64.9809256 C29.1459522,65.0773724 29.5227603,65.1041849 29.8461106,65.061363 C30.1694609,65.0185411 30.5117674,64.8746973 30.8730304,64.6298317 L30.7874716,64.6871522 C30.7572476,64.9187624 30.7186335,65.1173032 30.6695076,65.2581426 C30.4166786,65.98298 30.204581,65.9771363 30.2272144,66.6260467 C30.2498477,67.2749572 29.1112561,68.0440223 28.7276664,68.0574336 C28.3440767,68.0708449 28.0013864,67.7380865 27.8162051,67.744561 C27.6310239,67.7510354 27.5370476,67.7145434 27.5458238,67.9661617 C27.5546,68.21778 27.5693809,68.6415583 27.57631,68.8402181 L27.2456287,68.8517658 L27.219762,68.1101538 C27.234319,68.0212501 27.1798704,67.9789564 27.0564162,67.9832726 C26.871235,67.9897471 26.6433067,68.2894189 26.4235247,68.4429544 C26.2037427,68.59649 24.2993153,68.2918155 23.6668436,67.624449 C23.0343719,66.9570824 22.2787237,65.0343966 22.2218414,63.4055013 C22.1984002,62.7342328 22.2101177,62.1675683 22.262813,61.6867453 C22.2680279,61.6936861 22.2736235,61.6993313 22.2792626,61.7049772 C22.4380861,62.0318387 22.627792,62.2791933 22.8483803,62.4470411 C23.0689685,62.6148889 23.360145,62.7562344 23.7219097,62.8710777 C23.6021981,62.7605649 23.3974329,62.5341696 23.1076139,62.1918917 C22.8812013,61.9244971 22.6900763,61.3679703 22.5342389,60.5223111 C22.5974173,60.3660574 22.6710993,60.2259297 22.7554233,60.0985595 C23.1957431,59.433463 23.2358867,59.4453187 23.37261,59.1886133 C23.5093334,58.931908 24.2217141,57.7136716 24.8272273,57.2284286 L25.0013474,57.0877658 L25.0216227,57.284504 C25.0546768,57.5360285 25.1130289,57.7414258 25.1966791,57.9006961 C25.3012419,58.099784 25.4586469,58.2847491 25.6688943,58.4555914 C25.6168421,58.3287018 25.5368359,58.0754041 25.4288757,57.6956981 C25.3748956,57.5058451 25.3590434,57.2034465 25.3813191,56.7885024 C25.8591568,56.4182221 26.3891811,56.0595289 26.939847,55.9081993 C27.713787,55.6955113 28.0618521,55.802675 28.2948613,55.648677 C28.5278705,55.494679 28.7850247,55.2735407 28.7887199,55.3794852 Z" id="Combined-Shape" fill="#33790F"></path>
                    </g>
                </g>
                <text id="Investment-in-Real-E" font-family="Helvetica-Light, Helvetica" font-size="16" font-weight="300" line-spacing="25" fill="#FFFFFF">
                    <tspan x="31.024" y="53"> Investment in Real Estate </tspan>
                    <tspan x="125.296" y="78">Construction</tspan>
                </text>
            </g>
        </g>
    </g>
</svg>
