<?xml version="1.0" encoding="UTF-8"?>
<svg width="165.9px" height="79px" viewBox="0 0 237 108" version="1.1" xmlns="http://www.w3.org/2000/svg" xmlns:xlink="http://www.w3.org/1999/xlink">
    <!-- Generator: Sketch 58 (84663) - https://sketch.com -->
    <title>energy</title>
    <desc>Created with Sketch.</desc>
    <g id="Page-1" stroke="none" stroke-width="1" fill="none" fill-rule="evenodd">
        <g id="Artboard-Copy-9" transform="translate(-1139.000000, -715.000000)">
            <g id="energy" transform="translate(1105.000000, 708.965980)">
                <g id="Sum-of-Investment-in-Energy-Transitions-and-Efficiency" transform="translate(248.500000, 46.500000) rotate(5.000000) translate(-248.500000, -46.500000) translate(224.000000, 2.000000)" stroke="#979797">
                    <path d="M16.5871105,87.3342529 L18.3136671,87.3342529 C18.889186,86.1120347 18.889186,84.3898181 18.3136671,82.1676031 C17.4503888,78.8342806 13.1339974,69.1676455 14.1891153,56.8343524 C15.2442332,44.5010592 19.1769454,27.1677824 25.0280538,16.1678183 C28.9287927,8.83450886 31.9662533,4.64007809 34.1404357,3.58452597 C35.483313,2.75101061 35.483313,2.33425293 34.1404357,2.33425293 C32.1261197,2.33425293 27.6178886,4.58452271 22.6300585,16.1678183 C17.6422284,27.7511138 14.1891153,40.9177376 12.846238,48.3343801 C11.5033606,55.7510226 12.1747993,72.6676341 14.1891153,77.4176186 C16.2034313,82.1676031 15.8197521,80.5009419 16.5871105,82.1676031 C17.0986829,83.2787106 17.0986829,85.0009272 16.5871105,87.3342529 Z" id="Path-4" fill="#404B09" transform="translate(23.647594, 44.834253) scale(-1, 1) rotate(16.000000) translate(-23.647594, -44.834253) "></path>
                    <path d="M27.75997,31.0285001 C27.7637673,31.1374282 27.6325901,31.2783431 27.776583,31.5050605 C27.9205759,31.7317779 28.4567196,32.667306 28.6772181,33.1367343 C28.8977167,33.6061625 28.7765073,34.0330137 28.9538554,34.4357883 C29.1312036,34.8385629 29.3536007,35.3624552 29.4980683,35.6027886 C29.6156684,35.7984259 29.5902178,36.288138 29.6490705,36.6448247 C29.4671011,36.8585804 29.3113851,37.0081941 29.1823681,37.0924432 C28.8430108,37.3140464 28.6104327,37.4564798 28.4846338,37.5197435 C28.7627494,37.529255 29.0093761,37.4921139 29.2245139,37.4083201 C29.4396518,37.3245262 29.6726396,37.1581219 29.9234775,36.9091071 L29.7808673,37.0461182 C29.8616302,37.2393103 29.8990025,37.3449314 29.9109746,37.6877676 C29.9145748,37.7908634 29.9187953,37.9992651 29.9196993,38.2672394 C29.6886701,39.2329544 29.4368873,39.8666332 29.1638459,40.1705186 C28.7977222,40.5780012 28.5400369,40.8467002 28.39079,40.9766156 C28.8277337,40.8565974 29.182562,40.6991541 29.4552749,40.5042855 C29.6003721,40.4006054 29.7365345,40.2683757 29.8637621,40.1075964 C29.8291041,40.551581 29.7753892,40.9480981 29.6926773,41.1853539 C29.4328689,41.9306038 29.2149163,41.9245954 29.2381744,42.5917801 C29.2614326,43.2589647 28.0914099,44.0496878 27.6972311,44.0634768 C27.3030523,44.0772658 26.7472406,43.4789271 26.5569474,43.4855838 C26.3666542,43.4922406 26.1725491,43.6116806 26.0456869,43.6161184 C25.8553937,43.6227752 25.5553322,44.301995 25.3294831,44.4598544 C25.1036339,44.6177137 23.1466343,44.3044592 22.4967031,43.6182987 C21.8467719,42.9321382 21.0701941,40.9553093 21.0118114,39.2805397 C21.0001624,38.9463758 20.9969774,38.6374243 21.0029368,38.3514958 C21.0754054,38.5040846 21.1638616,38.6362797 21.2664577,38.7511838 C21.4679856,38.9768884 21.7545168,39.1982581 22.1260511,39.415293 C22.0216508,39.2742664 21.852631,38.9973793 21.6189918,38.5846317 C21.3853525,38.1718841 21.336948,37.3241321 21.4737781,36.0413758 C21.4955964,35.9823045 21.5270635,35.9304326 21.5601229,35.8804699 C22.0125978,35.1966434 22.0538495,35.208833 22.1943472,34.9448984 C22.2855413,34.7735839 22.6259576,34.1857638 23.0238001,33.6578729 C23.0254268,33.6661472 23.0274986,33.6735469 23.0295981,33.6809543 C23.0410702,34.0929669 23.0967459,34.4165012 23.1966252,34.6515573 C23.2965044,34.8866133 23.4518786,35.1023602 23.6627478,35.298798 C23.6142426,35.1483459 23.5422372,34.8469674 23.4467315,34.3946626 C23.3942711,34.1462155 23.3955411,33.732268 23.4505413,33.1528202 C23.5305945,33.067183 23.6107285,32.9923667 23.6891195,32.9295122 C24.311348,32.4306041 25.0647537,31.790781 25.8600585,31.5721034 C26.6553633,31.3534258 27.0130369,31.4636074 27.2524783,31.3052726 C27.4919198,31.1469378 27.7561728,30.919572 27.75997,31.0285001 Z" id="Added-Investment-in-Energy-Transitions-and-Efficiency" fill="#314725" transform="translate(25.459850, 37.750000) scale(-1, 1) rotate(45.000000) translate(-25.459850, -37.750000) "></path>
                    <path d="M45.75997,56.0285001 C45.7637673,56.1374282 45.6325901,56.2783431 45.776583,56.5050605 C45.9205759,56.7317779 46.4567196,57.667306 46.6772181,58.1367343 C46.8977167,58.6061625 46.7765073,59.0330137 46.9538554,59.4357883 C47.1312036,59.8385629 47.3536007,60.3624552 47.4980683,60.6027886 C47.6156684,60.7984259 47.5902178,61.288138 47.6490705,61.6448247 C47.4671011,61.8585804 47.3113851,62.0081941 47.1823681,62.0924432 C46.8430108,62.3140464 46.6104327,62.4564798 46.4846338,62.5197435 C46.7627494,62.529255 47.0093761,62.4921139 47.2245139,62.4083201 C47.4396518,62.3245262 47.6726396,62.1581219 47.9234775,61.9091071 L47.7808673,62.0461182 C47.8616302,62.2393103 47.8990025,62.3449314 47.9109746,62.6877676 C47.9145748,62.7908634 47.9187953,62.9992651 47.9196993,63.2672394 C47.6886701,64.2329544 47.4368873,64.8666332 47.1638459,65.1705186 C46.7977222,65.5780012 46.5400369,65.8467002 46.39079,65.9766156 C46.8277337,65.8565974 47.182562,65.6991541 47.4552749,65.5042855 C47.6003721,65.4006054 47.7365345,65.2683757 47.8637621,65.1075964 C47.8291041,65.551581 47.7753892,65.9480981 47.6926773,66.1853539 C47.4328689,66.9306038 47.2149163,66.9245954 47.2381744,67.5917801 C47.2614326,68.2589647 46.0914099,69.0496878 45.6972311,69.0634768 C45.3030523,69.0772658 44.7472406,68.4789271 44.5569474,68.4855838 C44.3666542,68.4922406 44.1725491,68.6116806 44.0456869,68.6161184 C43.8553937,68.6227752 43.5553322,69.301995 43.3294831,69.4598544 C43.1036339,69.6177137 41.1466343,69.3044592 40.4967031,68.6182987 C39.8467719,67.9321382 39.0701941,65.9553093 39.0118114,64.2805397 C39.0001624,63.9463758 38.9969774,63.6374243 39.0029368,63.3514958 C39.0754054,63.5040846 39.1638616,63.6362797 39.2664577,63.7511838 C39.4679856,63.9768884 39.7545168,64.1982581 40.1260511,64.415293 C40.0216508,64.2742664 39.852631,63.9973793 39.6189918,63.5846317 C39.3853525,63.1718841 39.336948,62.3241321 39.4737781,61.0413758 C39.4955964,60.9823045 39.5270635,60.9304326 39.5601229,60.8804699 C40.0125978,60.1966434 40.0538495,60.208833 40.1943472,59.9448984 C40.2855413,59.7735839 40.6259576,59.1857638 41.0238001,58.6578729 C41.0254268,58.6661472 41.0274986,58.6735469 41.0295981,58.6809543 C41.0410702,59.0929669 41.0967459,59.4165012 41.1966252,59.6515573 C41.2965044,59.8866133 41.4518786,60.1023602 41.6627478,60.298798 C41.6142426,60.1483459 41.5422372,59.8469674 41.4467315,59.3946626 C41.3942711,59.1462155 41.3955411,58.732268 41.4505413,58.1528202 C41.5305945,58.067183 41.6107285,57.9923667 41.6891195,57.9295122 C42.311348,57.4306041 43.0647537,56.790781 43.8600585,56.5721034 C44.6553633,56.3534258 45.0130369,56.4636074 45.2524783,56.3052726 C45.4919198,56.1469378 45.7561728,55.919572 45.75997,56.0285001 Z" id="Investment-in-Energy-Transitions-and-Efficiency" fill="#314725" transform="translate(43.459850, 62.750000) rotate(6.000000) translate(-43.459850, -62.750000) "></path>
                </g>
                <text id="Investment-in-Energy" font-family="Helvetica-Light, Helvetica" font-size="16" font-weight="300" line-spacing="25" fill="#FFFFFF">
                    <tspan x="65.728" y="83">Investment in Energy </tspan>
                    <tspan x="34.576" y="108">Transitions and Efficiency</tspan>
                </text>
                <path d="M217,80.5340202 L257,80.5340202 L217,80.5340202 Z" id="Path-17-Copy-2" stroke="#FFFFFF" transform="translate(237.000000, 80.534020) scale(-1, 1) translate(-237.000000, -80.534020) "></path>
            </g>
        </g>
    </g>
</svg>
