<?xml version="1.0" encoding="UTF-8"?>
<svg width="314px" height="196px" viewBox="0 0 314 196" version="1.1" xmlns="http://www.w3.org/2000/svg" xmlns:xlink="http://www.w3.org/1999/xlink">
    <!-- Generator: Sketch 58 (84663) - https://sketch.com -->
    <title>TechnologicalS</title>
    <desc>Created with Sketch.</desc>
    <g id="Page-1" stroke="none" stroke-width="1" fill="none" fill-rule="evenodd">
        <g id="Artboard" transform="translate(-991.000000, -1654.000000)" fill="#FFFFFF" stroke="#FFFFFF">
            <g id="TechnologicalS" transform="translate(993.000000, 1654.000000)">
                <path d="M102.030559,31.0681041 C91.9391859,51.2189954 82.0093124,71.0496925 72.0794389,90.8827614 C73.6089386,92.0923841 75.1408134,93.3020068 76.6703132,94.5116295 C92.1814359,80.7243024 107.692559,66.9369753 122.241807,54.0058713 C121.871307,55.0826727 120.819182,58.1328194 119.748057,61.2375177 C120.372682,61.5055321 121.156432,62.1672669 121.588682,61.9870094 C143.517053,52.8104794 166.024925,53.2990721 187.549547,61.5007885 C202.22467,67.0935147 210.769919,60.4453334 219.597792,51.6316903 C227.582541,43.664783 235.113665,35.3539634 228.147791,22.7477973 C227.311791,21.2322112 227.789166,18.9884796 227.584916,16 C236.21804,29.9225203 238.48379,30.833295 250.192538,23.6870338 C256.058787,20.1079736 261.248161,17.5630223 267.13341,23.174723 C273.301284,29.0544381 277.531159,35.4725539 273.871284,46.6556345 C268.96691,39.6232201 266.06941,30.9661163 261.110411,29.5620052 C255.567162,27.9918675 248.195163,33.1410654 241.530914,35.0503718 C239.811414,35.5413363 237.75229,34.8511399 237.645415,34.8440244 C229.957541,47.158458 222.991667,58.3154487 216.120793,69.3230154 C238.18929,77.1926785 256.215537,71.4623873 272.61966,52.5614395 C276.137034,48.5103893 283.440158,45.5527432 288.724532,45.9298608 C292.714532,46.2121061 296.267531,52.6136193 299.176906,58.5526296 C285.855533,44.6917764 278.751909,53.3536238 268.560785,62.2953446 C251.914413,76.9009459 231.263791,82.6264934 208.824794,77.0978061 C179.935298,69.9800066 151.159802,68.3553172 122.199057,76.9412667 C118.581932,78.0133245 114.124058,76.2558138 113.216808,76.1561978 C98.337435,85.5058699 85.046937,93.4609181 72.2836888,102.179689 C69.4123142,104.141175 68.0680644,108.642869 66.5433147,112.198211 C60.2139406,126.943749 51.0369419,139.326965 35.1315693,151.273768 C34.6138193,144.853281 32.6354446,139.488248 34.2813194,137.922854 C63.2705651,110.341084 70.0654391,69.4985293 94.0196856,39.0207805 C95.7249354,36.8505751 97.4206851,34.6637669 99.2898099,32.6406136 C100.004685,31.8674038 101.192185,31.5306069 102.030559,31.0681041" id="Fill-10" stroke-width="2"></path>
                <path d="M70.141954,45.2115824 C62.6005429,57.4190534 55.1802695,69.7025685 47.4607148,81.7959732 C44.0641108,87.116691 40.1782058,92.1403612 36.3065522,97.1378911 C20.9125727,117.016321 14.2167497,138.722188 21.299738,163.743107 C23.1191777,170.171219 24.4493163,176.962917 24.4516916,183.585892 C24.4516916,187.129076 21.1382212,190.672261 19.3211568,194.217822 C16.3022171,192.316717 11.8628794,191.135655 10.4804853,188.402817 C-2.47173974,162.830577 -4.84936256,137.096743 11.5279695,111.883337 C15.6062696,105.602561 20.0788608,99.5000142 24.9908728,93.8584849 C39.4110008,77.3022361 54.1470368,61.0192711 68.7571846,44.629369 C69.2179826,44.8242322 69.6811559,45.0167191 70.141954,45.2115824" id="Fill-26" stroke-width="2"></path>
                <path d="M150.369349,138.56501 C154.573815,142.315237 157.008181,144.486729 161.227874,148.248693 C164.65007,142.240897 167.853383,136.620449 171.056695,131 C171.703829,131.115422 172.352866,131.228887 173,131.344309 C171.692409,138.027028 171.258449,145.087313 168.740337,151.2477 C167.297609,154.782734 161.783648,159.593274 159.337863,158.93987 C155.765303,157.987152 152.809424,152.937943 150.573006,149.039038 C149.415778,147.022093 150.369349,143.721816 150.369349,138.56501" id="Fill-74"></path>
                <path d="M173.363513,97 C177.236303,100.145231 180.764334,103.890278 185.048919,106.319907 C197.239972,113.232963 202.871032,123.519028 200.448144,138 C198.643907,135.718426 196.807108,134.421991 196.492995,132.833241 C194.401458,122.203611 187.730376,115.305741 179.18419,109.144352 C175.499102,106.488843 173.67188,101.305 171,97.269537 C171.787199,97.1803241 172.576314,97.089213 173.363513,97" id="Fill-84"></path>
                <path d="M188.395948,55 C177.471489,47.1049118 177.376223,36.0453028 187.128329,23 C191.448341,33.3118741 194.891519,43.434907 188.395948,55" id="Fill-88"></path>
                <path d="M228.351696,90.9916539 C230.905552,94.0704845 232.833749,96.1811787 234.504,98.5035302 C235.286987,99.5912139 236.309627,101.531406 235.910816,102.293765 C235.330893,103.399086 233.620395,104.157525 232.284926,104.408379 C229.032237,105.019833 225.664294,104.978677 222.439045,105.692041 C214.611003,107.426456 211.05829,101.786179 214.060351,90 C215.106773,93.5080247 215.79646,95.8244969 216.866665,99.4148327 C221.196877,96.2380126 225.014854,93.439432 228.351696,90.9916539" id="Fill-116"></path>
                <path d="M110.003031,143.094027 C119.789334,144.671271 125.305217,139.626999 128.452709,130 C130.491903,141.395038 126.651269,150.847596 119.946617,151.817927 C114.280767,152.639257 109.867694,150.843961 110.003031,143.094027" id="Fill-130"></path>
                <path d="M262.700859,83 C264.557671,87.2804496 267.097718,91.4208587 267.964831,95.9021559 C268.354221,97.9198452 265.412165,100.613783 263.9826,103 C261.602996,101.179473 257.545051,99.6390271 257.198927,97.4757693 C256.50127,93.1252994 257.824474,88.4376267 258.314817,83.8881518 C259.776831,83.591487 261.238845,83.2966648 262.700859,83" id="Fill-138"></path>
                <path d="M290.981053,86.7834459 C298.918574,93.9781072 299.104892,93.9009189 308.87137,79 C313.388628,84.9632397 309.782046,90.0468926 306.660272,94.1629999 C305.095582,96.2255413 299.620118,97.6867325 297.23601,96.6671298 C293.851869,95.2185041 291.686399,91.2298471 289,88.3254155 L290.981053,86.7834459 Z" id="Fill-144"></path>
                <path d="M129,10 C125.00757,13.216243 121.970545,15.6641719 119.327695,17.791811 C119.46284,19.3551301 119.35585,20.0376523 119.594232,20.5543102 C120.761741,23.0937505 122.023101,25.5893415 123.250675,28.1020909 C121.373651,28.7541094 118.621934,30.5252355 117.784781,29.8484327 C115.415976,27.9343201 112.607948,25.2194831 112.170602,22.4607969 C110.952413,14.7757491 116.226851,10.9341785 129,10" id="Fill-150"></path>
                <path d="M171,2.28364042 C169.214904,4.53750233 167.429809,6.79136423 166.837621,7.54141076 C168.2558,11.8872138 169.173946,14.7050065 170.093799,17.5227992 C167.622654,18.3491532 165.149801,19.1755072 162.676949,20 C162.122307,16.6834171 160.267241,12.7247348 161.315089,10.1991439 C162.938058,6.28699051 166.542381,3.35008375 169.305354,0 C169.870236,0.761213475 170.435118,1.52242695 171,2.28364042" id="Fill-180"></path>
                <path d="M290,18.4061347 C293.49502,16.810506 297.231989,13.5717032 300.424573,14.0471587 C304.150201,14.5986871 308.458016,17.7271842 310.497566,21.0059254 C311.930354,23.30713 309.989096,27.7326698 308.541186,31 C302.140895,15.7017438 301.679681,15.422176 291.461141,21.1010165 C290.973464,20.2033565 290.487677,19.3037947 290,18.4061347" id="Fill-184"></path>
                <path d="M79.0239329,131 C85.7730358,131.30049 91.3604543,131.548971 98,131.845608 C96.668313,137.358436 93.04348,140.561732 87.2312803,139.918376 C81.9555332,139.334733 78.6858167,136.062094 79.0239329,131" id="Fill-190"></path>
                <path d="M135.566402,110 C137.218644,118.209529 139.706417,123.905135 150,116.503948 C149.666917,118.403862 149.335716,120.301708 149.004515,122.201622 C145.180646,123.15468 140.739539,125.935293 137.662755,124.680399 C131.467786,122.149938 132.173471,116.15663 135.566402,110" id="Fill-206"></path>
            </g>
        </g>
    </g>
</svg>