<?xml version="1.0" encoding="UTF-8"?>
<svg width="172.2px" height="52px" viewBox="0 0 246 70" version="1.1" xmlns="http://www.w3.org/2000/svg" xmlns:xlink="http://www.w3.org/1999/xlink">
    <!-- Generator: Sketch 58 (84663) - https://sketch.com -->
    <title>tech</title>
    <desc>Created with Sketch.</desc>
    <g id="Page-1" stroke="none" stroke-width="1" fill="none" fill-rule="evenodd">
        <g id="Artboard-Copy-9" transform="translate(-1112.000000, -617.000000)">
            <g id="tech" transform="translate(1108.000000, 614.000000)">
                <g id="Technology-Spending" transform="translate(26.500000, 36.500000) scale(-1, 1) translate(-26.500000, -36.500000) " stroke="#979797">
                    <path d="M37.7998501,3.14250041 C37.8188364,3.68714092 37.1629506,4.39171566 37.8829149,5.52530268 C38.6028793,6.6588897 41.2835978,11.3365301 42.3860905,13.6836713 C43.4885833,16.0308124 42.8825364,18.1650685 43.7692771,20.1789416 C44.6560179,22.1928146 45.7680037,24.812276 46.4903414,26.0139431 C47.0781131,26.9917489 46.9511878,29.438785 47.2450091,31.2220418 C46.3340412,32.2943088 45.5563188,33.0413664 44.9118407,33.462216 C43.2150541,34.570232 42.0521635,35.2823991 41.423169,35.5987173 C42.8137471,35.6462751 44.0468807,35.4605695 45.1225697,35.0416004 C45.9900704,34.7037183 46.9156175,34.0971959 47.899211,33.2220331 C48.3068582,34.1929169 48.4948058,34.7187351 48.5548732,36.4388379 C48.5728741,36.9543185 48.5939769,37.9963319 48.5984968,39.3362094 C47.4448321,44.1610425 46.1852398,47.3322721 44.8192294,48.8525928 C42.9886108,50.8900059 41.7001843,52.2335008 40.9539501,52.8830778 C43.1386687,52.2829871 44.9128101,51.4957703 46.2763744,50.5214274 C47.0008354,50.0037595 47.6807484,49.3437467 48.3161135,48.541389 C48.1450288,50.7615329 47.8765677,52.741576 47.4633864,53.9267697 C46.1643444,57.6530188 45.0745814,57.6229772 45.1908721,60.9589004 C45.3071629,64.2948236 39.4570495,68.2484391 37.4861555,68.3173839 C35.5152616,68.3863288 32.7362031,65.3946354 31.784737,65.4279191 C30.833271,65.4612028 29.8627453,66.0584029 29.2284346,66.0805921 C28.2769685,66.1138758 26.7766608,69.5099752 25.6474153,70.2992719 C24.5181697,71.0885685 14.7331717,69.5222961 11.4835155,66.0914935 C8.23385934,62.6606909 4.35097033,52.7765466 4.05905683,44.4026986 C4.00121846,42.7435437 3.98511132,41.2086971 4.01406661,39.7874385 C4.38306887,40.5294437 4.82281024,41.1853205 5.33228843,41.7559191 C6.3399281,42.8844419 7.7725838,43.9912906 9.63025554,45.0764652 C9.10825407,44.3713322 8.26315522,42.9868966 7.09495897,40.9231585 C5.92676272,38.8594203 5.68473986,34.6206605 6.3688904,28.206879 L6.33064507,28.1769936 C6.47952849,27.9089733 6.63613009,27.6509352 6.80061447,27.4023495 C9.06298886,23.9832171 9.26924773,24.0441649 9.97173587,22.7244922 C10.4275077,21.8682932 12.1283021,18.9313847 14.1163958,16.2928214 C14.1268608,16.3297608 14.1373545,16.3672466 14.1479905,16.4047715 C14.2053511,18.4648344 14.4837295,20.0825061 14.9831258,21.2577864 C15.482522,22.4330667 16.2593931,23.5118012 17.3137391,24.49399 C17.071213,23.7417295 16.7111859,22.2348371 16.2336577,19.9733128 C15.9709414,18.7291154 15.9777261,16.6548004 16.2540116,13.7503678 C16.6554072,13.3336424 17.0548335,12.9608788 17.4455975,12.6475609 C20.5567402,10.1530204 24.3237686,6.95390523 28.3002925,5.86051724 C32.2768164,4.76712924 34.0651843,5.31803721 35.2623917,4.52636315 C36.4595991,3.73468909 37.7808639,2.59785989 37.7998501,3.14250041 Z" id="Combined-Shape-Copy" fill="#314725" transform="translate(26.299248, 36.750000) rotate(6.000000) translate(-26.299248, -36.750000) "></path>
                    <path d="M32.5247703,31.7313926 C32.5358561,32.0492263 32.1528963,32.4603921 32.5732704,33.121915 C32.9936445,33.7834378 34.5588673,36.5131497 35.2025927,37.8828614 C35.8463182,39.2525731 35.4924584,40.4980524 36.0102102,41.6732802 C36.527962,42.848508 37.1772303,44.3771366 37.5989901,45.0783886 C37.771407,45.3650629 37.838497,45.8681446 37.8843278,46.4297923 C36.9349403,47.2613466 36.1841019,47.7889355 35.6317282,48.0136138 C34.5357637,48.4593977 33.7899056,48.7378711 33.3941537,48.8490339 C34.1858711,49.0311175 34.9133363,49.062046 35.5765494,48.9418196 C36.2397624,48.8215931 37.0001478,48.4746899 37.8577054,47.90111 C37.9062671,47.8854419 37.9543875,47.8694427 38.0020668,47.8531127 C38.043914,48.1936996 38.1046683,48.5077931 38.204042,48.7565567 C38.5958201,49.7373005 38.7600367,49.8906697 38.8044327,51.1620026 C38.8302362,51.90092 38.8669834,54.4938036 38.7443147,56.9628793 C37.3895592,58.3477275 36.2758626,59.1994383 35.4031841,59.5179347 C33.9009451,60.0661982 32.8684402,60.4054578 32.3056695,60.5357136 C33.5964672,60.8250542 34.7268915,60.9054916 35.6969423,60.7770259 C36.5788067,60.660239 37.5076702,60.2929845 38.4835328,59.6752626 L38.5214764,59.6509346 C38.4307376,60.3472476 38.3147556,60.9441456 38.1671334,61.3673648 C37.4086464,63.541877 36.7723536,63.5243458 36.8402537,65.4710771 C36.9081537,67.4178084 33.4923789,69.7250039 32.3416098,69.7652378 C31.1908406,69.8054716 30.1627697,68.8071965 29.607226,68.8266198 C29.0516822,68.846043 28.7697532,68.736567 28.7960818,69.491422 C28.8224104,70.246277 28.8667533,71.5176117 28.8875405,72.1135913 L27.8954967,72.1482342 L27.8178966,69.9233985 C27.8615674,69.6566872 27.6982216,69.529806 27.3278591,69.5427549 C26.7723154,69.5621781 26.0885306,70.4611935 25.4291847,70.9218001 C24.7698387,71.3824068 19.0565564,70.4683835 17.1591412,68.4662838 C15.2617261,66.4641841 12.9947817,60.6961266 12.8241348,55.8094408 C12.7538486,53.7967051 12.7889263,52.097448 12.9467979,50.6554715 C12.9626099,50.67391 12.9794386,50.6908883 12.9963984,50.7078684 C13.472869,51.6884529 14.0419866,52.4305169 14.7037513,52.9340603 C15.365516,53.4376037 16.2390454,53.8616402 17.3243396,54.2061699 C16.9652049,53.8746316 16.3509091,53.1954456 15.4814521,52.1686119 C14.801918,51.3660784 14.2283392,49.6953908 13.7607155,47.1565494 C13.9509633,46.6909174 14.171966,46.2706389 14.4248805,45.8886154 C15.7458397,43.893326 15.8662705,43.9288931 16.2764406,43.1587769 C16.6866106,42.3886608 18.8237529,38.7339516 20.6402925,37.2782226 C20.8111774,37.1412797 20.9854514,37.0006982 21.1628974,36.8578433 C21.239856,37.8842774 21.4349595,38.6977617 21.7486478,39.2950253 C22.0623361,39.8922889 22.5345513,40.4471842 23.1652934,40.9597112 C23.0091369,40.5790424 22.7691184,39.8191491 22.4452377,38.6800311 C22.2831273,38.1098739 22.235641,37.2013703 22.3027789,35.9545203 C23.7359523,34.84769 25.3260872,33.7715419 26.9781514,33.3175348 C29.2999714,32.6794707 30.3441669,33.0009619 31.0431945,32.5389678 C31.7422222,32.0769738 32.5136846,31.4135589 32.5247703,31.7313926 Z" id="Combined-Shape-Copy-2" fill="#33790F"></path>
                </g>
                <text id="Technology-Spending" font-family="Helvetica-Light, Helvetica" font-size="16" font-weight="300" line-spacing="25" fill="#FFFFFF">
                    <tspan x="95" y="52">Technology Spending</tspan>
                </text>
                <path d="M53,49.5 L93,49.5 L53,49.5 Z" id="Path-17-Copy-3" stroke="#FFFFFF" transform="translate(73.000000, 49.500000) scale(-1, 1) translate(-73.000000, -49.500000) "></path>
            </g>
        </g>
    </g>
</svg>
