<?xml version="1.0" encoding="UTF-8"?>
<svg width="766px" height="773px" preserveAspectRatio="none" viewBox="0 0 766 773" version="1.1" xmlns="http://www.w3.org/2000/svg" xmlns:xlink="http://www.w3.org/1999/xlink">
    <!-- Generator: Sketch 58 (84663) - https://sketch.com -->
    <title>Group</title>
    <desc>Created with Sketch.</desc>
    <g id="Page-1" stroke="none" stroke-width="1" fill="none" fill-rule="evenodd">
        <g id="Artboard-Copy-14" transform="translate(-652.000000, -64.000000)">
            <g id="Group" transform="translate(652.000000, 64.000000)">
                <g id="Zero" transform="translate(235.000000, 403.000000)" stroke="#737373">
                    <path d="M173,266.018614 C165.556069,249.397394 173.062529,230.336801 158.846109,216.930711 C160.145819,223.118827 161.182014,229.377194 162.792881,235.483101 C169.618966,261.355107 167.640369,286.186791 154.830852,309.946765 C151.891988,315.399482 149.261302,321.059964 146.947729,326.810129 C139.948944,344.205611 127.045633,352.761354 108.580217,353.487785 C103.138703,353.701529 97.7195209,354.460844 92.2794957,354.729892 C81.3205398,355.273968 72.039446,359.164709 64,367 C65.9458437,364.737003 67.6117956,362.130222 69.8851722,360.269303 C80.0267845,351.961682 92.4224192,350.712101 104.791256,349.441594 C109.701273,348.936381 115.132365,349.393763 119.364985,347.378889 C124.92709,344.728761 131.693624,341.142942 134.185852,336.090808 C144.485276,315.2246 156.097809,294.324014 157.067009,270.451936 C157.646147,256.208806 154.658153,241.835636 153.543052,227.499834 C152.890963,219.104025 152.442839,210.664869 152.5277,202.251124 C152.584273,196.62502 151.166949,192.483168 146.73781,188.613353 C128.226241,172.439053 108.449204,157.497891 94.3905947,136.778165 C93.7667932,135.858916 93.1534133,134.933688 92.9613598,133.610866 C108.053187,147.786734 121.087511,164.40347 142.448616,174.30595 C136.815049,154.457643 124.653154,139.434272 120.599189,121.406526 C121.620496,120.937186 122.643292,120.46934 123.666088,120 C131.104065,134.999455 138.542041,149.997416 146.154205,165.346634 C150.544636,161.177877 153.669599,157.282652 152.365422,150.874813 C152.043844,149.29789 155.013973,147.045356 156.471495,145.103722 C158.12107,146.795739 161.45744,149.006421 161.126929,150.087099 C159.751291,154.578715 157.473448,158.846123 155.146475,162.979007 C152.104884,168.379409 148.259349,173.376238 145.761166,178.996363 C145.109077,180.462678 147.596839,184.498405 149.629033,185.791333 C156.008482,189.849482 158.283347,195.420281 158.578127,202.702528 C158.721051,206.236032 159.888259,210.186561 161.844524,213.098264 C167.281572,221.189151 170.154929,229.822619 170.564346,239.575628 C170.91421,247.9535 172.069509,256.296994 173,266.018614" id="Fill-4"></path>
                    <path d="M200.439792,336.922243 C200.205327,331.61233 200.600611,326.181296 199.595116,321.01942 C197.812577,311.860531 196.673316,302.122949 192.580692,293.961444 C184.918484,278.683669 182.83084,262.211126 178.772785,246.097462 C176.00429,235.102309 172.968263,223.800613 167.670247,213.89705 C159.417366,198.472733 156.337753,184.111594 165.994421,168.163912 C170.682226,160.422594 171.355562,152.358286 165.815566,143.238275 C158.44193,131.10069 161.78757,118.028525 168.095591,105.747389 C163.12222,118.634133 168.036975,130.338072 171.451753,142.463694 C174.364535,152.805389 172.290418,163.097738 167.05703,172.67831 C162.409806,181.189722 162.178346,190.45777 166.765451,198.563948 C176.945157,216.552754 180.163044,236.298572 184.31729,256.042895 C187.312736,270.284407 192.779086,284.011526 197.142247,297.968926 C197.85917,297.877711 198.577596,297.786496 199.296022,297.69528 C199.49141,296.262755 200.046011,294.774903 199.828078,293.408173 C197.142247,276.496003 194.339183,259.601777 191.575197,242.70157 C190.77561,237.81334 189.059203,232.853334 189.409398,228.044357 C190.181931,217.445466 187.411933,207.933679 183.054784,198.513107 C180.77025,193.57254 178.757755,188.361319 177.666589,183.060378 C176.349976,176.663361 177.4201,170.374008 184.070801,167.015499 C189.45599,164.295496 190.38784,160.012874 188.557206,155.179971 C186.634891,150.104825 184.40296,144.926501 181.210624,140.591543 C172.766864,129.126856 172.431698,117.209085 177.642541,104.581033 C179.889501,99.1350448 182.149988,93.6920477 182.963102,87.0572735 C178.912562,91.2935402 174.862022,95.5283116 169.837549,100.782897 C169.669215,98.3485018 168.806503,96.053172 169.526432,94.471114 C172.494824,87.9410128 175.810405,81.5544632 179.247728,75.251652 C184.724599,65.2120139 191.212978,55.6254605 195.706898,45.1805883 C198.709858,38.2003931 198.996928,30.061318 200.585582,22 C205.186213,43.3577824 192.882792,59.8886431 184.837322,77.8669822 C195.400289,71.8931433 202.121631,61.6007947 207.92014,42.9435763 C208.668626,52.9114386 204.080018,62.9809832 197.336132,74.133146 C190.184937,85.9582067 184.449553,98.7208387 179.079393,111.483471 C175.675136,119.5732 178.798336,127.473022 182.924025,134.988545 C186.254636,141.058085 189.271123,147.422205 191.402354,153.983708 C193.257035,159.70035 191.991523,165.070076 186.269666,168.898118 C180.62446,172.675319 179.113962,178.29327 181.207618,184.709726 C182.440064,188.488422 183.547763,192.394221 185.427995,195.857403 C190.333732,204.889189 191.582712,214.483219 192.182402,224.60211 C192.747524,234.178196 195.464917,243.615216 197.023511,253.147938 C198.586614,262.70608 200.417247,272.265718 201.183769,281.900122 C202.506394,298.502758 203.122617,315.163712 203.95527,331.803732 C204.04094,333.521865 203.587039,335.266914 203.382634,337 L200.439792,336.922243 Z" id="Fill-6"></path>
                    <path d="M194.36997,184.915536 C197.989299,189.777388 202.159591,195.379965 206.329883,200.982542 C207.158566,200.491718 207.987249,200.00239 208.815932,199.511566 C209.764065,183.371236 198.013189,170.332973 196.427493,153 C201.67134,163.611078 207.15558,172.300759 210.285165,181.771568 C213.011607,190.024296 215.225908,199.493609 213.93137,207.8451 C209.511727,236.365271 211.030233,264.399106 216.808618,292.434438 C217.861269,297.541702 218.68398,302.699844 219.499225,307.852 C221.005786,317.390149 224.410106,325.246327 234.202004,329.469209 C242.59634,333.09203 247.499755,340.512751 250.662189,348.898659 C254.127727,358.091136 260.95727,361.878562 270.31467,361.886044 C278.343191,361.89203 285.165269,364.675361 290,369 C281.556391,367.517053 271.892901,366.795781 262.944616,363.873283 C257.751536,362.177845 252.439005,357.76791 249.436335,353.117053 C244.607576,345.637972 238.960586,339.846846 230.66181,337.002161 C217.983705,332.658069 213.722333,324.305082 213.991095,310.798441 C214.228502,298.854058 209.708819,286.891718 208.974203,274.835103 C207.740884,254.546711 207.655776,234.179009 207.527367,213.842731 C207.497505,209.354983 207.52886,206.360657 202.819551,203.74642 C195.73767,199.815338 192.918655,191.190003 194.36997,184.915536" id="Fill-12"></path>
                    <path d="M153.978177,77.6315703 C152.568891,75.6359984 150.967478,74.3802378 150.794352,72.9475195 C150.121906,67.3936039 149.769321,61.7885199 149.557136,56.1919639 C149.366065,51.1923739 149.517022,46.1799918 149.368176,41.1750718 C147.593637,55.0619926 140.27274,68.8113981 148.520493,83 C144.942913,73.5945879 140.111226,64.3256253 143.598021,54.1057811 C147.664365,42.1888479 147.120708,31.8581386 136.281346,23.7937679 C135.486446,23.202132 135.02724,22.1510455 134.354794,21.2353424 C133.631678,22.0295203 133.060574,23.1605576 132.182277,23.5123411 C130.597754,24.1476835 128.365065,25.1209512 127.260861,24.4696187 C125.99092,23.7202132 124.624915,20.9368594 125.094677,19.7813038 C126.600027,16.0801148 128.935114,12.7221812 130.949284,9.23206232 C131.700903,9.62861829 132.452522,10.0241082 133.204141,10.4206642 C131.463383,14.2753588 129.722625,18.1300533 127.981866,21.9847478 C136.466084,19.3207872 134.893173,12.6560886 134.246063,5 C135.222535,6.84206642 135.735578,7.35268553 135.717632,7.84305043 C135.317543,18.3592456 141.488843,25.4226322 147.868105,32.6277983 C150.261252,35.3322673 152.277533,39.1837638 152.688179,42.7229192 C153.926451,53.4128741 154.301205,64.2041 154.97365,74.9590816 C155.002153,75.4195982 154.637955,75.9056991 153.978177,77.6315703" id="Fill-28"></path>
                    <path d="M37,54.7252388 C39.5260638,65.8916419 42.4803071,69.0883817 69.5044971,89 C71.387314,85.2553579 73.2603551,81.520362 75.1412168,77.7892245 C77.0240337,74.0561578 79.2118552,70.4407744 80.7446988,66.5726613 C85.2904405,55.1091562 82.9305652,46.8038063 73.9720325,40.057277 C68.9590081,36.2817672 65.0701994,35.6296863 59.6016232,40.2289788 C53.1241857,45.6752048 45.2761826,49.5356009 37,54.7252388 M74.8231111,26.6304599 C66.8389318,18.0114329 58.8528155,9.39047722 50.8666992,0.771450172 L51.5795031,0 C63.7707755,10.1426411 75.960111,20.2852823 88.2172403,30.4838535 C90.8302092,25.0586302 93.3172752,19.8899141 95.8062783,14.7192693 C96.4532254,14.9661333 97.1021094,15.2129974 97.7490565,15.4579328 C96.5888131,20.4800734 95.4305066,25.5022141 93.6969208,33.0103529 C96.8115643,29.4771111 98.13645,27.9727832 99.4593987,26.470384 C100.09085,26.6902473 100.722301,26.9101106 101.351816,27.1319026 C100.588651,31.0624412 99.8274225,34.9929798 99.4942641,36.7036706 C107.323486,52.4181106 114.658781,67.1354512 121.976644,81.8605064 C122.259441,82.4275223 122.350479,83.576983 122.602284,83.5981979 C133.950976,84.5567247 126.621492,91.0523352 125.482555,97.2644377 C131.702157,95.9471865 136.955212,94.8362983 142.651833,93.6289788 C142.37291,96.6106337 142.113356,99.4052119 141.654295,104.328993 C146.771763,101.66749 150.885881,99.5286439 155,97.391727 L154.817925,97.1776495 C151.166742,100.996328 147.773175,105.169873 143.560271,108.21903 C142.979181,108.63947 138.324648,103.474612 135.109282,100.481385 C121.858489,106.273047 114.937705,103.26632 109.806678,88.550908 C107.612094,82.2520173 105.012684,76.0919877 102.593412,69.8625276 C99.2308365,72.2636662 96.6469221,75.5307577 93.6020094,76.034129 C81.1589313,78.0919723 78.0869011,87.7813865 74.7688761,97.4052273 C70.9104371,108.595112 75.00906,117.376144 83.2954063,125 C73.3045288,122.097419 69.3918547,113.680897 68.4504886,105.04837 C67.2360101,93.9028436 61.134563,87.0562233 53.0612831,80.8209773 C43.9555997,73.7911376 33.4979131,67.7256106 33.9705331,53.8279358 C34.0150834,52.5473285 32.0413136,50.6746332 30.5711554,49.9552559 C23.7414086,46.6168053 16.7605783,43.5869347 11.147247,41.0430778 C7.22295119,43.2937837 3.61050711,45.3631987 0,47.4345425 C1.51858239,34.7364726 8.20499363,31.0296545 21.8451176,32.2659034 C19.0132714,33.972737 16.423546,35.5329949 13.6536827,37.2031845 C30.4045762,49.8086804 42.4176476,48.4142842 55.4030767,32.3796923 C51.2114793,30.929366 47.1922721,29.5388271 42.8011672,28.0190702 C53.9212966,27.5349853 64.3789833,27.077901 74.8366699,26.6227454 C74.7572543,29.4732538 73.4517383,33.8840202 74.7921197,34.9293352 C86.038152,43.7007236 89.9566369,54.9484671 86.9136612,68.7593538 C99.7751243,67.5790351 101.270463,65.1547529 94.9714454,55.4055514 C88.6240034,45.5772762 81.5695684,36.2022279 74.8231111,26.6304599" id="Fill-8"></path>
                </g>
                <g id="Business" transform="translate(69.000000, 193.000000)" fill="#FFFFFF">
                    <path d="M91.2442771,322.738232 C73.6954578,320.135897 58.4466946,317.873371 43.2001096,315.610845 C58.7254893,310.629846 74.405513,310.285736 90.198797,314.094608 C103.103942,317.206657 103.093052,317.24752 109.779768,308.500663 C105.737245,302.818539 101.740462,297.962281 98.8915286,292.523185 C98.3491857,291.484402 102.337257,288.133627 105.769916,284 C105.27767,299.680682 105.27767,299.680682 120.075569,299.878546 L120.075569,311.619164 C125.117833,310.317996 130.160096,309.016828 133.821455,308.072675 C131.375467,317.701315 139.920089,321.221995 151,321.716654 C143.932119,328.887055 142.692789,328.852644 130.118713,321.131666 C120.376145,337.808118 115.776032,338.631832 103.62886,325.22443 C95.1299782,329.422577 86.4481371,333.711053 77.766296,337.997379 C55.92883,348.78309 34.0325559,345.935576 12.5370491,337.388734 C7.42944307,335.358482 3.56987898,330.263497 0,325.334115 C12.8332684,337.332816 28.6918949,339.02971 44.8946586,339.311451 C61.4110664,339.597492 75.8626509,333.79493 91.2442771,322.738232" id="Fill-22"></path>
                    <path d="M346.86675,216.868829 C348.590226,203.425546 350.313702,189.982264 352.308957,174.416128 C345.874646,179.476975 341.263243,183.101518 336.651839,186.72824 C335.876275,186.255284 335.10071,185.784507 334.322937,185.311551 C337.787566,176.724241 341.252195,168.13475 345.00186,158.832557 C345.019537,158.841275 346.714288,159.708724 350.724685,161.761832 C350.170079,154.99878 349.829803,149.569595 349.248682,144.164384 C348.749316,139.524185 347.973752,134.912319 347.321924,130.287377 C348.552663,129.304413 349.783402,128.321449 351.01414,127.338486 C344.425158,125.989362 337.836176,124.642419 327.855482,122.602387 C336.32482,120.479535 341.965891,119.065026 349.520461,117.173202 C344.570991,105.484433 340.666655,93.4578393 334.636698,82.5798524 C320.983673,57.9578093 318.65698,31.6880486 320.594786,4.52686409 C320.707475,2.94671172 321.544908,1.41668833 324.560991,0 C324.560991,5.78662694 324.799626,11.5841515 324.516799,17.3577013 C323.518067,37.8473736 329.291712,56.6130451 338.061554,74.9646078 C344.604135,88.6607146 347.905255,104.13531 355.903952,116.822299 C368.054459,136.100158 358.122375,155.397633 359.081335,174.529464 C359.664665,186.179001 355.596819,198.087901 353.329785,209.824619 C352.781808,212.660175 351.091476,215.279958 349.927025,218 C348.906196,217.622943 347.887578,217.245886 346.86675,216.868829" id="Fill-24"></path>
                    <path d="M671.029687,172.812318 C673.823946,168.250677 677.411345,163.979282 679.180326,159.047251 C680.843985,154.398968 682.838656,147.391888 680.661283,144.39628 C677.271632,139.732835 670.655686,137.163934 664.989789,134.670843 C663.55182,134.040531 660.53617,137.051301 656.314689,139.518399 C656.645701,134.939429 656.991759,131.785702 657.073438,128.627642 C657.187358,124.152642 657.107829,119.673309 657.112128,115.196142 C652.329646,115.802628 647.547164,116.409114 641,117.240867 C645.591183,112.7637 649.746031,108.669919 656.682242,110.409234 C667.998991,113.246723 667.741059,121.696373 664.79634,131.261525 C677.589748,133.481697 688.762485,137.313389 688.996773,152.631494 C689.164428,163.528749 682.780621,170.104791 674.326913,175 C673.228554,174.270051 672.128046,173.542267 671.029687,172.812318" id="Fill-50" transform="translate(665.000000, 142.500000) rotate(-23.000000) translate(-665.000000, -142.500000) "></path>
                    <path d="M227,103.285807 C233.076002,115.245745 239.117196,127.22547 245.27804,139.141438 C245.87411,140.291263 247.198953,141.056347 247.362111,141.210243 C252.95734,135.804088 258.211026,130.725511 263.466887,125.646934 C264.145624,126.343865 264.824361,127.038596 265.503098,127.735526 C262.289975,132.01824 259.074675,136.300953 255.859376,140.583666 C256.699096,141.298184 257.538815,142.012703 258.378535,142.727221 C261.678676,139.097468 264.980993,135.467714 269.353626,130.657357 C273.04317,146.11074 260.023167,148.957821 253.431586,157 C238.982319,141.656543 225.435859,126.273512 227.239298,103 L227,103.285807 Z" id="Fill-56"></path>
                    <path d="M394,221 C399.496315,207.317899 406.332178,193.994002 410.116239,179.852607 C413.924415,165.625507 414.70052,150.58091 417.462928,136 C422.992129,173.912562 413.244775,213.418367 394,221" id="Fill-62"></path>
                    <path d="M201.77159,82.6543268 C198.248725,87.0809941 195.063405,91.8493241 191.061993,95.7912574 C189.102947,97.7195162 184.937035,99.6499104 183.024989,98.7893475 C180.901442,97.8369628 179.262851,93.7733121 179.053487,90.9439179 C178.203214,79.4320205 187.547673,72.6436099 203,74.2280706 C202.5065,77.1834529 202.023681,80.0576903 201.538726,82.9319277 C201.53659,82.9319277 201.77159,82.6543268 201.77159,82.6543268" id="Fill-70"></path>
                    <path d="M95,267.046119 C90.3218499,274.847656 83.7230136,275.476319 76.7513127,271.929174 C68.6285007,267.797023 67.4362011,260.484446 70.65541,252.556304 C71.9647718,249.327856 74.349371,246.394094 76.7751587,243.835784 C77.934941,242.6112 80.3325471,242.574092 82.1686885,242 C82.5827416,244.19159 83.0856753,246.370083 83.3544847,248.579136 C83.4303583,249.18597 82.7041394,249.851742 82.5263784,250.539343 C81.3145684,255.206294 80.1504505,259.886343 78.9711578,264.564209 C83.8530827,265.319478 88.7350076,266.074747 95,267.046119" id="Fill-82"></path>
                    <path d="M565.438619,83.7766122 C563.573656,86.069324 561.706547,88.3642257 560.375964,90 C563.382653,80.5160125 566.683358,70.7539214 569.486168,60.8451143 C570.230865,58.2151745 570.052739,54.9261075 569.179275,52.3312044 C568.507545,50.3275451 566.084596,48.9370274 564.440682,47.2749756 C562.983478,48.9611151 560.50473,50.4983489 560.245052,52.3596717 C559.099033,60.553872 558.594699,68.8400435 557.837125,77.3430044 C552.270136,69.6064706 552.843145,47.4545385 559.019628,42.1640019 C564.811957,37.2041239 568.245721,41.6559703 570.359631,46.6355564 C576.03178,59.986716 571.730991,72.1356799 565.327022,83.8992405 L565.438619,83.7766122 Z" id="Fill-86"></path>
                    <path d="M387.051088,90.4792612 C388.083113,91.4596584 388.319127,91.7539989 388.613072,91.9531766 C391.737042,94.068887 394.869594,96.1713189 398,98.2781769 C396.330736,99.9446308 394.167988,103.312948 393.082323,102.976559 C389.070082,101.732804 384.186734,100.221267 381.869504,97.0631926 C376.679337,89.9901692 379.342006,82.3638742 383.450799,75.5055201 C385.838833,71.5197519 388.709624,67.8416027 393.708833,65 C392.400027,69.1030618 390.906701,73.1574357 389.829618,77.324677 C388.664566,81.8371597 387.88572,86.4558705 387.051088,90.4792612" id="Fill-90"></path>
                    <path d="M283,52.2826936 C280.872294,50.6922132 278.746753,49.0995542 274.621212,46.0144581 C273.748918,52.5528574 273.090909,57.4898826 272.088745,65 C269.463203,59.2198023 264.538961,53.6749085 265.461039,49.411114 C268.097403,37.218884 262.461039,32.220854 251,29.4843563 C263.17316,26.7631098 276.028139,35.6632635 283,52.2826936" id="Fill-92"></path>
                    <path d="M289,44.7453681 C289.312675,38.0011301 288.481093,30.8933633 290.441408,24.673231 C291.372779,21.7181663 297.706102,18.8233181 301.43824,19.0084278 C303.897503,19.1288606 308.314863,25.0523713 307.982231,27.9271474 C306.926677,37.0644303 304.057167,45.9920709 301.888402,55 C300.145408,54.5762549 298.400196,54.15474 296.654984,53.7309949 C298.322581,47.2209317 300.420384,40.7800059 301.469285,34.1695821 C301.988192,30.8978237 300.571177,27.3160624 300.027878,23.874806 C297.313596,26.8097985 293.545978,29.3277366 292.175532,32.8002163 C290.820609,36.2414727 291.880598,40.6484219 291.880598,44.631626 C290.920399,44.6695401 289.960199,44.7074541 289,44.7453681" id="Fill-94"></path>
                    <path d="M186.820885,154.350743 C186.247252,149.487506 185.673618,144.626505 184.990093,138.83534 C174.194356,146.612047 181.829615,153.357972 185.790103,160.12402 C184.856026,160.750092 183.91975,161.373928 182.985673,162 C180.181243,157.331292 175.552614,152.845934 175.073488,147.940214 C174.565789,142.725929 176.739442,136.085095 180.025197,131.944077 C183.790079,127.201582 191.629736,131.740604 191.974795,139.043285 C192.21216,144.07422 190.713241,149.190122 189.987957,154.265776 C188.932999,154.294844 187.875843,154.323911 186.820885,154.350743" id="Fill-110"></path>
                    <path d="M268,82.1497353 C251.787885,76.9569674 242.434321,80.2560277 240.061976,92 C231.792724,89.9484835 229.702958,85.4104096 234.638223,80.2283045 C243.238245,71.1969404 259.180925,72.1160709 268,82.1497353" id="Fill-120"></path>
                    <path d="M189.195384,214 C184.957602,207.636245 180.71982,201.274641 176.482039,194.910887 C175.715515,195.233483 174.951181,195.55608 174.186847,195.878677 C174.90519,198.035772 175.621342,200.192868 176.322164,202.300499 C175.404525,202.827406 174.462796,203.550022 174.324822,203.423135 C169.789191,199.283145 165.27546,195.115198 161.015778,190.71068 C160.77706,190.463356 163.321919,186.882534 163.597868,187.00297 C169.565804,189.616002 176.543361,191.401036 180.934447,195.700173 C185.586152,200.255236 187.749939,207.257732 191,213.191358 L189.195384,214 Z" id="Fill-126"></path>
                    <path d="M510.806946,122.277674 C504.749905,117.943715 501.400178,115.546559 498.05045,113.151476 C497.141457,114.099141 496.234649,115.046806 495.325656,115.99447 L512,126.974524 C510.997048,127.982324 509.991912,128.992199 508.986775,130 C501.236297,129.326059 494.412292,126.630295 491.462435,119.121556 C490.315268,116.197689 491.639426,112.40081 491.836083,109 C495.498277,109.385702 499.95147,108.691024 502.617267,110.445344 C505.645788,112.436062 507.0792,116.61657 510.806946,122.277674" id="Fill-146"></path>
                    <path d="M447.116544,89 C446.689937,96.5827137 465.000903,90.9671939 456.953356,102.851201 C455.284204,105.315894 447.922128,106.951422 445.621349,105.3843 C438.768716,100.714028 443.014076,94.8497589 447.116544,89" id="Fill-152"></path>
                    <path d="M459.697311,31 C466.365215,35.0298296 466.680402,41.6417979 465.411136,47.9955524 C464.8553,50.7745263 460.632223,55.3567642 459.135086,54.9779094 C452.822832,53.3799466 446.908821,50.2221179 442,45.502307 C447.402897,46.7616287 452.805795,48.0209505 458.206563,49.2802722 C458.689991,43.3455862 459.175549,37.4130166 459.697311,31" id="Fill-156"></path>
                    <path d="M575,86.6359228 C588.171825,78.8338844 596.325311,80.8533901 597.9518,92.8937621 C598.357896,95.8945461 596.133836,100.573141 593.69305,102.3079 C591.532113,103.845528 587.386986,102.362659 584.11928,102.213715 C584.079301,101.087874 584.037219,99.9620321 583.99724,98.8340001 C586.780998,96.7816391 589.562652,94.7270878 592.552614,92.521402 C590.252805,79.4384219 581.068298,87.9698479 575.16833,86.4672656 C575.109415,86.513263 575,86.6359228 575,86.6359228" id="Fill-158"></path>
                    <path d="M407,21.1472918 C401.059484,23.2282167 395.118968,25.3091415 388.911203,27.4842646 C390.853497,31.4534361 392.118198,34.0374652 393.385003,36.6214943 C392.560106,37.4136159 391.73521,38.2078784 390.912418,39 C387.745406,35.7180475 382.943331,32.8385785 382.036366,29.0042817 C381.512388,26.7863413 386.766893,21.5412117 390.306372,20.3273389 C395.346236,18.5996575 401.200474,19.3232712 406.705394,19 C406.804298,19.7150503 406.901097,20.4322415 407,21.1472918" id="Fill-162"></path>
                    <path d="M145.730419,146.209268 C143.270762,150.100689 142.109876,151.934795 139.863715,155.48719 C137.9378,150.73873 136.721315,147.735935 135,143.497066 C158.217736,139.641443 158.969421,159.142767 167,170 C160.099173,162.282436 153.20057,154.564873 145.730419,146.209268" id="Fill-168"></path>
                    <path d="M172.567246,274.498901 C169.799114,279.858279 167.030982,285.2155 164.26285,290.574878 C164.956913,291.118365 165.648946,291.661851 166.340979,292.205337 C170.698148,286.341293 175.053288,280.477249 179.410457,274.613205 C180.272962,275.290406 181.137496,275.969764 182,276.649122 C177.931009,282.707268 174.083224,288.95736 169.628642,294.676905 C168.603784,295.992487 163.962496,296.341871 163.623582,295.6582 C162.200957,292.787644 160.242565,288.536805 161.301923,286.296003 C163.627641,281.378746 167.666191,277.375927 171.002561,273 C171.524123,273.498196 172.045684,273.998548 172.567246,274.498901" id="Fill-172"></path>
                    <path d="M456.384052,155.457534 C460.072126,155.81788 463.758078,156.180411 467.44403,156.540757 C467.630768,157.700417 467.815384,158.857893 468,160.01537 C463.545876,160.779741 459.013237,162.358713 454.67158,161.926298 C452.827543,161.740665 449.462016,156.016617 450.073159,155.079716 C453.385635,149.995556 457.727292,145.618986 461.714571,141 C463.132082,142.393339 464.549592,143.788863 465.964981,145.182202 C461.824916,147.582327 457.684851,149.982453 453.542665,152.380394 C454.489086,153.406835 455.43763,154.431093 456.384052,155.457534" id="Fill-188"></path>
                    <path d="M129,194.95982 C124.686792,196.050939 121.254372,196.919023 116.59593,198.097606 C118.669545,201.432187 120.169984,203.844019 122.323269,207.309796 C119.539268,208.029191 116.520687,209.485474 115.951936,208.838237 C113.455631,205.99783 109.784203,202.416162 110.009933,199.348348 C110.483523,192.875981 118.007847,191.240396 129,194.95982" id="Fill-192"></path>
                    <path d="M337,69.1399006 C342.357164,67.5895981 347.677054,65.2871038 353.0922,65.0006587 C354.496204,64.9263141 356.198403,71.1625095 358,75 C350.22414,73.3469272 344.529435,72.1355484 338.836801,70.921983 C338.223844,70.3294133 337.610887,69.7346569 337,69.1399006" id="Fill-196"></path>
                    <path d="M547,140.500433 C547.302383,134.032959 560.883148,137.467758 550.935398,127 C552.535602,127.173834 554.135805,127.347669 555.736009,127.521503 C557.289862,131.15108 559.799423,134.736674 559.998069,138.433271 C560.099599,140.30775 556.17303,143.773964 553.813557,143.987592 C551.345933,144.209597 548.575925,141.390549 547,140.500433" id="Fill-200"></path>
                    <path d="M303.287825,149 C309.345219,153.365152 315.207551,160.721641 322.275908,149.740666 C322.850605,150.768042 323.425303,151.790639 324,152.818015 C322.382877,156.026772 319.752693,162.198195 319.299647,161.995109 C313.353418,159.364549 307.715511,155.830854 302,152.521749 C302.429974,151.348629 302.857851,150.17312 303.287825,149" id="Fill-210"></path>
                </g>
                <g id="PhysicalMS" transform="translate(609.000000, 647.000000)">
                    <path d="M2.96195259,30.3892385 C3.2787535,30.6397842 3.59604633,30.8903299 3.91284724,31.1408756 C7.12562163,28.285146 10.338396,25.4294165 13.35194,22.751034 C13.2751994,22.9740688 13.0572758,23.6058369 12.8354168,24.2489042 C12.9647936,24.3044172 13.1271295,24.4414805 13.2166601,24.4041442 C17.7586209,22.5034359 22.4206119,22.6046367 26.8789451,24.3034347 C29.9185613,25.46184 28.243905,24.5103985 32.7968254,25.9236301 C37.3678099,27.5536509 41.1015348,26.3667521 44.4992737,22.4518529 C45.2278174,21.6127705 46.7404926,21.0001618 47.8350298,21.0782731 C48.661467,21.1367337 49.3973896,22.4626608 50,23.692791 C47.2407822,20.8218322 45.7694289,22.6159358 43.6585707,24.4680088 C40.2106553,27.4932252 35.9333511,28.6791414 31.285626,27.5340002 C25.3018276,26.0597108 19.3416416,25.7231936 13.3430854,27.5015767 C12.5938807,27.7236289 11.670534,27.3596008 11.4826179,27.3389676 C8.40069608,29.2755384 5.64787331,30.9232447 3.00425831,32.7291387 C2.40951872,33.1354158 2.13108811,34.0678387 1.81527106,34.8042465 C0.504285947,37.8584476 -1.39651948,40.4233476 -4.69095374,42.8978547 C-4.7981938,41.5679975 -5.20796888,40.4567537 -4.86706356,40.1325181 C1.13739583,34.4195852 2.54479861,25.9599838 7.50637303,19.6472151 C7.85957652,19.1977066 8.21081231,18.7447593 8.59795876,18.3257094 C8.74602874,18.1655567 8.99199218,18.0957969 9.16564236,18 C7.07544509,22.1737964 5.01869884,26.2812718 2.96195259,30.3892385 Z" id="Fill-10" stroke="#000000" stroke-width="2" transform="translate(22.500000, 30.448927) rotate(113.000000) translate(-22.500000, -30.448927) "></path>
                    <path d="M52,59.1682836 C45.4057237,63.1711761 38.4291705,62.552983 31.7229776,59.6574305 C26.635174,57.4599568 21.3688069,54.7770234 22.0616838,47.8036086 C31.1080651,45.5999899 40.1116918,47.9252808 47.519564,54.8175808 C42.6442762,57.6602858 39.8023493,53.4988508 36.4926363,52.4627935 C32.8195087,51.3124382 29.2193155,49.9384027 24.8407361,48.3996795 C27.3242784,54.6049617 27.3242784,54.6049617 52,59.1682836" id="Fill-44" fill="#000000" transform="translate(37.000000, 54.500000) rotate(-6.000000) translate(-37.000000, -54.500000) "></path>
                </g>
                <g id="BasicCS" transform="translate(235.000000, 647.000000)">
                    <path d="M17.1333942,38.7681218 C17.5365954,39.0869981 17.9404226,39.4058744 18.3436238,39.7247507 C22.4326093,36.0901859 26.5215949,32.455621 30.3570146,29.0467705 C30.2593447,29.330633 29.9819874,30.1347015 29.6996214,30.9531508 C29.8642828,31.0238037 30.070892,31.1982479 30.1848402,31.150729 C35.9655176,28.7316457 41.8989606,28.8604467 47.5732029,31.0225532 C51.4418053,32.4968873 49.3104245,31.2859617 55.1050505,33.0846202 C60.9226671,35.159192 65.6746807,33.6485936 69.9990757,28.6659947 C70.9263131,27.5980716 72.851536,26.8183877 74.2445834,26.9178021 C75.2964125,26.9922066 76.2330413,28.6797501 77,30.2453704 C73.4882682,26.5914228 71.6156368,28.8748274 68.92909,31.2320112 C64.540834,35.0822866 59.0969923,36.5916345 53.1817059,35.1341821 C45.5659624,33.2578138 37.9802712,32.8295191 30.345745,35.0929158 C29.3922118,35.3755277 28.2170433,34.9122192 27.9778774,34.8859588 C24.0554314,37.3506852 20.5518388,39.447766 17.1872378,41.7461766 C16.4302966,42.2632564 16.0759303,43.4499765 15.6739813,44.3872228 C14.0054548,48.2743878 11.5862479,51.538806 7.39333161,54.6881787 C7.25684426,52.9956332 6.73531234,51.5813229 7.16919184,51.1686594 C14.8112311,43.8976539 16.602471,33.1308885 22.917202,25.0964555 C23.3667338,24.5243539 23.8137611,23.9478755 24.306493,23.4145392 C24.4949457,23.2107085 24.80799,23.1219233 25.0289994,23 C22.3687483,28.3121045 19.7510713,33.5398005 17.1333942,38.7681218 Z" id="Fill-10-Copy" stroke="#000000" stroke-width="2" transform="translate(42.000000, 38.844089) scale(1, -1) rotate(-105.000000) translate(-42.000000, -38.844089) "></path>
                    <path d="M43.6505923,87 L45,85.7483709 C42.8102526,82.498914 40.6196666,79.249457 38.4299193,76 C37.9535591,76.3887218 37.4763602,76.7783626 37,77.1670844 L43.6505923,87 Z M46.355488,89.9860174 C38.3825544,87.9685907 34.0670108,80.0502135 35.1704119,71 C36.3913087,72.1389999 37.8401299,73.9209257 39.6635244,75.113652 C46.3952423,79.5174266 50.246103,87.3534233 48.6347311,93.956399 C48.4792479,94.5939523 48.0914232,95.1733021 47.2486333,97 C46.8404898,93.7961152 46.5940135,91.8619645 46.355488,89.9860174 L46.355488,89.9860174 Z" id="Fill-42" fill="#000000"></path>
                    <path d="M24,26 C23.047986,39.879338 11.6595447,50.187018 0,52 C7.61821366,43.74759 15.8101576,34.8727506 24,26" id="Fill-170" fill="#000000"></path>
                </g>
                <g id="TechnologicalS" transform="translate(427.000000, 372.000000)" stroke="#FFFFFF">
                    <path d="M102.030559,31.0681041 C91.9391859,51.2189954 82.0093124,71.0496925 72.0794389,90.8827614 C73.6089386,92.0923841 75.1408134,93.3020068 76.6703132,94.5116295 C92.1814359,80.7243024 107.692559,66.9369753 122.241807,54.0058713 C121.871307,55.0826727 120.819182,58.1328194 119.748057,61.2375177 C120.372682,61.5055321 121.156432,62.1672669 121.588682,61.9870094 C143.517053,52.8104794 166.024925,53.2990721 187.549547,61.5007885 C202.22467,67.0935147 210.769919,60.4453334 219.597792,51.6316903 C227.582541,43.664783 235.113665,35.3539634 228.147791,22.7477973 C227.311791,21.2322112 227.789166,18.9884796 227.584916,16 C236.21804,29.9225203 238.48379,30.833295 250.192538,23.6870338 C256.058787,20.1079736 261.248161,17.5630223 267.13341,23.174723 C273.301284,29.0544381 277.531159,35.4725539 273.871284,46.6556345 C268.96691,39.6232201 266.06941,30.9661163 261.110411,29.5620052 C255.567162,27.9918675 248.195163,33.1410654 241.530914,35.0503718 C239.811414,35.5413363 237.75229,34.8511399 237.645415,34.8440244 C229.957541,47.158458 222.991667,58.3154487 216.120793,69.3230154 C238.18929,77.1926785 256.215537,71.4623873 272.61966,52.5614395 C276.137034,48.5103893 283.440158,45.5527432 288.724532,45.9298608 C292.714532,46.2121061 296.267531,52.6136193 299.176906,58.5526296 C285.855533,44.6917764 278.751909,53.3536238 268.560785,62.2953446 C251.914413,76.9009459 231.263791,82.6264934 208.824794,77.0978061 C179.935298,69.9800066 151.159802,68.3553172 122.199057,76.9412667 C118.581932,78.0133245 114.124058,76.2558138 113.216808,76.1561978 C98.337435,85.5058699 85.046937,93.4609181 72.2836888,102.179689 C69.4123142,104.141175 68.0680644,108.642869 66.5433147,112.198211 C60.2139406,126.943749 51.0369419,139.326965 35.1315693,151.273768 C34.6138193,144.853281 32.6354446,139.488248 34.2813194,137.922854 C63.2705651,110.341084 70.0654391,69.4985293 94.0196856,39.0207805 C95.7249354,36.8505751 97.4206851,34.6637669 99.2898099,32.6406136 C100.004685,31.8674038 101.192185,31.5306069 102.030559,31.0681041" id="Fill-10" stroke-width="2"></path>
                    <path d="M70.141954,45.2115824 C62.6005429,57.4190534 55.1802695,69.7025685 47.4607148,81.7959732 C44.0641108,87.116691 40.1782058,92.1403612 36.3065522,97.1378911 C20.9125727,117.016321 14.2167497,138.722188 21.299738,163.743107 C23.1191777,170.171219 24.4493163,176.962917 24.4516916,183.585892 C24.4516916,187.129076 21.1382212,190.672261 19.3211568,194.217822 C16.3022171,192.316717 11.8628794,191.135655 10.4804853,188.402817 C-2.47173974,162.830577 -4.84936256,137.096743 11.5279695,111.883337 C15.6062696,105.602561 20.0788608,99.5000142 24.9908728,93.8584849 C39.4110008,77.3022361 54.1470368,61.0192711 68.7571846,44.629369 C69.2179826,44.8242322 69.6811559,45.0167191 70.141954,45.2115824" id="Fill-26" stroke-width="2"></path>
                    <path d="M150.369349,138.56501 C154.573815,142.315237 157.008181,144.486729 161.227874,148.248693 C164.65007,142.240897 167.853383,136.620449 171.056695,131 C171.703829,131.115422 172.352866,131.228887 173,131.344309 C171.692409,138.027028 171.258449,145.087313 168.740337,151.2477 C167.297609,154.782734 161.783648,159.593274 159.337863,158.93987 C155.765303,157.987152 152.809424,152.937943 150.573006,149.039038 C149.415778,147.022093 150.369349,143.721816 150.369349,138.56501" id="Fill-74"></path>
                    <path d="M173.363513,97 C177.236303,100.145231 180.764334,103.890278 185.048919,106.319907 C197.239972,113.232963 202.871032,123.519028 200.448144,138 C198.643907,135.718426 196.807108,134.421991 196.492995,132.833241 C194.401458,122.203611 187.730376,115.305741 179.18419,109.144352 C175.499102,106.488843 173.67188,101.305 171,97.269537 C171.787199,97.1803241 172.576314,97.089213 173.363513,97" id="Fill-84"></path>
                    <path d="M188.395948,55 C177.471489,47.1049118 177.376223,36.0453028 187.128329,23 C191.448341,33.3118741 194.891519,43.434907 188.395948,55" id="Fill-88"></path>
                    <path d="M228.351696,90.9916539 C230.905552,94.0704845 232.833749,96.1811787 234.504,98.5035302 C235.286987,99.5912139 236.309627,101.531406 235.910816,102.293765 C235.330893,103.399086 233.620395,104.157525 232.284926,104.408379 C229.032237,105.019833 225.664294,104.978677 222.439045,105.692041 C214.611003,107.426456 211.05829,101.786179 214.060351,90 C215.106773,93.5080247 215.79646,95.8244969 216.866665,99.4148327 C221.196877,96.2380126 225.014854,93.439432 228.351696,90.9916539" id="Fill-116"></path>
                    <path d="M110.003031,143.094027 C119.789334,144.671271 125.305217,139.626999 128.452709,130 C130.491903,141.395038 126.651269,150.847596 119.946617,151.817927 C114.280767,152.639257 109.867694,150.843961 110.003031,143.094027" id="Fill-130"></path>
                    <path d="M262.700859,83 C264.557671,87.2804496 267.097718,91.4208587 267.964831,95.9021559 C268.354221,97.9198452 265.412165,100.613783 263.9826,103 C261.602996,101.179473 257.545051,99.6390271 257.198927,97.4757693 C256.50127,93.1252994 257.824474,88.4376267 258.314817,83.8881518 C259.776831,83.591487 261.238845,83.2966648 262.700859,83" id="Fill-138"></path>
                    <path d="M290.981053,86.7834459 C298.918574,93.9781072 299.104892,93.9009189 308.87137,79 C313.388628,84.9632397 309.782046,90.0468926 306.660272,94.1629999 C305.095582,96.2255413 299.620118,97.6867325 297.23601,96.6671298 C293.851869,95.2185041 291.686399,91.2298471 289,88.3254155 L290.981053,86.7834459 Z" id="Fill-144"></path>
                    <path d="M129,10 C125.00757,13.216243 121.970545,15.6641719 119.327695,17.791811 C119.46284,19.3551301 119.35585,20.0376523 119.594232,20.5543102 C120.761741,23.0937505 122.023101,25.5893415 123.250675,28.1020909 C121.373651,28.7541094 118.621934,30.5252355 117.784781,29.8484327 C115.415976,27.9343201 112.607948,25.2194831 112.170602,22.4607969 C110.952413,14.7757491 116.226851,10.9341785 129,10" id="Fill-150"></path>
                    <path d="M171,2.28364042 C169.214904,4.53750233 167.429809,6.79136423 166.837621,7.54141076 C168.2558,11.8872138 169.173946,14.7050065 170.093799,17.5227992 C167.622654,18.3491532 165.149801,19.1755072 162.676949,20 C162.122307,16.6834171 160.267241,12.7247348 161.315089,10.1991439 C162.938058,6.28699051 166.542381,3.35008375 169.305354,0 C169.870236,0.761213475 170.435118,1.52242695 171,2.28364042" id="Fill-180"></path>
                    <path d="M290,18.4061347 C293.49502,16.810506 297.231989,13.5717032 300.424573,14.0471587 C304.150201,14.5986871 308.458016,17.7271842 310.497566,21.0059254 C311.930354,23.30713 309.989096,27.7326698 308.541186,31 C302.140895,15.7017438 301.679681,15.422176 291.461141,21.1010165 C290.973464,20.2033565 290.487677,19.3037947 290,18.4061347" id="Fill-184"></path>
                    <path d="M79.0239329,131 C85.7730358,131.30049 91.3604543,131.548971 98,131.845608 C96.668313,137.358436 93.04348,140.561732 87.2312803,139.918376 C81.9555332,139.334733 78.6858167,136.062094 79.0239329,131" id="Fill-190"></path>
                    <path d="M135.566402,110 C137.218644,118.209529 139.706417,123.905135 150,116.503948 C149.666917,118.403862 149.335716,120.301708 149.004515,122.201622 C145.180646,123.15468 140.739539,125.935293 137.662755,124.680399 C131.467786,122.149938 132.173471,116.15663 135.566402,110" id="Fill-206"></path>
                </g>
                <g id="SocialES" transform="translate(197.000000, 497.000000)" stroke="#FFFFFF">
                    <g id="Fill-39" transform="translate(15.000000, 0.000000)" stroke-width="2">
                        <path d="M5.49295775,28.0949395 C14.8630025,29.4427543 24.4167156,30.814267 33.9704287,32.1887419 C34.699177,30.7342868 35.4279254,29.2798316 36.1566737,27.8253765 L21.7298264,9.05668468 L24.4641139,6.4084507 C29.0647081,12.4454763 35.0724384,17.9433759 37.6615687,24.7446569 C38.9353971,28.0830905 33.8726697,33.835742 31.1235703,39.6683736 C53.9221364,46.3659766 85.513081,29.8989378 103.823624,58.2237849 C112.059073,70.9643378 117.693541,85.3903999 124.507042,99.0522065 C122.85699,100.086025 121.2099,101.122806 119.562811,102.156624 C116.56487,98.4182892 113.149233,94.9376685 110.660824,90.8853373 C105.532924,82.5229609 101.278929,73.6096096 95.9732859,65.3686846 C87.6815517,52.4829824 74.7714489,49.0260595 60.2646169,48.6735541 C39.4212293,48.1640504 19.6680018,44.4049801 5.49295775,28.0949395" id="Fill-38" transform="translate(65.000000, 54.282537) rotate(-6.000000) translate(-65.000000, -54.282537) "></path>
                    </g>
                    <path d="M6.16706217,43 C10.376305,48.2785883 14.5855478,53.5571767 18.7947906,58.835765 C19.421647,58.4854372 20.0460547,58.1351094 20.6729111,57.7847815 C19.3016627,53.5311388 17.932863,49.2774961 16.4685656,44.7327025 C17.6292294,44.8297528 18.6184872,44.7090317 18.7213308,44.9481068 C21.2777296,50.813731 23.8953448,56.6675198 25.9913959,62.6893712 C26.2117751,63.3166474 22.1274139,66.17608 21.9168293,65.9914478 C17.0513462,61.7425393 12.1932091,57.4297195 7.91050654,52.6458509 C5.96872089,50.4799727 5.26350744,47.2773135 4,44.5433361 C4.72235406,44.0296798 5.44470812,43.5136564 6.16706217,43" id="Fill-176" transform="translate(15.000000, 54.500000) rotate(71.000000) translate(-15.000000, -54.500000) "></path>
                </g>
                <g id="HigherCS" transform="translate(294.000000, 347.000000)" stroke="#FFFFFF">
                    <path d="M58.0355705,91.0770622 C55.1931588,84.225367 52.8236258,77.1281463 49.4081058,70.5705701 C42.1658671,56.6728053 34.2914102,43.1049653 26.9078218,29.2762545 C25.7102053,27.033277 25.7153453,24.1534678 26.8178721,21 C45.4605974,53.1740673 75.8199183,80.2688263 70.3509743,119.289474 C66.9534443,111.578439 62.3737178,101.187085 57.7965612,90.795731 C57.7965612,90.7931734 58.0355705,91.0770622 58.0355705,91.0770622" id="Fill-54" stroke-width="2"></path>
                    <path d="M5.93311496,0 C8.77970932,1.53024601 13.4222237,2.52925453 14.113714,4.69416478 C15.7679152,9.88430792 16.5302649,15.7819842 15.5944318,21.0543986 C15.259682,22.9395864 9.09979847,24.3805093 5.41510809,24.9775638 C3.72425548,25.252585 -0.0483983297,22.9278334 0.000470242974,21.9123706 C0.103094245,19.827381 1.65711486,16.7034226 3.46769547,15.9817859 C13.600594,11.9410902 12.1614145,7.31509304 5.93311496,0" id="Fill-160"></path>
                </g>
                <g id="Goverment" fill="#FFFFFF">
                    <path d="M169.915548,394.562336 C165.772646,397.849373 162.857868,400.160062 159.943091,402.472786 C160.213764,403.017913 160.486456,403.565074 160.757128,404.110202 C164.041555,403.752208 167.323961,403.392179 171.5921,402.924346 C169.48934,410.971077 163.615347,413.359061 158.660428,411.29856 C149.291934,407.399272 155.638594,400.916732 158.57357,395.508173 C145.136912,393.545308 144.967237,393.801599 147.128576,411.701304 C136.41884,401.927658 136.06737,392.949329 146.175163,383.582495 C127.270521,365.286149 104.79866,354.395805 78.0667398,349.306594 C81.4259043,354.853468 84.1144478,359.29585 88.293709,366.195372 C80.312916,359.415859 74.6631366,354.617518 67.9953063,348.952668 C61.9637578,364.368789 77.3759195,369.390876 77.7475889,377.720341 C70.6151718,378.418023 63.6524298,377.740682 57.8309553,380.018826 C50.7288373,382.795314 44.9578614,388.230316 51.0641478,398.278559 C49.8077435,398.612145 48.5533592,398.947764 47.2989748,399.281349 C45.3275109,396.087879 42.0713635,393.059168 41.6431357,389.668394 C40.5947855,381.397917 49.0583448,375.049624 63.9311818,371.36798 C62.6808374,362.641874 61.4365528,353.946279 59.9276557,343.407828 C38.67988,336.237775 13.9477033,328.54497 0,304 C18.8056652,327.475056 46.0082316,333.764362 73.069402,340.112655 C98.878208,346.168043 123.133678,355.532844 143.720933,372.612823 C155.329543,360.772575 160.67835,359.277543 173,364.757294 C168.121839,366.138419 163.980956,367.314104 158.341277,368.910839 C162.365002,371.671055 165.089905,373.540353 169.198468,376.357523 C164.730355,379.08316 161.514607,381.046025 157.844371,383.283488 C161.811538,386.991575 165.62721,390.557277 169.915548,394.562336" id="Fill-14"></path>
                    <path d="M100.86007,268.156296 C96.2901534,257.318785 88.6675083,248.087799 87.384832,235.683976 C86.0980773,223.23994 82.5702078,211.021099 80.0252476,198.703734 C81.0183531,198.468486 82.0114585,198.235248 83.004564,198 L90.8963876,229.734404 C91.6876092,229.826895 92.4808701,229.919385 93.2741309,230.011876 C95.7110118,220.099273 98.149932,210.18466 100.588852,200.272057 C101.15168,200.344441 101.712468,200.418836 102.275296,200.49122 C101.17819,208.449452 101.590115,217.002842 98.6556613,224.239243 C93.3312294,237.368918 98.4578559,247.947052 103.394834,259.401839 C109.198485,272.869306 118.052826,282.293316 132.647601,285.976864 C134.246359,281.810755 134.980482,276.938902 137.702855,273.687649 C140.115265,270.80837 144.74228,269.73065 149.903574,267.080587 C144.907458,275.406772 141.063507,281.808745 137.260342,288.146376 C147.362692,294.896196 156.180326,300.79148 165,306.684753 C164.781802,307.816761 164.563605,308.946757 164.345407,310.078764 C161.282482,310.301949 157.673043,311.68529 155.236162,310.571378 C128.777141,298.479209 102.110118,286.600171 81.4078462,265.351411 C69.9392115,253.580949 62.1656632,239.89834 60,223.085118 C68.3690037,242.667033 81.7116916,257.775207 100.86007,268.156296" id="Fill-16"></path>
                    <path d="M281.186649,83.2905166 C279.038897,65.6050658 276.891146,47.9216336 274.743395,30.2361828 C275.077715,30.1574552 275.412034,30.0787276 275.744328,30 C277.118078,34.3946155 278.647845,38.7488579 279.83316,43.1939398 C282.987923,55.0293236 286.947079,56.3475064 296.52686,48.2042456 C298.72324,58.6003272 289.327841,57.7484541 282.224053,62.540745 C284.542003,78.772763 287.01597,96.1433034 289.51425,113.511825 C289.60948,114.16587 290.122104,114.791653 290.116025,115.425512 C289.814125,144.996813 304.951718,169.602218 315.779626,195.644908 C318.810792,202.928221 319.977872,210.980642 322,218.681817 C320.646512,219.121884 319.290997,219.559933 317.935482,220 C316.344931,216.311914 314.590258,212.684388 313.19422,208.923631 C308.288837,195.719598 303.774507,182.360128 298.47402,169.317588 C297.274521,166.364293 293.511904,164.444551 290.215308,161.386286 C287.285451,156.882663 284.021275,150.970018 279.910155,145.715454 C269.979845,133.034253 259.579461,120.718429 249.551894,108.111919 C247.586499,105.641083 246.437655,102.526296 246,98.902807 C256.856274,115.607191 268.006345,131.831134 286.661388,143.184059 C287.129436,123.409299 281.833,106.521217 273.67965,90.1761544 C265.824149,74.4265953 258.452905,58.436816 250.870938,42.5540256 C251.697619,42.1099212 252.526327,41.6658167 253.355035,41.2217122 C261.629955,55.433055 269.906902,69.6443977 278.183849,83.8557404 C279.184782,83.6680054 280.185715,83.4782516 281.186649,83.2905166" id="Fill-18"></path>
                    <path d="M509.50624,32.3130584 C509.467667,32.3757695 510.444171,28.8599001 512.344394,28.26111 C514.675009,27.5267828 518.449063,28.4128304 520.432522,30.0251135 C528.624189,36.6704708 526.413352,50.5195167 517.226911,56.8412037 C514.1492,58.9592217 512.529138,63.2721293 510.42793,66.6929206 C499.327054,84.7739566 494.345059,100.637851 497.179153,117.161223 C507.039605,98.7868607 516.902087,80.4165443 528.165374,59.4305666 C523.433088,73.2775897 519.577828,84.5554791 515.227211,97.2838164 L536.945785,97.2838164 C533.232636,93.1003769 531.267448,90.8872808 529.30429,88.6741846 C529.795587,88.0106603 530.288914,87.349159 530.780211,86.6876577 C534.186807,89.1172084 537.593404,91.5487821 541,93.9783328 C538.20854,97.3687799 536.003794,102.666859 532.501781,103.732949 C526.11695,105.679017 518.960662,105.114616 509.965055,105.74982 C499.26615,116.898241 491.119147,131.008246 496.842147,150.394078 C499.473225,159.299059 500.695377,169.09818 500.094452,178.330877 C499.526009,187.03761 496.249343,195.736251 493.059973,204.018167 C491.941359,206.923109 487.546078,208.57585 483.875562,210 C494.856658,200.611536 493.713682,188.172479 492.065198,175.173068 C489.17223,181.225704 486.281293,187.27834 483.388325,193.330976 C482.25753,192.815126 481.128765,192.299277 480,191.78545 C482.39152,186.455003 484.076547,180.637029 487.357274,175.921556 C491.29171,170.269462 492.314907,165.023979 491.257197,158.162167 C486.214298,125.493712 487.507505,93.6425248 506.586881,64.8520453 C509.739708,60.0940909 512.886445,55.1237278 516.985323,51.2477751 C522.79562,45.7554935 521.32579,40.3056936 517.854228,35.048073 C516.749825,33.3751018 513.073219,33.3912853 509.50624,32.3130584" id="Fill-20"></path>
                    <path d="M694.408364,215.931748 C686.862205,224.429496 679.135359,232.780976 671.954631,241.579386 C670.833974,242.952677 672.115015,246.369654 672.433752,248.821669 C673.207249,254.806457 674.305573,260.856252 665.516947,266 C665.139334,260.015213 664.853079,255.47685 664.483588,249.636299 L646.471877,249.636299 C645.980574,248.628677 645.491302,247.621055 645,246.615465 C663.616703,245.022772 672.851968,232.547354 681.305616,217.973402 C678.205539,217.782441 675.462773,217.615858 672.717977,217.447244 C672.350515,216.492441 671.981023,215.537638 671.611531,214.584866 C675.943924,212.632598 680.412339,210.934268 684.570137,208.661024 C689.071035,206.202913 694.70477,204.183606 697.37242,200.281102 C709.703701,182.241417 721.194491,163.622756 732.941082,145.182866 C734.833205,142.212819 736.499979,139.096504 740,137 C728.840129,159.076268 717.680258,181.150504 706.508206,203.249118 C720.010899,202.022094 727.792559,190.129717 738.239838,182.527858 C730.496752,195.807748 719.048596,204.32378 704.784588,209.607701 C700.929286,211.035843 697.640403,213.991669 694.091657,216.24663 L694.408364,215.931748 Z" id="Fill-30"></path>
                    <path d="M579.591585,157 C577.630086,143.430608 580.489936,131.731683 589.015223,121.955239 C591.298279,119.336584 595.761896,118.6004 599.222656,117 C600.191347,120.660915 602.590968,124.635909 601.865455,127.926732 C599.409561,139.057514 595.416222,149.586147 582.883528,153.657164 C581.727931,154.033258 580.954184,155.569642 579.591585,157" id="Fill-46"></path>
                    <path d="M393.063377,65 C391.642105,83.1781593 402.790145,92.2950343 416.75399,100.141559 C421.420946,82.6922554 399.595882,84.4011547 396.930225,71.1767446 C408.382676,80.4830397 432.58544,78.2058799 420.917022,103.43994 C424.230581,105.20443 427.116319,106.740381 430,108.276331 C408.337426,113.812753 386.938126,86.4435982 393.063377,65" id="Fill-48"></path>
                    <path d="M709,271.783981 C711.726296,272.263233 714.666772,272.251049 717.128845,273.343581 C720.445638,274.817891 723.175937,277.855862 726.556784,278.928088 C731.342814,280.447074 736.491149,280.780113 741.485354,281.620835 C741.473344,276.641486 741.613462,271.654014 741.389274,266.682788 C741.255161,263.691523 740.552569,260.724627 739.691844,255 C747.484406,261.711562 747.692581,274.358946 758.741885,269.83448 C761.534237,268.691179 762.793297,263.687462 764.390642,261.057667 C768.852399,269.952263 763.80615,275.28902 752.112303,275.601753 C745.278549,281.375117 741.223134,287.312971 736.022755,288.641068 C726.853033,290.980468 713.960177,281.496961 709.326275,271.452972 C709.312263,271.469218 709,271.783981 709,271.783981" id="Fill-58"></path>
                    <path d="M222.836699,255.809914 C218.121107,256.306088 214.463063,257.205654 210.885574,256.957568 C203.904102,256.471479 201.06194,250.75338 204.387434,244.69643 C209.908581,234.635803 223.367539,228.982247 237,231.664812 C230.305635,238.750414 215.840768,240.878314 222.836699,255.809914" id="Fill-60"></path>
                    <path d="M442,193.302035 C437.273425,197.868065 429.313301,201.322438 435.89308,209.983074 C436.011797,210.139529 431.935151,215.201688 430.146337,214.993767 C425.649149,214.472935 418.85608,213.359219 417.59244,210.413326 C416.045086,206.808674 417.693049,198.790329 420.632822,196.785228 C426.216579,192.980889 433.701832,192.097739 440.398317,190 C440.93154,191.101364 441.466776,192.20067 442,193.302035" id="Fill-66"></path>
                    <path d="M612,179.083472 C624.064115,177.968268 636.983926,188.207685 637,199.015146 C637.004013,202.164451 634.111518,207.840717 632.261526,207.970198 C627.772133,208.285546 623.116019,206.021722 618.526192,204.795832 C619.387915,201.882517 619.624938,198.51393 621.219828,196.128979 C628.903018,184.651142 618.100353,183.362601 612,179.083472" id="Fill-68"></path>
                    <path d="M338,140.807368 C330.020166,143.924145 318.933949,144.905971 314.847477,150.79902 C310.846139,156.570906 313.975364,167.345931 313.975364,175 C306.417051,170.397949 302.478007,157.682251 306.772125,147.586149 C310.991491,137.669701 321.500453,135.51386 338,140.807368" id="Fill-72"></path>
                    <path d="M275,220.577332 C277.238134,212.431543 278.899099,204.072353 282.07353,196.270036 C282.98845,194.022221 288.264204,193.379988 291.539105,192 C292.759711,194.898178 295.382625,197.999594 294.952954,200.653885 C293.381771,210.344286 287.060699,217.020663 278.84352,222 C277.560921,221.526455 276.280461,221.050877 275,220.577332" id="Fill-76"></path>
                    <path d="M182,228 C172.349773,215.902749 166.809373,213.480402 153.921967,216.821213 C155.473115,220.03377 156.991565,223.178062 158.70212,226.723666 C149.687475,226.252022 142.687892,220.435081 144.208386,214.614003 C146.376723,206.306451 153.0391,207.851705 159.208951,208.681219 C170.955987,210.259571 179.210385,215.91516 182,228" id="Fill-78"></path>
                    <path d="M131.359971,318.542518 C128.266848,317.87201 125.062508,316.46948 122.141458,316.902132 C121.033474,317.068221 119.579245,321.685907 120.089169,323.873771 C120.731296,326.639871 123.217966,328.997926 124.90932,331.530271 C120.594897,332.046993 115.953114,333.709933 112.08776,332.658036 C109.680832,332.001882 106.331698,326.42252 107.11652,324.484815 C108.862435,320.1706 112.257735,314.814741 116.240603,313.49013 C120.779561,311.976874 126.686712,314.38619 132,315.089506 C131.785958,316.239826 131.574014,317.392197 131.359971,318.542518" id="Fill-96"></path>
                    <path d="M223,27.8157313 C234.369059,22.5384144 239.986902,24.2877781 245.372352,36.4080717 C238.430881,33.3790421 233.19497,31.093179 227.498316,28.6089989 C227.554899,42.4035046 228.945214,43.501554 249.589776,47.338464 C249.727191,48.2486342 249.862585,49.1588043 250,50.066887 C245.839159,50.3695812 241.58536,51.3883038 237.531622,50.8413666 C224.65302,49.1045281 224.964224,37.8359534 223,27.8157313" id="Fill-98"></path>
                    <path d="M61.7678205,409.145568 C63.4403266,409.145568 64.3624003,409.208667 65.2705033,409.133355 C67.9948121,408.909457 70.7131334,408.630602 73.4314548,408.372102 C73.4973172,409.955673 74.1958579,412.471474 73.5132839,412.953873 C70.9905539,414.734882 68.0407162,416.918907 65.202645,416.994218 C58.0915004,417.185549 55.4011207,412.611919 56.1096406,405.726032 C56.9977852,397.07949 65.003062,389.475093 77,387 C69.9108095,393.73323 61.1231672,398.095174 61.7678205,409.145568" id="Fill-100"></path>
                    <path d="M473.951787,184 C469.577651,175.360446 469.221523,163.263006 455.077008,160.746491 C457.702697,165.339802 459.483336,168.461189 461.265988,171.580512 C460.205652,172.464079 459.147329,173.347647 458.086993,174.231214 C455.658483,171.190339 451.97447,168.463254 451.161613,165.021883 C450.386985,161.733278 452.600209,157.703551 453.501595,154 C457.392846,155.110652 463.147228,154.962015 464.823243,157.571429 C469.750685,165.24071 473.058449,174.008258 477,182.344344 C475.983929,182.897605 474.967858,183.448803 473.951787,184" id="Fill-102"></path>
                    <path d="M150,252.102746 C144.656397,261.4104 138.728523,261.387659 132.56298,257.672453 C126.92031,254.273567 126.524194,243.491822 131.301351,237.527232 C136.078508,231.560574 142.16879,231.655677 147.57181,236.847041 C144.181058,237.835282 139.5366,238.054431 136.462741,240.463009 C134.185074,242.247217 133.951366,246.876235 132.806591,250.239975 C135.658625,250.860209 138.488873,251.670649 141.370616,252.04279 C143.666107,252.340503 146.024977,252.102746 150,252.102746" id="Fill-106"></path>
                    <path d="M501,227.707247 C518.88686,219.681411 518.88686,219.681411 521.024563,199 C528.501476,204.885886 529.33516,212.08111 526.490946,219.69164 C523.349996,228.091865 514.381333,230.925355 501,227.707247" id="Fill-108"></path>
                    <path d="M252.230152,0 C255.026188,6.18065626 259.317778,12.0388964 259.959891,18.2722748 C260.451636,23.033489 256.320574,28.2692024 253.114073,33 C249.511332,24.9943468 259.626643,15.4759739 248.115346,7.84343124 C246.424719,12.4951456 245.002317,16.4046946 243.69574,20.0019663 C239.96295,12.5133956 242.214409,6.33476711 252.230152,0" id="Fill-112"></path>
                    <path d="M613.004058,160.347726 C607.619755,161.767121 602.235452,163.184497 596.851149,164.603892 C596.567432,163.77406 596.283716,162.944229 596,162.116417 C602.88905,160.252831 609.710849,157.476631 616.702877,157.004173 C619.262628,156.830534 622.223784,162.118436 625,164.914826 C620.601348,168.276551 616.198493,171.638275 611.797739,175 C610.862526,172.831536 608.863903,170.45511 609.267411,168.549123 C609.750779,166.279706 612.293717,164.414101 613.945576,162.370818 C613.630336,161.696454 613.317197,161.02209 613.004058,160.347726" id="Fill-114"></path>
                    <path d="M351.648741,110.640147 C347.748764,115.155315 345.90348,117.292048 344.056122,119.42675 C343.038106,119.150518 342.018016,118.874287 341,118.598055 C341.73604,115.007044 341.431257,110.512186 343.573031,108.135782 C345.024378,106.527139 350.601697,106.718064 353.153995,108.137813 C365.677046,115.106568 370.25501,124.780769 366.972892,134 C362.357608,126.964218 357.414735,119.430812 351.648741,110.640147" id="Fill-118"></path>
                    <path d="M230.455501,88.8769169 C226.343929,88.6817904 223.457576,88.5441749 217.642548,88.2689439 C222.710594,92.5370784 225.512304,95.3879786 228.804947,97.5282077 C231.858471,99.5102816 235.436787,100.732389 241,103.320382 C233.13236,108.917431 226.373554,107.524844 222.202732,103.176605 C218.518611,99.3315869 214.811213,91.7832741 216.362311,87.7924246 C218.785239,81.5565939 225.065808,83.7913053 230.455501,88.8769169" id="Fill-122"></path>
                    <path d="M759.516213,225.222729 C756.81106,223.452128 754.21674,221.471525 751.369966,219.970632 C748.469828,218.442974 745.321342,217.384731 743,214 C749.563794,216.151486 756.392356,217.75738 762.545657,220.755049 C764.633017,221.772115 766.675223,227.034507 765.786504,229.041874 C764.5776,231.776012 760.721012,234.464855 757.662834,234.928094 C754.419934,235.418097 750.78296,233.278964 747.318394,232.288663 C748.373362,230.643651 749.116356,228.033044 750.548979,227.569805 C752.979101,226.783329 755.844347,227.353627 758.524871,227.353627 C758.855318,226.643327 759.185766,225.933028 759.516213,225.222729" id="Fill-128"></path>
                    <path d="M54.8371321,194 C50.6502637,213.057209 67.9193059,204.46454 73,210.777521 C67.8272643,217.131283 56.9970407,217.918367 51.5952238,211.86231 C46.222042,205.838878 46.5329379,199.984689 54.8371321,194" id="Fill-132"></path>
                    <path d="M105.126745,193 C115.083146,194.382461 122.907528,195.534177 124.953679,204.298455 C125.416524,206.280852 122.28342,211.110435 121.225788,210.998072 C115.411954,210.384091 109.727967,208.640465 104,207.284089 C104.270167,205.963829 104.540335,204.645575 104.810502,203.327322 L120.201666,203.327322 C114.092532,199.141817 110.433753,196.635731 105.126745,193" id="Fill-134"></path>
                    <path d="M216,214.120071 C229.312579,201.102319 242.311896,207.016303 255,209.617799 C246.013702,210.398658 237.027404,211.181573 226.669309,212.083671 C228.941989,216.536626 230.430491,219.458685 231.921042,222.380744 C231.403034,222.921181 230.88298,223.461618 230.362925,224 C225.993648,220.99369 221.622323,217.987381 216,214.120071" id="Fill-136"></path>
                    <path d="M160,330.196542 C155.141907,328.969979 149.637893,327.582292 144.133878,326.19259 C143.729913,326.953905 143.325949,327.71522 142.924089,328.47452 C144.931287,331.090785 146.938485,333.707049 148.945683,336.3213 C148.099882,337.213528 147.254082,338.107771 146.410386,339 C142.536956,335.624435 138.343722,332.496599 135.082551,328.645716 C134.493436,327.950865 137.178116,323.123162 139.298929,322.20475 C147.037372,318.85134 155.850949,322.812997 160,330.196542" id="Fill-142"></path>
                    <path d="M739.889654,197 L739.889654,175.425825 C735.959857,176.542722 732.03006,177.659619 728.102285,178.776516 C727.734182,178.213961 727.368102,177.649353 727,177.086799 C732.131187,174.93513 737.128886,172.095666 742.470417,171.021885 C744.23205,170.668749 748.548153,174.672331 748.823218,177.029311 C749.694934,184.517036 747.4398,191.275904 739.889654,197" id="Fill-148"></path>
                    <path d="M265.7306,181.054973 C261.495138,179.323562 257.257613,177.592151 253.022151,175.86074 C253.490694,182.128076 253.959237,188.397476 254.42778,194.664812 C253.746638,195.110562 253.067561,195.554249 252.388483,196 C250.148973,190.064913 247.275794,184.259837 246.027035,178.122512 C245.605965,176.054724 250.231535,170.72429 250.993175,171.011139 C256.551703,173.107817 261.711865,176.256963 267,179.073859 C266.576867,179.73423 266.153733,180.394601 265.7306,181.054973" id="Fill-164"></path>
                    <path d="M535,134.791895 C538.266491,134.612117 543.963859,133.351601 544.390431,134.434405 C546.501866,139.782298 548.266589,145.812111 547.966625,151.472034 C547.826382,154.131516 542.769846,156.499632 539.939667,159 C539.289095,156.952178 538.071709,154.860962 538.200265,152.868933 C538.27623,151.711738 541.164844,150.969894 541.645955,149.593658 C542.769846,146.37831 544.125528,142.683551 543.508069,139.608719 C543.22174,138.174624 538.564507,137.730344 535.890153,136.837651 C535.592137,136.155732 535.296068,135.473814 535,134.791895" id="Fill-166"></path>
                    <path d="M269,20.6462522 C272.557715,12.6381978 277.794374,8.40783811 285.768847,12.7163854 C291.716225,15.9303065 292.64737,21.0824566 288.280054,28 C282.825028,22.1544495 278.822342,13.3295406 269,20.6462522" id="Fill-174"></path>
                    <path d="M84.8892792,179.640302 C83.117044,182.094208 81.3448087,184.546093 79.5725734,187 C76.8468799,178.079827 89.3530032,171.983467 79.0274347,162.363911 C76.7549545,166.428825 74.9356877,169.679139 73.1164209,172.929454 C72.4109472,172.608061 71.7054736,172.286668 71,171.965275 C73.1035941,168.06611 74.6321203,163.685867 77.6079363,160.518427 C78.7110405,159.342008 85.4002131,160.385019 85.7508122,161.492713 C87.0505939,165.581884 86.8923967,170.11777 86.9992867,174.491949 C87.0292159,175.747201 86.1099624,177.022667 85.6268198,178.288025 C85.3531816,178.724635 85.1073347,179.175394 84.8892792,179.640302" id="Fill-178"></path>
                    <path d="M670,186.245495 C665.346266,188.927637 660.692532,191.609779 655.51838,194.593214 C658.088442,200.027027 660.322235,204.746585 662.554025,209.466144 C661.427121,209.978131 660.300217,210.490119 659.173313,211 C656.913499,204.837184 651.901478,197.894798 653.216533,192.739102 C654.389474,188.133319 662.548021,185.501744 667.624094,182 C668.41673,183.413761 669.207364,184.829628 670,186.245495" id="Fill-182"></path>
                    <path d="M426,148.557683 C426.612855,146.01864 427.459178,142.508312 428.305501,139 C431.963868,140.005542 436.693688,139.993451 439.013781,142.272544 C442.117661,145.321411 443.353793,150.149622 444,155 C441.944644,151.699244 440.548002,147.497733 437.567111,145.456423 C435.947423,144.348111 431.63868,146.90932 426,148.557683" id="Fill-198"></path>
                    <path d="M84,179.472299 C84.2143758,178.988166 84.456074,178.518767 84.7250946,178.064102 C89.6284153,176.369635 94.4308533,174.184719 99.4686843,173.163829 C102.455233,172.559714 105.809584,173.791097 109,174.195244 L107.169399,184 C106.223623,183.884229 105.277848,183.768458 104.332072,183.652687 C104.06095,181.705628 103.789828,179.760674 103.478773,177.518926 C96.9907524,178.169348 90.4943253,178.819771 84,179.472299" id="Fill-202"></path>
                    <path d="M525,78.4628116 C528.64315,77.408686 532.288414,76.3545604 535.931563,75.3004349 C535.487535,74.7228871 535.041391,74.1453394 534.595248,73.5677917 C532.290528,73.2870954 529.983693,73.0084185 527.490789,72.7055089 C527.746635,72.0895926 527.867157,71.3202021 528.11243,71.2818335 C531.764037,70.7042858 535.449475,69.8601776 539.082052,70.01971 C539.819986,70.0520203 541.598215,75.0439714 540.796849,75.8577886 C537.709792,78.987855 533.768509,81.3505503 530.148618,84 L525,78.4628116 Z" id="Fill-204"></path>
                    <path d="M491.819666,45 C493.980326,51.0187305 496.593858,58.2986472 499,65 C489.30348,64.2653486 486.135499,55.314256 491.819666,45" id="Fill-208"></path>
                </g>
            </g>
        </g>
    </g>
</svg>
